<svg id="Camada_1" data-name="Camada 1" xmlns="http://www.w3.org/2000/svg" viewBox="0 0 1920 1241.98"><defs><style>.cls-1,.cls-15,.cls-17,.cls-20,.cls-3,.cls-7,.cls-8{fill:none;}.cls-1{stroke:#073c29;stroke-width:0.75px;}.cls-1,.cls-17,.cls-20,.cls-7,.cls-8{stroke-miterlimit:10;}.cls-12,.cls-13,.cls-2{fill:#073c29;}.cls-3,.cls-7{stroke:#ff8c00;}.cls-20,.cls-3{stroke-linecap:round;}.cls-3{stroke-linejoin:round;stroke-width:3.17px;stroke-dasharray:2.39;}.cls-4{fill:#d67307;}.cls-5{fill:#5b8a70;}.cls-6{fill:#ff8c00;}.cls-7,.cls-8{stroke-width:0.66px;}.cls-8{stroke:#5b8a70;}.cls-9{fill:#332727;}.cls-10{fill:#3b84db;}.cls-11{fill:#bfddce;}.cls-12{font-size:28.84px;}.cls-12,.cls-13{font-family:FjallaOne-Regular, Fjalla One;}.cls-13{font-size:35.31px;}.cls-14{fill:#356958;}.cls-16{fill:#f4d0a8;}.cls-17{stroke:#d67307;stroke-width:0.24px;}.cls-18{fill:#7c7c7c;}.cls-19{fill:#ea6557;}.cls-20{stroke:#fff;stroke-width:3.55px;stroke-dasharray:12.69;}</style></defs><line class="cls-1" x1="960" y1="62.92" x2="960" y2="1199.41"/><line class="cls-1" x1="1845.25" y1="631.16" x2="91.2" y2="631.16"/><ellipse class="cls-2" cx="555.01" cy="461.74" rx="150.32" ry="13.98"/><path class="cls-3" d="M546.21,228h24.2a33.79,33.79,0,0,1,33.79,33.79V383.32"/><polygon class="cls-2" points="471.18 382.84 504.49 346.36 559.02 372.46 556.02 402.51 471.18 382.84"/><polygon class="cls-4" points="557.38 458.74 477.79 458.74 477.79 387.38 511.11 352.47 557.38 387.38 557.38 458.74"/><polygon class="cls-2" points="671.12 381.92 554.34 381.92 504.49 339.89 627.33 339.89 671.12 381.92"/><polyline class="cls-5" points="554.34 390.53 504.49 350.52 471.18 385.43 471.93 375.56 504.49 339.89 554.34 381.92 671.12 381.92"/><polygon class="cls-2" points="508.61 372.46 468.44 372.46 436.75 405.56 508.61 405.56 508.61 372.46"/><rect class="cls-6" x="557.33" y="387.38" width="101.81" height="71.36"/><rect class="cls-6" x="486.4" y="405.56" width="56.62" height="53.17"/><polygon class="cls-4" points="486.4 458.74 443.73 458.74 443.73 405.56 465.07 384.44 486.4 405.56 486.4 458.74"/><polygon class="cls-2" points="552.09 398.29 486.4 398.29 460.95 372.46 520.28 372.46 552.09 398.29"/><rect class="cls-2" x="595.89" y="416.25" width="22.46" height="42.48"/><rect class="cls-2" x="492.25" y="418.6" width="44.35" height="40.14"/><rect class="cls-5" x="458.21" y="418.6" width="13.72" height="25.73"/><rect class="cls-2" x="458.21" y="418.6" width="13.72" height="10.94"/><polygon class="cls-5" points="436.75 405.56 436.75 398.29 460.95 372.46 486.4 398.29 552.09 398.29 552.09 405.56 486.4 405.56 460.95 380.32 436.75 405.56"/><rect class="cls-5" x="554.34" y="381.92" width="116.78" height="8.61"/><rect class="cls-5" x="534.31" y="418.6" width="2.29" height="40.14"/><rect class="cls-5" x="616.05" y="416.25" width="2.29" height="42.48"/><rect class="cls-5" x="570.94" y="418.6" width="13.72" height="25.73"/><rect class="cls-4" x="565.04" y="418.6" width="5.9" height="25.73"/><rect class="cls-4" x="584.66" y="418.6" width="5.9" height="25.73"/><rect class="cls-2" x="583.41" y="418.6" width="1.25" height="25.73"/><line class="cls-7" x1="565.04" y1="421.21" x2="570.94" y2="421.21"/><line class="cls-7" x1="565.04" y1="423.67" x2="570.94" y2="423.67"/><line class="cls-7" x1="565.04" y1="426.12" x2="570.94" y2="426.12"/><line class="cls-7" x1="565.04" y1="428.58" x2="570.94" y2="428.58"/><line class="cls-7" x1="565.04" y1="431.04" x2="570.94" y2="431.04"/><line class="cls-7" x1="565.04" y1="433.5" x2="570.94" y2="433.5"/><line class="cls-7" x1="565.04" y1="435.95" x2="570.94" y2="435.95"/><line class="cls-7" x1="565.04" y1="438.41" x2="570.94" y2="438.41"/><line class="cls-7" x1="565.04" y1="440.94" x2="570.94" y2="440.94"/><line class="cls-7" x1="584.66" y1="421.21" x2="590.56" y2="421.21"/><line class="cls-7" x1="584.66" y1="423.67" x2="590.56" y2="423.67"/><line class="cls-7" x1="584.66" y1="426.12" x2="590.56" y2="426.12"/><line class="cls-7" x1="584.66" y1="428.58" x2="590.56" y2="428.58"/><line class="cls-7" x1="584.66" y1="431.04" x2="590.56" y2="431.04"/><line class="cls-7" x1="584.66" y1="433.5" x2="590.56" y2="433.5"/><line class="cls-7" x1="584.66" y1="435.95" x2="590.56" y2="435.95"/><line class="cls-7" x1="584.66" y1="438.41" x2="590.56" y2="438.41"/><line class="cls-7" x1="584.66" y1="440.94" x2="590.56" y2="440.94"/><rect class="cls-5" x="631.58" y="418.6" width="13.72" height="25.73"/><rect class="cls-4" x="625.67" y="418.6" width="5.9" height="25.73"/><rect class="cls-4" x="645.3" y="418.6" width="5.9" height="25.73"/><rect class="cls-2" x="644.05" y="418.6" width="1.25" height="25.73"/><line class="cls-7" x1="625.67" y1="421.21" x2="631.58" y2="421.21"/><line class="cls-7" x1="625.67" y1="423.67" x2="631.58" y2="423.67"/><line class="cls-7" x1="625.67" y1="426.12" x2="631.58" y2="426.12"/><line class="cls-7" x1="625.67" y1="428.58" x2="631.58" y2="428.58"/><line class="cls-7" x1="625.67" y1="431.04" x2="631.58" y2="431.04"/><line class="cls-7" x1="625.67" y1="433.5" x2="631.58" y2="433.5"/><line class="cls-7" x1="625.67" y1="435.95" x2="631.58" y2="435.95"/><line class="cls-7" x1="625.67" y1="438.41" x2="631.58" y2="438.41"/><line class="cls-7" x1="625.67" y1="440.94" x2="631.58" y2="440.94"/><line class="cls-7" x1="645.3" y1="421.21" x2="651.2" y2="421.21"/><line class="cls-7" x1="645.3" y1="423.67" x2="651.2" y2="423.67"/><line class="cls-7" x1="645.3" y1="426.12" x2="651.2" y2="426.12"/><line class="cls-7" x1="645.3" y1="428.58" x2="651.2" y2="428.58"/><line class="cls-7" x1="645.3" y1="431.04" x2="651.2" y2="431.04"/><line class="cls-7" x1="645.3" y1="433.5" x2="651.2" y2="433.5"/><line class="cls-7" x1="645.3" y1="435.95" x2="651.2" y2="435.95"/><line class="cls-7" x1="645.3" y1="438.41" x2="651.2" y2="438.41"/><line class="cls-7" x1="645.3" y1="440.94" x2="651.2" y2="440.94"/><rect class="cls-2" x="458.21" y="429.54" width="1.34" height="14.79"/><line class="cls-8" x1="458.21" y1="420.38" x2="471.93" y2="420.38"/><line class="cls-8" x1="458.21" y1="422.25" x2="471.93" y2="422.25"/><line class="cls-8" x1="458.21" y1="424.13" x2="471.93" y2="424.13"/><line class="cls-8" x1="458.21" y1="426" x2="471.93" y2="426"/><line class="cls-8" x1="458.21" y1="427.87" x2="471.93" y2="427.87"/><circle class="cls-4" cx="598.73" cy="438.75" r="1.05"/><polygon class="cls-9" points="577.23 418.6 570.94 437.7 570.94 418.6 577.23 418.6"/><polygon class="cls-9" points="570.94 437.7 574.74 444.33 570.94 444.33 570.94 437.7"/><polygon class="cls-9" points="578.37 418.6 584.66 437.7 584.66 418.6 578.37 418.6"/><polygon class="cls-9" points="584.66 437.7 580.86 444.33 584.66 444.33 584.66 437.7"/><polygon class="cls-9" points="637.87 418.6 631.58 437.7 631.58 418.6 637.87 418.6"/><polygon class="cls-9" points="631.58 437.7 635.38 444.33 631.58 444.33 631.58 437.7"/><polygon class="cls-9" points="639 418.6 645.3 437.7 645.3 418.6 639 418.6"/><polygon class="cls-9" points="645.3 437.7 641.5 444.33 645.3 444.33 645.3 437.7"/><rect class="cls-10" x="367.04" y="170.31" width="198.88" height="124.8"/><rect class="cls-11" x="367.04" y="211.97" width="198.88" height="85.05"/><text class="cls-12" transform="translate(423.86 203.25)">À VENDA</text><text class="cls-13" transform="translate(388.77 264.16)">R$ 150.000</text><path class="cls-2" d="M256.89,424.55q15.71-28.92,32.65-57.14c2.85-4.73,6-9.72,11.08-11.92,4.71-2.05,10.27-1.23,14.91,1s8.52,5.69,12.34,9.13l30.33,27.26c3.95,3.55,8.87,7.36,14,6,4.51-1.15,7.38-5.92,11.87-7.12,5.86-1.55,11.28,3.49,15,8.3a130.57,130.57,0,0,1,17.48,30.79c-15,2.9-30.36.15-45.59-.6-13.72-.67-27.46.28-41.16,1.23l-61,4.26c-1.79.12-3.7.22-5.25-.7s-2.43-2.82-3-4.61a27.88,27.88,0,0,1,1.23-19.35"/><path class="cls-5" d="M199.53,389.18c3-5.49,4-11.33,9.71-14,8.09-3.82,17.87.36,24.45,6.44,10.64,9.85,19.14,20.82,30.52,30.09,4.71,3.84,10,7.89,16.1,7.57,9.81-.51,15.19-11.56,23.53-16.76,8.18-5.09,19-4.1,27.69.09s15.66,11.13,22.47,17.95c.76.76,1.59,1.76,1.29,2.8s-1.78,1.48-3,1.61l-55.41,6c-19.37,2.1-38.78,4.21-58.27,4.09C227.35,435,216,435,204.77,434c-4.25-.39-8.42-1.33-12.63-2-4-.63-8.09-.29-12.17-.72a1.35,1.35,0,0,1-.6-.17,1,1,0,0,1-.31-1.09C179.18,429.65,198.3,391.44,199.53,389.18Z"/><ellipse class="cls-2" cx="297.01" cy="431.96" rx="118" ry="10.98"/><circle class="cls-2" cx="250.27" cy="378.92" r="6.26"/><circle class="cls-2" cx="259.44" cy="377.27" r="6.26"/><path class="cls-6" d="M256.46,375.78s-.34,46.67-.45,52.71c0,.21-1.16.42-1.59.42s-1.43,0-1.45-.55c0,0,1-49.31.48-52.58"/><circle class="cls-14" cx="255.73" cy="362.27" r="6.26"/><circle class="cls-14" cx="272.53" cy="386.24" r="6.26"/><circle class="cls-14" cx="263.35" cy="377.78" r="6.26"/><circle class="cls-14" cx="254.7" cy="371.51" r="6.26"/><circle class="cls-14" cx="248.43" cy="362.9" r="6.26"/><circle class="cls-14" cx="245.14" cy="371.51" r="6.26"/><circle class="cls-14" cx="240.29" cy="379.19" r="4.43"/><circle class="cls-14" cx="241.38" cy="366.66" r="4.43"/><circle class="cls-14" cx="260.96" cy="384.4" r="4.43"/><circle class="cls-14" cx="264.18" cy="366.66" r="7.55"/><circle class="cls-14" cx="274.01" cy="375.39" r="7.55"/><circle class="cls-2" cx="220.51" cy="378.92" r="6.26"/><circle class="cls-2" cx="229.68" cy="377.27" r="6.26"/><path class="cls-6" d="M226.7,375.78s-.34,46.67-.44,52.71c0,.21-1.16.42-1.6.42s-1.42,0-1.44-.55c0,0,1-49.31.48-52.58"/><circle class="cls-14" cx="225.97" cy="362.27" r="6.26"/><circle class="cls-14" cx="242.78" cy="386.24" r="6.26"/><circle class="cls-14" cx="233.6" cy="377.78" r="6.26"/><circle class="cls-14" cx="224.94" cy="371.51" r="6.26"/><circle class="cls-14" cx="218.68" cy="362.9" r="6.26"/><circle class="cls-14" cx="215.39" cy="371.51" r="6.26"/><circle class="cls-14" cx="210.54" cy="379.19" r="4.43"/><circle class="cls-14" cx="211.63" cy="366.66" r="4.43"/><circle class="cls-14" cx="231.21" cy="384.4" r="4.43"/><circle class="cls-14" cx="234.43" cy="366.66" r="7.55"/><circle class="cls-14" cx="244.26" cy="375.39" r="7.55"/><circle class="cls-2" cx="280.49" cy="378.24" r="6.26"/><circle class="cls-2" cx="289.66" cy="376.59" r="6.26"/><path class="cls-6" d="M286.68,375.1s-.34,46.67-.44,52.71c0,.21-1.16.42-1.6.42s-1.42,0-1.44-.55c0,0,1-49.32.48-52.58"/><circle class="cls-14" cx="285.95" cy="361.59" r="6.26"/><circle class="cls-14" cx="302.76" cy="385.55" r="6.26"/><circle class="cls-14" cx="293.58" cy="377.1" r="6.26"/><circle class="cls-14" cx="284.92" cy="370.83" r="6.26"/><circle class="cls-14" cx="278.66" cy="362.22" r="6.26"/><circle class="cls-14" cx="275.37" cy="370.83" r="6.26"/><circle class="cls-14" cx="270.52" cy="378.51" r="4.43"/><circle class="cls-14" cx="271.61" cy="365.98" r="4.43"/><circle class="cls-14" cx="291.19" cy="383.72" r="4.43"/><circle class="cls-14" cx="294.41" cy="365.98" r="7.55"/><circle class="cls-14" cx="304.24" cy="374.71" r="7.55"/><circle class="cls-2" cx="249.34" cy="405.84" r="5.5"/><circle class="cls-2" cx="241.3" cy="404.4" r="5.5"/><path class="cls-6" d="M243.83,396.92s.3,26.66.4,32.11c0,.19,1,.38,1.44.38s1.28,0,1.3-.49c0,0-.92-29.06-.43-32"/><circle class="cls-14" cx="244.55" cy="391.23" r="5.5"/><circle class="cls-14" cx="229.8" cy="412.26" r="5.5"/><circle class="cls-14" cx="237.86" cy="404.84" r="5.5"/><circle class="cls-14" cx="245.46" cy="399.34" r="5.5"/><circle class="cls-14" cx="250.96" cy="391.78" r="5.5"/><circle class="cls-14" cx="253.84" cy="399.34" r="5.5"/><circle class="cls-14" cx="258.1" cy="406.08" r="3.89"/><circle class="cls-14" cx="257.14" cy="395.08" r="3.89"/><circle class="cls-14" cx="239.96" cy="410.65" r="3.89"/><circle class="cls-14" cx="237.13" cy="395.08" r="6.63"/><circle class="cls-14" cx="228.5" cy="402.75" r="6.63"/><circle class="cls-2" cx="374.63" cy="405.84" r="5.5"/><circle class="cls-2" cx="366.58" cy="404.4" r="5.5"/><path class="cls-6" d="M369.11,396.92s.31,26.66.4,32.11c0,.19,1,.38,1.44.38s1.29,0,1.3-.49c0,0-.92-29.06-.43-32"/><circle class="cls-14" cx="369.83" cy="391.23" r="5.5"/><circle class="cls-14" cx="355.09" cy="412.26" r="5.5"/><circle class="cls-14" cx="363.15" cy="404.84" r="5.5"/><circle class="cls-14" cx="370.74" cy="399.34" r="5.5"/><circle class="cls-14" cx="376.24" cy="391.78" r="5.5"/><circle class="cls-14" cx="379.12" cy="399.34" r="5.5"/><circle class="cls-14" cx="383.39" cy="406.08" r="3.89"/><circle class="cls-14" cx="382.42" cy="395.08" r="3.89"/><circle class="cls-14" cx="365.24" cy="410.65" r="3.89"/><circle class="cls-14" cx="362.41" cy="395.08" r="6.63"/><circle class="cls-14" cx="353.79" cy="402.75" r="6.63"/><circle class="cls-2" cx="213.36" cy="402.21" r="7.18"/><circle class="cls-2" cx="202.89" cy="400.08" r="7.18"/><path class="cls-6" d="M207,398.46s-.35,28.19-.39,34c0,.2,1.1.43,1.51.44s1.36,0,1.39-.49c0,0-.23-30.73.36-33.83"/><circle class="cls-14" cx="207.55" cy="382.98" r="7.18"/><circle class="cls-14" cx="190.66" cy="383.03" r="7.18"/><circle class="cls-14" cx="198.39" cy="400.55" r="7.18"/><circle class="cls-14" cx="208.48" cy="393.6" r="7.18"/><circle class="cls-14" cx="215.9" cy="383.9" r="7.18"/><circle class="cls-14" cx="219.43" cy="393.86" r="7.18"/><circle class="cls-14" cx="224.79" cy="402.8" r="5.08"/><circle class="cls-14" cx="223.88" cy="388.4" r="5.08"/><circle class="cls-14" cx="198.97" cy="376.31" r="5.08"/><circle class="cls-14" cx="197.74" cy="387.78" r="8.66"/><circle class="cls-14" cx="186.23" cy="397.52" r="8.66"/><path class="cls-15" d="M778,526.18a2.57,2.57,0,0,0,.2-.45h0A2.67,2.67,0,0,1,778,526.18Z"/><path class="cls-15" d="M777.59,526.87a3.55,3.55,0,0,1-.34.33A3.55,3.55,0,0,0,777.59,526.87Z"/><path class="cls-15" d="M771.88,529.41l-1.23.21Z"/><path class="cls-15" d="M776.52,527.79l-.46.26Z"/><path class="cls-15" d="M775.86,528.17a11.08,11.08,0,0,1-2,.75A11.08,11.08,0,0,0,775.86,528.17Z"/><path class="cls-15" d="M777.1,527.36l-.31.23Z"/><path class="cls-15" d="M778,526.33a3.46,3.46,0,0,1-.32.46A3.46,3.46,0,0,0,778,526.33Z"/><path class="cls-15" d="M775,520.89a2.09,2.09,0,0,0,.3.11Z"/><path class="cls-6" d="M776.79,527.59l-.27.2Z"/><path class="cls-2" d="M817.87,514.88c.13.82-2.26,1.87-3.1,2-15.45-.34-28.76-5.11-44.12-2.87-.48,2.42-2.63,5.38-1.57,5.82l3.81,1.2c1.85.63,6.65.43,5.34,4.72h0a2.57,2.57,0,0,1-.2.45l-.06.15a3.46,3.46,0,0,1-.32.46l-.06.08a3.55,3.55,0,0,1-.34.33s-.09.11-.15.16l-.31.23-.27.2-.46.26-.2.12a11.08,11.08,0,0,1-2,.75,17,17,0,0,1-2,.49l-1.23.21c-1.21.17-2.33.26-3.14.31-17,1.1-33.84,1.47-50.69,4.32-2.34.4-5.83,2.72-7.39,4.2,76.06-.58,143.65-6.36,147-13.51a1.43,1.43,0,0,0,.16-.62C856.57,520.69,841.93,517.38,817.87,514.88Z"/><path class="cls-6" d="M777.25,527.2s-.09.11-.15.16S777.2,527.25,777.25,527.2Z"/><path class="cls-6" d="M778,526.18l-.06.15Z"/><path class="cls-6" d="M777.65,526.79l-.06.08Z"/><path class="cls-6" d="M770.65,529.62c-1.21.17-2.33.26-3.14.31C768.32,529.88,769.44,529.79,770.65,529.62Z"/><path class="cls-6" d="M773.9,528.92a17,17,0,0,1-2,.49A17,17,0,0,0,773.9,528.92Z"/><path class="cls-6" d="M776.06,528.05l-.2.12Z"/><path class="cls-2" d="M651.37,536c-.64-2.88-4.16-3.9-6.32-5.91a2.29,2.29,0,0,1-.84-1.39c-.11-1.29,1.51-1.94,2.79-2.17a325.06,325.06,0,0,1,71.23-4.66c1.59,0,3.23.4,4.69-.17a3.22,3.22,0,0,0,1.05-.56,1.15,1.15,0,0,0,.42-1.07c-.14-.61-1.47-1.47-1.9-1.94a1.66,1.66,0,0,1,.29-2.38,2.73,2.73,0,0,1,1-.36c5.12-1.11,10.82-.19,16.05-.25,5.51-.06,11-.29,16.54-.43a14.24,14.24,0,0,0,4.87-.72c1.67-.67,2.58-1.64,2.8-2.64-18.52-.75-38.84-1.17-59.89-1.17-84.17,0-152.41,6.35-152.41,14.18,0,5.44,33,10.17,81.45,12.55,5.83.28,11.9.54,18.16.75A3.87,3.87,0,0,0,651.37,536Z"/><path class="cls-10" d="M713.68,538.47c-2,0-.14-2.39.89-2.71a23.81,23.81,0,0,1,3.22-.76c16.85-2.86,32.67-4,49.72-5.07.81,0,1.93-.14,3.14-.31l1.23-.21a17,17,0,0,0,2-.49,11.08,11.08,0,0,0,2-.75l.2-.12.46-.26.27-.2.31-.23c.06-.05.1-.11.15-.16a3.55,3.55,0,0,0,.34-.33l.06-.08a3.46,3.46,0,0,0,.32-.46l.06-.15a2.67,2.67,0,0,0,.2-.46c.87-2.85-.83-3.9-3-4.72a2.09,2.09,0,0,1-.3-.11l-.82-.3c-2.65-.94-6.71-3.05-2.36-5.06,3.69-1.71,10.46-1.13,14.46-.81,11.67.95,25.78,2,26.58,2.17,2.22.32,5.55-.13,5.45-.77a5.19,5.19,0,0,0-.41-1.24c-14.7-1.5-33.15-2.73-53.83-3.57-.22,1-1.13,2-2.8,2.64a14.24,14.24,0,0,1-4.87.72q-7.82.21-15.65.08c-4.84-.08-9.61.18-14.44.06a11.47,11.47,0,0,0-5.19.64,2.53,2.53,0,0,0-1.12.92,1.22,1.22,0,0,0,0,1.38c.34.39.9.44,1.38.63,1.68.69,1.66,2.42.05,3.12a7.37,7.37,0,0,1-3.21.33A325.06,325.06,0,0,0,647,526.49c-1.28.23-2.9.88-2.79,2.17a2.29,2.29,0,0,0,.84,1.39c.61.57,3.12,2.11,3,3a1.71,1.71,0,0,1-1,1.07c-4.17,2.16-8.66,1.24-13.06,2.91.6-.23,9.49.45,11.44.49,3.61.08,7.2.2,10.81.31q10.83.33,21.68.51,13.14.21,26.29.21"/><ellipse class="cls-2" cx="1436.04" cy="458.31" rx="150.32" ry="13.98"/><path class="cls-3" d="M1427.23,224.53h24.2a33.79,33.79,0,0,1,33.79,33.79V379.89"/><polygon class="cls-2" points="1352.2 379.4 1385.52 342.93 1440.04 369.02 1437.05 399.07 1352.2 379.4"/><polygon class="cls-4" points="1438.41 455.3 1358.82 455.3 1358.82 383.94 1392.13 349.04 1438.41 383.94 1438.41 455.3"/><polygon class="cls-2" points="1552.14 378.49 1435.36 378.49 1385.52 336.46 1508.35 336.46 1552.14 378.49"/><polyline class="cls-5" points="1435.36 387.09 1385.52 347.08 1352.2 381.99 1352.95 372.12 1385.52 336.46 1435.36 378.49 1552.14 378.49"/><polygon class="cls-2" points="1389.63 369.02 1349.46 369.02 1317.77 402.12 1389.63 402.12 1389.63 369.02"/><rect class="cls-6" x="1438.36" y="383.94" width="101.81" height="71.36"/><rect class="cls-6" x="1367.43" y="402.12" width="56.62" height="53.17"/><polygon class="cls-4" points="1367.43 455.3 1324.76 455.3 1324.76 402.12 1346.09 381 1367.43 402.12 1367.43 455.3"/><polygon class="cls-2" points="1433.12 394.85 1367.43 394.85 1341.97 369.02 1401.3 369.02 1433.12 394.85"/><rect class="cls-2" x="1476.91" y="412.82" width="22.46" height="42.48"/><rect class="cls-2" x="1373.28" y="415.16" width="44.35" height="40.14"/><rect class="cls-5" x="1339.23" y="415.16" width="13.72" height="25.73"/><rect class="cls-2" x="1339.23" y="415.16" width="13.72" height="10.94"/><polygon class="cls-5" points="1317.77 402.12 1317.77 394.85 1341.97 369.02 1367.43 394.85 1433.12 394.85 1433.12 402.12 1367.43 402.12 1341.97 376.88 1317.77 402.12"/><rect class="cls-5" x="1435.36" y="378.48" width="116.78" height="8.61"/><rect class="cls-5" x="1415.34" y="415.16" width="2.29" height="40.14"/><rect class="cls-5" x="1497.07" y="412.82" width="2.29" height="42.48"/><rect class="cls-5" x="1451.96" y="415.16" width="13.72" height="25.73"/><rect class="cls-4" x="1446.06" y="415.16" width="5.9" height="25.73"/><rect class="cls-4" x="1465.68" y="415.16" width="5.9" height="25.73"/><rect class="cls-2" x="1464.44" y="415.16" width="1.25" height="25.73"/><line class="cls-7" x1="1446.06" y1="417.77" x2="1451.96" y2="417.77"/><line class="cls-7" x1="1446.06" y1="420.23" x2="1451.96" y2="420.23"/><line class="cls-7" x1="1446.06" y1="422.69" x2="1451.96" y2="422.69"/><line class="cls-7" x1="1446.06" y1="425.14" x2="1451.96" y2="425.14"/><line class="cls-7" x1="1446.06" y1="427.6" x2="1451.96" y2="427.6"/><line class="cls-7" x1="1446.06" y1="430.06" x2="1451.96" y2="430.06"/><line class="cls-7" x1="1446.06" y1="432.52" x2="1451.96" y2="432.52"/><line class="cls-7" x1="1446.06" y1="434.97" x2="1451.96" y2="434.97"/><line class="cls-7" x1="1446.06" y1="437.5" x2="1451.96" y2="437.5"/><line class="cls-7" x1="1465.68" y1="417.77" x2="1471.58" y2="417.77"/><line class="cls-7" x1="1465.68" y1="420.23" x2="1471.58" y2="420.23"/><line class="cls-7" x1="1465.68" y1="422.69" x2="1471.58" y2="422.69"/><line class="cls-7" x1="1465.68" y1="425.14" x2="1471.58" y2="425.14"/><line class="cls-7" x1="1465.68" y1="427.6" x2="1471.58" y2="427.6"/><line class="cls-7" x1="1465.68" y1="430.06" x2="1471.58" y2="430.06"/><line class="cls-7" x1="1465.68" y1="432.52" x2="1471.58" y2="432.52"/><line class="cls-7" x1="1465.68" y1="434.97" x2="1471.58" y2="434.97"/><line class="cls-7" x1="1465.68" y1="437.5" x2="1471.58" y2="437.5"/><rect class="cls-5" x="1512.6" y="415.16" width="13.72" height="25.73"/><rect class="cls-4" x="1506.7" y="415.16" width="5.9" height="25.73"/><rect class="cls-4" x="1526.32" y="415.16" width="5.9" height="25.73"/><rect class="cls-2" x="1525.07" y="415.16" width="1.25" height="25.73"/><line class="cls-7" x1="1506.7" y1="417.77" x2="1512.6" y2="417.77"/><line class="cls-7" x1="1506.7" y1="420.23" x2="1512.6" y2="420.23"/><line class="cls-7" x1="1506.7" y1="422.69" x2="1512.6" y2="422.69"/><line class="cls-7" x1="1506.7" y1="425.14" x2="1512.6" y2="425.14"/><line class="cls-7" x1="1506.7" y1="427.6" x2="1512.6" y2="427.6"/><line class="cls-7" x1="1506.7" y1="430.06" x2="1512.6" y2="430.06"/><line class="cls-7" x1="1506.7" y1="432.52" x2="1512.6" y2="432.52"/><line class="cls-7" x1="1506.7" y1="434.97" x2="1512.6" y2="434.97"/><line class="cls-7" x1="1506.7" y1="437.5" x2="1512.6" y2="437.5"/><line class="cls-7" x1="1526.32" y1="417.77" x2="1532.22" y2="417.77"/><line class="cls-7" x1="1526.32" y1="420.23" x2="1532.22" y2="420.23"/><line class="cls-7" x1="1526.32" y1="422.69" x2="1532.22" y2="422.69"/><line class="cls-7" x1="1526.32" y1="425.14" x2="1532.22" y2="425.14"/><line class="cls-7" x1="1526.32" y1="427.6" x2="1532.22" y2="427.6"/><line class="cls-7" x1="1526.32" y1="430.06" x2="1532.22" y2="430.06"/><line class="cls-7" x1="1526.32" y1="432.52" x2="1532.22" y2="432.52"/><line class="cls-7" x1="1526.32" y1="434.97" x2="1532.22" y2="434.97"/><line class="cls-7" x1="1526.32" y1="437.5" x2="1532.22" y2="437.5"/><rect class="cls-2" x="1339.23" y="426.1" width="1.34" height="14.79"/><line class="cls-8" x1="1339.23" y1="416.94" x2="1352.95" y2="416.94"/><line class="cls-8" x1="1339.23" y1="418.82" x2="1352.95" y2="418.82"/><line class="cls-8" x1="1339.23" y1="420.69" x2="1352.95" y2="420.69"/><line class="cls-8" x1="1339.23" y1="422.56" x2="1352.95" y2="422.56"/><line class="cls-8" x1="1339.23" y1="424.43" x2="1352.95" y2="424.43"/><circle class="cls-4" cx="1479.76" cy="435.31" r="1.05"/><polygon class="cls-9" points="1458.26 415.16 1451.96 434.26 1451.96 415.16 1458.26 415.16"/><polygon class="cls-9" points="1451.96 434.26 1455.76 440.89 1451.96 440.89 1451.96 434.26"/><polygon class="cls-9" points="1459.39 415.16 1465.68 434.26 1465.68 415.16 1459.39 415.16"/><polygon class="cls-9" points="1465.68 434.26 1461.88 440.89 1465.68 440.89 1465.68 434.26"/><polygon class="cls-9" points="1518.89 415.16 1512.6 434.26 1512.6 415.16 1518.89 415.16"/><polygon class="cls-9" points="1512.6 434.26 1516.4 440.89 1512.6 440.89 1512.6 434.26"/><polygon class="cls-9" points="1520.02 415.16 1526.32 434.26 1526.32 415.16 1520.02 415.16"/><polygon class="cls-9" points="1526.32 434.26 1522.52 440.89 1526.32 440.89 1526.32 434.26"/><rect class="cls-5" x="1248.06" y="166.87" width="198.88" height="124.8"/><rect class="cls-11" x="1248.06" y="208.53" width="198.88" height="85.05"/><text class="cls-12" transform="translate(1304.89 199.81)">À VENDA</text><text class="cls-13" transform="translate(1269.79 260.72)">R$ 125.000</text><path class="cls-15" d="M1675.76,518.33a3.07,3.07,0,0,0,.2-.45h0A3.62,3.62,0,0,1,1675.76,518.33Z"/><path class="cls-15" d="M1675.32,519a2.65,2.65,0,0,1-.34.33A2.65,2.65,0,0,0,1675.32,519Z"/><path class="cls-15" d="M1669.61,521.57l-1.23.2Z"/><path class="cls-15" d="M1674.25,519.94c-.15.09-.3.18-.46.26C1674,520.12,1674.1,520,1674.25,519.94Z"/><path class="cls-15" d="M1673.59,520.32a12.29,12.29,0,0,1-2,.76A12.29,12.29,0,0,0,1673.59,520.32Z"/><path class="cls-15" d="M1674.83,519.51l-.31.23Z"/><path class="cls-15" d="M1675.7,518.48a4.73,4.73,0,0,1-.32.46A4.73,4.73,0,0,0,1675.7,518.48Z"/><path class="cls-15" d="M1672.69,513l.31.11Z"/><path class="cls-6" d="M1674.52,519.74l-.27.2Z"/><path class="cls-2" d="M1715.6,507c.13.83-2.26,1.87-3.1,2-15.45-.33-28.76-5.11-44.12-2.87-.48,2.42-2.63,5.38-1.57,5.82l3.81,1.2c1.85.63,6.65.43,5.34,4.73h0a3.07,3.07,0,0,1-.2.45l-.06.15a4.73,4.73,0,0,1-.32.46s0,.06-.06.08a2.65,2.65,0,0,1-.34.33l-.15.16-.31.23-.27.2c-.15.09-.3.18-.46.26l-.2.12a12.29,12.29,0,0,1-2,.76c-.66.19-1.34.36-2,.49l-1.23.2c-1.21.17-2.33.26-3.14.31-17.06,1.1-33.84,1.47-50.69,4.33-2.34.39-5.83,2.71-7.39,4.19,76.06-.58,143.65-6.36,147-13.51a1.38,1.38,0,0,0,.15-.62C1754.29,512.84,1739.66,509.54,1715.6,507Z"/><path class="cls-6" d="M1675,519.35l-.15.16Z"/><path class="cls-6" d="M1675.76,518.33l-.06.15Z"/><path class="cls-6" d="M1675.38,518.94s0,.06-.06.08S1675.35,519,1675.38,518.94Z"/><path class="cls-6" d="M1668.38,521.77c-1.21.17-2.33.26-3.14.31C1666.05,522,1667.17,521.94,1668.38,521.77Z"/><path class="cls-6" d="M1671.63,521.08c-.66.19-1.34.36-2,.49C1670.29,521.44,1671,521.27,1671.63,521.08Z"/><path class="cls-6" d="M1673.79,520.2l-.2.12Z"/><path class="cls-2" d="M1549.09,528.12c-.63-2.89-4.15-3.91-6.31-5.92a2.29,2.29,0,0,1-.84-1.39c-.11-1.29,1.51-1.94,2.79-2.17A325.06,325.06,0,0,1,1616,514c1.59,0,3.22.41,4.69-.16a3.45,3.45,0,0,0,1-.57,1.14,1.14,0,0,0,.42-1.07c-.14-.61-1.48-1.47-1.9-1.94a1.66,1.66,0,0,1,.29-2.38,3.15,3.15,0,0,1,1-.36c5.12-1.11,10.82-.19,16-.25,5.52-.06,11-.29,16.55-.43a14.18,14.18,0,0,0,4.86-.72c1.67-.67,2.59-1.64,2.81-2.64-18.52-.74-38.84-1.17-59.89-1.17-84.18,0-152.41,6.35-152.41,14.18,0,5.45,33,10.17,81.45,12.55,5.83.29,11.9.54,18.15.75A3.54,3.54,0,0,0,1549.09,528.12Z"/><path class="cls-10" d="M1611.41,530.62c-2,0-.14-2.38.89-2.71a23.81,23.81,0,0,1,3.22-.76c16.85-2.86,32.66-4,49.72-5.07.81-.05,1.93-.14,3.14-.31l1.23-.2c.68-.13,1.36-.3,2-.49a12.29,12.29,0,0,0,2-.76l.2-.12c.16-.08.31-.17.46-.26l.27-.2.31-.23.15-.16a2.65,2.65,0,0,0,.34-.33s0-.06.06-.08a4.73,4.73,0,0,0,.32-.46l.06-.15a3.62,3.62,0,0,0,.2-.45c.87-2.86-.83-3.91-3-4.73l-.31-.11-.81-.3c-2.65-.94-6.71-3.05-2.36-5.06,3.68-1.71,10.46-1.13,14.46-.81,11.67.95,25.77,2.06,26.58,2.17,2.22.32,5.55-.13,5.45-.77a5.19,5.19,0,0,0-.41-1.24c-14.7-1.5-33.15-2.73-53.83-3.57-.22,1-1.14,2-2.81,2.64a14.18,14.18,0,0,1-4.86.72q-7.83.21-15.65.08c-4.84-.08-9.61.18-14.44.06a11.47,11.47,0,0,0-5.19.64,2.53,2.53,0,0,0-1.12.92,1.2,1.2,0,0,0,0,1.38c.33.39.9.44,1.38.63,1.67.69,1.66,2.43.05,3.12a7.39,7.39,0,0,1-3.21.33,325.06,325.06,0,0,0-71.23,4.66c-1.28.23-2.9.88-2.79,2.17a2.29,2.29,0,0,0,.84,1.39c.61.57,3.11,2.11,3,2.95a1.69,1.69,0,0,1-1,1.07c-4.17,2.16-8.66,1.24-13.06,2.91.6-.23,9.49.45,11.44.49,3.61.08,7.19.2,10.81.31q10.83.33,21.68.51,13.14.21,26.29.21"/><path class="cls-2" d="M1137.91,421.12q15.71-28.94,32.66-57.15c2.84-4.73,6-9.72,11.07-11.92,4.71-2.05,10.28-1.23,14.91,1s8.52,5.7,12.34,9.13l30.34,27.26c4,3.55,8.86,7.36,14,6.05,4.51-1.15,7.38-5.93,11.87-7.12,5.86-1.56,11.28,3.48,15,8.3a130.7,130.7,0,0,1,17.49,30.78c-15,2.91-30.37.16-45.6-.59-13.71-.68-27.46.27-41.16,1.23l-61,4.25c-1.79.13-3.71.22-5.25-.7s-2.44-2.82-3-4.61a27.94,27.94,0,0,1,1.23-19.35"/><path class="cls-5" d="M1080.55,385.74c3-5.49,4-11.33,9.71-14,8.1-3.82,17.88.36,24.45,6.44,10.65,9.86,19.14,20.82,30.52,30.09,4.71,3.84,10,7.89,16.1,7.57,9.82-.51,15.19-11.56,23.53-16.76,8.18-5.09,19-4.09,27.69.09s15.66,11.13,22.47,17.95c.77.76,1.6,1.76,1.29,2.8s-1.77,1.48-3,1.61l-55.41,6c-19.37,2.1-38.79,4.21-58.27,4.09-11.3-.06-22.62,0-33.88-1.06-4.25-.39-8.42-1.33-12.62-2-4-.64-8.1-.3-12.17-.73a1.3,1.3,0,0,1-.61-.17.93.93,0,0,1-.3-1.08C1060.21,426.21,1079.32,388,1080.55,385.74Z"/><ellipse class="cls-2" cx="1178.04" cy="428.52" rx="118" ry="10.98"/><path class="cls-6" d="M1100.17,425.63a4.17,4.17,0,0,1-.9-1.38,9.44,9.44,0,0,1-1-3.29c0-.27-.21-4.09-.14-4.27h-7.13c.07.21-.07,4-.1,4.28a9.75,9.75,0,0,1-1,3.34,3.68,3.68,0,0,1-1,1.32Z"/><ellipse class="cls-16" cx="1094.62" cy="416.69" rx="3.57" ry="0.58"/><path class="cls-6" d="M1100.17,425.63a35.73,35.73,0,0,1-11.18,0,68,68,0,0,1,11.18,0Z"/><path class="cls-6" d="M1118.19,423.37a4,4,0,0,1-.9-1.37,9.49,9.49,0,0,1-1-3.3c0-.26-.21-4.08-.14-4.26h-7.13c.07.2-.07,4-.1,4.27a9.69,9.69,0,0,1-1,3.34,3.6,3.6,0,0,1-1,1.32Z"/><ellipse class="cls-16" cx="1112.64" cy="414.44" rx="3.57" ry="0.58"/><path class="cls-6" d="M1118.19,423.37a34.95,34.95,0,0,1-11.18,0,71.13,71.13,0,0,1,11.18,0Z"/><path class="cls-6" d="M1136.21,425.43a4,4,0,0,1-.9-1.37,9.49,9.49,0,0,1-1-3.3c0-.26-.21-4.08-.14-4.26h-7.13c.07.2-.07,4-.1,4.27a9.69,9.69,0,0,1-1,3.34,3.6,3.6,0,0,1-1,1.32Z"/><ellipse class="cls-16" cx="1130.66" cy="416.5" rx="3.57" ry="0.58"/><path class="cls-6" d="M1136.21,425.43a34.95,34.95,0,0,1-11.18,0,71.13,71.13,0,0,1,11.18,0Z"/><path class="cls-6" d="M1235.39,425.43a4,4,0,0,1-.9-1.37,9.49,9.49,0,0,1-1-3.3c0-.26-.21-4.08-.14-4.26h-7.13c.07.2-.07,4-.1,4.27a9.69,9.69,0,0,1-1,3.34,3.6,3.6,0,0,1-1,1.32Z"/><ellipse class="cls-16" cx="1229.84" cy="416.5" rx="3.57" ry="0.58"/><path class="cls-6" d="M1235.39,425.43a34.95,34.95,0,0,1-11.18,0,71.13,71.13,0,0,1,11.18,0Z"/><path class="cls-6" d="M1267.9,425.43a4,4,0,0,1-.9-1.37,9.49,9.49,0,0,1-1-3.3c0-.26-.21-4.08-.14-4.26h-7.13c.07.2-.07,4-.1,4.27a9.69,9.69,0,0,1-1,3.34,3.6,3.6,0,0,1-1,1.32Z"/><ellipse class="cls-16" cx="1262.35" cy="416.5" rx="3.57" ry="0.58"/><path class="cls-6" d="M1267.9,425.43a34.95,34.95,0,0,1-11.18,0,71.13,71.13,0,0,1,11.18,0Z"/><path class="cls-6" d="M1198.37,425.43a4.18,4.18,0,0,1-.9-1.37,9.94,9.94,0,0,1-1-3.3c0-.26-.2-4.08-.13-4.26h-7.13c.07.2-.07,4-.11,4.27a9.47,9.47,0,0,1-1,3.34,3.49,3.49,0,0,1-1,1.32Z"/><ellipse class="cls-16" cx="1192.82" cy="416.5" rx="3.57" ry="0.58"/><path class="cls-6" d="M1198.37,425.43a34.95,34.95,0,0,1-11.18,0,71.13,71.13,0,0,1,11.18,0Z"/><ellipse class="cls-2" cx="552.87" cy="1005.4" rx="150.32" ry="13.98"/><path class="cls-3" d="M544.07,771.62h24.2a33.79,33.79,0,0,1,33.79,33.79V927"/><polygon class="cls-2" points="469.04 926.49 502.35 890.02 556.88 916.11 553.88 946.16 469.04 926.49"/><polygon class="cls-4" points="555.24 1002.39 475.65 1002.39 475.65 931.03 508.97 896.13 555.24 931.03 555.24 1002.39"/><polygon class="cls-2" points="668.98 925.58 552.2 925.58 502.35 883.55 625.19 883.55 668.98 925.58"/><polyline class="cls-5" points="552.2 934.18 502.35 894.17 469.04 929.08 469.79 919.21 502.35 883.55 552.2 925.58 668.98 925.58"/><polygon class="cls-2" points="506.47 916.11 466.3 916.11 434.6 949.21 506.47 949.21 506.47 916.11"/><rect class="cls-6" x="555.19" y="931.03" width="101.81" height="71.36"/><rect class="cls-6" x="484.26" y="949.21" width="56.62" height="53.17"/><polygon class="cls-4" points="484.26 1002.39 441.59 1002.39 441.59 949.21 462.93 928.09 484.26 949.21 484.26 1002.39"/><polygon class="cls-2" points="549.95 941.94 484.26 941.94 458.81 916.11 518.14 916.11 549.95 941.94"/><rect class="cls-2" x="593.75" y="959.91" width="22.46" height="42.48"/><rect class="cls-2" x="490.11" y="962.25" width="44.35" height="40.14"/><rect class="cls-5" x="456.07" y="962.25" width="13.72" height="25.73"/><rect class="cls-2" x="456.07" y="962.25" width="13.72" height="10.94"/><polygon class="cls-5" points="434.6 949.21 434.6 941.94 458.81 916.11 484.26 941.94 549.95 941.94 549.95 949.21 484.26 949.21 458.81 923.97 434.6 949.21"/><rect class="cls-5" x="552.2" y="925.57" width="116.78" height="8.61"/><rect class="cls-5" x="532.17" y="962.25" width="2.29" height="40.14"/><rect class="cls-5" x="613.91" y="959.91" width="2.29" height="42.48"/><rect class="cls-5" x="568.8" y="962.25" width="13.72" height="25.73"/><rect class="cls-4" x="562.89" y="962.25" width="5.9" height="25.73"/><rect class="cls-4" x="582.52" y="962.25" width="5.9" height="25.73"/><rect class="cls-2" x="581.27" y="962.25" width="1.25" height="25.73"/><line class="cls-7" x1="562.89" y1="964.86" x2="568.8" y2="964.86"/><line class="cls-7" x1="562.89" y1="967.32" x2="568.8" y2="967.32"/><line class="cls-7" x1="562.89" y1="969.78" x2="568.8" y2="969.78"/><line class="cls-7" x1="562.89" y1="972.23" x2="568.8" y2="972.23"/><line class="cls-7" x1="562.89" y1="974.69" x2="568.8" y2="974.69"/><line class="cls-7" x1="562.89" y1="977.15" x2="568.8" y2="977.15"/><line class="cls-7" x1="562.89" y1="979.61" x2="568.8" y2="979.61"/><line class="cls-7" x1="562.89" y1="982.06" x2="568.8" y2="982.06"/><line class="cls-7" x1="562.89" y1="984.59" x2="568.8" y2="984.59"/><line class="cls-7" x1="582.52" y1="964.86" x2="588.42" y2="964.86"/><line class="cls-7" x1="582.52" y1="967.32" x2="588.42" y2="967.32"/><line class="cls-7" x1="582.52" y1="969.78" x2="588.42" y2="969.78"/><line class="cls-7" x1="582.52" y1="972.23" x2="588.42" y2="972.23"/><line class="cls-7" x1="582.52" y1="974.69" x2="588.42" y2="974.69"/><line class="cls-7" x1="582.52" y1="977.15" x2="588.42" y2="977.15"/><line class="cls-7" x1="582.52" y1="979.61" x2="588.42" y2="979.61"/><line class="cls-7" x1="582.52" y1="982.06" x2="588.42" y2="982.06"/><line class="cls-7" x1="582.52" y1="984.59" x2="588.42" y2="984.59"/><rect class="cls-5" x="629.43" y="962.25" width="13.72" height="25.73"/><rect class="cls-4" x="623.53" y="962.25" width="5.9" height="25.73"/><rect class="cls-4" x="643.15" y="962.25" width="5.9" height="25.73"/><rect class="cls-2" x="641.91" y="962.25" width="1.25" height="25.73"/><line class="cls-7" x1="623.53" y1="964.86" x2="629.43" y2="964.86"/><line class="cls-7" x1="623.53" y1="967.32" x2="629.43" y2="967.32"/><line class="cls-7" x1="623.53" y1="969.78" x2="629.43" y2="969.78"/><line class="cls-7" x1="623.53" y1="972.23" x2="629.43" y2="972.23"/><line class="cls-7" x1="623.53" y1="974.69" x2="629.43" y2="974.69"/><line class="cls-7" x1="623.53" y1="977.15" x2="629.43" y2="977.15"/><line class="cls-7" x1="623.53" y1="979.61" x2="629.43" y2="979.61"/><line class="cls-7" x1="623.53" y1="982.06" x2="629.43" y2="982.06"/><line class="cls-7" x1="623.53" y1="984.59" x2="629.43" y2="984.59"/><line class="cls-7" x1="643.15" y1="964.86" x2="649.06" y2="964.86"/><line class="cls-7" x1="643.15" y1="967.32" x2="649.06" y2="967.32"/><line class="cls-7" x1="643.15" y1="969.78" x2="649.06" y2="969.78"/><line class="cls-7" x1="643.15" y1="972.23" x2="649.06" y2="972.23"/><line class="cls-7" x1="643.15" y1="974.69" x2="649.06" y2="974.69"/><line class="cls-7" x1="643.15" y1="977.15" x2="649.06" y2="977.15"/><line class="cls-7" x1="643.15" y1="979.61" x2="649.06" y2="979.61"/><line class="cls-7" x1="643.15" y1="982.06" x2="649.06" y2="982.06"/><line class="cls-7" x1="643.15" y1="984.59" x2="649.06" y2="984.59"/><rect class="cls-2" x="456.07" y="973.19" width="1.34" height="14.79"/><line class="cls-8" x1="456.07" y1="964.03" x2="469.79" y2="964.03"/><line class="cls-8" x1="456.07" y1="965.91" x2="469.79" y2="965.91"/><line class="cls-8" x1="456.07" y1="967.78" x2="469.79" y2="967.78"/><line class="cls-8" x1="456.07" y1="969.65" x2="469.79" y2="969.65"/><line class="cls-8" x1="456.07" y1="971.52" x2="469.79" y2="971.52"/><circle class="cls-4" cx="596.59" cy="982.4" r="1.05"/><polygon class="cls-9" points="575.09 962.25 568.8 981.35 568.8 962.25 575.09 962.25"/><polygon class="cls-9" points="568.8 981.35 572.6 987.98 568.8 987.98 568.8 981.35"/><polygon class="cls-9" points="576.22 962.25 582.52 981.35 582.52 962.25 576.22 962.25"/><polygon class="cls-9" points="582.52 981.35 578.72 987.98 582.52 987.98 582.52 981.35"/><polygon class="cls-9" points="635.73 962.25 629.43 981.35 629.43 962.25 635.73 962.25"/><polygon class="cls-9" points="629.43 981.35 633.23 987.98 629.43 987.98 629.43 981.35"/><polygon class="cls-9" points="636.86 962.25 643.15 981.35 643.15 962.25 636.86 962.25"/><polygon class="cls-9" points="643.15 981.35 639.36 987.98 643.15 987.98 643.15 981.35"/><rect class="cls-6" x="364.9" y="713.96" width="198.88" height="124.8"/><rect class="cls-11" x="364.9" y="755.62" width="198.88" height="85.05"/><text class="cls-12" transform="translate(421.72 746.9)">À VENDA</text><text class="cls-13" transform="translate(386.63 807.81)">R$ 100.000</text><path class="cls-15" d="M838.86,1099.18a2.62,2.62,0,0,0,.19-.46h0A2.62,2.62,0,0,1,838.86,1099.18Z"/><path class="cls-15" d="M838.41,1099.87a3.43,3.43,0,0,1-.33.33A3.43,3.43,0,0,0,838.41,1099.87Z"/><path class="cls-15" d="M832.71,1102.41c-.42.08-.83.14-1.23.2C831.88,1102.55,832.29,1102.49,832.71,1102.41Z"/><path class="cls-15" d="M837.34,1100.78c-.14.1-.3.18-.45.27C837,1101,837.2,1100.88,837.34,1100.78Z"/><path class="cls-15" d="M836.69,1101.16a11.73,11.73,0,0,1-2,.76A11.73,11.73,0,0,0,836.69,1101.16Z"/><path class="cls-15" d="M837.93,1100.35a2.35,2.35,0,0,1-.32.23A2.35,2.35,0,0,0,837.93,1100.35Z"/><path class="cls-15" d="M838.79,1099.33a2.83,2.83,0,0,1-.32.45A2.83,2.83,0,0,0,838.79,1099.33Z"/><path class="cls-15" d="M835.79,1093.88l.3.12Z"/><path class="cls-6" d="M837.61,1100.58a2.69,2.69,0,0,1-.27.2A2.69,2.69,0,0,0,837.61,1100.58Z"/><path class="cls-2" d="M878.69,1087.87c.14.83-2.25,1.88-3.09,2-15.46-.34-28.76-5.11-44.12-2.87-.48,2.42-2.63,5.37-1.57,5.82l3.81,1.2c1.85.63,6.65.43,5.33,4.72h0a2.62,2.62,0,0,1-.19.46s0,.1-.07.15a2.83,2.83,0,0,1-.32.45.47.47,0,0,1-.06.09,3.43,3.43,0,0,1-.33.33l-.15.15a2.35,2.35,0,0,1-.32.23,2.69,2.69,0,0,1-.27.2c-.14.1-.3.18-.45.27l-.2.11a11.73,11.73,0,0,1-2,.76,19.81,19.81,0,0,1-2,.49c-.42.08-.83.14-1.23.2-1.22.18-2.34.27-3.14.32-17.06,1.1-33.84,1.46-50.69,4.32-2.35.4-5.83,2.72-7.39,4.19,76.06-.58,143.65-6.35,147-13.5a1.61,1.61,0,0,0,.15-.63C917.39,1093.69,902.76,1090.38,878.69,1087.87Z"/><path class="cls-6" d="M838.08,1100.2l-.15.15Z"/><path class="cls-6" d="M838.86,1099.18s0,.1-.07.15S838.83,1099.23,838.86,1099.18Z"/><path class="cls-6" d="M838.47,1099.78a.47.47,0,0,1-.06.09A.47.47,0,0,0,838.47,1099.78Z"/><path class="cls-6" d="M831.48,1102.61c-1.22.18-2.34.27-3.14.32C829.14,1102.88,830.26,1102.79,831.48,1102.61Z"/><path class="cls-6" d="M834.73,1101.92a19.81,19.81,0,0,1-2,.49A19.81,19.81,0,0,0,834.73,1101.92Z"/><path class="cls-6" d="M836.89,1101.05l-.2.11Z"/><path class="cls-2" d="M712.19,1109c-.64-2.88-4.15-3.91-6.32-5.92a2.27,2.27,0,0,1-.83-1.38c-.11-1.3,1.51-2,2.79-2.17a324.4,324.4,0,0,1,71.23-4.66c1.59,0,3.22.4,4.68-.17a3.17,3.17,0,0,0,1.06-.56,1.18,1.18,0,0,0,.42-1.07c-.14-.62-1.48-1.48-1.9-1.94a1.64,1.64,0,0,1,.29-2.38,2.75,2.75,0,0,1,1-.36c5.13-1.11,10.83-.2,16-.25,5.52-.06,11-.29,16.55-.44a13.72,13.72,0,0,0,4.86-.72c1.67-.66,2.59-1.64,2.81-2.63-18.53-.75-38.85-1.17-59.89-1.17-84.18,0-152.42,6.34-152.42,14.17,0,5.45,33,10.18,81.45,12.56,5.84.28,11.91.53,18.16.75A3.72,3.72,0,0,0,712.19,1109Z"/><path class="cls-6" d="M774.51,1111.47c-2,0-.14-2.39.89-2.72a23.75,23.75,0,0,1,3.22-.75c16.85-2.86,32.66-4,49.72-5.07.8,0,1.92-.14,3.14-.32.4-.06.81-.12,1.23-.2a19.81,19.81,0,0,0,2-.49,11.73,11.73,0,0,0,2-.76l.2-.11c.15-.09.31-.17.45-.27a2.69,2.69,0,0,0,.27-.2,2.35,2.35,0,0,0,.32-.23l.15-.15a3.43,3.43,0,0,0,.33-.33.47.47,0,0,0,.06-.09,2.83,2.83,0,0,0,.32-.45s0-.1.07-.15a2.62,2.62,0,0,0,.19-.46c.88-2.85-.82-3.9-3-4.72l-.3-.12-.81-.29c-2.65-.95-6.71-3-2.37-5.06,3.69-1.71,10.47-1.14,14.47-.81,11.67,1,25.77,2,26.58,2.17,2.21.32,5.55-.13,5.44-.78a4.73,4.73,0,0,0-.41-1.24c-14.7-1.49-33.14-2.73-53.82-3.56-.22,1-1.14,2-2.81,2.63a13.72,13.72,0,0,1-4.86.72q-7.83.21-15.66.08c-4.83-.08-9.6.18-14.44.07a11.45,11.45,0,0,0-5.18.64,2.44,2.44,0,0,0-1.13.92,1.22,1.22,0,0,0,.05,1.38c.33.38.9.43,1.37.63,1.68.69,1.66,2.42.06,3.11a7.39,7.39,0,0,1-3.21.34,324.4,324.4,0,0,0-71.23,4.66c-1.28.22-2.9.87-2.79,2.17a2.27,2.27,0,0,0,.83,1.38c.62.57,3.12,2.12,3,3a1.7,1.7,0,0,1-1,1.06c-4.17,2.17-8.67,1.25-13.06,2.92.6-.23,9.49.45,11.43.49,3.62.07,7.2.19,10.81.31q10.85.33,21.69.5,13.14.23,26.29.21"/><polygon class="cls-4" points="673.24 1060.73 702.23 1060.73 715.77 1051.67 687.74 1051.67 673.24 1060.73"/><polygon class="cls-4" points="686.77 1060.73 715.76 1060.73 729.3 1051.67 701.26 1051.67 686.77 1060.73"/><polygon class="cls-4" points="700.3 1060.73 729.29 1060.73 742.82 1051.67 714.79 1051.67 700.3 1060.73"/><rect class="cls-4" x="659.72" y="1060.73" width="28.99" height="25.99"/><polygon class="cls-6" points="742.85 1060.73 742.83 1060.73 688.69 1060.73 688.69 1086.72 742.83 1086.72 742.85 1086.72 769.91 1086.72 769.91 1060.73 742.85 1060.73"/><polygon class="cls-6" points="702.24 1060.73 688.71 1060.73 702.24 1051.67 702.24 1060.73"/><polygon class="cls-6" points="715.78 1060.73 702.24 1060.73 715.78 1051.67 715.78 1060.73"/><polygon class="cls-6" points="729.31 1060.73 715.78 1060.73 729.31 1051.67 729.31 1060.73"/><polygon class="cls-6" points="742.85 1060.73 729.31 1060.73 742.85 1051.67 742.85 1060.73"/><polygon class="cls-4" points="659.72 1060.73 688.71 1060.73 702.24 1051.67 674.21 1051.67 659.72 1060.73"/><rect class="cls-2" x="695.47" y="1071.37" width="7.74" height="7.74"/><rect class="cls-5" x="702.03" y="1071.37" width="1.18" height="7.74"/><rect class="cls-2" x="707.06" y="1071.37" width="7.74" height="7.74"/><rect class="cls-5" x="713.62" y="1071.37" width="1.18" height="7.74"/><rect class="cls-2" x="718.66" y="1071.37" width="7.74" height="7.74"/><rect class="cls-5" x="725.22" y="1071.37" width="1.18" height="7.74"/><rect class="cls-2" x="730.26" y="1071.37" width="7.74" height="7.74"/><rect class="cls-5" x="736.82" y="1071.37" width="1.18" height="7.74"/><polygon class="cls-6" points="758.8 1060.73 747.76 1060.73 749.94 1013.43 757.24 1013.43 758.8 1060.73"/><ellipse class="cls-4" cx="753.59" cy="1013.43" rx="3.65" ry="1.16"/><line class="cls-17" x1="749.54" y1="1022.11" x2="757.53" y2="1022.11"/><line class="cls-17" x1="749.09" y1="1031.83" x2="757.85" y2="1031.83"/><line class="cls-17" x1="748.64" y1="1041.55" x2="758.17" y2="1041.55"/><line class="cls-17" x1="748.19" y1="1051.27" x2="758.53" y2="1051.27"/><circle class="cls-18" cx="749.11" cy="1003.6" r="3.76"/><circle class="cls-18" cx="753.26" cy="1005.14" r="2.2"/><circle class="cls-18" cx="746.76" cy="993.85" r="7.67"/><circle class="cls-18" cx="733.91" cy="988.4" r="7.67"/><circle class="cls-18" cx="741.59" cy="984.21" r="7.67"/><circle class="cls-18" cx="748.83" cy="974.82" r="7.67"/><circle class="cls-18" cx="733.91" cy="974.82" r="7.67"/><circle class="cls-18" cx="739.09" cy="967.15" r="7.67"/><circle class="cls-18" cx="727.17" cy="964.49" r="7.67"/><path class="cls-2" d="M252.91,972.38q15.69-28.92,32.65-57.14c2.84-4.73,6-9.72,11.08-11.92,4.71-2.06,10.27-1.24,14.9,1s8.53,5.7,12.35,9.13l30.33,27.26c3.95,3.55,8.87,7.37,14,6,4.5-1.15,7.37-5.92,11.87-7.12,5.86-1.56,11.28,3.48,15,8.3a130.92,130.92,0,0,1,17.48,30.79c-15,2.9-30.36.15-45.59-.6-13.72-.68-27.46.28-41.16,1.23l-61.05,4.25c-1.79.13-3.71.22-5.25-.7s-2.44-2.81-3-4.61a27.8,27.8,0,0,1,1.23-19.34"/><path class="cls-5" d="M195.55,937c3-5.5,4-11.33,9.7-14,8.1-3.82,17.88.36,24.45,6.44,10.65,9.85,19.15,20.82,30.53,30.08,4.71,3.84,10,7.89,16.1,7.58,9.81-.52,15.19-11.56,23.53-16.76,8.17-5.1,19-4.1,27.68.09S343.2,961.57,350,968.38c.77.77,1.6,1.77,1.3,2.81s-1.78,1.47-3,1.6l-55.41,6c-19.37,2.1-38.79,4.2-58.27,4.09-11.3-.07-22.62,0-33.87-1.06-4.25-.39-8.42-1.33-12.63-2-4-.64-8.09-.29-12.17-.73a1.42,1.42,0,0,1-.61-.16,1,1,0,0,1-.3-1.09C175.2,977.47,194.31,939.26,195.55,937Z"/><ellipse class="cls-2" cx="293.03" cy="979.78" rx="118" ry="10.98"/><path class="cls-6" d="M215.16,976.89a4.24,4.24,0,0,1-.9-1.37,9.78,9.78,0,0,1-.95-3.3c0-.26-.2-4.09-.13-4.27H206c.08.21-.06,4-.1,4.28a9.53,9.53,0,0,1-1,3.34,3.57,3.57,0,0,1-1,1.32Z"/><ellipse class="cls-16" cx="209.61" cy="967.95" rx="3.57" ry="0.58"/><path class="cls-6" d="M215.16,976.89a35.73,35.73,0,0,1-11.18,0,35.89,35.89,0,0,1,5.59-.22A35.89,35.89,0,0,1,215.16,976.89Z"/><path class="cls-6" d="M233.18,974.64a4.17,4.17,0,0,1-.9-1.38,9.66,9.66,0,0,1-.95-3.29c0-.27-.2-4.09-.13-4.27h-7.14c.08.21-.06,4-.1,4.28a9.53,9.53,0,0,1-1,3.34,3.57,3.57,0,0,1-1,1.32Z"/><ellipse class="cls-16" cx="227.63" cy="965.7" rx="3.57" ry="0.58"/><path class="cls-6" d="M233.18,974.64a35.73,35.73,0,0,1-11.18,0,33.75,33.75,0,0,1,5.59-.23A33.75,33.75,0,0,1,233.18,974.64Z"/><path class="cls-6" d="M251.2,976.7a4.17,4.17,0,0,1-.9-1.38,9.66,9.66,0,0,1-1-3.29c0-.27-.2-4.09-.14-4.27h-7.13c.08.21-.07,4-.1,4.28a9.53,9.53,0,0,1-1,3.34,3.57,3.57,0,0,1-1,1.32Z"/><ellipse class="cls-16" cx="245.65" cy="967.76" rx="3.57" ry="0.58"/><path class="cls-6" d="M251.2,976.7a35.73,35.73,0,0,1-11.18,0,33.75,33.75,0,0,1,5.59-.23A33.75,33.75,0,0,1,251.2,976.7Z"/><path class="cls-6" d="M350.38,976.7a4.17,4.17,0,0,1-.9-1.38,9.66,9.66,0,0,1-1-3.29c0-.27-.2-4.09-.13-4.27h-7.14c.08.21-.06,4-.1,4.28a9.53,9.53,0,0,1-1,3.34,3.57,3.57,0,0,1-1,1.32Z"/><ellipse class="cls-16" cx="344.83" cy="967.76" rx="3.57" ry="0.58"/><path class="cls-6" d="M350.38,976.7a35.73,35.73,0,0,1-11.18,0,68,68,0,0,1,11.18,0Z"/><path class="cls-6" d="M382.89,976.7a4.17,4.17,0,0,1-.9-1.38A9.66,9.66,0,0,1,381,972c0-.27-.2-4.09-.13-4.27h-7.13c.07.21-.07,4-.11,4.28a9.53,9.53,0,0,1-1,3.34,3.57,3.57,0,0,1-1,1.32Z"/><ellipse class="cls-16" cx="377.34" cy="967.76" rx="3.57" ry="0.58"/><path class="cls-6" d="M382.89,976.7a35.73,35.73,0,0,1-11.18,0,68,68,0,0,1,11.18,0Z"/><path class="cls-6" d="M313.37,976.7a4.36,4.36,0,0,1-.91-1.38,9.89,9.89,0,0,1-.95-3.29c0-.27-.2-4.09-.13-4.27h-7.13c.07.21-.07,4-.1,4.28a9.75,9.75,0,0,1-1,3.34,3.8,3.8,0,0,1-1,1.32Z"/><ellipse class="cls-16" cx="307.81" cy="967.76" rx="3.57" ry="0.58"/><path class="cls-6" d="M313.37,976.7a35.73,35.73,0,0,1-11.18,0,68,68,0,0,1,11.18,0Z"/><ellipse class="cls-2" cx="1433.48" cy="984.22" rx="150.32" ry="13.98"/><path class="cls-3" d="M1424.68,750.45h24.2a33.78,33.78,0,0,1,33.79,33.78V905.8"/><polygon class="cls-2" points="1349.65 905.31 1382.96 868.84 1437.49 894.93 1434.49 924.99 1349.65 905.31"/><polygon class="cls-4" points="1435.85 981.21 1356.26 981.21 1356.26 909.86 1389.58 874.95 1435.85 909.86 1435.85 981.21"/><polygon class="cls-2" points="1549.59 904.4 1432.81 904.4 1382.96 862.37 1505.8 862.37 1549.59 904.4"/><polyline class="cls-5" points="1432.81 913.01 1382.96 873 1349.65 907.9 1350.39 898.03 1382.96 862.37 1432.81 904.4 1549.59 904.4"/><polygon class="cls-2" points="1387.08 894.93 1346.9 894.93 1315.21 928.04 1387.08 928.04 1387.08 894.93"/><rect class="cls-6" x="1435.8" y="909.85" width="101.81" height="71.36"/><rect class="cls-6" x="1364.87" y="928.04" width="56.62" height="53.17"/><polygon class="cls-4" points="1364.87 981.21 1322.2 981.21 1322.2 928.04 1343.54 906.91 1364.87 928.04 1364.87 981.21"/><polygon class="cls-2" points="1430.56 920.76 1364.87 920.76 1339.42 894.93 1398.75 894.93 1430.56 920.76"/><rect class="cls-2" x="1474.36" y="938.73" width="22.46" height="42.48"/><rect class="cls-2" x="1370.72" y="941.08" width="44.35" height="40.14"/><rect class="cls-5" x="1336.68" y="941.08" width="13.72" height="25.73"/><rect class="cls-2" x="1336.68" y="941.08" width="13.72" height="10.94"/><polygon class="cls-5" points="1315.21 928.04 1315.21 920.76 1339.42 894.93 1364.87 920.76 1430.56 920.76 1430.56 928.04 1364.87 928.04 1339.42 902.79 1315.21 928.04"/><rect class="cls-5" x="1432.81" y="904.4" width="116.78" height="8.61"/><rect class="cls-5" x="1412.78" y="941.08" width="2.29" height="40.14"/><rect class="cls-5" x="1494.52" y="938.73" width="2.29" height="42.48"/><rect class="cls-5" x="1449.41" y="941.08" width="13.72" height="25.73"/><rect class="cls-4" x="1443.5" y="941.08" width="5.9" height="25.73"/><rect class="cls-4" x="1463.13" y="941.08" width="5.9" height="25.73"/><rect class="cls-2" x="1461.88" y="941.08" width="1.25" height="25.73"/><line class="cls-7" x1="1443.5" y1="943.68" x2="1449.41" y2="943.68"/><line class="cls-7" x1="1443.5" y1="946.14" x2="1449.41" y2="946.14"/><line class="cls-7" x1="1443.5" y1="948.6" x2="1449.41" y2="948.6"/><line class="cls-7" x1="1443.5" y1="951.06" x2="1449.41" y2="951.06"/><line class="cls-7" x1="1443.5" y1="953.51" x2="1449.41" y2="953.51"/><line class="cls-7" x1="1443.5" y1="955.97" x2="1449.41" y2="955.97"/><line class="cls-7" x1="1443.5" y1="958.43" x2="1449.41" y2="958.43"/><line class="cls-7" x1="1443.5" y1="960.89" x2="1449.41" y2="960.89"/><line class="cls-7" x1="1443.5" y1="963.41" x2="1449.41" y2="963.41"/><line class="cls-7" x1="1463.13" y1="943.68" x2="1469.03" y2="943.68"/><line class="cls-7" x1="1463.13" y1="946.14" x2="1469.03" y2="946.14"/><line class="cls-7" x1="1463.13" y1="948.6" x2="1469.03" y2="948.6"/><line class="cls-7" x1="1463.13" y1="951.06" x2="1469.03" y2="951.06"/><line class="cls-7" x1="1463.13" y1="953.51" x2="1469.03" y2="953.51"/><line class="cls-7" x1="1463.13" y1="955.97" x2="1469.03" y2="955.97"/><line class="cls-7" x1="1463.13" y1="958.43" x2="1469.03" y2="958.43"/><line class="cls-7" x1="1463.13" y1="960.89" x2="1469.03" y2="960.89"/><line class="cls-7" x1="1463.13" y1="963.41" x2="1469.03" y2="963.41"/><rect class="cls-5" x="1510.04" y="941.08" width="13.72" height="25.73"/><rect class="cls-4" x="1504.14" y="941.08" width="5.9" height="25.73"/><rect class="cls-4" x="1523.76" y="941.08" width="5.9" height="25.73"/><rect class="cls-2" x="1522.52" y="941.08" width="1.25" height="25.73"/><line class="cls-7" x1="1504.14" y1="943.68" x2="1510.04" y2="943.68"/><line class="cls-7" x1="1504.14" y1="946.14" x2="1510.04" y2="946.14"/><line class="cls-7" x1="1504.14" y1="948.6" x2="1510.04" y2="948.6"/><line class="cls-7" x1="1504.14" y1="951.06" x2="1510.04" y2="951.06"/><line class="cls-7" x1="1504.14" y1="953.51" x2="1510.04" y2="953.51"/><line class="cls-7" x1="1504.14" y1="955.97" x2="1510.04" y2="955.97"/><line class="cls-7" x1="1504.14" y1="958.43" x2="1510.04" y2="958.43"/><line class="cls-7" x1="1504.14" y1="960.89" x2="1510.04" y2="960.89"/><line class="cls-7" x1="1504.14" y1="963.41" x2="1510.04" y2="963.41"/><line class="cls-7" x1="1523.76" y1="943.68" x2="1529.67" y2="943.68"/><line class="cls-7" x1="1523.76" y1="946.14" x2="1529.67" y2="946.14"/><line class="cls-7" x1="1523.76" y1="948.6" x2="1529.67" y2="948.6"/><line class="cls-7" x1="1523.76" y1="951.06" x2="1529.67" y2="951.06"/><line class="cls-7" x1="1523.76" y1="953.51" x2="1529.67" y2="953.51"/><line class="cls-7" x1="1523.76" y1="955.97" x2="1529.67" y2="955.97"/><line class="cls-7" x1="1523.76" y1="958.43" x2="1529.67" y2="958.43"/><line class="cls-7" x1="1523.76" y1="960.89" x2="1529.67" y2="960.89"/><line class="cls-7" x1="1523.76" y1="963.41" x2="1529.67" y2="963.41"/><rect class="cls-2" x="1336.68" y="952.02" width="1.34" height="14.79"/><line class="cls-8" x1="1336.68" y1="942.86" x2="1350.4" y2="942.86"/><line class="cls-8" x1="1336.68" y1="944.73" x2="1350.4" y2="944.73"/><line class="cls-8" x1="1336.68" y1="946.6" x2="1350.4" y2="946.6"/><line class="cls-8" x1="1336.68" y1="948.47" x2="1350.4" y2="948.47"/><line class="cls-8" x1="1336.68" y1="950.34" x2="1350.4" y2="950.34"/><circle class="cls-4" cx="1477.2" cy="961.23" r="1.05"/><polygon class="cls-9" points="1455.7 941.08 1449.41 960.17 1449.41 941.08 1455.7 941.08"/><polygon class="cls-9" points="1449.41 960.17 1453.21 966.8 1449.41 966.8 1449.41 960.17"/><polygon class="cls-9" points="1456.83 941.08 1463.13 960.17 1463.13 941.08 1456.83 941.08"/><polygon class="cls-9" points="1463.13 960.17 1459.33 966.8 1463.13 966.8 1463.13 960.17"/><polygon class="cls-9" points="1516.34 941.08 1510.04 960.17 1510.04 941.08 1516.34 941.08"/><polygon class="cls-9" points="1510.04 960.17 1513.84 966.8 1510.04 966.8 1510.04 960.17"/><polygon class="cls-9" points="1517.47 941.08 1523.77 960.17 1523.77 941.08 1517.47 941.08"/><polygon class="cls-9" points="1523.77 960.17 1519.96 966.8 1523.77 966.8 1523.77 960.17"/><rect class="cls-19" x="1245.51" y="692.78" width="198.88" height="124.8"/><rect class="cls-11" x="1245.51" y="734.44" width="198.88" height="85.05"/><text class="cls-12" transform="translate(1302.33 725.72)">À VENDA</text><text class="cls-13" transform="translate(1267.23 786.64)">R$ 75.000</text><ellipse class="cls-9" cx="1302.33" cy="1117.45" rx="152.41" ry="14.18"/><path class="cls-11" d="M1329.63,1108.81s-5,1.24-8-2.24-2.24-9.94,0-13.42,7.21-6.22,9-6.47,27.1-3,27.1-3,11.19-14.45,17.65-17.06c6.08-2.45,44.86-2.43,54.06,0a3.35,3.35,0,0,1,2,1.53c2.41,4,10.84,18.27,11.31,23.55.54,6.17.74,13.86-1.25,14.6s-7,1-7,1Z"/><circle class="cls-9" cx="1342.65" cy="1104.42" r="11.24"/><circle class="cls-10" cx="1342.65" cy="1104.42" r="6.26"/><circle class="cls-9" cx="1421.66" cy="1104.42" r="11.24"/><path class="cls-10" d="M1371.79,1077.49l6.68-7.18a4,4,0,0,1,3-1.28h15a4,4,0,0,1,4,3.64l.7,7.18a4,4,0,0,1-4,4.43h-22.38A4,4,0,0,1,1371.79,1077.49Z"/><path class="cls-10" d="M1406.4,1079.88l-.6-5.51a4.83,4.83,0,0,1,4.8-5.34H1423a8.11,8.11,0,0,1,6.13,4.2,17.66,17.66,0,0,1,1.85,4.62,4.81,4.81,0,0,1-4.57,6l-15.07.33A4.82,4.82,0,0,1,1406.4,1079.88Z"/><path class="cls-10" d="M1372.64,1068.24s2.74-1.58,2.25.79-17.16,14.69-17.16,14.69S1368,1070.32,1372.64,1068.24Z"/><rect class="cls-14" x="1390.47" y="1086.43" width="9.12" height="1.66" rx="0.83"/><path class="cls-6" d="M1440.22,1084.28h-4.33s-.25,4.49,3.31,6,3.29,0,3.29,0"/><rect class="cls-6" x="1350.89" y="1087.59" width="4.6" height="2.32" rx="1.16"/><rect class="cls-10" x="1324.44" y="1089.76" width="3.23" height="5.95" rx="1.62" transform="translate(1161.08 -617.61) rotate(45)"/><circle class="cls-10" cx="1421.66" cy="1104.42" r="6.26"/><circle class="cls-18" cx="1454.98" cy="1093.02" r="4.27"/><circle class="cls-18" cx="1450.27" cy="1094.77" r="2.5"/><circle class="cls-18" cx="1457.66" cy="1081.93" r="8.73"/><circle class="cls-18" cx="1472.27" cy="1075.72" r="8.73"/><circle class="cls-18" cx="1463.55" cy="1070.97" r="8.73"/><circle class="cls-18" cx="1455.31" cy="1060.28" r="8.73"/><circle class="cls-18" cx="1472.27" cy="1060.28" r="8.73"/><circle class="cls-18" cx="1466.39" cy="1051.55" r="8.73"/><circle class="cls-18" cx="1479.95" cy="1048.53" r="8.73"/><path class="cls-10" d="M1171,1106.58s-5,1.25-8-2.23-2.23-9.95,0-13.43,7.21-6.22,9-6.46,27.1-3,27.1-3,11.19-14.45,17.65-17.06c6.07-2.45,44.85-2.43,54,0a3.38,3.38,0,0,1,2,1.54c2.4,4,10.84,18.26,11.3,23.54.54,6.17.75,13.86-1.24,14.61s-7,1-7,1Z"/><circle class="cls-9" cx="1183.97" cy="1102.19" r="11.24"/><circle class="cls-11" cx="1183.97" cy="1102.19" r="6.26"/><circle class="cls-9" cx="1262.98" cy="1102.19" r="11.24"/><path class="cls-11" d="M1213.1,1075.26l6.68-7.17a4.07,4.07,0,0,1,3-1.29h15a4.05,4.05,0,0,1,4,3.65l.7,7.17a4,4,0,0,1-4,4.43h-22.38A4,4,0,0,1,1213.1,1075.26Z"/><path class="cls-11" d="M1247.72,1077.65l-.6-5.5a4.82,4.82,0,0,1,4.79-5.35h12.36a8.12,8.12,0,0,1,6.14,4.21,17.8,17.8,0,0,1,1.85,4.61,4.81,4.81,0,0,1-4.57,6l-15.07.33A4.82,4.82,0,0,1,1247.72,1077.65Z"/><path class="cls-11" d="M1214,1066s2.74-1.57,2.24.79-17.15,14.7-17.15,14.7S1209.35,1068.09,1214,1066Z"/><rect class="cls-14" x="1231.78" y="1084.21" width="9.12" height="1.66" rx="0.83"/><path class="cls-6" d="M1281.54,1082.05h-4.34s-.25,4.49,3.32,6,3.29,0,3.29,0"/><rect class="cls-6" x="1192.21" y="1085.36" width="4.6" height="2.32" rx="1.16"/><rect class="cls-11" x="1165.76" y="1087.54" width="3.23" height="5.95" rx="1.62" transform="translate(1113.02 -506.06) rotate(45)"/><circle class="cls-11" cx="1262.98" cy="1102.19" r="6.26"/><circle class="cls-18" cx="1296.3" cy="1090.8" r="4.27"/><circle class="cls-18" cx="1291.58" cy="1092.54" r="2.5"/><circle class="cls-18" cx="1298.97" cy="1079.7" r="8.73"/><circle class="cls-18" cx="1313.59" cy="1073.5" r="8.73"/><circle class="cls-18" cx="1304.86" cy="1068.74" r="8.73"/><circle class="cls-18" cx="1296.62" cy="1058.06" r="8.73"/><circle class="cls-18" cx="1313.59" cy="1058.06" r="8.73"/><circle class="cls-18" cx="1307.7" cy="1049.33" r="8.73"/><circle class="cls-18" cx="1321.26" cy="1046.3" r="8.73"/><line class="cls-20" x1="1172.72" y1="1117.45" x2="1439.19" y2="1117.45"/><path class="cls-15" d="M1756,1078a3.62,3.62,0,0,0,.2-.45h0A3.19,3.19,0,0,1,1756,1078Z"/><path class="cls-15" d="M1755.52,1078.69a2.65,2.65,0,0,1-.34.33A2.65,2.65,0,0,0,1755.52,1078.69Z"/><path class="cls-15" d="M1749.81,1081.23l-1.23.21Z"/><path class="cls-15" d="M1754.45,1079.61l-.46.26Z"/><path class="cls-15" d="M1753.79,1080a11.39,11.39,0,0,1-2,.75A11.39,11.39,0,0,0,1753.79,1080Z"/><path class="cls-15" d="M1755,1079.18l-.31.23Z"/><path class="cls-15" d="M1755.9,1078.15a4.73,4.73,0,0,1-.32.46A4.73,4.73,0,0,0,1755.9,1078.15Z"/><path class="cls-15" d="M1752.89,1072.71l.31.11Z"/><path class="cls-6" d="M1754.72,1079.41l-.27.2Z"/><path class="cls-2" d="M1795.8,1066.7c.13.82-2.26,1.87-3.1,2-15.45-.34-28.76-5.11-44.12-2.87-.48,2.42-2.63,5.38-1.57,5.82l3.81,1.2c1.85.63,6.65.43,5.34,4.72h0a3.62,3.62,0,0,1-.2.45l-.06.15a4.73,4.73,0,0,1-.32.46.24.24,0,0,0-.06.08,2.65,2.65,0,0,1-.34.33l-.15.16-.31.23-.27.2-.46.26-.2.12a11.39,11.39,0,0,1-2,.75,17,17,0,0,1-2,.49l-1.23.21c-1.21.17-2.33.26-3.14.31-17.06,1.1-33.84,1.47-50.69,4.32-2.34.4-5.83,2.72-7.39,4.2,76.06-.58,143.65-6.36,147-13.51a1.41,1.41,0,0,0,.15-.62C1834.49,1072.51,1819.86,1069.2,1795.8,1066.7Z"/><path class="cls-6" d="M1755.18,1079l-.15.16Z"/><path class="cls-6" d="M1756,1078l-.06.15Z"/><path class="cls-6" d="M1755.58,1078.61a.24.24,0,0,0-.06.08A.24.24,0,0,1,1755.58,1078.61Z"/><path class="cls-6" d="M1748.58,1081.44c-1.21.17-2.33.26-3.14.31C1746.25,1081.7,1747.37,1081.61,1748.58,1081.44Z"/><path class="cls-6" d="M1751.83,1080.74a17,17,0,0,1-2,.49A17,17,0,0,0,1751.83,1080.74Z"/><path class="cls-6" d="M1754,1079.87l-.2.12Z"/><path class="cls-2" d="M1629.29,1087.78c-.63-2.88-4.15-3.9-6.31-5.91a2.29,2.29,0,0,1-.84-1.39c-.11-1.29,1.51-1.94,2.79-2.17a325.06,325.06,0,0,1,71.23-4.66c1.59,0,3.23.4,4.69-.16a3.45,3.45,0,0,0,1.05-.57,1.15,1.15,0,0,0,.42-1.07c-.14-.61-1.48-1.47-1.9-1.94a1.66,1.66,0,0,1,.29-2.38,2.92,2.92,0,0,1,1-.36c5.12-1.11,10.82-.19,16-.25,5.51-.06,11-.29,16.54-.43a14.18,14.18,0,0,0,4.86-.72c1.68-.67,2.59-1.64,2.81-2.64-18.52-.75-38.84-1.17-59.89-1.17-84.17,0-152.41,6.35-152.41,14.18,0,5.44,33,10.17,81.45,12.55,5.83.28,11.9.54,18.15.75A3.58,3.58,0,0,0,1629.29,1087.78Z"/><path class="cls-6" d="M1691.61,1090.29c-2,0-.14-2.39.89-2.71a23.81,23.81,0,0,1,3.22-.76c16.85-2.86,32.66-4,49.72-5.07.81,0,1.93-.14,3.14-.31l1.23-.21a17,17,0,0,0,2-.49,11.39,11.39,0,0,0,2-.75l.2-.12.46-.26.27-.2.31-.23.15-.16a2.65,2.65,0,0,0,.34-.33.24.24,0,0,1,.06-.08,4.73,4.73,0,0,0,.32-.46l.06-.15a3.19,3.19,0,0,0,.2-.46c.87-2.85-.83-3.9-3-4.72l-.31-.11-.81-.3c-2.65-.94-6.71-3.05-2.36-5.06,3.69-1.71,10.46-1.13,14.46-.81,11.67,1,25.77,2,26.58,2.17,2.22.32,5.55-.13,5.45-.77a5.19,5.19,0,0,0-.41-1.24c-14.7-1.5-33.15-2.73-53.83-3.57-.22,1-1.13,2-2.81,2.64a14.18,14.18,0,0,1-4.86.72q-7.83.21-15.65.08c-4.84-.08-9.61.18-14.44.06a11.47,11.47,0,0,0-5.19.64,2.53,2.53,0,0,0-1.12.92,1.22,1.22,0,0,0,0,1.38c.34.39.9.44,1.38.63,1.68.69,1.66,2.42,0,3.12a7.39,7.39,0,0,1-3.21.33,325.06,325.06,0,0,0-71.23,4.66c-1.28.23-2.9.88-2.79,2.17a2.29,2.29,0,0,0,.84,1.39c.61.57,3.12,2.11,3,3a1.69,1.69,0,0,1-1,1.07c-4.17,2.16-8.66,1.24-13.06,2.91.6-.23,9.49.45,11.44.49,3.61.08,7.2.2,10.81.31q10.83.33,21.68.51,13.14.21,26.29.21"/><polygon class="cls-4" points="1590.35 1039.56 1619.34 1039.56 1632.87 1030.49 1604.84 1030.49 1590.35 1039.56"/><polygon class="cls-4" points="1603.87 1039.56 1632.86 1039.56 1646.4 1030.49 1618.37 1030.49 1603.87 1039.56"/><polygon class="cls-4" points="1617.4 1039.56 1646.39 1039.56 1659.92 1030.49 1631.89 1030.49 1617.4 1039.56"/><rect class="cls-4" x="1576.82" y="1039.56" width="28.99" height="25.99"/><polygon class="cls-6" points="1659.95 1039.56 1659.93 1039.56 1605.79 1039.56 1605.79 1065.55 1659.93 1065.55 1659.95 1065.55 1687.02 1065.55 1687.02 1039.56 1659.95 1039.56"/><polygon class="cls-6" points="1619.35 1039.56 1605.81 1039.56 1619.35 1030.49 1619.35 1039.56"/><polygon class="cls-6" points="1632.88 1039.56 1619.35 1039.56 1632.88 1030.49 1632.88 1039.56"/><polygon class="cls-6" points="1646.42 1039.56 1632.88 1039.56 1646.42 1030.49 1646.42 1039.56"/><polygon class="cls-6" points="1659.95 1039.56 1646.42 1039.56 1659.95 1030.49 1659.95 1039.56"/><polygon class="cls-4" points="1576.82 1039.56 1605.81 1039.56 1619.35 1030.49 1591.32 1030.49 1576.82 1039.56"/><rect class="cls-2" x="1612.58" y="1050.19" width="7.74" height="7.74"/><rect class="cls-5" x="1619.13" y="1050.19" width="1.18" height="7.74"/><rect class="cls-2" x="1624.17" y="1050.19" width="7.74" height="7.74"/><rect class="cls-5" x="1630.72" y="1050.19" width="1.18" height="7.74"/><rect class="cls-2" x="1635.76" y="1050.19" width="7.74" height="7.74"/><rect class="cls-5" x="1642.32" y="1050.19" width="1.18" height="7.74"/><rect class="cls-2" x="1647.37" y="1050.19" width="7.74" height="7.74"/><rect class="cls-5" x="1653.92" y="1050.19" width="1.18" height="7.74"/><polygon class="cls-6" points="1675.9 1039.56 1664.86 1039.56 1667.04 992.25 1674.35 992.25 1675.9 1039.56"/><ellipse class="cls-4" cx="1670.69" cy="992.25" rx="3.65" ry="1.16"/><line class="cls-17" x1="1666.64" y1="1000.93" x2="1674.63" y2="1000.93"/><line class="cls-17" x1="1666.19" y1="1010.65" x2="1674.95" y2="1010.65"/><line class="cls-17" x1="1665.74" y1="1020.37" x2="1675.27" y2="1020.37"/><line class="cls-17" x1="1665.29" y1="1030.09" x2="1675.63" y2="1030.09"/><circle class="cls-18" cx="1666.22" cy="982.43" r="3.76"/><circle class="cls-18" cx="1670.36" cy="983.96" r="2.2"/><circle class="cls-18" cx="1663.87" cy="972.67" r="7.67"/><circle class="cls-18" cx="1651.02" cy="967.22" r="7.67"/><circle class="cls-18" cx="1658.69" cy="963.04" r="7.67"/><circle class="cls-18" cx="1665.93" cy="953.64" r="7.67"/><circle class="cls-18" cx="1651.02" cy="953.64" r="7.67"/><circle class="cls-18" cx="1656.19" cy="945.97" r="7.67"/><circle class="cls-18" cx="1644.27" cy="943.31" r="7.67"/><path class="cls-2" d="M1100.17,951.2q15.7-28.92,32.66-57.14c2.84-4.73,6-9.72,11.07-11.92,4.71-2,10.28-1.23,14.91,1s8.52,5.7,12.34,9.14l30.33,27.25c4,3.56,8.87,7.37,14,6,4.51-1.15,7.38-5.92,11.87-7.12,5.86-1.55,11.28,3.49,15,8.3a131,131,0,0,1,17.49,30.79c-15,2.9-30.37.15-45.6-.6-13.72-.68-27.46.28-41.16,1.23l-61,4.26c-1.79.12-3.71.22-5.25-.7s-2.44-2.82-3-4.61a27.93,27.93,0,0,1,1.23-19.35"/><path class="cls-5" d="M1042.81,915.83c3-5.49,4-11.33,9.71-14,8.1-3.82,17.88.36,24.45,6.44,10.64,9.85,19.14,20.82,30.52,30.09,4.71,3.84,10,7.88,16.1,7.57,9.82-.51,15.19-11.56,23.53-16.76,8.18-5.09,19-4.1,27.69.09s15.66,11.13,22.47,17.94c.76.77,1.6,1.77,1.29,2.81s-1.77,1.48-3,1.61l-55.42,6c-19.36,2.1-38.78,4.2-58.26,4.09-11.3-.06-22.62,0-33.88-1.06-4.25-.39-8.42-1.33-12.63-2-4-.64-8.09-.29-12.16-.73a1.26,1.26,0,0,1-.61-.16,1,1,0,0,1-.31-1.09C1022.47,956.3,1041.58,918.09,1042.81,915.83Z"/><ellipse class="cls-2" cx="1140.29" cy="958.6" rx="118" ry="10.98"/><path class="cls-6" d="M1062.43,955.71a4.13,4.13,0,0,1-.9-1.37,9.55,9.55,0,0,1-1-3.3c0-.26-.21-4.09-.14-4.27h-7.13c.07.21-.07,4-.1,4.28a9.69,9.69,0,0,1-1,3.34,3.71,3.71,0,0,1-1,1.32Z"/><ellipse class="cls-16" cx="1056.88" cy="946.77" rx="3.57" ry="0.58"/><path class="cls-6" d="M1062.43,955.71a34.95,34.95,0,0,1-11.18,0,71.13,71.13,0,0,1,11.18,0Z"/><path class="cls-6" d="M1080.45,953.46a4.24,4.24,0,0,1-.9-1.37,9.79,9.79,0,0,1-1-3.3c0-.26-.2-4.09-.13-4.27h-7.13c.07.21-.07,4-.1,4.28a9.75,9.75,0,0,1-1,3.34,3.8,3.8,0,0,1-1,1.32Z"/><ellipse class="cls-16" cx="1074.9" cy="944.52" rx="3.57" ry="0.58"/><path class="cls-6" d="M1080.45,953.46a34.95,34.95,0,0,1-11.18,0,71.13,71.13,0,0,1,11.18,0Z"/><path class="cls-6" d="M1098.47,955.52a4.43,4.43,0,0,1-.91-1.37,10,10,0,0,1-1-3.3c0-.26-.2-4.09-.13-4.27h-7.13c.07.21-.07,4-.1,4.28a9.75,9.75,0,0,1-1,3.34,3.8,3.8,0,0,1-1,1.32Z"/><ellipse class="cls-16" cx="1092.92" cy="946.58" rx="3.57" ry="0.58"/><path class="cls-6" d="M1098.47,955.52a34.95,34.95,0,0,1-11.18,0,71.13,71.13,0,0,1,11.18,0Z"/><path class="cls-6" d="M1197.65,955.52a4.24,4.24,0,0,1-.9-1.37,9.79,9.79,0,0,1-1-3.3c0-.26-.2-4.09-.13-4.27h-7.13c.07.21-.07,4-.1,4.28a9.75,9.75,0,0,1-1,3.34,3.8,3.8,0,0,1-1,1.32Z"/><ellipse class="cls-16" cx="1192.1" cy="946.58" rx="3.57" ry="0.58"/><path class="cls-6" d="M1197.65,955.52a34.95,34.95,0,0,1-11.18,0,71.13,71.13,0,0,1,11.18,0Z"/><path class="cls-6" d="M1230.16,955.52a4.24,4.24,0,0,1-.9-1.37,9.55,9.55,0,0,1-1-3.3c0-.26-.21-4.09-.14-4.27H1221c.07.21-.07,4-.1,4.28a9.75,9.75,0,0,1-1,3.34,3.68,3.68,0,0,1-1,1.32Z"/><ellipse class="cls-16" cx="1224.61" cy="946.58" rx="3.57" ry="0.58"/><path class="cls-6" d="M1230.16,955.52a34.95,34.95,0,0,1-11.18,0,71.13,71.13,0,0,1,11.18,0Z"/><path class="cls-6" d="M1160.63,955.52a4.24,4.24,0,0,1-.9-1.37,9.78,9.78,0,0,1-1-3.3c0-.26-.2-4.09-.13-4.27h-7.13c.07.21-.07,4-.11,4.28a9.53,9.53,0,0,1-1,3.34,3.57,3.57,0,0,1-1,1.32Z"/><ellipse class="cls-16" cx="1155.08" cy="946.58" rx="3.57" ry="0.58"/><path class="cls-6" d="M1160.63,955.52a34.95,34.95,0,0,1-11.18,0,71.13,71.13,0,0,1,11.18,0Z"/></svg>