<svg id="Camada_1" data-name="Camada 1" xmlns="http://www.w3.org/2000/svg" viewBox="0 0 3570 7740.54"><defs><style>.cls-1{fill:#afd1f2;}.cls-2,.cls-37{fill:#ff8c00;}.cls-3,.cls-44,.cls-45,.cls-49{fill:#e1eae6;}.cls-4{fill:#5b8a70;}.cls-5{fill:#bfddce;}.cls-6{fill:#356958;}.cls-7{fill:#3b84db;}.cls-8{fill:#f4d0a8;}.cls-9{fill:#7c400e;}.cls-10{fill:#332727;}.cls-11{fill:#a35713;}.cls-12{fill:#c66c12;}.cls-13,.cls-14,.cls-16,.cls-17,.cls-21,.cls-22,.cls-23,.cls-24,.cls-30,.cls-31,.cls-32,.cls-35,.cls-36,.cls-39,.cls-40,.cls-51,.cls-52,.cls-53,.cls-54{fill:none;}.cls-13,.cls-14,.cls-16,.cls-17{stroke:#1d1d1b;}.cls-13,.cls-14,.cls-16,.cls-17,.cls-21,.cls-22,.cls-23,.cls-24,.cls-30,.cls-31,.cls-32,.cls-35,.cls-39,.cls-40,.cls-51,.cls-52,.cls-53,.cls-54{stroke-miterlimit:10;}.cls-13{stroke-width:2.13px;}.cls-14{stroke-width:2.25px;}.cls-15,.cls-33,.cls-34,.cls-46,.cls-50{fill:#073c29;}.cls-16{stroke-width:2.48px;}.cls-17{stroke-width:2.62px;}.cls-18{fill:#ffaa28;}.cls-19{fill:#2b75bf;}.cls-20{fill:#005bdc;}.cls-21{stroke:#5b8a70;stroke-width:0.77px;}.cls-22,.cls-30,.cls-31,.cls-32,.cls-39,.cls-40,.cls-51,.cls-52,.cls-53,.cls-54{stroke:#ff8c00;}.cls-22{stroke-width:5.35px;}.cls-23{stroke:#bfddce;stroke-width:2.21px;}.cls-24{stroke:#003d23;stroke-width:1.79px;}.cls-25{fill:#003d23;}.cls-26{fill:#625d5a;}.cls-27{fill:#feac02;}.cls-28{fill:#252324;}.cls-29{fill:#7d7875;}.cls-30,.cls-31,.cls-32,.cls-39,.cls-40,.cls-51,.cls-52,.cls-53,.cls-54{stroke-width:8.9px;}.cls-30{stroke-dasharray:12.01 12.01;}.cls-32{stroke-dasharray:12 12;}.cls-33,.cls-37{font-size:65px;}.cls-33,.cls-38{font-family:OpenSans-SemiBold, Open Sans;font-weight:600;}.cls-34{font-size:128px;}.cls-34,.cls-44,.cls-45,.cls-49{font-family:FjallaOne-Regular, Fjalla One;}.cls-35,.cls-36,.cls-41,.cls-42,.cls-43{stroke:#073c29;stroke-linecap:round;stroke-width:20px;}.cls-36,.cls-41,.cls-42,.cls-43{stroke-linejoin:round;}.cls-37{font-family:OpenSans-Bold, Open Sans;font-weight:700;}.cls-39{stroke-dasharray:11.93 11.93;}.cls-40{stroke-dasharray:12.07 12.07;}.cls-41{fill:#053c28;}.cls-42{fill:#033c27;}.cls-43{fill:#023c27;}.cls-44{font-size:116.42px;}.cls-45{font-size:65.25px;}.cls-46{font-size:56px;}.cls-46,.cls-50{font-family:OpenSans-ExtraBold, Open Sans;font-weight:800;}.cls-47{fill:#e5d03c;}.cls-48{fill:#ccba11;}.cls-49{font-size:55.32px;}.cls-50{font-size:55px;}.cls-51{stroke-dasharray:12.05 12.05;}.cls-52{stroke-dasharray:12.05 12.05;}.cls-53{stroke-dasharray:12.01 12.01;}.cls-54{stroke-dasharray:12;}</style></defs><path class="cls-1" d="M2927,2546.57c0-651.76-541.1-1213.74-1192.86-1213.74S554,1894.81,554,2546.57Z"/><circle class="cls-2" cx="1666.03" cy="1524.6" r="82.38"/><circle class="cls-3" cx="1540.53" cy="1559.43" r="57.72"/><circle class="cls-3" cx="1598.24" cy="1609.44" r="57.72"/><circle class="cls-3" cx="1515.47" cy="1609.44" r="57.72"/><circle class="cls-3" cx="1437.72" cy="1617.14" r="45.09"/><circle class="cls-3" cx="1365.45" cy="1635.69" r="35.82"/><circle class="cls-3" cx="1665.12" cy="1626.42" r="45.09"/><polyline class="cls-3" points="1365.45 1671.51 1665.12 1671.51 1665.12 1618.72 1365.45 1635.69"/><rect class="cls-1" y="2546.7" width="3570" height="1984.64"/><path class="cls-4" d="M950.4,2375.13c222.76-9.68,439.65-71,659.88-105.87,211.06-33.38,425.19-42.3,638.63-39.92,105.86,1.17,211.66,5.14,317.39,10.25,95.75,4.62,249.71,28.5,337,69.81,0,0,30.94,153.24,23.7,235.32,0,0-499.66-65.32-746.78-47.82-222,15.72-441.35-36.17-665.6-12.94-103.53,10.72-206.36,33.63-310.4,30.55S1015.3,2456.49,950.4,2375.13Z"/><path class="cls-5" d="M1009.2,2364.18c82.5,15.1,161.38,50.46,244.88,57.26,195.37,15.9,380-125.69,575-105.51,166.34,17.21,311.37,150.27,478.42,144,118.46-4.43,227.87-79.46,346.36-76.63,106.19,2.55,185.14,99.44,273.15,161.4-116.38-2.58-2375.35,0-2375.35,0C642.19,2411,864.68,2337.73,1009.2,2364.18Z"/><path class="cls-6" d="M551.64,2544.72c0-40.94,531.74-74.12,1187.68-74.12,486.58,0,904.82,18.26,1088.35,44.4a291.6,291.6,0,0,0-132.32,34.56c-77.83,9.09-155.63,18.1-233.12,9.44-70.4-7.87-139.81-30.29-210.48-25.49-58.93,4-115.23,26.79-174.05,32.09-77.36,7-154.64-16.61-232.24-13.49-69.57,2.8-136.77,26.92-206.23,31.75-74.5,5.18-148.67-12-223.3-14.79-98.72-3.74-196.46,17.58-292.91,39C780.44,2595.1,551.64,2571.58,551.64,2544.72Z"/><path class="cls-7" d="M1415.93,2569.07c74.63,2.82,148.8,20,223.3,14.79,69.46-4.83,136.66-29,206.23-31.75,77.6-3.12,154.88,20.45,232.24,13.49,58.82-5.3,115.12-28.09,174.05-32.09,70.67-4.8,140.08,17.62,210.48,25.49,77.49,8.66,155.29-.35,233.12-9.44q-5.59,3-11.06,6.29,5.46-3.29,11.06-6.29c76-8.88,152-17.83,227.73-10.48-75.76-7.35-151.76,1.6-227.73,10.48A291.6,291.6,0,0,1,2827.67,2515c63.87,9.1,99.32,19.15,99.32,29.72,0,40.94-531.74,74.13-1187.67,74.13-225.67,0-436.63-3.93-616.3-10.75C1219.47,2586.65,1317.21,2565.33,1415.93,2569.07Z"/><path class="cls-3" d="M2927,4510.22c0-651.76-541.1-1213.74-1192.86-1213.74S554,3858.46,554,4510.22Z"/><path class="cls-3" d="M2927,4510.22c0-651.76-541.1-1213.74-1192.86-1213.74S554,3858.46,554,4510.22Z"/><path class="cls-2" d="M1397.75,4335.48c-2.3-1.7-4-5.6-5.33-8.11-3.16-6-4.74-12.77-5.61-19.46-.2-1.55-1.19-24.13-.79-25.19h-42.09c.43,1.23-.41,23.7-.62,25.26-.88,6.78-2.5,13.65-5.77,19.71-1.33,2.47-3.32,6.27-5.79,7.79Z"/><ellipse class="cls-8" cx="1364.97" cy="4282.72" rx="21.04" ry="3.41"/><path class="cls-2" d="M1397.75,4335.48c0,.73-14.78,2.63-33,2.63s-33-1.9-33-2.63,14.77-1.31,33-1.31S1397.75,4334.75,1397.75,4335.48Z"/><path class="cls-2" d="M2770,4231.13c-2.29-1.7-4-5.6-5.32-8.11-3.17-6-4.75-12.77-5.61-19.46-.2-1.55-1.2-24.13-.8-25.19h-42.08c.43,1.23-.42,23.7-.62,25.26-.88,6.78-2.51,13.65-5.77,19.71-1.33,2.47-3.33,6.27-5.79,7.79Z"/><ellipse class="cls-8" cx="2737.23" cy="4178.37" rx="21.04" ry="3.41"/><path class="cls-2" d="M2770,4231.13c0,.73-14.77,2.63-33,2.63s-33-1.9-33-2.63,14.77-1.31,33-1.31S2770,4230.4,2770,4231.13Z"/><path class="cls-2" d="M2873.33,4249.05c-2.29-1.7-4-5.6-5.32-8.12-3.17-6-4.75-12.77-5.61-19.45-.2-1.55-1.2-24.13-.8-25.19h-42.08c.43,1.23-.42,23.7-.62,25.25-.88,6.79-2.51,13.66-5.77,19.72-1.33,2.47-3.33,6.27-5.79,7.79Z"/><ellipse class="cls-8" cx="2840.56" cy="4196.29" rx="21.04" ry="3.41"/><path class="cls-2" d="M2873.33,4249.05c0,.72-14.77,2.63-33,2.63s-33-1.91-33-2.63,14.77-1.32,33-1.32S2873.33,4248.32,2873.33,4249.05Z"/><path class="cls-2" d="M1480.1,4313.53c-1.89-1.4-3.29-4.6-4.38-6.67a47.25,47.25,0,0,1-4.61-16c-.17-1.28-1-19.84-.66-20.71h-34.61c.36,1-.33,19.48-.5,20.76a46.9,46.9,0,0,1-4.75,16.22c-1.09,2-2.73,5.15-4.76,6.4Z"/><ellipse class="cls-8" cx="1453.15" cy="4270.15" rx="17.3" ry="2.8"/><path class="cls-2" d="M1480.1,4313.53c0,.6-12.15,2.16-27.14,2.16s-27.13-1.56-27.13-2.16,12.15-1.08,27.13-1.08S1480.1,4312.93,1480.1,4313.53Z"/><path class="cls-2" d="M699.61,4445.65c-1.89-1.4-3.29-4.61-4.38-6.68a47.2,47.2,0,0,1-4.61-16c-.17-1.28-1-19.84-.65-20.72H655.36c.35,1-.34,19.49-.51,20.77a46.79,46.79,0,0,1-4.75,16.21c-1.09,2-2.73,5.16-4.76,6.41Z"/><ellipse class="cls-8" cx="672.66" cy="4402.26" rx="17.3" ry="2.8"/><path class="cls-2" d="M699.61,4445.65c0,.59-12.15,2.16-27.13,2.16s-27.14-1.57-27.14-2.16,12.15-1.09,27.14-1.09S699.61,4445.05,699.61,4445.65Z"/><path class="cls-2" d="M764.52,4417.55c-1.89-1.4-3.29-4.61-4.38-6.67a47.25,47.25,0,0,1-4.61-16c-.17-1.28-1-19.84-.65-20.72H720.27c.35,1-.34,19.49-.51,20.77a46.69,46.69,0,0,1-4.75,16.22c-1.09,2-2.73,5.15-4.76,6.4Z"/><ellipse class="cls-8" cx="737.57" cy="4374.16" rx="17.3" ry="2.8"/><path class="cls-2" d="M764.52,4417.55c0,.59-12.15,2.16-27.13,2.16s-27.14-1.57-27.14-2.16,12.15-1.08,27.14-1.08S764.52,4417,764.52,4417.55Z"/><path class="cls-9" d="M1080.46,4359.52c213.21-9.27,420.79-68,631.58-101.33,203.07-32.12,408.95-43.13,614.35-44.26,186.52-1,374-9.33,569.81,19.62,38,94.78,38,297.78,38,297.78-52,27.44-186.53-72.42-243.72-72q-216.71,1.48-433,16.77c-212.51,15-422.42-34.62-637.05-12.39-99.09,10.27-197.52,32.19-297.09,29.24S1142.58,4437.39,1080.46,4359.52Z"/><path class="cls-10" d="M2354.27,4207.31s-287.8-2.2-598.93,128.83l158,26.09s427.83-156.42,698-145.23C2611.35,4217,2509.7,4202,2354.27,4207.31Z"/><path class="cls-11" d="M1012.91,4382.57c82.82,14.54,162,48.6,245.82,55.15,196.11,15.32,381.44-121.08,577.18-101.64,167,16.58,312.57,144.77,480.26,138.74,118.9-4.27,228.73-76.55,347.69-73.81,106.59,2.45,182,64.33,270.37,124-116.83-2.48-2380.64.73-2380.64.73C644.49,4396.9,867.84,4357.08,1012.91,4382.57Z"/><ellipse class="cls-12" cx="1743.91" cy="4531.33" rx="1190.32" ry="74.29"/><path class="cls-13" d="M2537.65,2013.26a114,114,0,0,1,114-114"/><circle class="cls-10" cx="2636.35" cy="1899.24" r="6.38"/><circle class="cls-10" cx="2620.39" cy="1903.23" r="6.38"/><circle class="cls-10" cx="2606.23" cy="1908.51" r="6.38"/><circle class="cls-10" cx="2592.06" cy="1914.9" r="6.38"/><circle class="cls-10" cx="2579.77" cy="1923.84" r="6.38"/><circle class="cls-10" cx="2568.99" cy="1934.21" r="6.38"/><circle class="cls-10" cx="2559.32" cy="1947.11" r="6.38"/><circle class="cls-10" cx="2549.65" cy="1960.01" r="6.38"/><circle class="cls-10" cx="2544.03" cy="1975.17" r="6.38"/><circle class="cls-10" cx="2538.99" cy="1990.33" r="6.38"/><circle class="cls-10" cx="2537.65" cy="2006.88" r="6.38"/><path class="cls-13" d="M2515.71,1984.15A114,114,0,0,1,2649,1893.41"/><circle class="cls-10" cx="2633.97" cy="1890.55" r="6.38"/><circle class="cls-10" cx="2617.54" cy="1891.49" r="6.38"/><circle class="cls-10" cx="2602.64" cy="1894.04" r="6.38"/><circle class="cls-10" cx="2587.53" cy="1897.67" r="6.38"/><circle class="cls-10" cx="2573.79" cy="1904.16" r="6.38"/><circle class="cls-10" cx="2561.27" cy="1912.34" r="6.38"/><circle class="cls-10" cx="2549.35" cy="1923.2" r="6.38"/><circle class="cls-10" cx="2537.44" cy="1934.07" r="6.38"/><circle class="cls-10" cx="2529.09" cy="1947.92" r="6.38"/><circle class="cls-10" cx="2521.31" cy="1961.87" r="6.38"/><circle class="cls-10" cx="2516.9" cy="1977.87" r="6.38"/><path class="cls-13" d="M2567.53,2044.29a114,114,0,0,1,81.16-139.35"/><circle class="cls-10" cx="2633.88" cy="1908.85" r="6.38"/><circle class="cls-10" cx="2619.46" cy="1916.78" r="6.38"/><circle class="cls-10" cx="2607.11" cy="1925.5" r="6.38"/><circle class="cls-10" cx="2595.05" cy="1935.29" r="6.38"/><circle class="cls-10" cx="2585.44" cy="1947.07" r="6.38"/><circle class="cls-10" cx="2577.67" cy="1959.85" r="6.38"/><circle class="cls-10" cx="2571.61" cy="1974.79" r="6.38"/><circle class="cls-10" cx="2565.55" cy="1989.73" r="6.38"/><circle class="cls-10" cx="2563.99" cy="2005.82" r="6.38"/><circle class="cls-10" cx="2562.98" cy="2021.77" r="6.38"/><circle class="cls-10" cx="2565.9" cy="2038.11" r="6.38"/><path class="cls-14" d="M2600,2076.34a120.74,120.74,0,0,1,48.71-163.67"/><circle class="cls-10" cx="2634.44" cy="1920.39" r="6.76"/><circle class="cls-10" cx="2621.59" cy="1932.15" r="6.76"/><circle class="cls-10" cx="2611.06" cy="1944.22" r="6.76"/><circle class="cls-10" cx="2601.09" cy="1957.31" r="6.76"/><circle class="cls-10" cx="2594.15" cy="1971.83" r="6.76"/><circle class="cls-10" cx="2589.34" cy="1986.92" r="6.76"/><circle class="cls-10" cx="2586.84" cy="2003.81" r="6.76"/><circle class="cls-10" cx="2584.33" cy="2020.69" r="6.76"/><circle class="cls-10" cx="2586.74" cy="2037.65" r="6.76"/><circle class="cls-10" cx="2589.69" cy="2054.31" r="6.76"/><circle class="cls-10" cx="2596.78" cy="2070.39" r="6.76"/><path class="cls-13" d="M2768.75,2039.48a114,114,0,0,0-114-114"/><circle class="cls-10" cx="2670.04" cy="1925.45" r="6.38"/><circle class="cls-10" cx="2686" cy="1929.45" r="6.38"/><circle class="cls-10" cx="2700.17" cy="1934.73" r="6.38"/><circle class="cls-10" cx="2714.33" cy="1941.12" r="6.38"/><circle class="cls-10" cx="2726.62" cy="1950.06" r="6.38"/><circle class="cls-10" cx="2737.4" cy="1960.43" r="6.38"/><circle class="cls-10" cx="2747.07" cy="1973.33" r="6.38"/><circle class="cls-10" cx="2756.74" cy="1986.23" r="6.38"/><circle class="cls-10" cx="2762.36" cy="2001.39" r="6.38"/><circle class="cls-10" cx="2767.41" cy="2016.55" r="6.38"/><circle class="cls-10" cx="2768.75" cy="2033.1" r="6.38"/><path class="cls-13" d="M2790.68,2010.37a114,114,0,0,0-133.31-90.74"/><circle class="cls-10" cx="2672.42" cy="1916.77" r="6.38"/><circle class="cls-10" cx="2688.85" cy="1917.71" r="6.38"/><circle class="cls-10" cx="2703.75" cy="1920.26" r="6.38"/><circle class="cls-10" cx="2718.86" cy="1923.89" r="6.38"/><circle class="cls-10" cx="2732.61" cy="1930.38" r="6.38"/><circle class="cls-10" cx="2745.13" cy="1938.56" r="6.38"/><circle class="cls-10" cx="2757.04" cy="1949.42" r="6.38"/><circle class="cls-10" cx="2768.95" cy="1960.29" r="6.38"/><circle class="cls-10" cx="2777.3" cy="1974.13" r="6.38"/><circle class="cls-10" cx="2785.09" cy="1988.09" r="6.38"/><circle class="cls-10" cx="2789.49" cy="2004.09" r="6.38"/><path class="cls-13" d="M2738.86,2070.5a114,114,0,0,0-81.16-139.34"/><circle class="cls-10" cx="2672.52" cy="1935.06" r="6.38"/><circle class="cls-10" cx="2686.93" cy="1943" r="6.38"/><circle class="cls-10" cx="2699.28" cy="1951.72" r="6.38"/><circle class="cls-10" cx="2711.35" cy="1961.51" r="6.38"/><circle class="cls-10" cx="2720.95" cy="1973.29" r="6.38"/><circle class="cls-10" cx="2728.72" cy="1986.07" r="6.38"/><circle class="cls-10" cx="2734.78" cy="2001.01" r="6.38"/><circle class="cls-10" cx="2740.84" cy="2015.95" r="6.38"/><circle class="cls-10" cx="2742.41" cy="2032.04" r="6.38"/><circle class="cls-10" cx="2743.42" cy="2047.99" r="6.38"/><circle class="cls-10" cx="2740.49" cy="2064.33" r="6.38"/><path class="cls-14" d="M2706.39,2102.56a120.75,120.75,0,0,0-48.7-163.67"/><circle class="cls-10" cx="2671.95" cy="1946.61" r="6.76"/><circle class="cls-10" cx="2684.81" cy="1958.37" r="6.76"/><circle class="cls-10" cx="2695.33" cy="1970.44" r="6.76"/><circle class="cls-10" cx="2705.31" cy="1983.53" r="6.76"/><circle class="cls-10" cx="2712.25" cy="1998.04" r="6.76"/><circle class="cls-10" cx="2717.05" cy="2013.14" r="6.76"/><circle class="cls-10" cx="2719.56" cy="2030.02" r="6.76"/><circle class="cls-10" cx="2722.06" cy="2046.91" r="6.76"/><circle class="cls-10" cx="2719.65" cy="2063.86" r="6.76"/><circle class="cls-10" cx="2716.7" cy="2080.53" r="6.76"/><circle class="cls-10" cx="2709.61" cy="2096.61" r="6.76"/><path class="cls-2" d="M2673.42,1820.88l-28.11-33.83-5.14,22.37s-18.36,247,5.14,706.29c0,4.42,7.49,8,16.73,8s16.74-3.59,16.74-8C2657,2077.78,2673.42,1820.88,2673.42,1820.88Z"/><path class="cls-15" d="M2603.3,1797.73s-62,34.18-75.48,78.33,0,52.69,0,52.69l127.46-125.32,130.31,125.32s32-50.55-44.86-111.08-95.42-30.62-95.42-30.62Z"/><path class="cls-4" d="M2816.2,1760.71c-58.39-24.21-123.18,0-123.18,0l100.4-101.83c-73.34-36.32-135.29,81.18-135.29,81.18s-62-117.5-135.3-81.18l100.4,101.83s-64.79-24.21-123.18,0c-37.22,22.78-30.62,37-30.62,37h377.39S2853.42,1783.49,2816.2,1760.71Z"/><path class="cls-13" d="M769.06,2057.42a114,114,0,0,1,114-114"/><circle class="cls-10" cx="867.77" cy="1943.39" r="6.38"/><circle class="cls-10" cx="851.81" cy="1947.38" r="6.38"/><circle class="cls-10" cx="837.64" cy="1952.67" r="6.38"/><circle class="cls-10" cx="823.48" cy="1959.06" r="6.38"/><circle class="cls-10" cx="811.19" cy="1968" r="6.38"/><circle class="cls-10" cx="800.41" cy="1978.37" r="6.38"/><circle class="cls-10" cx="790.74" cy="1991.27" r="6.38"/><circle class="cls-10" cx="781.07" cy="2004.17" r="6.38"/><circle class="cls-10" cx="775.45" cy="2019.33" r="6.38"/><circle class="cls-10" cx="770.4" cy="2034.49" r="6.38"/><circle class="cls-10" cx="769.06" cy="2051.04" r="6.38"/><path class="cls-13" d="M747.13,2028.31a114,114,0,0,1,133.31-90.74"/><circle class="cls-10" cx="865.39" cy="1934.71" r="6.38"/><circle class="cls-10" cx="848.96" cy="1935.65" r="6.38"/><circle class="cls-10" cx="834.06" cy="1938.2" r="6.38"/><circle class="cls-10" cx="818.95" cy="1941.83" r="6.38"/><circle class="cls-10" cx="805.2" cy="1948.32" r="6.38"/><circle class="cls-10" cx="792.68" cy="1956.5" r="6.38"/><circle class="cls-10" cx="780.77" cy="1967.36" r="6.38"/><circle class="cls-10" cx="768.86" cy="1978.23" r="6.38"/><circle class="cls-10" cx="760.51" cy="1992.07" r="6.38"/><circle class="cls-10" cx="752.72" cy="2006.03" r="6.38"/><circle class="cls-10" cx="748.32" cy="2022.03" r="6.38"/><path class="cls-13" d="M799,2088.44a114,114,0,0,1,81.16-139.35"/><circle class="cls-10" cx="865.29" cy="1953" r="6.38"/><circle class="cls-10" cx="850.88" cy="1960.93" r="6.38"/><circle class="cls-10" cx="838.53" cy="1969.66" r="6.38"/><circle class="cls-10" cx="826.46" cy="1979.45" r="6.38"/><circle class="cls-10" cx="816.86" cy="1991.23" r="6.38"/><circle class="cls-10" cx="809.09" cy="2004.01" r="6.38"/><circle class="cls-10" cx="803.03" cy="2018.95" r="6.38"/><circle class="cls-10" cx="796.97" cy="2033.89" r="6.38"/><circle class="cls-10" cx="795.4" cy="2049.98" r="6.38"/><circle class="cls-10" cx="794.39" cy="2065.93" r="6.38"/><circle class="cls-10" cx="797.32" cy="2082.27" r="6.38"/><path class="cls-14" d="M831.42,2120.5a120.75,120.75,0,0,1,48.7-163.67"/><circle class="cls-10" cx="865.86" cy="1964.55" r="6.76"/><circle class="cls-10" cx="853" cy="1976.31" r="6.76"/><circle class="cls-10" cx="842.48" cy="1988.38" r="6.76"/><circle class="cls-10" cx="832.5" cy="2001.46" r="6.76"/><circle class="cls-10" cx="825.56" cy="2015.98" r="6.76"/><circle class="cls-10" cx="820.76" cy="2031.08" r="6.76"/><circle class="cls-10" cx="818.25" cy="2047.96" r="6.76"/><circle class="cls-10" cx="815.75" cy="2064.85" r="6.76"/><circle class="cls-10" cx="818.16" cy="2081.8" r="6.76"/><circle class="cls-10" cx="821.11" cy="2098.47" r="6.76"/><circle class="cls-10" cx="828.2" cy="2114.55" r="6.76"/><path class="cls-13" d="M1000.16,2083.64a114,114,0,0,0-114-114"/><circle class="cls-10" cx="901.46" cy="1969.61" r="6.38"/><circle class="cls-10" cx="917.42" cy="1973.6" r="6.38"/><circle class="cls-10" cx="931.58" cy="1978.89" r="6.38"/><circle class="cls-10" cx="945.75" cy="1985.28" r="6.38"/><circle class="cls-10" cx="958.04" cy="1994.21" r="6.38"/><circle class="cls-10" cx="968.82" cy="2004.59" r="6.38"/><circle class="cls-10" cx="978.49" cy="2017.49" r="6.38"/><circle class="cls-10" cx="988.16" cy="2030.38" r="6.38"/><circle class="cls-10" cx="993.78" cy="2045.55" r="6.38"/><circle class="cls-10" cx="998.82" cy="2060.71" r="6.38"/><circle class="cls-10" cx="1000.16" cy="2077.26" r="6.38"/><path class="cls-13" d="M1022.1,2054.52a114,114,0,0,0-133.31-90.73"/><circle class="cls-10" cx="903.84" cy="1960.93" r="6.38"/><circle class="cls-10" cx="920.27" cy="1961.87" r="6.38"/><circle class="cls-10" cx="935.17" cy="1964.42" r="6.38"/><circle class="cls-10" cx="950.28" cy="1968.05" r="6.38"/><circle class="cls-10" cx="964.02" cy="1974.53" r="6.38"/><circle class="cls-10" cx="976.54" cy="1982.72" r="6.38"/><circle class="cls-10" cx="988.46" cy="1993.58" r="6.38"/><circle class="cls-10" cx="1000.37" cy="2004.44" r="6.38"/><circle class="cls-10" cx="1008.72" cy="2018.29" r="6.38"/><circle class="cls-10" cx="1016.5" cy="2032.25" r="6.38"/><circle class="cls-10" cx="1020.91" cy="2048.25" r="6.38"/><path class="cls-13" d="M970.28,2114.66a114,114,0,0,0-81.16-139.35"/><circle class="cls-10" cx="903.93" cy="1979.22" r="6.38"/><circle class="cls-10" cx="918.35" cy="1987.15" r="6.38"/><circle class="cls-10" cx="930.7" cy="1995.88" r="6.38"/><circle class="cls-10" cx="942.76" cy="2005.67" r="6.38"/><circle class="cls-10" cx="952.37" cy="2017.45" r="6.38"/><circle class="cls-10" cx="960.14" cy="2030.23" r="6.38"/><circle class="cls-10" cx="966.2" cy="2045.17" r="6.38"/><circle class="cls-10" cx="972.26" cy="2060.11" r="6.38"/><circle class="cls-10" cx="973.82" cy="2076.2" r="6.38"/><circle class="cls-10" cx="974.83" cy="2092.15" r="6.38"/><circle class="cls-10" cx="971.91" cy="2108.49" r="6.38"/><path class="cls-14" d="M937.81,2146.72a120.74,120.74,0,0,0-48.71-163.67"/><circle class="cls-10" cx="903.37" cy="1990.77" r="6.76"/><circle class="cls-10" cx="916.22" cy="2002.53" r="6.76"/><circle class="cls-10" cx="926.75" cy="2014.6" r="6.76"/><circle class="cls-10" cx="936.72" cy="2027.68" r="6.76"/><circle class="cls-10" cx="943.66" cy="2042.2" r="6.76"/><circle class="cls-10" cx="948.47" cy="2057.3" r="6.76"/><circle class="cls-10" cx="950.97" cy="2074.18" r="6.76"/><circle class="cls-10" cx="953.48" cy="2091.07" r="6.76"/><circle class="cls-10" cx="951.07" cy="2108.02" r="6.76"/><circle class="cls-10" cx="948.12" cy="2124.69" r="6.76"/><circle class="cls-10" cx="941.03" cy="2140.77" r="6.76"/><path class="cls-2" d="M904.83,1865l-28.1-33.82-5.15,22.37s-18.35,219.74,5.15,679c0,4.43,7.49,8,16.73,8s16.73-3.58,16.73-8C888.42,2094.68,904.83,1865,904.83,1865Z"/><path class="cls-15" d="M834.71,1841.89s-62,34.18-75.48,78.33,0,52.69,0,52.69l127.46-125.32L1017,1972.91s32-50.55-44.86-111.08-95.41-30.62-95.41-30.62Z"/><path class="cls-4" d="M1047.62,1804.86c-58.39-24.21-123.19,0-123.19,0L1024.84,1703c-73.35-36.32-135.3,81.17-135.3,81.17S827.59,1666.72,754.25,1703l100.4,101.82s-64.8-24.21-123.19,0c-37.22,22.79-30.62,37-30.62,37h377.4S1084.84,1827.65,1047.62,1804.86Z"/><circle class="cls-3" cx="2271.04" cy="1704.62" r="57.72"/><circle class="cls-3" cx="2328.76" cy="1754.64" r="57.72"/><circle class="cls-3" cx="2245.99" cy="1754.64" r="57.72"/><circle class="cls-3" cx="2168.23" cy="1762.34" r="45.09"/><circle class="cls-3" cx="2095.96" cy="1780.89" r="35.82"/><circle class="cls-3" cx="2395.63" cy="1771.61" r="45.09"/><polyline class="cls-3" points="2095.96 1816.71 2395.63 1816.71 2395.63 1763.91 2095.96 1780.89"/><circle class="cls-3" cx="1256.37" cy="1727.64" r="80.73"/><circle class="cls-3" cx="1175.63" cy="1797.6" r="80.73"/><circle class="cls-3" cx="1291.41" cy="1797.6" r="80.73"/><circle class="cls-3" cx="1400.18" cy="1808.37" r="63.08"/><circle class="cls-3" cx="1501.26" cy="1834.32" r="50.1"/><circle class="cls-3" cx="1082.09" cy="1821.35" r="63.08"/><polyline class="cls-3" points="1501.26 1884.42 1082.09 1884.42 1082.09 1810.57 1501.26 1834.32"/><circle class="cls-15" cx="1938.7" cy="2000.02" r="121.45"/><circle class="cls-15" cx="1760.92" cy="1968.13" r="121.45"/><path class="cls-2" d="M1830.09,1939.2s5.47,476.49,7.11,573.88c.06,3.38,18.68,6.78,25.75,6.78s23,0,23.23-8.87c0,0-16.34-519.2-7.62-571.79"/><circle class="cls-6" cx="1832.84" cy="1677.33" r="121.45"/><circle class="cls-6" cx="1507.05" cy="2141.86" r="121.45"/><circle class="cls-6" cx="1685.09" cy="1977.91" r="121.45"/><circle class="cls-6" cx="1852.82" cy="1856.46" r="121.45"/><circle class="cls-6" cx="1974.27" cy="1689.47" r="121.45"/><circle class="cls-6" cx="2038.03" cy="1856.46" r="121.45"/><circle class="cls-6" cx="2132.15" cy="2005.23" r="85.88"/><circle class="cls-6" cx="2110.89" cy="1762.34" r="85.88"/><circle class="cls-6" cx="1731.37" cy="2106.29" r="85.88"/><circle class="cls-6" cx="1668.88" cy="1762.34" r="146.36"/><circle class="cls-6" cx="1478.36" cy="1931.67" r="146.36"/><circle class="cls-15" cx="2494.44" cy="2143.03" r="88.04"/><circle class="cls-15" cx="2623.31" cy="2119.92" r="88.04"/><path class="cls-2" d="M2573.17,2098.94s-4,345.41-5.16,416c0,2.45-13.54,4.91-18.66,4.91s-16.68,0-16.84-6.43c0,0,11.85-376.36,5.52-414.49"/><circle class="cls-6" cx="2571.17" cy="1909.12" r="88.04"/><circle class="cls-6" cx="2807.34" cy="2245.85" r="88.04"/><circle class="cls-6" cx="2678.27" cy="2127.01" r="88.04"/><circle class="cls-6" cx="2556.69" cy="2038.97" r="88.04"/><circle class="cls-6" cx="2468.65" cy="1917.92" r="88.04"/><circle class="cls-6" cx="2422.44" cy="2038.97" r="88.04"/><circle class="cls-6" cx="2354.21" cy="2146.81" r="62.25"/><circle class="cls-6" cx="2369.61" cy="1970.74" r="62.25"/><circle class="cls-6" cx="2644.73" cy="2220.07" r="62.25"/><circle class="cls-6" cx="2690.02" cy="1970.74" r="106.1"/><circle class="cls-6" cx="2828.13" cy="2093.49" r="106.1"/><circle class="cls-15" cx="1933.7" cy="2143.03" r="88.04"/><circle class="cls-15" cx="2062.57" cy="2119.92" r="88.04"/><path class="cls-2" d="M2012.43,2098.94s-4,345.41-5.16,416c0,2.45-13.53,4.91-18.66,4.91s-16.68,0-16.84-6.43c0,0,11.85-376.36,5.52-414.49"/><circle class="cls-6" cx="2010.44" cy="1909.12" r="88.04"/><circle class="cls-6" cx="2246.6" cy="2245.85" r="88.04"/><circle class="cls-6" cx="2117.54" cy="2127.01" r="88.04"/><circle class="cls-6" cx="1995.95" cy="2038.97" r="88.04"/><circle class="cls-6" cx="1907.92" cy="1917.92" r="88.04"/><circle class="cls-6" cx="1861.7" cy="2038.97" r="88.04"/><circle class="cls-6" cx="1793.47" cy="2146.81" r="62.25"/><circle class="cls-6" cx="1808.88" cy="1970.74" r="62.25"/><circle class="cls-6" cx="2083.99" cy="2220.07" r="62.25"/><circle class="cls-6" cx="2129.29" cy="1970.74" r="106.1"/><circle class="cls-6" cx="2267.39" cy="2093.49" r="106.1"/><circle class="cls-15" cx="1092.02" cy="2143.03" r="88.04"/><circle class="cls-15" cx="1220.89" cy="2119.92" r="88.04"/><path class="cls-2" d="M1170.75,2098.94s-4,345.41-5.16,416c0,2.45-13.53,4.91-18.66,4.91s-16.67,0-16.83-6.43c0,0,11.84-376.36,5.52-414.49"/><circle class="cls-6" cx="1168.76" cy="1909.12" r="88.04"/><circle class="cls-6" cx="1404.92" cy="2245.85" r="88.04"/><circle class="cls-6" cx="1275.86" cy="2127.01" r="88.04"/><circle class="cls-6" cx="1154.27" cy="2038.97" r="88.04"/><circle class="cls-6" cx="1066.24" cy="1917.92" r="88.04"/><circle class="cls-6" cx="1020.02" cy="2038.97" r="88.04"/><circle class="cls-6" cx="951.79" cy="2146.81" r="62.25"/><circle class="cls-6" cx="967.2" cy="1970.74" r="62.25"/><circle class="cls-6" cx="1242.31" cy="2220.07" r="62.25"/><circle class="cls-6" cx="1287.61" cy="1970.74" r="106.1"/><circle class="cls-6" cx="1425.72" cy="2093.49" r="106.1"/><path class="cls-16" d="M1463.24,1977.21a133,133,0,0,1,133-133"/><circle class="cls-10" cx="1578.33" cy="1844.26" r="7.44"/><circle class="cls-10" cx="1559.72" cy="1848.91" r="7.44"/><circle class="cls-10" cx="1543.2" cy="1855.07" r="7.44"/><circle class="cls-10" cx="1526.68" cy="1862.52" r="7.44"/><circle class="cls-10" cx="1512.35" cy="1872.94" r="7.44"/><circle class="cls-10" cx="1499.79" cy="1885.04" r="7.44"/><circle class="cls-10" cx="1488.51" cy="1900.08" r="7.44"/><circle class="cls-10" cx="1477.23" cy="1915.12" r="7.44"/><circle class="cls-10" cx="1470.68" cy="1932.8" r="7.44"/><circle class="cls-10" cx="1464.8" cy="1950.48" r="7.44"/><circle class="cls-10" cx="1463.24" cy="1969.77" r="7.44"/><path class="cls-16" d="M1437.66,1943.26a133,133,0,0,1,155.44-105.79"/><circle class="cls-10" cx="1575.55" cy="1834.13" r="7.44"/><circle class="cls-10" cx="1556.4" cy="1835.23" r="7.44"/><circle class="cls-10" cx="1539.02" cy="1838.2" r="7.44"/><circle class="cls-10" cx="1521.4" cy="1842.43" r="7.44"/><circle class="cls-10" cx="1505.38" cy="1849.99" r="7.44"/><circle class="cls-10" cx="1490.78" cy="1859.53" r="7.44"/><circle class="cls-10" cx="1476.89" cy="1872.2" r="7.44"/><circle class="cls-10" cx="1463" cy="1884.87" r="7.44"/><circle class="cls-10" cx="1453.27" cy="1901.02" r="7.44"/><circle class="cls-10" cx="1444.19" cy="1917.29" r="7.44"/><circle class="cls-10" cx="1439.05" cy="1935.95" r="7.44"/><path class="cls-16" d="M1498.08,2013.38a133,133,0,0,1,94.63-162.48"/><circle class="cls-10" cx="1575.44" cy="1855.46" r="7.44"/><circle class="cls-10" cx="1558.63" cy="1864.71" r="7.44"/><circle class="cls-10" cx="1544.24" cy="1874.88" r="7.44"/><circle class="cls-10" cx="1530.16" cy="1886.3" r="7.44"/><circle class="cls-10" cx="1518.97" cy="1900.03" r="7.44"/><circle class="cls-10" cx="1509.91" cy="1914.93" r="7.44"/><circle class="cls-10" cx="1502.84" cy="1932.35" r="7.44"/><circle class="cls-10" cx="1495.77" cy="1949.77" r="7.44"/><circle class="cls-10" cx="1493.95" cy="1968.54" r="7.44"/><circle class="cls-10" cx="1492.77" cy="1987.13" r="7.44"/><circle class="cls-10" cx="1496.18" cy="2006.19" r="7.44"/><path class="cls-17" d="M1535.94,2050.76a140.8,140.8,0,0,1,56.79-190.84"/><circle class="cls-10" cx="1576.1" cy="1868.92" r="7.88"/><circle class="cls-10" cx="1561.11" cy="1882.64" r="7.88"/><circle class="cls-10" cx="1548.84" cy="1896.71" r="7.88"/><circle class="cls-10" cx="1537.21" cy="1911.97" r="7.88"/><circle class="cls-10" cx="1529.12" cy="1928.9" r="7.88"/><circle class="cls-10" cx="1523.52" cy="1946.5" r="7.88"/><circle class="cls-10" cx="1520.59" cy="1966.18" r="7.88"/><circle class="cls-10" cx="1517.67" cy="1985.87" r="7.88"/><circle class="cls-10" cx="1520.48" cy="2005.64" r="7.88"/><circle class="cls-10" cx="1523.92" cy="2025.07" r="7.88"/><circle class="cls-10" cx="1532.19" cy="2043.82" r="7.88"/><path class="cls-16" d="M1732.7,2007.78a133,133,0,0,0-133-133"/><circle class="cls-10" cx="1617.61" cy="1874.83" r="7.44"/><circle class="cls-10" cx="1636.22" cy="1879.48" r="7.44"/><circle class="cls-10" cx="1652.74" cy="1885.65" r="7.44"/><circle class="cls-10" cx="1669.25" cy="1893.09" r="7.44"/><circle class="cls-10" cx="1683.58" cy="1903.51" r="7.44"/><circle class="cls-10" cx="1696.15" cy="1915.61" r="7.44"/><circle class="cls-10" cx="1707.43" cy="1930.65" r="7.44"/><circle class="cls-10" cx="1718.7" cy="1945.69" r="7.44"/><circle class="cls-10" cx="1725.26" cy="1963.37" r="7.44"/><circle class="cls-10" cx="1731.14" cy="1981.05" r="7.44"/><circle class="cls-10" cx="1732.7" cy="2000.34" r="7.44"/><path class="cls-16" d="M1758.28,1973.83A133,133,0,0,0,1602.84,1868"/><circle class="cls-10" cx="1620.39" cy="1864.7" r="7.44"/><circle class="cls-10" cx="1639.54" cy="1865.8" r="7.44"/><circle class="cls-10" cx="1656.92" cy="1868.77" r="7.44"/><circle class="cls-10" cx="1674.53" cy="1873" r="7.44"/><circle class="cls-10" cx="1690.56" cy="1880.57" r="7.44"/><circle class="cls-10" cx="1705.16" cy="1890.1" r="7.44"/><circle class="cls-10" cx="1719.05" cy="1902.77" r="7.44"/><circle class="cls-10" cx="1732.94" cy="1915.44" r="7.44"/><circle class="cls-10" cx="1742.67" cy="1931.59" r="7.44"/><circle class="cls-10" cx="1751.75" cy="1947.86" r="7.44"/><circle class="cls-10" cx="1756.89" cy="1966.52" r="7.44"/><path class="cls-16" d="M1697.85,2044a133,133,0,0,0-94.63-162.49"/><circle class="cls-10" cx="1620.49" cy="1886.03" r="7.44"/><circle class="cls-10" cx="1637.3" cy="1895.28" r="7.44"/><circle class="cls-10" cx="1651.7" cy="1905.46" r="7.44"/><circle class="cls-10" cx="1665.77" cy="1916.87" r="7.44"/><circle class="cls-10" cx="1676.97" cy="1930.6" r="7.44"/><circle class="cls-10" cx="1686.03" cy="1945.51" r="7.44"/><circle class="cls-10" cx="1693.1" cy="1962.92" r="7.44"/><circle class="cls-10" cx="1700.17" cy="1980.34" r="7.44"/><circle class="cls-10" cx="1701.99" cy="1999.11" r="7.44"/><circle class="cls-10" cx="1703.16" cy="2017.71" r="7.44"/><circle class="cls-10" cx="1699.75" cy="2036.76" r="7.44"/><path class="cls-17" d="M1660,2081.33a140.8,140.8,0,0,0-56.8-190.84"/><circle class="cls-10" cx="1619.84" cy="1899.5" r="7.88"/><circle class="cls-10" cx="1634.82" cy="1913.21" r="7.88"/><circle class="cls-10" cx="1647.1" cy="1927.28" r="7.88"/><circle class="cls-10" cx="1658.73" cy="1942.54" r="7.88"/><circle class="cls-10" cx="1666.82" cy="1959.47" r="7.88"/><circle class="cls-10" cx="1672.42" cy="1977.07" r="7.88"/><circle class="cls-10" cx="1675.34" cy="1996.76" r="7.88"/><circle class="cls-10" cx="1678.27" cy="2016.45" r="7.88"/><circle class="cls-10" cx="1675.45" cy="2036.21" r="7.88"/><circle class="cls-10" cx="1672.02" cy="2055.64" r="7.88"/><circle class="cls-10" cx="1663.75" cy="2074.4" r="7.88"/><path class="cls-2" d="M1621.55,1752.89l-32.78-39.44-6,26.08s-21.41,256.21,6,791.74c0,5.16,8.74,9.34,19.51,9.34s19.51-4.18,19.51-9.34C1602.41,2020.65,1621.55,1752.89,1621.55,1752.89Z"/><path class="cls-15" d="M1539.78,1725.9s-72.23,39.86-88,91.34,0,61.44,0,61.44l148.61-146.13,151.94,146.13s37.37-59-52.3-129.53-111.26-35.7-111.26-35.7Z"/><path class="cls-4" d="M1788,1682.73c-68.09-28.23-143.64,0-143.64,0L1761.47,1564c-85.52-42.34-157.75,94.65-157.75,94.65s-72.24-137-157.76-94.65L1563,1682.73s-75.55-28.23-143.64,0c-43.39,26.57-35.7,43.17-35.7,43.17h440.05S1831.43,1709.3,1788,1682.73Z"/><path class="cls-2" d="M1357.14,2108.61c24.79,8.91,48.37,19.94,72.39,31.29,7.8-20.1,16.24-39.92,25.15-59.55,1.74-3.83,3.64-15.65,7.85-16.49,3.27-.65,12.15,6.47,15.26,8.18l-10.39,36.49c-2.81,9.87-5.08,20.11-8.47,29.8-1.55,4.41-7.55,25.68-12.1,26.43-19.14,3.13-43.61-7-62.22-11.38l-35.85-8.51Z"/><path class="cls-2" d="M1318.63,2269.89l2.4,33.19,2.21,30.55c.36,4.91,1.75,10.1.56,14.84s-.9,8.51-.37,13.42c1.22,11.31,3.24,22.76,1.83,34.15-.72,5.79-3,11.26-4.47,16.89-5,18.76-.47,39,2.11,57.8.95,7,3.29,14.19,3.26,21.2,0,9.08,0,18.14.38,27.21a51.87,51.87,0,0,0,26.14-2.82,1.09,1.09,0,0,0,.45-.27c.23-.28.1-.7,0-1-4.69-12.23-1-27.3.11-40.2l3.92-44.51,7.52-85.36,1.21-13.68c.6-7.18-.56-7.18,0,0l3.5,33.12c.69,6.57,1.29,13.15,2.07,19.71,1.26,10.51-2.75,18.78-5.26,28.93l-.18.75c-4.1,17.69.9,37.12,4,54.59l4,22.2c.57,3.18,1.64,6.56,2,9.73.57,5.65-.21,11.39.53,17.11a1.19,1.19,0,0,0,.22.66,1.2,1.2,0,0,0,.73.35,50.33,50.33,0,0,0,22.25-.27c.35-.08.75-.21.88-.54a1.16,1.16,0,0,0-.15-.88c-3.25-7.36-1-13.8-.63-21.26l.69-13.55,1.93-37.58,4.76-92.79,3.59-69.92.47-9.18a5.84,5.84,0,0,0-5.65-6.15l-81-2.57A5.85,5.85,0,0,0,1318.63,2269.89Z"/><polygon class="cls-7" points="1327.62 2510.34 1322.68 2527.04 1380.92 2529.18 1350.04 2511.16 1327.62 2510.34"/><polygon class="cls-7" points="1376.77 2512.14 1371.82 2528.84 1429.83 2530.97 1398.94 2512.96 1376.77 2512.14"/><path class="cls-7" d="M1347.59,2092.58a15.2,15.2,0,0,0-6.66.48,21.69,21.69,0,0,0-6.09,3.78,219.39,219.39,0,0,0-17.79,16.57c-5,5-8,12.41-10.89,18.94-4.47,10.22-.67,21,1.92,31.28,2.66,10.57,5.45,21.18,5.85,32.13.39,10.51-1.69,20.94-3.53,31.3a704.15,704.15,0,0,0-10.79,125.6s90.92-8.07,129.08-7.06c0,0-23.89-92.25-35.7-143.2-1.17-5.05-2.35-10.23-1.67-15.37,1.76-13.24,15.46-24.14,12.77-37.22-1.88-9.11-8.83-12.82-15-18.67-6.32-6-11.3-13.32-16.22-20.48-4.54-6.61-7.32-11.71-14.68-15A38,38,0,0,0,1347.59,2092.58Z"/><path class="cls-2" d="M1373.86,2048.54a19.08,19.08,0,0,0,4.35.44,2.7,2.7,0,0,1,1.64.35,2.23,2.23,0,0,1,.73,1.37,7,7,0,0,1-1.28,5.74,20.22,20.22,0,0,0-1.54,1.92,2.35,2.35,0,0,0-.17,2.33,8.15,8.15,0,0,0,.79.88c1.31,1.54.44,4.29.68,6.16.29,2.28,1,4.53,1.32,6.83.46,3.64.78,8.71-3,10.73-2.48,1.32-5.43,1.33-8.25,1.25a5.36,5.36,0,0,0-3.59.73,4.94,4.94,0,0,0-1.32,2,32.76,32.76,0,0,0-2.24,8.31c-.31,2.35-.4,4.85-1.66,6.86-3.53,5.61-16.5,1.78-21-.34-1.38-.65-2.85-1.58-3.16-3.08a5.27,5.27,0,0,1,.21-2.36l2.11-8.63c.46-1.92.8-4.29-.71-5.56a7.06,7.06,0,0,0-2-1,12.91,12.91,0,0,1-7.82-10.88c-.17-2.23-.11-4.37,1.81-5.75,1.64-1.17,4.48-1.31,5.58.66-5.06-9-.55-32,10-36.39,6.77-2.81,11.31,2,15.25,6.93C1364.57,2043.18,1368.13,2047.23,1373.86,2048.54Z"/><path class="cls-10" d="M1283.37,2064.34a15,15,0,0,1-4.77,0c-2.27-.39-4.59-1.45-5.71-3.46s-.47-5.05,1.7-5.83a7,7,0,0,1-6.91-3.64,11.19,11.19,0,0,1-.77-8.09,12.55,12.55,0,0,1,4.2-6.89,8.58,8.58,0,0,1,7.74-1.59,12.29,12.29,0,0,1,5-10.91,11.12,11.12,0,0,1,11.87-.45c3.84,2.36,5.62,8.73,6.63,12.7a2.92,2.92,0,0,0,.88,1.71c.94.7,3.19-3.4,3.17-4.57a7.41,7.41,0,0,1,1.19-4.54,3.7,3.7,0,0,1,4.21-1.4c3.07,1.32,2.15,1.15,4.7-.86a17,17,0,0,1,4.72-3c3.4-1.23,7.82-.36,9.56,2.81-2.33-4.24,9.33-5.16,10.88-4.85,3.56.71,10.67,1,11.53,5.59,1.43-2.89,6-3.52,8.08-1s.29,7-2.92,7.37c2.39.54,3.12,3.93,1.81,6s-3.84,3-6.24,3.47a29.43,29.43,0,0,1-6.88.55,15.46,15.46,0,0,1-10.34,13.06,6.38,6.38,0,0,1,1.39,8.52,4.1,4.1,0,0,1,4.09,5,4.52,4.52,0,0,1-6.12,2.63,5,5,0,0,1-2.13-6.43c-4.74-1.23-4.8,5.54-3.63,8.6a10.09,10.09,0,0,0,6,5.8,11.61,11.61,0,0,1,3.34,1.33,4.94,4.94,0,0,1,1.74,3.8,14.71,14.71,0,0,1-.7,4.25c-.54,2-1.39,4.34-3.39,4.86-2.09-4.18-2.82-6.29-7.92-7.46-3.31-.75-6.79-.79-10-1.91s-6.26-3.75-6.39-7.14c-2.81,1.45-6.42-.52-7.87-3.34-1.64-3.18-.68-6.82-1.81-9.9-1.41-3.85-3.94-5.87-2.6-10.51-1.13,3.91,1.21,8.13-1.16,12.33-1.59,2.81-4.86,6.69-7.59,8.32s-6.45,1.7-8.68-.47a8.71,8.71,0,0,1-2.14-6.89c0-.41,1.33-5.84,2.82-3.09a12.67,12.67,0,0,1,0-11.79c.14-.25-2.41-5.56-2.59-6.39a22.27,22.27,0,0,1-.19-7.68c.37-2.9.57-7.38,2.17-9.92,4.9-7.76,19.75-4.51,18.66,5.4"/><path class="cls-2" d="M1451.66,2069.21c-1.81-4.7-1.8-9.79-.65-15,.55-2.47,2.06-4.68,2.66-7.13.8-3.25.62-6.93,1-10.28.1-.77.36-1.72,1.13-1.86a1.61,1.61,0,0,1,1.24.47c2,1.65,2.93,4.85,3,7.37,0,1-.51,9.11-.94,9.39,2.85-1.9,4.38-5.33,4.77-8.73.62-5.33-1.62-6.53-4-10.7-.66-1.14-.62-2.88.55-3.5s2.48.23,3.5,1l3.28,2.51a6.38,6.38,0,0,1,3.35,5.51c.37,2.84.12,6.78,1.6,9.3.93,1.57,2.48,2.69,3.54,4.17,1.94,2.72,2,6.3,2,9.64,0,9.41,0,19.26-4.42,27.57a5.92,5.92,0,0,1-1.73,2.22,6.8,6.8,0,0,1-3.31.93c-6.17.62-11.11,1.45-17.12-1.43a1.11,1.11,0,0,1-.58-.48,1.06,1.06,0,0,1,0-.72,34.51,34.51,0,0,1,2.91-7c1.12-2.05,2.49-4.33,1.77-6.55a9.06,9.06,0,0,0-1.31-2.27A21,21,0,0,1,1451.66,2069.21Z"/><circle class="cls-10" cx="1459.7" cy="2028.44" r="7.04"/><circle class="cls-10" cx="1386.47" cy="2190.06" r="7.04"/><circle class="cls-10" cx="1369.2" cy="2194.59" r="7.04"/><circle class="cls-10" cx="1351.08" cy="2190.06" r="7.04"/><circle class="cls-10" cx="1334.88" cy="2191.85" r="7.04"/><circle class="cls-10" cx="1398.37" cy="2197.1" r="7.04"/><circle class="cls-10" cx="1412.44" cy="2197.1" r="7.04"/><path class="cls-15" d="M1308.62,2190.06c-1.51,24.83,22.46,46.48,53.54,48.37s57.48-16.72,59-41.55l-112.53-6.82"/><path class="cls-2" d="M1318.93,2205.12c4.33-10.45,7.16-21.73,10.62-32.48,2.49-7.76,6.78-16.45,7.89-24.55a18.08,18.08,0,1,0-34.53-10.25L1293,2201.9c-1.11,7.2-2.61,13.89-.79,21.2a3.32,3.32,0,0,0,.72,1.58,3.63,3.63,0,0,0,1.78.83c12.46,3.14,61.35,16,73.39,16.07a48.78,48.78,0,0,0,9.26-.84,7.06,7.06,0,0,0,2.38-.76c4.39-2.65,8.6-13.45,2.94-13.79a35.26,35.26,0,0,1-15-3.91c-5.27-2.8-10.53-5.73-15.88-8.38a84,84,0,0,0-33-8.58Z"/><path class="cls-2" d="M1381.91,2224.11a13.68,13.68,0,0,0,2.9-2.59c4.55-4.48,11.88-5.14,16.44-9.63,1.82,1.93.12,5.13-2,6.75s-4.79,3-5.38,5.58c4.07.52,7.75-2.3,10.73-5.13s6.12-6,10.2-6.47a59.06,59.06,0,0,1-7.12,9.3,11.4,11.4,0,0,1,5.43-3c.35.72-.16,1.55-.65,2.19l-7,9.07a43.45,43.45,0,0,1-5.11,5.88c-4.31,3.9-10.08,5.89-15.85,6.62s-11.62.26-17.42-.2c-1-.08-7-1.85-7.78-2.48a4.56,4.56,0,0,1-1.23-2.84c-.51-3.11,4.38-4.75,5.66-7.63C1367.81,2220.51,1375.86,2227.33,1381.91,2224.11Z"/><circle class="cls-2" cx="2046.27" cy="3851.75" r="89.99"/><circle class="cls-1" cx="2492.97" cy="3540.53" r="63.04"/><circle class="cls-1" cx="2556.02" cy="3595.16" r="63.04"/><circle class="cls-1" cx="2465.6" cy="3595.16" r="63.04"/><circle class="cls-1" cx="2380.67" cy="3603.58" r="49.26"/><circle class="cls-1" cx="2301.73" cy="3623.84" r="39.13"/><circle class="cls-1" cx="2629.06" cy="3613.71" r="49.26"/><polyline class="cls-1" points="2301.73 3662.96 2629.06 3662.96 2629.06 3605.29 2301.73 3623.84"/><circle class="cls-1" cx="982.23" cy="3647.73" r="83.28"/><circle class="cls-1" cx="898.95" cy="3719.89" r="83.28"/><circle class="cls-1" cx="1018.38" cy="3719.89" r="83.28"/><circle class="cls-1" cx="1130.57" cy="3731.01" r="65.07"/><circle class="cls-1" cx="1234.84" cy="3757.77" r="51.68"/><circle class="cls-1" cx="802.45" cy="3744.39" r="65.07"/><polyline class="cls-1" points="1234.84 3809.46 802.45 3809.46 802.45 3733.28 1234.84 3757.77"/><path class="cls-10" d="M1818.67,1739.62s12-5.83,31.06,9.33c0,0,14,5.44,23.38-7.39s8.94-16.72,8.94-16.72,86.32-49,111.6-84c0,0,5.89,5.06-1,15.56s-9.16,11.27-9.16,11.27a23,23,0,0,1-8.87,24.89L1961,1702.68s-1.17,19.83-19.06,21c0,0-.77,21.38-20.22,22.16s-22.55.78-22.55.78-4.66,14.77-22.16,12.83c0,0,10.11,5,20.22,21.77s29.94,28.74,44.71,23.9c-3.89,1.08-2.72,13-24.88,8.77,0,0,5,7.77-13.61,5.83l-7.78-2s-3.89,2-7-.39-3.11-12.26-3.11-12.26-31.1,11.35-49-12.62S1818.67,1739.62,1818.67,1739.62Z"/><path class="cls-10" d="M1820.11,1743.68s-10.28-4.84-4.45-18.45,5.78-16.72,4.45-17.11-6.24,4.67-6.24,4.67,6.35-10.11,3.49-10.89-8.7,4.67-8.7,4.67,7.64-12.45,2.46-12.06-18.4,10.5-18.4,30.33,14.06,27.61,14.06,27.61Z"/><path class="cls-3" d="M1818.67,1739.62c.23-2,8.81,2.23,9.28,2.59,3.21,2.54,5,6,6.55,9.71,2.41,5.93,7.14,9.67,10.28,15a34.33,34.33,0,0,1,4.84,13.91c.84,8.67-4.19,14.41-13.06,11.68-20.22-6.22-20.51-30-20.51-30Z"/><path class="cls-18" d="M1818.67,1739.29c-7.14,0-15.94,3-21.5,4.71-10.56,3.23-21.37,8.13-28.89,16.47a32.58,32.58,0,0,0-7.09,12.3,32.2,32.2,0,0,0-1.32,7.61c0,.87.69,8.1.48,8.23,0,0,11.79-7.36,35.12-13.59,6.32-1.68,13-3.49,18.75-6.8,5.52-3.2,4.74-9.62,5.76-15.53a5.88,5.88,0,0,0,7.69,1,7.13,7.13,0,0,0,2.59-7.58,9.09,9.09,0,0,0-5.68-5.94A16.88,16.88,0,0,0,1818.67,1739.29Z"/><path class="cls-10" d="M1776.5,1764.78c3,2.47,4.22,6.54,4.13,10.39,0,1.7-.4,3.54-1.7,4.62a7.25,7.25,0,0,1-1.92,1l-16.88,6.92a30,30,0,0,1,2.93-20.64C1765.82,1762,1772,1761.06,1776.5,1764.78Z"/><circle class="cls-10" cx="1824.29" cy="1748.34" r="1.53"/><path class="cls-10" d="M2318.48,1982.43l5.19-4.85a21.92,21.92,0,0,0,4.8-5.6,22.23,22.23,0,0,0,1.94-7.7l1.27-10c.11-.9.06-2.09-.81-2.37-1.57-.51-2.12,2.73-3.76,2.68l.67-4.32a3.29,3.29,0,0,0-.06-1.79,2.3,2.3,0,0,0-3-.88,6.65,6.65,0,0,0-2.46,2.48c1.24-1-.1-3.21-1.68-3.23s-2.87,1.23-3.92,2.42a24.44,24.44,0,0,0-5,7.5,22.7,22.7,0,0,1-1.88,4.8,11.45,11.45,0,0,1-3,2.83c-3.77,2.71-7.86,5-11.39,8a21.36,21.36,0,0,0-7.09,11c-1.11,4.1-3.06,8-4.1,12.21-1.54,6.26,12,8.51,15.32,8.82a2.7,2.7,0,0,0,1.2-.07c1.24-.47,2.64-6.17,2.67-7.49.06-3.54,2.2-4.38,4.79-6.8C2311.2,1987.2,2315.44,1985.27,2318.48,1982.43Z"/><path class="cls-10" d="M2263.36,2043.48c-4.66,12.23-8.87,25.22-7,38.18a5.55,5.55,0,0,0,1.22,3.2,5.89,5.89,0,0,0,2.77,1.34c27.91,7.56,57.44,4.87,86.22,2.11,7.89-.75,16.59-6.1,18.74-14.25a16.49,16.49,0,0,0-4.27-15.64c-6.23-6.16-16.07-6.27-24.81-5.77-7.49.43-14.94,1.49-22.34,2.12-7.66.64-15,.34-22.64,2a1.06,1.06,0,0,1-1-.11,1,1,0,0,1-.2-.84c.49-10,3.58-18.46,5.87-28.09q3.14-13.23,6.2-26.47c.35-1.51.68-3.16,0-4.53a5.67,5.67,0,0,0-2.84-2.29c-4.93-2.26-11.69-4-15.12.94-2.86,4.07-3.9,9.25-6,13.7Q2270,2026,2263.36,2043.48Z"/><path class="cls-19" d="M2355.62,2048.41c10.66-.34,22.47,1.91,29,10.32,6.27,8,5.57,20.66-1.56,27.93-7.74,7.91-20,8.57-31.11,8.72l-26.72.38a2,2,0,0,1-1.43-.36,2,2,0,0,1-.46-1.28c-.91-8.54-2.4-42-2.4-42S2349,2048.41,2355.62,2048.41Z"/><path class="cls-6" d="M2316.48,2158.31c-1.2-3.71-1.83-7.75-2.74-11.54a112.37,112.37,0,0,1-3-28.13c.34-18.59,5.24-37.45,15.77-52.93a70.44,70.44,0,0,1,15.18-16.53c2.53-1.93,6.43-5,9.75-5.26,4.83-.41,2.15,5.33.82,8.2-7.79,16.8-16.75,32.84-23.49,50.16-3.88,9.95-6.07,20-2.51,30.3,1.69,4.88,3.78,9.79,3.75,15a37.4,37.4,0,0,1-1.79,9.68l-3.33,12C2320.22,2166.71,2317.93,2162.75,2316.48,2158.31Z"/><path class="cls-6" d="M2447.15,2052.94c7.86,5.79,11.77,15.45,14.53,24.81,8.27,28,9.62,57.73,7,86.81-.83,9.08-2.08,18.26-5.63,26.66s-9.68,16-18,19.7c-8.89,3.89-19.07,2.89-28.69,1.57-5.57-.77-11.68-1.93-15.16-6.35-3.3-4.2-3.2-10-2.92-15.39q2.81-55.11,7.56-110.1c.84-9.73,2.46-26.77,12.55-32C2426,2044.75,2440.66,2048.15,2447.15,2052.94Z"/><path class="cls-2" d="M2309.93,2497.38c-2.8.68-5.78,1.06-8.15,2.76s-3.86,5.29-2.25,7.79c1.28,2,3.84,2.43,6.11,2.67a223.14,223.14,0,0,0,58.12-1.58,4.26,4.26,0,0,0,2.29-.86c.93-.87,1-2.35.9-3.65-.54-8.19-2.56-16.45-1.8-24.7-10.18-.11-22-.57-31.1,4.81C2326.09,2489.36,2319.07,2495.15,2309.93,2497.38Z"/><path class="cls-15" d="M2338.3,2490.41c6,.45,19.18.2,23.62-5.11s4.48-22.06,5.54-28.92c3.17-20.53,4.93-41.54,1.93-62.22-2.29-15.82-5-29.07-3.5-44.8,1.12-12.07,7.55-31.39,7.31-43.49-.47-23.25,16.85-46.6,16.85-46.6,6.52,9.54,7.78.77,18.38,4.48l3.85-54.2c-.27,3.83-79.26-9.44-88.64-7.81-6.64,39.06-2.55,81.62-.66,120.94,2.59,53.72,9.6,106.9,2.35,160.55-.17,1.28-.32,2.71.42,3.75a4.45,4.45,0,0,0,2.39,1.44A42.62,42.62,0,0,0,2338.3,2490.41Z"/><path class="cls-2" d="M2356.75,2497.38c-2.8.68-5.77,1.06-8.15,2.76s-3.86,5.29-2.25,7.79c1.28,2,3.84,2.43,6.11,2.67a223.14,223.14,0,0,0,58.12-1.58,4.26,4.26,0,0,0,2.29-.86c.93-.87,1-2.35.9-3.65-.54-8.19-2.56-16.45-1.8-24.7-10.18-.11-21.95-.57-31.1,4.81C2372.91,2489.36,2365.89,2495.15,2356.75,2497.38Z"/><path class="cls-6" d="M2385.12,2490.41c6.05.45,19.18.2,23.62-5.11s4.48-22.06,5.54-28.92c3.17-20.53,4.93-41.54,1.93-62.22-3.09-21.37-5.54-42.5-2.76-63.93.5-3.86,4.55-86.33,4.55-86.33,0-15,.51-24.88-5.72-38.5-18-1.86-43.37,6.73-61.47,7.43,6.15,46.23,14.5,93.48,18.67,139.93,3.84,42.84,8.46,87.62,2.67,130.47-.17,1.28-.31,2.71.42,3.75a4.44,4.44,0,0,0,2.4,1.44A42.44,42.44,0,0,0,2385.12,2490.41Z"/><path class="cls-10" d="M2355.61,1983.17a18.22,18.22,0,0,1-4.26.44,2.63,2.63,0,0,0-1.6.34,2.23,2.23,0,0,0-.73,1.34,7,7,0,0,0,1.26,5.64,17.9,17.9,0,0,1,1.51,1.87,2.28,2.28,0,0,1,.16,2.29,6.24,6.24,0,0,1-.77.86c-1.28,1.51-.43,4.21-.66,6-.28,2.24-1,4.45-1.3,6.7-.45,3.57-.76,8.54,3,10.52,2.44,1.3,5.33,1.31,8.09,1.23a5.22,5.22,0,0,1,3.52.72,4.79,4.79,0,0,1,1.3,2c2.88,6.92,2.58,10.11-1.1,16.25-1.89,3.15-3.84,6.47-4,10.14-.29,5.52,3.62,10.63,8.52,13.2s10.63,3,16.16,3c5.33,0,11.29-.74,14.68-4.86,2.67-3.24,3-7.76,3-12,0-4-2.58-6-4.14-9.41-2-4.34-3.37-9.1-5-13.58-.61-1.65-2.59-5.7-1.71-7.46.56-1.14,2.87-1.52,3.91-2.29a13.06,13.06,0,0,0,5.25-9.35c.16-2.19.1-4.28-1.78-5.64-1.61-1.15-4.39-1.28-5.48.64,5-8.83.55-31.4-9.75-35.68-6.64-2.76-11.09,2-15,6.79C2364.72,1977.92,2361.23,1981.89,2355.61,1983.17Z"/><path class="cls-7" d="M2318.48,2190.14c-.13,8.12-.08,16.22.21,24.3,0,1.16.17,2.47,1.08,3.18a4,4,0,0,0,2.74.49c6.33-.48,12.57-1.86,18.91-2.19,12.22-.64,24.24,2.61,36.28,4.76,14.28,2.54,27.36,3.45,41.93,1.94,0-20-1.62-40.69,1.12-60.46,2.87-20.73,4.95-41.59,6-62.49.45-9.28.88-18.74-1.52-27.71-2.05-7.64-6.85-14.05-12.18-19.74s-9.93-10.65-14.2-17.25a1.87,1.87,0,0,0-1.1-1,1.89,1.89,0,0,0-1,.19,50.34,50.34,0,0,0-6.71,3.31,33.51,33.51,0,0,1-11.56,3.68,36,36,0,0,1-18.91-2.81,1.35,1.35,0,0,0-2.08.46c-12.78,17-24.64,33.46-32.31,53.49-4.27,11.13-2.64,21-3.38,32.48C2320.37,2146.56,2318.81,2168.33,2318.48,2190.14Z"/><path class="cls-2" d="M2378.9,1956.17a64.45,64.45,0,0,0-16.65-1.91c-3.7,5.27-.18,13.87,6.15,15,.32,2.42,2.73,4.13,5.16,4.48s4.85-.37,7.19-1.07c-.88,6.3,6.9,11.93,12.61,9.12-.52,7.14-1.61,17.48-4.24,24.15,2-2.27,4.85-6.62,7.68-5.57a6.25,6.25,0,0,1,3.87,7.26c-1.09,3.66-5.39,5.11-8.11,7.78-3.06,3-1,6.57.67,10.5,2-4.19,3-6,7.48-7.12,2.81-.67,5.95-.64,8.23-2.42,4.19-3.28,2.62-10.13,5.28-14.74,1.06-1.83,2.74-3.2,4.05-4.87,6.08-7.73,2.56-19.54-4.09-26.8a18.9,18.9,0,0,1-3.33-4.2c-.77-1.55-1-3.37-2.13-4.7-2.74-3.29-8-1.32-12.25-1.84-6.56-.8-12.22-8.11-18.4-5.76-1.5.57-2.83,1.71-4.44,1.83-2.12.16-3.9-1.47-5.88-2.26s-5.06.14-4.74,2.24"/><ellipse class="cls-7" cx="2310.81" cy="1957.52" rx="17.52" ry="10.27" transform="translate(-586.23 2840.06) rotate(-57.21)"/><polygon class="cls-7" points="2302.36 1929.45 2320.29 1942.79 2301.32 1972.24 2281.76 1961.43 2302.36 1929.45"/><ellipse class="cls-6" cx="2333.06" cy="1971.85" rx="12.25" ry="7.18" transform="translate(-588.08 2865.34) rotate(-57.21)"/><polygon class="cls-6" points="2320.32 1947.82 2339.7 1961.56 2326.43 1982.15 2305.91 1970.19 2320.32 1947.82"/><ellipse class="cls-7" cx="2292.06" cy="1945.44" rx="19.02" ry="11.15" transform="translate(-584.67 2818.76) rotate(-57.21)"/><ellipse class="cls-15" cx="2291.76" cy="1945.25" rx="14.92" ry="8.74" transform="translate(-584.65 2818.43) rotate(-57.21)"/><ellipse class="cls-7" cx="2328.21" cy="1963.4" rx="17.52" ry="10.27" transform="translate(-583.2 2857.39) rotate(-57.21)"/><polygon class="cls-7" points="2319.76 1935.34 2337.69 1948.68 2318.72 1978.13 2299.16 1967.32 2319.76 1935.34"/><ellipse class="cls-7" cx="2350.46" cy="1977.74" rx="12.25" ry="7.18" transform="translate(-585.05 2882.67) rotate(-57.21)"/><polygon class="cls-7" points="2337.72 1953.71 2357.1 1967.44 2343.83 1988.04 2323.31 1976.07 2337.72 1953.71"/><ellipse class="cls-7" cx="2309.46" cy="1951.33" rx="19.02" ry="11.15" transform="translate(-581.64 2836.09) rotate(-57.21)"/><ellipse class="cls-15" cx="2309.17" cy="1951.14" rx="14.92" ry="8.74" transform="matrix(0.54, -0.84, 0.84, 0.54, -581.62, 2835.75)"/><path class="cls-6" d="M2402.07,2040.11a39.34,39.34,0,0,1,30.3,23.48c-10.14.73-19.29-5.44-28.86-8.87a55.33,55.33,0,0,0-23.17-3,9.43,9.43,0,0,0-4.68,1.3c-2,1.41-2.78,4-3.3,6.47-10.25,47.94,12.52,101.18,54.28,126.87,2.1,1.29,4.53,3.05,4.3,5.5a5.07,5.07,0,0,1-1.37,2.75c-4,4.66-11.21,5.42-17,3.4s-10.51-6.29-14.91-10.57c-17.61-17.11-33.6-36.61-42.22-59.59-7.61-20.3-9.72-46.17.58-66C2363.34,2047.67,2386.93,2038,2402.07,2040.11Z"/><path class="cls-10" d="M2341.82,1989.91l5.19-4.85a22.05,22.05,0,0,0,4.8-5.59,22.34,22.34,0,0,0,1.94-7.71l1.27-10c.12-.91.06-2.1-.81-2.38-1.56-.51-2.12,2.74-3.76,2.68l.67-4.32a3.39,3.39,0,0,0,0-1.79,2.29,2.29,0,0,0-3.05-.87,6.58,6.58,0,0,0-2.47,2.47c1.24-1-.09-3.21-1.68-3.23s-2.87,1.23-3.92,2.42a24.6,24.6,0,0,0-5,7.51,22.8,22.8,0,0,1-1.87,4.79,11.43,11.43,0,0,1-3,2.83c-3.78,2.71-7.87,5-11.4,8a21.38,21.38,0,0,0-7.08,11c-1.12,4.1-3.07,8-4.11,12.22-1.54,6.26,12,8.51,15.32,8.81a2.59,2.59,0,0,0,1.21-.07c1.23-.47,2.63-6.17,2.66-7.49.06-3.53,2.21-4.38,4.79-6.79C2334.55,1994.68,2338.78,1992.75,2341.82,1989.91Z"/><path class="cls-10" d="M2286.7,2051c-4.66,12.23-8.87,25.22-7,38.18a5.68,5.68,0,0,0,1.22,3.21,5.88,5.88,0,0,0,2.77,1.33c27.91,7.57,57.44,4.87,86.22,2.11,7.89-.75,16.59-6.09,18.74-14.25a16.49,16.49,0,0,0-4.27-15.64c-6.23-6.16-16.07-6.27-24.81-5.76-7.49.43-14.94,1.48-22.34,2.11-7.66.65-15,.34-22.63,2a1.11,1.11,0,0,1-1-.1,1.13,1.13,0,0,1-.2-.85c.49-10,3.59-18.46,5.87-28.08q3.14-13.23,6.2-26.48c.35-1.5.68-3.16,0-4.53a5.8,5.8,0,0,0-2.85-2.29c-4.93-2.26-11.69-4-15.12.94-2.86,4.08-3.9,9.25-6,13.7Q2293.38,2033.44,2286.7,2051Z"/><path class="cls-19" d="M2377.69,2052.06c11-4,23.42-3.68,31.75,5.74,4.53,5.12,6.73,12,6.93,18.87.12,4.1-.51,8.4-2.86,11.77a22.85,22.85,0,0,1-6.49,5.72c-10.22,6.73-19.48,8.53-31.68,8.7l-26.73.38a1.5,1.5,0,0,1-1.89-1.64c-.91-8.54-2.4-42-2.4-42,0-.69,14.27-1.1,15.94-1.4,5.89-1.08,11.36-3.82,16.93-5.93Z"/><path class="cls-2" d="M1234.9,4499.13c-3.79-2.8-6.6-9.24-8.79-13.39-5.22-9.91-7.84-21.09-9.27-32.13-.33-2.57-2-39.85-1.31-41.61H1146c.71,2-.68,39.14-1,41.71-1.46,11.2-4.14,22.56-9.53,32.57-2.2,4.07-5.49,10.35-9.57,12.85Z"/><ellipse class="cls-8" cx="1180.78" cy="4412" rx="34.75" ry="5.62"/><path class="cls-2" d="M1234.9,4499.13c0,1.2-24.39,4.34-54.49,4.34s-54.5-3.14-54.5-4.34,24.4-2.17,54.5-2.17S1234.9,4497.94,1234.9,4499.13Z"/><path class="cls-2" d="M1674,4499.13c-3.79-2.8-6.61-9.24-8.8-13.39-5.22-9.91-7.83-21.09-9.26-32.13-.33-2.57-2-39.85-1.31-41.61h-69.51c.71,2-.68,39.14-1,41.71-1.46,11.2-4.14,22.56-9.54,32.57-2.2,4.07-5.49,10.35-9.57,12.85Z"/><ellipse class="cls-8" cx="1619.91" cy="4412" rx="34.75" ry="5.62"/><path class="cls-2" d="M1674,4499.13c0,1.2-24.4,4.34-54.5,4.34s-54.5-3.14-54.5-4.34,24.4-2.17,54.5-2.17S1674,4497.94,1674,4499.13Z"/><path class="cls-2" d="M1382.52,4499.91c-3.12-2.31-5.43-7.61-7.24-11-4.29-8.15-6.44-17.34-7.61-26.42-.28-2.11-1.62-32.77-1.08-34.21h-57.15c.58,1.67-.56,32.18-.84,34.29-1.2,9.22-3.4,18.55-7.84,26.78-1.81,3.36-4.51,8.51-7.87,10.58Z"/><ellipse class="cls-8" cx="1338.01" cy="4428.26" rx="28.58" ry="4.63"/><path class="cls-2" d="M1382.52,4499.91c0,1-20.06,3.56-44.81,3.56s-44.82-2.58-44.82-3.56,20.07-1.79,44.82-1.79S1382.52,4498.92,1382.52,4499.91Z"/><path class="cls-2" d="M855.45,4499.91c-3.12-2.31-5.43-7.61-7.23-11-4.3-8.15-6.44-17.34-7.62-26.42-.27-2.11-1.62-32.77-1.08-34.21H782.37c.58,1.67-.56,32.18-.84,34.29-1.2,9.22-3.4,18.55-7.84,26.78-1.81,3.36-4.51,8.51-7.86,10.58Z"/><ellipse class="cls-8" cx="810.94" cy="4428.26" rx="28.58" ry="4.63"/><path class="cls-2" d="M855.45,4499.91c0,1-20.06,3.56-44.81,3.56s-44.81-2.58-44.81-3.56,20.06-1.79,44.81-1.79S855.45,4498.92,855.45,4499.91Z"/><path class="cls-2" d="M1874.48,4499.91c-3.12-2.31-5.43-7.61-7.23-11-4.3-8.15-6.44-17.34-7.62-26.42-.27-2.11-1.62-32.77-1.08-34.21H1801.4c.58,1.67-.56,32.18-.84,34.29-1.2,9.22-3.4,18.55-7.84,26.78-1.8,3.36-4.51,8.51-7.86,10.58Z"/><ellipse class="cls-8" cx="1829.98" cy="4428.26" rx="28.58" ry="4.63"/><path class="cls-2" d="M1874.48,4499.91c0,1-20.06,3.56-44.81,3.56s-44.81-2.58-44.81-3.56,20.06-1.79,44.81-1.79S1874.48,4498.92,1874.48,4499.91Z"/><path class="cls-2" d="M1581,4499.91c-3.12-2.31-5.43-7.61-7.23-11-4.3-8.15-6.44-17.34-7.62-26.42-.27-2.11-1.62-32.77-1.08-34.21h-57.15c.58,1.67-.56,32.18-.83,34.29-1.21,9.22-3.41,18.55-7.85,26.78-1.8,3.36-4.51,8.51-7.86,10.58Z"/><ellipse class="cls-8" cx="1536.47" cy="4428.26" rx="28.58" ry="4.63"/><path class="cls-2" d="M1581,4499.91c0,1-20.06,3.56-44.81,3.56s-44.81-2.58-44.81-3.56,20.06-1.79,44.81-1.79S1581,4498.92,1581,4499.91Z"/><path class="cls-2" d="M1125.91,4499.91c-3.12-2.31-5.43-7.61-7.23-11-4.3-8.15-6.44-17.34-7.62-26.42-.27-2.11-1.62-32.77-1.08-34.21h-57.15c.58,1.67-.56,32.18-.84,34.29-1.2,9.22-3.4,18.55-7.84,26.78-1.8,3.36-4.51,8.51-7.86,10.58Z"/><ellipse class="cls-8" cx="1081.41" cy="4428.26" rx="28.58" ry="4.63"/><path class="cls-2" d="M1125.91,4499.91c0,1-20.06,3.56-44.81,3.56s-44.81-2.58-44.81-3.56,20.06-1.79,44.81-1.79S1125.91,4498.92,1125.91,4499.91Z"/><path class="cls-2" d="M997.39,4499.91c-3.12-2.31-5.43-7.61-7.23-11-4.3-8.15-6.44-17.34-7.62-26.42-.27-2.11-1.62-32.77-1.08-34.21H924.31c.58,1.67-.56,32.18-.84,34.29-1.2,9.22-3.4,18.55-7.84,26.78-1.81,3.36-4.51,8.51-7.86,10.58Z"/><ellipse class="cls-8" cx="952.88" cy="4428.26" rx="28.58" ry="4.63"/><path class="cls-2" d="M997.39,4499.91c0,1-20.06,3.56-44.81,3.56s-44.81-2.58-44.81-3.56,20.06-1.79,44.81-1.79S997.39,4498.92,997.39,4499.91Z"/><path class="cls-2" d="M2139.29,4499.13c-3.79-2.8-6.6-9.24-8.79-13.39-5.23-9.91-7.84-21.09-9.27-32.13-.33-2.57-2-39.85-1.31-41.61h-69.51c.71,2-.67,39.14-1,41.71-1.46,11.2-4.14,22.56-9.53,32.57-2.2,4.07-5.49,10.35-9.57,12.85Z"/><ellipse class="cls-8" cx="2085.17" cy="4412" rx="34.75" ry="5.62"/><path class="cls-2" d="M2139.29,4499.13c0,1.2-24.4,4.34-54.49,4.34s-54.5-3.14-54.5-4.34,24.4-2.17,54.5-2.17S2139.29,4497.94,2139.29,4499.13Z"/><path class="cls-2" d="M2578.43,4499.13c-3.79-2.8-6.61-9.24-8.8-13.39-5.22-9.91-7.83-21.09-9.26-32.13-.34-2.57-2-39.85-1.31-41.61h-69.51c.71,2-.68,39.14-1,41.71-1.47,11.2-4.15,22.56-9.54,32.57-2.2,4.07-5.49,10.35-9.57,12.85Z"/><ellipse class="cls-8" cx="2524.3" cy="4412" rx="34.75" ry="5.62"/><path class="cls-2" d="M2578.43,4499.13c0,1.2-24.4,4.34-54.5,4.34s-54.5-3.14-54.5-4.34,24.4-2.17,54.5-2.17S2578.43,4497.94,2578.43,4499.13Z"/><path class="cls-2" d="M2286.91,4499.91c-3.12-2.31-5.44-7.61-7.24-11-4.29-8.15-6.44-17.34-7.61-26.42-.28-2.11-1.62-32.77-1.08-34.21h-57.16c.59,1.67-.55,32.18-.83,34.29-1.2,9.22-3.4,18.55-7.84,26.78-1.81,3.36-4.51,8.51-7.87,10.58Z"/><ellipse class="cls-8" cx="2242.4" cy="4428.26" rx="28.58" ry="4.63"/><path class="cls-2" d="M2286.91,4499.91c0,1-20.07,3.56-44.81,3.56s-44.82-2.58-44.82-3.56,20.07-1.79,44.82-1.79S2286.91,4498.92,2286.91,4499.91Z"/><path class="cls-2" d="M1759.84,4499.91c-3.12-2.31-5.43-7.61-7.23-11-4.3-8.15-6.44-17.34-7.62-26.42-.28-2.11-1.62-32.77-1.08-34.21h-57.15c.58,1.67-.56,32.18-.84,34.29-1.2,9.22-3.4,18.55-7.84,26.78-1.81,3.36-4.51,8.51-7.86,10.58Z"/><ellipse class="cls-8" cx="1715.33" cy="4428.26" rx="28.58" ry="4.63"/><path class="cls-2" d="M1759.84,4499.91c0,1-20.06,3.56-44.81,3.56s-44.81-2.58-44.81-3.56,20.06-1.79,44.81-1.79S1759.84,4498.92,1759.84,4499.91Z"/><path class="cls-2" d="M2778.87,4499.91c-3.12-2.31-5.43-7.61-7.23-11-4.3-8.15-6.44-17.34-7.62-26.42-.27-2.11-1.62-32.77-1.08-34.21h-57.15c.58,1.67-.56,32.18-.84,34.29-1.2,9.22-3.4,18.55-7.84,26.78-1.8,3.36-4.51,8.51-7.86,10.58Z"/><ellipse class="cls-8" cx="2734.37" cy="4428.26" rx="28.58" ry="4.63"/><path class="cls-2" d="M2778.87,4499.91c0,1-20.06,3.56-44.81,3.56s-44.81-2.58-44.81-3.56,20.06-1.79,44.81-1.79S2778.87,4498.92,2778.87,4499.91Z"/><path class="cls-2" d="M2485.36,4499.91c-3.12-2.31-5.43-7.61-7.23-11-4.3-8.15-6.44-17.34-7.62-26.42-.27-2.11-1.62-32.77-1.08-34.21h-57.15c.58,1.67-.56,32.18-.84,34.29-1.2,9.22-3.4,18.55-7.84,26.78-1.8,3.36-4.51,8.51-7.86,10.58Z"/><ellipse class="cls-8" cx="2440.86" cy="4428.26" rx="28.58" ry="4.63"/><path class="cls-2" d="M2485.36,4499.91c0,1-20.06,3.56-44.81,3.56s-44.81-2.58-44.81-3.56,20.06-1.79,44.81-1.79S2485.36,4498.92,2485.36,4499.91Z"/><path class="cls-2" d="M2030.3,4499.91c-3.12-2.31-5.43-7.61-7.23-11-4.3-8.15-6.44-17.34-7.62-26.42-.27-2.11-1.62-32.77-1.08-34.21h-57.15c.58,1.67-.56,32.18-.84,34.29-1.2,9.22-3.4,18.55-7.84,26.78-1.81,3.36-4.51,8.51-7.86,10.58Z"/><ellipse class="cls-8" cx="1985.79" cy="4428.26" rx="28.58" ry="4.63"/><path class="cls-2" d="M2030.3,4499.91c0,1-20.06,3.56-44.81,3.56s-44.81-2.58-44.81-3.56,20.06-1.79,44.81-1.79S2030.3,4498.92,2030.3,4499.91Z"/><path class="cls-2" d="M1901.78,4499.91c-3.12-2.31-5.43-7.61-7.24-11-4.29-8.15-6.44-17.34-7.61-26.42-.28-2.11-1.62-32.77-1.08-34.21H1828.7c.58,1.67-.56,32.18-.84,34.29-1.2,9.22-3.4,18.55-7.84,26.78-1.81,3.36-4.51,8.51-7.87,10.58Z"/><ellipse class="cls-8" cx="1857.27" cy="4428.26" rx="28.58" ry="4.63"/><path class="cls-2" d="M1901.78,4499.91c0,1-20.06,3.56-44.81,3.56s-44.82-2.58-44.82-3.56,20.07-1.79,44.82-1.79S1901.78,4498.92,1901.78,4499.91Z"/><polygon class="cls-19" points="1389.3 4115.48 1260.61 4147.82 1262.85 4155.49 1388.11 4123.97 1389.3 4115.48"/><path class="cls-7" d="M1348.1,4477.12H1114.57s-41.67.65-47.48-47.15,42.26-172.46,42.26-172.46,8.13-19.24,33.32-6.16c19.65,10.2,173.45,83.33,173.45,83.33s25.2,8.09,35.85,80.6S1348.1,4477.12,1348.1,4477.12Z"/><polygon class="cls-10" points="1072.9 4246.79 1057.72 4230.26 1015.09 4230.26 990.46 4256.98 1070 4341.14 1088.1 4260.39 1072.9 4246.79"/><polygon class="cls-10" points="897.76 4269.7 871.35 4175.12 857.47 4175.12 877.61 4242.95 857.47 4269.7 897.76 4269.7"/><polygon class="cls-7" points="1105.14 4268.81 1088.1 4268.81 1082.27 4275.9 1058.37 4352.77 1000.34 4352.77 922.71 4299.8 823.87 4301.74 820.64 4436.97 1114.57 4436.97 1105.14 4268.81"/><circle class="cls-10" cx="871.35" cy="4427.7" r="106.59"/><circle class="cls-2" cx="871.35" cy="4427.7" r="64.92"/><circle class="cls-7" cx="871.35" cy="4429.97" r="18.41"/><path class="cls-19" d="M1003.14,4395.73h79.45s16-2.42,10.66,19.55c-5.23,21.57-12.59,53.05-12.59,53.05s-.94,8-14,9.34-48.95,0-48.95,0-8.72,3.19-14.53-9.34-12.6-56.77-12.6-56.77S988.6,4395.73,1003.14,4395.73Z"/><path class="cls-19" d="M1446,4139.91l-248.07,62s-15.5,1.94-32.94,20.35-22.29,29.07-22.29,29.07l38.76,18.95,27.7-29.52a13,13,0,0,1,4.91-2.94L1446,4162.2Z"/><path class="cls-19" d="M1066.62,4093.4s-2.44-15.5-18.91-15.5H852.94s-12.59,1-14.53,15.5Z"/><path class="cls-7" d="M1570,4255.22l-71.71-213.17s-14.53-8.73-20.35,18.41c-4.43,20.69-32,79.45-32,79.45s-26.17,50.39,30,77.52S1570,4255.22,1570,4255.22Z"/><path class="cls-19" d="M1498.29,4042.05l20.35,6.78,65.89,202.52,23.26,13.56s1,4.88-9.69,3.9-28.1-13.59-28.1-13.59Z"/><path class="cls-15" d="M1383.65,4155.49l5.15-36.41s-.49-7.75,9.69-7.75h60.34l-5.23,11.84-45.91-.21s-9-1.46-9.93,6.9l-3.55,23Z"/><circle class="cls-15" cx="1174.65" cy="4175.12" r="8.4"/><polygon class="cls-15" points="1183.05 4175.12 1197.9 4201.93 1164.96 4222.28 1166.25 4175.12 1183.05 4175.12"/><polygon class="cls-15" points="1181.43 4177.93 1270.03 4154.51 1267.15 4145.23 1171.19 4168.48 1181.43 4177.93"/><path class="cls-15" d="M1094.34,4355l74.49-54.26,9.37,12.27-74.93,52.65s-8.93,8.07-14,2.79C1084.79,4362.2,1094.34,4355,1094.34,4355Z"/><polygon class="cls-10" points="1316.7 4204.36 1175.58 4309.61 1171.19 4303.85 1297 4210.78 1316.7 4204.36"/><path class="cls-7" d="M1088.41,4235.84l-40.7-142.44H856.82s-45.54,157-45.54,175.41,8.72,21.3,8.72,21.3l51.35,5.81,51.36,3.88,77.63,67.32,47.37-.46c20.35.46,23.16-14.3,23.16-14.3s11.72-42.87,17.54-69A108.78,108.78,0,0,0,1088.41,4235.84Zm-203.49,33.1c-12.6,1.79-55.23-.13-55.23-.13s-6.78-2.93-4.85-13.59,37.79-143.41,37.79-143.41,1.59-9.69,10-9.69H915s7.48-.7,5.81,9.69l-23,143.41S897.52,4267.15,884.92,4268.94Zm170.22,66.58c1.29,9.24-9,10.79-9,10.79H993.93c-34.07-56.2-71.22-62-79-67.83s0-15.5,0-15.5H1072.9ZM915,4246.79l23.23-143.68h75.58c19.38,0,20.35,7.76,20.35,7.76l38.78,135.92Z"/><path class="cls-3" d="M1338,4362.23H1316.7s14.93,39,14.28,86.15h24.9"/><path class="cls-19" d="M1214.05,4380.54s-1.29-33-10.33-47.82h-46.21v110.57"/><path class="cls-19" d="M997.32,4362.57s-45.54-60.83-80.42-72.46H820l-24.23,13.56s-4.36,15,10.66,11.15l17.44-13.08,86.73,1.45s21.8,7.75,72.19,65.41c0,0,6.3,9.69,14.53,5.81C1004.11,4367.14,997.32,4362.57,997.32,4362.57Z"/><circle class="cls-10" cx="1232.79" cy="4455.81" r="75.28"/><circle class="cls-2" cx="1232.79" cy="4455.81" r="40.53"/><circle class="cls-7" cx="1232.79" cy="4455.81" r="12.52"/><path class="cls-20" d="M2408.22,4144.72c-3.16,0-5.72-3.63-5.72-8.11s2.56-8.11,5.72-8.11h3.54v16.22Z"/><path class="cls-4" d="M2505.08,4081.7s-2.76-3.42,9.43-4,216.74-16.2,222.4-22.29-235.9,7.4-235.9,7.4l-230.67,4.93s11.37,4.92,59,5.69c9,.14,81.46,4.61,81.46,4.61Z"/><path class="cls-15" d="M2265.12,4066.77,2603.29,4055l83.13-3.92s42.65-3.48,50.49,4.35l-66.59,3.1L2316,4070.9S2273.83,4073.29,2265.12,4066.77Z"/><path class="cls-15" d="M2367.83,4081.7a50.65,50.65,0,0,1,7.3-2.17c3.15-.58,35.65-1.45,35.65-1.45s12.47.29,19.44,6.39,5.51,8.38,11.31,5.06,13.93-20.44,13.93-20.44a9.87,9.87,0,0,0-6.67-2.32c-3.78.29,2-1.79,11.89,0s44.4,15,44.4,15a38.83,38.83,0,0,1,6.67,5.38c2.32,2.61,8.12,4.2,15.67,2.82s25.53-4.85,25.53-4.85l24.66-45.85s.58-2,7,0a51.86,51.86,0,0,0,13.63,2s1.46.87-1.16,7-16.82,54.55-16.82,54.55,1.2,7-4.36,7.54-76.7,12.19-76.7,12.19-95.28,1.23-109-2-26.1-28-26.1-28Z"/><line class="cls-21" x1="2588.64" y1="4043.84" x2="2569.78" y2="4097.96"/><path class="cls-20" d="M2515.1,4089.42s20.88,5,31.32,3,6.53-7.35,6.53-7.35S2520.63,4092.24,2515.1,4089.42Z"/><path class="cls-15" d="M2567.46,4108.3s-4.06-3.23,15.38-2.36,58.32-.15,58.32-.15,11,1.39,9.28,2.51S2582,4113,2567.46,4108.3Z"/><path class="cls-20" d="M2476.06,4091.43v-12s.15-1.89-3.63-3-11-3.63-11-3.63-3-.87-5.66,2.62-8,12.18-8,12.18-1.45,2.9,2,3.92,24.08,1.93,24.08,1.93S2475.19,4094.62,2476.06,4091.43Z"/><path class="cls-20" d="M2481.35,4079.1l.8,12.91s-.14,2.47,3.34,2.47,18.72-.9,19.15-4.95-17.7-11.74-19.44-11.74S2482.43,4077.36,2481.35,4079.1Z"/><path class="cls-20" d="M2420.27,4067.27l-20.67,11.14s21.42-.91,27.25,3.73,8.51,14,16.73,5.76a55.67,55.67,0,0,0,11.88-18.81s-.54-3-9.48-2.72Z"/><path class="cls-15" d="M2420,4119.46s-7.42,5.9-9.16,18.08c0,0,5.29-13.31,13.3-17.79Z"/><path class="cls-15" d="M2473.45,4125.2s14.29,4.65,21,13.79c0,0-.17-6.46-13.14-13.79Z"/><ellipse class="cls-15" cx="2411.76" cy="4136.61" rx="5.72" ry="8.11"/><path class="cls-15" d="M2497.4,4148.31c-3.16,0-5.72-3.63-5.72-8.11s2.56-8.11,5.72-8.11h3.54v16.22Z"/><path class="cls-4" d="M2360.76,4096s11,26.68,33.77,27.32c17.13.48,52.81,5.22,78.92,3.19s99.23-11.32,102.42-16.25c-3.17-.69-88.67,15-146.81,10.73-14.52-1.05-25.75-.45-33.08-3.19-15.84-5.92-17.26-17.43-20.85-24.37C2369.87,4083.3,2360.76,4096,2360.76,4096Z"/><path class="cls-20" d="M2353,4088.53c-.17-1.33,3.7-3.75,4.53-4.24a19.92,19.92,0,0,1,7.66-2.46c2.19-.25,6.13-.27,7.94,1.18a3.78,3.78,0,0,1,1,1.47,14.65,14.65,0,0,1,.91,5.89,10.88,10.88,0,0,1-1.92,6.25c-2.42,3.11-9.48.55-12.45-.59C2357.4,4094.74,2353.53,4092.46,2353,4088.53Z"/><ellipse class="cls-4" cx="2500.94" cy="4140.2" rx="5.72" ry="8.11"/><polygon class="cls-15" points="2558.02 4056.59 2603.29 4055.01 2601.55 4060.83 2551.09 4062.7 2558.02 4056.59"/><polygon class="cls-4" points="2553.67 4074.89 2603.29 4070.84 2601.55 4060.83 2551.09 4062.7 2553.67 4074.89"/><ellipse class="cls-22" cx="2353.03" cy="4091.18" rx="27.77" ry="51.19"/><ellipse class="cls-22" cx="2353.15" cy="4091.18" rx="13.13" ry="24.21"/><path class="cls-23" d="M2427.53,4205.11s-336.4,23-575.35,132.14"/><path class="cls-1" d="M2931.32,6473c0-655-543.78-1219.74-1198.76-1219.74S546.62,5818,546.62,6473Z"/><path class="cls-4" d="M959.11,6328.61c232-10.08,457.85-74,687.2-110.25,221-34.95,445-46.93,668.47-48.16,182.94-1,389.22,2.61,583.82,24.8,0,0,14,65,23.49,135.81,9.23,68.92,9.23,142.14,9.23,142.14-56.56,29.85-158.12-36.19-220.36-35.77q-235.78,1.62-471.11,18.25c-231.23,16.37-459.63-37.67-693.16-13.48-107.82,11.17-214.91,35-323.26,31.82S1026.7,6413.35,959.11,6328.61Z"/><path class="cls-5" d="M1005.9,6326.21c82.29,14.61,160.95,48.8,244.24,55.37,194.86,15.38,379-121.55,573.48-102,165.91,16.64,310.56,145.32,477.17,139.28,118.15-4.29,227.27-76.85,345.46-74.1,105.91,2.46,200.2,64.57,288,124.5-116.08-2.5-2384.7.72-2384.7.72C639.85,6340.61,861.76,6300.63,1005.9,6326.21Z"/><ellipse class="cls-12" cx="1738.97" cy="6471.48" rx="1192.35" ry="74.42"/><circle class="cls-3" cx="2746.1" cy="5663.85" r="78.76"/><circle class="cls-3" cx="2824.86" cy="5732.11" r="78.76"/><circle class="cls-3" cx="2711.91" cy="5732.11" r="78.76"/><circle class="cls-3" cx="2605.8" cy="5742.62" r="61.54"/><circle class="cls-3" cx="2507.18" cy="5767.93" r="48.88"/><circle class="cls-3" cx="2916.12" cy="5755.27" r="61.54"/><polyline class="cls-3" points="2507.18 5816.81 2916.12 5816.81 2916.12 5744.76 2507.18 5767.93"/><circle class="cls-3" cx="2317.74" cy="5928.52" r="49.78"/><circle class="cls-3" cx="2367.53" cy="5971.66" r="49.78"/><circle class="cls-3" cx="2296.13" cy="5971.66" r="49.78"/><circle class="cls-3" cx="2229.06" cy="5978.3" r="38.9"/><circle class="cls-3" cx="2166.72" cy="5994.3" r="30.9"/><circle class="cls-3" cx="2425.21" cy="5986.3" r="38.9"/><polyline class="cls-3" points="2166.72 6025.2 2425.21 6025.2 2425.21 5979.66 2166.72 5994.3"/><circle class="cls-2" cx="1489.15" cy="5616.07" r="100.32"/><path class="cls-10" d="M2109.21,6461.53a6.32,6.32,0,0,1-.58,4.65c-3.43,6.76-31.41,8.66-37.68,9.66-48.88,7.82-99.15,9-148.54,9-105.78,0-191.53-10.93-191.59-24.42-.08-17.6,46.78-7.35,55-7.63a174.41,174.41,0,0,0,81.55-23.57c14.67-8.58,30.06-19.78,46.83-17,12.6,2.08,22.58,11.74,34.63,16,21.73,7.63,47.35-3.19,68.13,6.72,4.53,2.16,8.63,5.25,13.39,6.85,6.54,2.21,13.65,1.41,20.56,1.28C2060.14,6442.83,2105.71,6448.84,2109.21,6461.53Z"/><path class="cls-10" d="M2513.78,6527c0,13.5-85.78,24.44-191.59,24.44-53.47,0-109.42-.3-162-11.38-7.59-1.6-32.33-4.76-31.23-16.92,1.35-15,64.89-25.25,76.6-28.69,13.78-4,27.7-8.15,40.15-15.32,16.59-9.55,35.2-24.93,52.25-16.2,10.17,5.21,14.62,17.2,22.54,25.44,10.58,11,26.78,14.65,42,14.87s30.49-2.44,45.73-1.63c8.52.45,16.93,2,25.32,3.51C2444,6507,2513.78,6512.45,2513.78,6527Z"/><path class="cls-10" d="M1209.37,6561.86c16.05,3.63,31.41,4.23,48,4.42,37.06.43,74.1-1.09,111.15-1.09,165.2,0,299.1-17.08,299.1-38.15,0-4.56-5.24-7.09-8.53-9.08-14.27-8.66-34.4-10.9-50.47-13.67-28.71-4.94-57.8-7.8-86.83-10-37.55-2.87-75.2-4.38-112.85-5-39-.69-77-9.1-115.55-15.9-17.74-3.13-35.86-6.26-53.66-3.51-10.74,1.66-21,5.42-31.29,9q-40.67,14.07-82.53,24.25c-13.05,3.18-55.76,5.71-57.69,25.3-1.65,16.67,29.11,22.08,40.06,23.66l2.18.32C1143.72,6557.13,1176.09,6561.86,1209.37,6561.86Z"/><path class="cls-4" d="M1406.42,6387.29c-5.94,6.73-5.65,17.58-12.17,23.75-1.44,1.35-3.13,2.4-4.52,3.8-2.67,2.69-4,6.42-5.17,10a150.34,150.34,0,0,1,.28-38.44c.79-6.21,2.11-11.9,8.29-14.72a21.84,21.84,0,0,1,8.68-1.73,12.79,12.79,0,0,1,3.38.3c2.13.53,5.4,2.43,6.56,4.37s-1.1,4.71-2.4,6.4c-8.65,11.28-13.33,24.48-21.11,36-4.67,6.9-4.77-2.17-4.74-7,0-1.35,0-2.7,0-4"/><line class="cls-24" x1="1383.59" y1="6503.87" x2="1383.59" y2="6331.81"/><path class="cls-25" d="M1402.15,6369.69c3.34.08,6.95.71,9.54,2.37,5.44,3.49,6.54,10.84,7.11,17.28l2,22.6c.58,6.53,1,13.57-2.38,19.15a1.87,1.87,0,0,1-.91.89c-.87.28-1.61-.65-2-1.46-1.53-2.93-2.87-6-4.59-8.8-5.08-8.33-13.45-14.65-16.8-23.81-1.46-4-1.85-8.3-2.24-12.55-.13-1.51-.42-3.07-.42-4.59s.85-3.23.74-4.88c-.2-2.86-3,0-3.89,1.1-.61.76-1.22,1.14-1.83,1.9,0,0,1.27-3.88,3.7-5.73a16.14,16.14,0,0,1,2.68-1.66,16.89,16.89,0,0,1,6.06-1.7A31.11,31.11,0,0,1,1402.15,6369.69Z"/><path class="cls-25" d="M1387.73,6247c-4.92-26.91-14.08-52.82-23.21-78.6a249,249,0,0,1-5.8,59.32c-4.65,21-7.17,40,6.79,57.67a82.84,82.84,0,0,1,17.7,51.93C1392.88,6307.61,1393.27,6277.37,1387.73,6247Z"/><path class="cls-4" d="M1999.2,6326.38c5.94,6.73,5.65,17.59,12.17,23.75,1.44,1.35,3.13,2.41,4.52,3.81,2.67,2.69,4,6.41,5.17,10a150.41,150.41,0,0,0-.28-38.45c-.78-6.2-2.11-11.89-8.29-14.71a21.64,21.64,0,0,0-8.68-1.74,12.79,12.79,0,0,0-3.38.3c-2.13.54-5.4,2.43-6.56,4.38s1.1,4.7,2.4,6.4c8.65,11.27,13.33,24.48,21.12,36,4.66,6.89,4.76-2.17,4.73-7.05,0-1.34,0-2.69,0-4"/><line class="cls-24" x1="2022.03" y1="6442.96" x2="2022.03" y2="6270.9"/><path class="cls-25" d="M2003.47,6308.79c-3.34.07-7,.71-9.53,2.36-5.45,3.49-6.55,10.85-7.12,17.29l-2,22.6c-.58,6.52-1,13.56,2.38,19.14a1.83,1.83,0,0,0,.91.89c.87.29,1.61-.65,2-1.46,1.53-2.93,2.86-6,4.58-8.79,5.08-8.33,13.45-14.65,16.8-23.82,1.46-4,1.85-8.3,2.24-12.54.13-1.52.42-3.07.42-4.6s-.85-3.22-.74-4.87c.2-2.87,3,0,3.89,1.1.61.76,1.22,1.13,1.83,1.89,0,0-1.27-3.88-3.7-5.73a16.84,16.84,0,0,0-2.68-1.66,17.11,17.11,0,0,0-6-1.7A28.94,28.94,0,0,0,2003.47,6308.79Z"/><path class="cls-25" d="M2017.89,6186.13c4.92-26.9,14.08-52.82,23.21-78.6a249,249,0,0,0,5.8,59.32c4.65,21,7.17,40-6.79,57.68a82.8,82.8,0,0,0-17.7,51.93C2012.74,6246.7,2012.35,6216.46,2017.89,6186.13Z"/><path class="cls-4" d="M2210.76,6395.08c5.94,6.73,5.65,17.58,12.18,23.75,1.43,1.35,3.13,2.4,4.52,3.8,2.66,2.69,4,6.42,5.17,10a150.34,150.34,0,0,0-.29-38.44c-.78-6.21-2.11-11.9-8.29-14.72a21.59,21.59,0,0,0-8.67-1.73,12.83,12.83,0,0,0-3.39.3c-2.13.53-5.4,2.43-6.56,4.37s1.11,4.7,2.41,6.4c8.64,11.28,13.32,24.48,21.11,36,4.66,6.89,4.77-2.17,4.74-7q0-2-.06-4.05"/><line class="cls-24" x1="2233.59" y1="6511.66" x2="2233.59" y2="6339.59"/><path class="cls-25" d="M2215,6377.48c-3.35.07-6.95.71-9.54,2.37-5.45,3.48-6.55,10.84-7.12,17.28l-2,22.6c-.58,6.53-1,13.56,2.38,19.15a1.89,1.89,0,0,0,.92.89c.86.28,1.61-.65,2-1.46,1.53-2.94,2.86-6,4.59-8.8,5.08-8.33,13.45-14.65,16.79-23.81,1.46-4,1.86-8.3,2.24-12.55.14-1.51.42-3.07.43-4.59s-.86-3.23-.74-4.88c.2-2.86,3,0,3.88,1.1.61.76,1.22,1.14,1.83,1.9,0,0-1.27-3.88-3.7-5.74a16.35,16.35,0,0,0-2.68-1.65,16.84,16.84,0,0,0-6-1.7A31.21,31.21,0,0,0,2215,6377.48Z"/><path class="cls-25" d="M2229.46,6254.83c4.91-26.91,14.08-52.82,23.2-78.6a249,249,0,0,0,5.81,59.32c4.65,21,7.16,40-6.8,57.67a83,83,0,0,0-17.7,51.93C2224.31,6315.4,2223.92,6285.16,2229.46,6254.83Z"/><path class="cls-2" d="M1009.51,6475.37c-6.66,2.07-19.14.17-20.35-.62-1.57-1,.45,1.81,0,0-9.26-36.63-31.84-90.62-25.46-128.64,1.79-10.68,3.4-20.24,3.37-31,0-6-16.28-20.44-9-22.88,6.4-2.13,39.94-4.95,44.8.38,10.43,11.44,6.82,45.19,6.35,55.17C1007.48,6386.3,1008.51,6436.85,1009.51,6475.37Z"/><path class="cls-2" d="M1015.89,6111.07c14.82,16.79,28.72,31.83,41.7,50.22a9.91,9.91,0,0,0,2.33,2.58c2.64,1.8,6.18.67,9.37.91s5.84,1.75,8.52,3.25l23.77,13.31c-6.68,5.55-16.84.47-25.36,2.16-4.6.92-8.66,3.86-13.31,4.53-5,.71-10-1.31-14.08-4.31s-7.29-6.92-10.69-10.64c-17.17-18.81-38.35-31.4-54.59-51.43a225.23,225.23,0,0,1-30.9-50.07c-3.21-7.24-3.18-15.14-5-22.85q-3.78-15.66-7.57-31.3c-1.43-6-2.88-12-3.11-18.07a46.28,46.28,0,0,1,2.4-16.59A5.83,5.83,0,0,1,941,5980c1.34-1.07,3.3-.85,4.91-.27,7.14,2.55,10.93,10.14,14,17.06,9.27,20.71,18.78,41.13,26.42,62.43C993.1,6078.11,1002.54,6096,1015.89,6111.07Z"/><path class="cls-2" d="M879.3,6000.23c2.94,14.6-.74,30-5.42,44.21-2.64,8.07-6,16.57-13,21.32a106.8,106.8,0,0,1-14.38-33c-.91-3.72-1.65-7.56-3.52-10.91-5.15-9.25-12-3.77-19.7-1.36-9.11,2.83-18.25,5.57-27.39,8.31,8.91,23.53,17,47.33,24.63,71.33,1.48,4.68,9,16.43,6,20.45-2.32,3.11-15.58,3.86-19.62,4.8l-19.46-39.79c-5.26-10.76-11.28-21.43-15.89-32.49-2.1-5-13.49-28.19-10.12-32.39,14.17-17.66,43.3-28,62.9-38.67l20.19-11c6.72-3.67,8.35-5.22,14.94-.7a48.15,48.15,0,0,1,19,26.45C878.79,5997.91,879.07,5999.07,879.3,6000.23Z"/><path class="cls-2" d="M954,5918.19a21.15,21.15,0,0,0,4.42,2.17,3.07,3.07,0,0,1,1.6,1,2.54,2.54,0,0,1,.24,1.74,7.94,7.94,0,0,1-3.61,5.58,21.92,21.92,0,0,0-2.37,1.43,2.62,2.62,0,0,0-1.09,2.39,8.88,8.88,0,0,0,.49,1.24c.79,2.15-1.21,4.72-1.69,6.78-.59,2.53-.67,5.2-1.27,7.75-.94,4-2.58,9.52-7.41,10.17-3.14.42-6.27-.72-9.21-1.91-1.31-.53-2.76-1.07-4.09-.63a5.42,5.42,0,0,0-2.19,1.64c-4.51,4.86-6.64,7.69.6,10.35,2.24.83,4.7,2.11,5.29,4.43.51,2-.61,4.09-1.68,5.88a21.81,21.81,0,0,1-3.74,5.07c-1.63,1.51-4.12,2.45-5.49,4.2s-1.26,3.32-2.35,5c-2.44,3.75-7.85,5.88-12.08,6.43-12.89,1.67-26.5-6.43-33.62-17-3-4.43-4.27-10.42-1.8-15.16,2-3.93,6.2-6.27,10.22-8.14,6.19-2.87,8.8-4.16,13.19-9.29,1.32-1.54,5.07-5.12,4.83-7.37-.16-1.46-2.5-2.79-3.31-4a15,15,0,0,1-1.94-12.18c.7-2.43,1.59-4.66,4.17-5.37,2.19-.61,5.25.36,5.65,2.87-1.83-11.51,11.93-34.09,24.74-34.61,8.27-.33,11.18,6.58,13.43,13.29C946.29,5908.89,948.48,5914.56,954,5918.19Z"/><path class="cls-10" d="M902.72,5920.36c-3.47,0-6.84,2.83-7.07,6.29-.28,4.38,3.78,7.66,5.66,11.63,2,4.29-1.79,8.24-4.81,10.83-2.89-13.61-17.7-29.78-15.47-43.61.83-5.19,4.72-9.29,6.91-14.07,1.94-4.22,2.87-9.42,6.83-11.85,2.12-1.3,4.71-1.51,7.19-1.68l16.65-1.15c4.63-.32,9.45-.61,13.72,1.19,3.53,1.49,6.8,5.13,9.51,7.78,2,1.93,3.65,4.43,3.68,7.19.1,13.29-30.38-3.68-33.79,14.2-.35,1.86,1,2.88.76,4.64a8.47,8.47,0,0,1-1.16,2.5c-1.13,2.37-.2,5.13.24,7.71.49,2.82-.2,5.42-2.59,7.05C907.59,5926.61,906.52,5920.35,902.72,5920.36Z"/><path class="cls-2" d="M915.64,6475.37c-6.66,2.07-19.14.17-20.35-.62-1.56-1,.46,1.81,0,0-9.25-36.63-31.84-90.62-25.46-128.64,1.8-10.68,3.4-20.24,3.38-31,0-6-1.94-18,5.38-20.47,6.4-2.13,34.82,4.93,38.78,11,5.52,8.41-1.51,32.19-2,42.17C913.61,6386.3,914.64,6436.85,915.64,6475.37Z"/><path class="cls-25" d="M938.27,6193.35c-.72,6-1.53,11.92-2.33,17.85-4.33,32-14,67.61-12.39,99.77-21.43,4.17-47.51-1.37-68.17-8.68,0,0,4-105,6.8-118,6.06-28.68,27.62-69.66,64.71-61.7,3.76.81,7.53,2.39,9.94,5.38,2.67,3.32,3.27,7.8,3.61,12C941.87,6157.78,940.43,6175.61,938.27,6193.35Z"/><path class="cls-25" d="M979.62,6179.51c1.68,5.76,3.28,11.55,4.87,17.33,8.58,31.09,13.7,67.66,27.8,96.61-18.07,12.26-44.23,17.41-66.1,18.8,0,0-37.53-98.13-40.11-111.2-5.7-28.76-2-74.91,35.27-82.16,3.77-.73,7.86-.76,11.25,1,3.76,2,6.07,5.89,8,9.66C969,6145.38,974.63,6162.34,979.62,6179.51Z"/><path class="cls-5" d="M956.2,6002.78c2.78,10.47,6.45,20.87,6.8,32,.34,11-.21,21.94-.68,32.9-.91,21.2.89,41.72,1.18,62.92a4.09,4.09,0,0,1-3.29,4.83c-8.34,3.41-16.73,6.84-25.53,8.75-12,2.6-24.72,2.37-36.08,7-13.25,5.43-24.19,17.31-38.49,18.25-1.23-14.21-1.74-27.84-3.88-42.15q-3.48-23.31-7-46.63c-2.15-14.41-2.25-43.5-2.25-43.5,2.4,4.4,5.73,10.59,10.17,13,8.23-9.9,6.62-31.7,5.47-43.74-.39-4.05-8-42.91-13-41.71,5.78-1.38,11.34-3.52,17.15-4.78,6.28-1.36,12.73-.72,18.7-3.44-3.07,1.4,5.59,12.77,6.73,13.82a33.63,33.63,0,0,0,16.76,8c4.1.76,8.7,1.18,11.45-2.53a21.93,21.93,0,0,0,4.28-13.41,90.43,90.43,0,0,1,19.25,8.24c2.14,1.23,4.23,2.54,6.32,3.85A4.51,4.51,0,0,1,952,5976a4.07,4.07,0,0,1,.43,1.4C953.93,5985.9,953.94,5994.25,956.2,6002.78Z"/><g id="z4Adj0"><path class="cls-26" d="M1168.78,6189c5-7.67,5.86-16.58,7.5-25.26,1.75-9.24,3.47-10.44,12.54-8.75,17.14,3.21,34.26,6.58,51.44,9.54a42.79,42.79,0,0,1,22.27,11.14c12.66,11.72,21.18,26.1,26.74,42.36,2.17,6.34,1.37,11.68-3.32,16.76-11.87,12.9-25.39,23.43-41.66,30.19a40.51,40.51,0,0,1-24.34,2.46c-17.35-3.55-34.81-6.59-52.22-9.85-6.41-1.2-8.13-3.76-7.1-10.12,1.57-9.66,4.73-19.13,3.6-29.12.48-.24,1-.7,1.45-.69,9.17.21,18.34.38,27.5.75,10.4.41,20.78,1.24,31.17,1.41,3.65.06,7.8.21,10.62-3.2-1.2-4.05-4.88-5.54-8.13-6.9-6.81-2.85-13.89-5.08-20.87-7.55Q1187.38,6195.53,1168.78,6189Z"/><path class="cls-7" d="M915.49,6163.63q-10.14-1.66-20.27-3.31c-1.7-.27-3.35-.8-4.88.76-8.58,8.77-19.76,10.63-31.24,11.37a88.34,88.34,0,0,1-24.3-2.19c-6-1.3-8.08-4.36-7-10.34q3.61-19.56,7.3-39.12c1.2-6.36,4.51-8.65,10.83-7.56,13.36,2.29,26,6.49,36.91,14.82,4.71,3.58,8.72,7.78,10.86,13.4.75,2,2.11,2.51,3.9,2.85,6.87,1.31,13.73,2.68,20.6,4Q916.85,6156,915.49,6163.63Zm-69.12-20.9q-1.2,6.45-2.41,12.91c-1.63,8.73-1.64,8.91,7.36,9.39,10.15.54,20.17-.25,29.29-5.34,8-4.48,9.56-12.1,4.18-19.55a28.62,28.62,0,0,0-5.15-5.34c-7.84-6.41-17.06-9.91-26.64-12.7-2.17-.63-2.84.12-3.19,2.11C848.73,6130.4,847.53,6136.56,846.37,6142.73Z"/><path class="cls-27" d="M915.49,6163.63q1.37-7.65,2.74-15.29l70.84,13.85c19.75,3.85,107.5,17.82,127.25,21.66q-1.23,6.67-2.45,13.33c-30-5.29-128-20.67-158-26C942.41,6168.75,929,6166.14,915.49,6163.63Z"/><path class="cls-7" d="M1105.58,6195.59q1.22-6.66,2.44-13.33c20.1,3.28,39.93,7.91,59.92,11.75.19,2.52-2.6,5.18.35,7.56-2.58.61-2.15,3-2.75,4.73Z"/><path class="cls-28" d="M1159.85,6202.31c-2.8-2.26-.15-4.78-.33-7.17,3.73-1.09,6.49-3.64,9.26-6.18q18.6,6.59,37.19,13.17c7,2.47,14.06,4.7,20.87,7.55,3.25,1.36,6.93,2.85,8.13,6.91-2.18-1-4.58-.77-6.86-1.21C1205.37,6211,1182.49,6207.27,1159.85,6202.31Z"/><path class="cls-29" d="M1159.85,6202.31c22.64,5,45.52,8.64,68.26,13.07,2.28.44,4.68.21,6.86,1.21-2.82,3.4-7,3.25-10.62,3.19-10.39-.17-20.77-1-31.17-1.41-9.16-.37-18.33-.54-27.5-.75-.48,0-1,.45-1.45.69-1.5-4.34-3-8.68-7-11.51C1157.81,6205.12,1157.4,6202.89,1159.85,6202.31Z"/></g><path class="cls-2" d="M833.2,6116.13c5.18,2.79,9,7.31,11.94,12.77,1.38,2.61,1.73,5.72,3.05,8.34,1.76,3.49,4.71,6.61,6.88,9.91.5.76,1,1.8.4,2.51a1.86,1.86,0,0,1-1.45.52c-3,.07-6.28-2.07-8.27-4.24-.78-.84-6.47-8.46-6.31-9-1.08,3.85.17,8.06,2.41,11.37,3.5,5.19,6.39,4.56,11.7,6.42,1.45.51,2.73,2.09,2.16,3.52s-2.37,1.69-3.87,1.77l-4.81.26a10.06,10.06,0,0,1-4.57-.47,9.62,9.62,0,0,1-2.58-1.87c-2.49-2.24-5.26-5.93-8.49-7-2-.69-4.23-.5-6.3-1-3.78-.93-6.58-4-9.13-7-7.2-8.31-14.63-17.08-17-27.8a7.2,7.2,0,0,1-.15-3.29,7.91,7.91,0,0,1,2.24-3.33c5-5.24,8.74-9.72,16.27-11.74a1.19,1.19,0,0,1,.87,0,1.23,1.23,0,0,1,.52.66,41.15,41.15,0,0,1,2.76,8.45c.56,2.66,1.07,5.73,3.39,7.15a10.36,10.36,0,0,0,2.89,1A24.05,24.05,0,0,1,833.2,6116.13Z"/><polygon class="cls-10" points="893.83 6471.97 889.57 6489.33 949.38 6488.7 916.85 6471.73 893.83 6471.97"/><polygon class="cls-10" points="987.69 6471.97 983.43 6489.33 1043.25 6488.7 1010.71 6471.73 987.69 6471.97"/><path class="cls-2" d="M1091.33,6187.18c-1.11-2.1-3.47-4.4-5.48-3.13a7.32,7.32,0,0,1-1.46,6.4c-2.6-2.83-2.16-8.1-5.63-9.74-2.78-1.32-6.45,1.75-5.64,4.72-1.74-2.11-3.53-4.27-5.93-5.59s-5.55-1.64-7.77,0-2.93,4.63-3.43,7.36l-1.06,5.71a8,8,0,0,0-.14,3.37,6.56,6.56,0,0,0,2.91,3.58,17.1,17.1,0,0,0,7.8,2.84,20.68,20.68,0,0,1,4.31.55c2,.65,3.6,2.25,5.37,3.45,4.07,2.73,5.62-.89,9.29-.32,3.92.61,3.54,5.35,8.33,2.71C1099.77,6205.21,1093.8,6191.82,1091.33,6187.18Z"/><path class="cls-10" d="M2472.16,6129.22c-9.65,20-18.88,38.14-26.33,59.21a9.82,9.82,0,0,1-1.53,3.09c-2,2.43-5.73,2.31-8.71,3.39s-5.11,3.26-7.26,5.41l-19.13,19.11c7.87,3.51,16.22-4.09,24.81-4.76,4.65-.36,9.31,1.36,13.93.74,5-.66,9.24-3.95,12.3-7.9s5.11-8.58,7.35-13.05c11.34-22.6,28.19-40.33,38.31-63.85,9.66-22.43,15.23-46.14,18-70.36.7-6.14,1.18-12.8-2-18.08-5.33-8.76-17.8-9.42-26.15-5.11-9.49,4.9-8.58,9.14-8.69,18.6C2486.76,6081.58,2483.58,6105.51,2472.16,6129.22Z"/><path class="cls-10" d="M2489.89,6279.42s-3.5,21.21,2.5,34.41,44.05,138.2,44.05,138.2l21.14-.34s0-101.69-7.12-121.5-20-36.5-20-36.5l5.71-14.27Z"/><path class="cls-10" d="M2569,5986.82c30.33,3.42,60.49,4,91.28,4.51-2.17,24.88-3.54,49.82-4.32,74.78-.15,4.88-4.22,18.14-.27,21.17,3.06,2.35,15.93-.51,20-.7l7.88-43.25c2.13-11.71,5-23.52,6.43-35.32.66-5.38,5.3-30.57,1-33.68-14.65-10.47-33.83-13.22-51.12-16.31-16.69-3-34.8-7.31-51.72-3.64C2570.7,5958.15,2572.52,5971.6,2569,5986.82Z"/><path class="cls-10" d="M2466.54,5933.35a21.58,21.58,0,0,1-3.7,3.32,3.1,3.1,0,0,0-1.28,1.41,2.59,2.59,0,0,0,.24,1.76,8.05,8.05,0,0,0,5,4.43,20.71,20.71,0,0,1,2.7.74,2.63,2.63,0,0,1,1.71,2,8.56,8.56,0,0,1-.13,1.33c-.18,2.3,2.46,4.26,3.49,6.13,1.27,2.3,2.08,4.87,3.36,7.18,2,3.65,5.11,8.54,10,7.85,3.17-.45,5.9-2.42,8.43-4.38,4.38-3.37,11.48.85,13.75,5.47,2.53,5.16-5.9,11.08-1.52,14.18,8.86,6.25,11.34,16.38,24.36,14.47,6.36-.94,12.06-4.4,17.24-8.19,5-3.66,10.1-8.41,10.47-14.59.48-8-6.7-13.45-8.46-20.72-.31-1.26-.52-2.67-1.5-3.53-1.34-1.16-3.36-.73-5.1-.4-6.68,1.28-9.2-.44-14.55-4-1.7-1.13-6.33-3.59-6.7-5.84-.25-1.46,1.66-3.39,2.11-4.82a15.11,15.11,0,0,0-1.46-12.36c-1.33-2.17-2.82-4.1-5.51-4.08-2.3,0-5,1.79-4.71,4.34-1.37-11.68-20.92-29.86-33.51-26.85-8.12,1.94-9.06,9.46-9.41,16.59C2471.51,5922.2,2470.94,5928.31,2466.54,5933.35Z"/><path class="cls-27" d="M2517,5921.41c3.38-.95,7.42.88,8.59,4.18,1.48,4.17-1.57,8.47-2.31,12.84-.79,4.72,4,7.52,7.64,9.21-.76-11.51,2.39-23.44,3.92-34.86.7-5.18,3.2-16.76-1.39-20.45-2-1.62-4.65-3-5.24-5.51a11.3,11.3,0,0,0-.48-2.34c-.68-1.46-2.54-1.85-4.13-2.06l-10.45-1.4c-6.94-.92-14.64-1.67-20.32,2.41-2.93,2.1-5.48,5.52-9.09,5.4a20.49,20.49,0,0,0-3.39-.28c-2.59.37-3.78,3.32-5.45,5.33-1.93,2.32-4.84,3.6-7,5.72s-3.29,5.95-1.09,8c1.22,1.13,3,1.31,4.7,1.34a52.69,52.69,0,0,0,20.06-3.54c1.63-.63,3.41-1.36,5.06-.79a7.24,7.24,0,0,1,2.17,1.43c1.5,1.29,4.93,3.22,5.8,5s-.17,3.06.53,4.71a8.88,8.88,0,0,0,1.82,2.12c1.74,2,1.59,4.92,1.87,7.55.3,2.87,1.68,5.21,4.45,6.14C2514,5928.81,2513.28,5922.44,2517,5921.41Z"/><path class="cls-10" d="M2575.64,6454.22c6.62,2.06,19,.17,20.21-.61,1.55-1-.45,1.79,0,0,9.19-36.37,31.61-90,25.27-127.7-1.78-10.6-3.37-20.1-3.35-30.75,0-5.95,1.93-17.91-5.34-20.33-6.35-2.11-34.57,4.9-38.5,10.89-5.48,8.35,1.5,32,2,41.87C2577.66,6365.8,2576.64,6416,2575.64,6454.22Z"/><path class="cls-25" d="M2553.18,6174.27c.72,5.91,1.52,11.82,2.32,17.72,4.29,31.73,13.88,67.11,12.3,99,21.27,4.14,47.16-1.36,67.67-8.62,0,0-4-104.22-6.75-117.15-6-28.47-27.42-69.16-64.24-61.25-3.73.8-7.47,2.38-9.87,5.35-2.65,3.29-3.25,7.73-3.58,11.95C2549.62,6139,2551,6156.65,2553.18,6174.27Z"/><path class="cls-25" d="M2512.14,6160.52c-1.67,5.73-3.26,11.47-4.84,17.21-8.51,30.87-13.6,67.17-27.6,95.9,17.94,12.17,43.91,17.28,65.62,18.66,0,0,37.26-97.41,39.82-110.38,5.65-28.55,2-74.37-35-81.56-3.74-.73-7.8-.75-11.17,1-3.73,2-6,5.83-8,9.57C2522.73,6126.64,2517.09,6143.48,2512.14,6160.52Z"/><path class="cls-2" d="M2498.25,6009.69c5.18,13.25,13.31,26.57,16.2,32.92,6.43,14.14,8,29.49,9.87,44.73,1.77,14.75-1.4,26.79-5,41.11-.26,1.05-.46,2.3.26,3.1a3.36,3.36,0,0,0,2.07.83c17.48,2.68,34.76-3.16,51.78-1.2,4.27.49,49.09,8.61,49.6,5,7.14-51.19-.15-81.48-4.36-130.1,4.56.48,7.65-.41,12.22.08.6.06-3.3-28.46-2.42-31,2.48-7.28,8-12.58,11.74-18.93-13-6.1-33.92-9.07-48.17-9.71-8.94,0-17.86-.76-26.79-.66-5.33.06-18.75-1.38-21.87,3.63-1.29,2.07-1.61,4.57-2.09,7-1.14,5.67-3.42,11.29-7.56,15.34a21.49,21.49,0,0,1-18.19,5.49c-2.5-.4-7.28-3.67-9.34-3-1.79.54-6.58,6.95-7.68,8.64C2494.24,5989.34,2495.55,6002.8,2498.25,6009.69Z"/><g id="z4Adj0-2" data-name="z4Adj0"><path class="cls-26" d="M2347.05,6244.81c-6.86-6-10.07-14.27-14-22.11-4.16-8.36-6.12-9.05-14.33-5-15.52,7.68-31,15.51-46.58,23a42.44,42.44,0,0,0-18.28,16.64c-8.94,14.61-13.21,30.64-14.15,47.67-.36,6.64,1.85,11.53,7.69,15.13,14.82,9.12,30.57,15.55,47.94,17.62a40.25,40.25,0,0,0,23.91-4.2c15.63-8.07,31.49-15.67,47.25-23.48,5.8-2.87,6.75-5.78,4.05-11.57-4.09-8.81-9.66-17-11.28-26.86-.52-.1-1.11-.41-1.56-.27-8.71,2.67-17.43,5.3-26.08,8.12-9.82,3.19-19.52,6.78-29.4,9.75-3.48,1-7.4,2.29-11-.2.06-4.2,3.17-6.61,5.91-8.79,5.74-4.56,11.9-8.59,17.9-12.83Q2331,6256.1,2347.05,6244.81Z"/><path class="cls-2" d="M2582.23,6152.4q9.24-4.32,18.49-8.62c1.54-.71,3-1.67,4.86-.59,10.56,6.07,21.74,4.83,32.91,2.45a87.35,87.35,0,0,0,22.63-8.63c5.43-2.88,6.54-6.34,3.88-11.76q-8.73-17.72-17.52-35.41c-2.86-5.75-6.64-7.05-12.38-4.31-12.15,5.79-23.07,13.2-31.28,24.1-3.53,4.69-6.23,9.79-6.76,15.73-.19,2.11-1.34,3-3,3.78-6.21,3.1-12.39,6.26-18.59,9.39Q2578.88,6145.46,2582.23,6152.4Zm60.41-38.58,5.79,11.69c3.9,7.9,4,8.07-4.51,10.95-9.55,3.25-19.34,5.19-29.42,2.79-8.87-2.12-12.39-9-9.26-17.56a28.12,28.12,0,0,1,3.48-6.48c5.77-8.24,13.63-14.07,22-19.31,1.9-1.19,2.75-.66,3.62,1.15C2637.07,6102.67,2639.88,6108.24,2642.64,6113.82Z"/><path class="cls-27" d="M2582.23,6152.4q-3.36-6.93-6.73-13.87-32,16.16-63.95,32.31c-17.84,9-97.92,46-115.75,55q3,6,5.92,12.08c27.24-13.13,116.73-54.22,143.94-67.4C2557.9,6164.55,2570,6158.43,2582.23,6152.4Z"/><path class="cls-7" d="M2409.22,6234.12q-3-6-5.93-12.07c-18.32,8.54-36,18.31-54.08,27.36.49,2.46,3.88,4.24,1.7,7.32,2.63-.11,2.86,2.25,3.89,3.78Z"/><path class="cls-28" d="M2359.17,6255.17c2.07-2.92-1.14-4.62-1.61-6.95-3.86,0-7.19-1.73-10.51-3.41q-16,11.29-32,22.6c-6,4.24-12.16,8.27-17.9,12.83-2.74,2.18-5.85,4.59-5.91,8.79,1.82-1.54,4.17-2,6.23-3C2318,6275.68,2338.87,6266,2359.17,6255.17Z"/><path class="cls-29" d="M2359.17,6255.17c-20.3,10.82-41.16,20.51-61.7,30.86-2.06,1-4.41,1.46-6.23,3,3.61,2.49,7.53,1.24,11,.2,9.88-3,19.58-6.56,29.4-9.75,8.65-2.82,17.37-5.45,26.08-8.12.45-.14,1,.17,1.56.27.27-4.55.53-9.1,3.58-12.88C2361.88,6257.3,2361.66,6255.06,2359.17,6255.17Z"/></g><path class="cls-10" d="M2648.07,6084.86c-4.2,4.06-6.66,9.41-8,15.42-.63,2.86-.12,5.92-.68,8.78-.74,3.82-2.72,7.59-3.9,11.33-.27.86-.45,2,.28,2.5a1.91,1.91,0,0,0,1.54.11c2.91-.75,5.44-3.68,6.76-6.28.51-1,3.9-9.83,3.59-10.33,2.07,3.38,2,7.74.76,11.51-1.94,5.9-4.88,6.08-9.45,9.28-1.25.88-2.05,2.74-1.12,3.95s2.72,1,4.17.64l4.67-1a10,10,0,0,0,4.25-1.68,10.13,10.13,0,0,0,2-2.48c1.77-2.82,3.42-7.08,6.21-9,1.74-1.2,3.91-1.62,5.75-2.66,3.36-1.92,5.2-5.63,6.84-9.14,4.64-9.87,9.39-20.26,8.78-31.15a7.07,7.07,0,0,0-.73-3.18,8,8,0,0,0-3-2.58c-6.19-3.66-11-6.93-18.71-6.83a1.23,1.23,0,0,0-.84.22,1.3,1.3,0,0,0-.31.77,40.69,40.69,0,0,0-.36,8.82c.18,2.69.52,5.76-1.31,7.75a11,11,0,0,1-2.5,1.75A24.32,24.32,0,0,0,2648.07,6084.86Z"/><polygon class="cls-2" points="2558.54 6450.85 2562.77 6468.08 2503.39 6467.46 2535.69 6450.61 2558.54 6450.85"/><polygon class="cls-2" points="2597.3 6450.85 2601.53 6468.08 2542.15 6467.46 2574.45 6450.61 2597.3 6450.85"/><path class="cls-10" d="M2421.8,6215c1.1-2.08,3.45-4.36,5.44-3.11a7.21,7.21,0,0,0,1.45,6.35c2.58-2.8,2.14-8,5.58-9.67,2.76-1.31,6.41,1.75,5.6,4.69,1.73-2.09,3.51-4.24,5.89-5.55s5.51-1.62,7.71,0,2.91,4.6,3.41,7.31l1,5.67a7.91,7.91,0,0,1,.14,3.35,6.48,6.48,0,0,1-2.89,3.54,16.84,16.84,0,0,1-7.74,2.82,21.08,21.08,0,0,0-4.28.55c-2,.65-3.57,2.24-5.33,3.42-4,2.72-5.58-.88-9.22-.31-3.9.6-3.51,5.31-8.28,2.69C2413.42,6232.9,2419.35,6219.6,2421.8,6215Z"/><path class="cls-2" d="M2479.09,6039.06a5.76,5.76,0,0,0-.11,2.88,5.54,5.54,0,0,0,2.27,2.6,53.38,53.38,0,0,0,32.54,10.11,8.29,8.29,0,0,0,4.37-1,9,9,0,0,0,2.18-2.37c4.18-5.83,8.38-11.71,11.23-18.29,7-16.08,5.29-57.32-20-56.48C2486.05,5977.37,2482.82,6021.11,2479.09,6039.06Z"/><path class="cls-7" d="M2477.11,5868.38c7.28-6.22,18.51-6.14,28.3-5.05,7.35.82,15,2,20.94,6.43,5.79,4.28,9.26,11.18,10.49,18.27.73,4.24,2.27,18.13-1.42,21.36-8.45,7.37-31.68-5.36-41.14-4.62-3.61.28-7.09,1.41-10.63,2.2a57.51,57.51,0,0,1-47.62-11c1.76-3.95,6.82-5.13,11.14-5s8.81,1.17,12.84-.37c8.13-3.11,9.51-14,15.29-20.51A20.24,20.24,0,0,1,2477.11,5868.38Z"/><circle class="cls-3" cx="1695.73" cy="5605.54" r="78.76"/><circle class="cls-3" cx="1774.5" cy="5673.79" r="78.76"/><circle class="cls-3" cx="1661.54" cy="5673.79" r="78.76"/><circle class="cls-3" cx="1555.43" cy="5684.3" r="61.54"/><circle class="cls-3" cx="1456.81" cy="5709.62" r="48.88"/><circle class="cls-3" cx="1865.76" cy="5696.96" r="61.54"/><polyline class="cls-3" points="1456.81 5758.5 1865.76 5758.5 1865.76 5686.45 1456.81 5709.62"/><path class="cls-6" d="M845.37,2499a85.74,85.74,0,0,0-7.31-30.78c-2.07-4.63-4.64-9.19-8.55-12.44s-9.37-5-14.18-3.36c-2.18,11.32,5,22.09,11.9,31.36a35.82,35.82,0,0,0-26.07-6c-1.17.19-2.47.54-3,1.57-.92,1.65.65,3.56,2.17,4.68a33.93,33.93,0,0,0,14.43,6.15l-15.62,5.65c-3.41,1.23-7.24,2.91-8.26,6.38-1.11,3.82,2.1,7.79,5.86,9.11s7.87.77,11.85.49a81.17,81.17,0,0,1,32.13,4.25"/><path class="cls-6" d="M2068.56,2481.68a85.47,85.47,0,0,1,7.3-30.78c2.07-4.63,4.64-9.19,8.55-12.44s9.37-5,14.18-3.37c2.18,11.33-5.05,22.1-11.9,31.37a35.82,35.82,0,0,1,26.07-6c1.17.19,2.47.54,3,1.57.92,1.65-.65,3.56-2.17,4.68a34,34,0,0,1-14.42,6.15l15.62,5.65c3.4,1.23,7.24,2.9,8.25,6.38,1.11,3.82-2.1,7.79-5.86,9.11s-7.87.76-11.85.49a81.34,81.34,0,0,0-32.13,4.24"/><circle class="cls-30" cx="1858.13" cy="1749.87" r="198.82"/><circle class="cls-30" cx="1453.11" cy="1995.33" r="198.82"/><circle class="cls-30" cx="2316.88" cy="2042.2" r="198.82"/><circle class="cls-30" cx="967.2" cy="2094.84" r="198.82" transform="translate(-1197.99 1297.48) rotate(-45)"/><line class="cls-31" x1="2737.98" y1="2546.7" x2="2738.04" y2="2540.7"/><line class="cls-32" x1="2738.15" y1="2528.7" x2="2752.16" y2="1070.81"/><line class="cls-31" x1="2752.22" y1="1064.81" x2="2752.27" y2="1058.81"/><text class="cls-33" transform="translate(537.01 1244.54)">Carbon <tspan x="0" y="78">Stock</tspan></text><text class="cls-33" transform="translate(669.05 787.86)">Income from forest <tspan x="0" y="78">products timber or non-timber</tspan></text><text class="cls-34" transform="translate(482.71 386.14)">ORIGINAL CONDITION <tspan x="0" y="121">AND (LOST) BENEFITS OF NATURE</tspan></text><text class="cls-34" transform="translate(523.25 3085.08)">DEFORESTATION  IMPACT</text><text class="cls-34" transform="translate(482.71 5091.62)">REFORESTATION</text><text class="cls-33" transform="translate(2469.88 787.86)">Recreative use and <tspan x="0" y="78">natural beauty</tspan></text><text class="cls-33" transform="translate(2806.29 1097.41)">Erosion <tspan x="0" y="78">Control</tspan></text><text class="cls-33" transform="translate(2010.44 934.31)">Species <tspan x="0" y="78">habitat</tspan></text><circle class="cls-1" cx="1965.66" cy="3877.52" r="68.07"/><circle class="cls-1" cx="2033.73" cy="3936.51" r="68.07"/><circle class="cls-1" cx="1936.11" cy="3936.51" r="68.07"/><circle class="cls-1" cx="1844.41" cy="3945.59" r="53.18"/><circle class="cls-1" cx="1759.18" cy="3967.47" r="42.24"/><circle class="cls-1" cx="2112.6" cy="3956.53" r="53.18"/><polyline class="cls-1" points="1759.18 4009.71 2112.6 4009.71 2112.6 3947.45 1759.18 3967.47"/><circle class="cls-15" cx="294.91" cy="345.31" r="103.63"/><circle class="cls-15" cx="294.91" cy="3041.67" r="103.63"/><circle class="cls-15" cx="294.91" cy="5042.33" r="103.63"/><circle class="cls-15" cx="1859.62" cy="5481.54" r="64.05"/><line class="cls-35" x1="294.91" y1="448.94" x2="294.91" y2="2837.52"/><line class="cls-36" x1="294.91" y1="3145.3" x2="294.91" y2="4834.72"/><path class="cls-36" d="M294.91,5146V6676.24c0,179.81,145.77,325.58,325.58,325.58H2979.05c179.81,0,325.58-145.77,325.58-325.58l-27.57-4909.62a127,127,0,0,0-127-126.31h-119.1"/><text class="cls-33" transform="translate(763.15 3259.54)">The extraction of 1kg <tspan x="0" y="78">of gold leads to 14 ha </tspan><tspan x="0" y="156">of deforestation</tspan></text><text class="cls-33" transform="translate(1797.15 4988.1)">This area must be restored for the <tspan x="0" y="78">ecosystem to return minimally to </tspan><tspan x="0" y="156">its previous conditions, a complex </tspan><tspan x="0" y="234">process that takes many years to </tspan><tspan x="0" y="312">generate results.</tspan></text><text class="cls-37" transform="translate(1132.4 6725.64)">Observation: <tspan class="cls-38" x="435.77" y="0">the reforestation is done </tspan><tspan class="cls-38"><tspan x="-11.19" y="78">after the pit recovery (next infographic)</tspan></tspan></text><text class="cls-33" transform="translate(702.85 7237.84)">While the area is not recovered, the accumulated costs of not being <tspan x="-102.91" y="78">able to use the benefits of the forest should be accounted for, considering </tspan><tspan x="-76.54" y="156">the loss of opportunities for work with forest products, recreational use, </tspan><tspan x="397.68" y="234">carbon sequestration and species habitat.</tspan></text><text class="cls-33" transform="translate(2510.15 3031.17)">This area refers <tspan x="0" y="78">to illegal mining </tspan><tspan x="0" y="156">area and the </tspan><tspan x="0" y="234">indirect </tspan><tspan x="0" y="312">deforestation </tspan><tspan x="0" y="390">created by road </tspan><tspan x="0" y="468">construction, </tspan><tspan x="0" y="546">airstrips, camps, </tspan><tspan x="0" y="624">and so on.</tspan></text><line class="cls-31" x1="2428.27" y1="3936.51" x2="2428.27" y2="3930.51"/><line class="cls-39" x1="2428.27" y1="3918.58" x2="2428.27" y2="2993.74"/><line class="cls-31" x1="2428.27" y1="2987.77" x2="2428.27" y2="2981.77"/><line class="cls-31" x1="1716.94" y1="6025.2" x2="1716.94" y2="6019.2"/><line class="cls-40" x1="1716.94" y1="6007.13" x2="1716.94" y2="4950.74"/><line class="cls-31" x1="1716.94" y1="4944.7" x2="1716.94" y2="4938.7"/><polygon class="cls-41" points="345.63 2721.88 294.91 2837.07 244.19 2721.88 345.63 2721.88"/><polygon class="cls-42" points="345.63 4719.53 294.91 4834.72 244.19 4719.53 345.63 4719.53"/><polygon class="cls-43" points="1681.37 7052.54 1796.56 7001.82 1681.37 6951.1 1681.37 7052.54"/><polygon class="cls-43" points="3349.4 5642.64 3298.68 5527.45 3247.97 5642.64 3349.4 5642.64"/><polygon class="cls-43" points="3336.71 3492.99 3285.99 3377.8 3235.27 3492.99 3336.71 3492.99"/><polygon class="cls-43" points="3146.11 1589.59 3030.92 1640.31 3146.11 1691.03 3146.11 1589.59"/><text class="cls-44" transform="translate(268 386.14)">1</text><text class="cls-44" transform="translate(270.05 3085.08)">2</text><text class="cls-44" transform="translate(267.61 5091.62)">3</text><text class="cls-45" transform="translate(1843.31 5507.8)">$</text><text class="cls-46" transform="translate(1966.21 5475.74)">Cost of <tspan x="0" y="67.2">R$ 23.4 thousand </tspan><tspan x="0" y="134.4">per hectare</tspan></text><circle class="cls-15" cx="628.51" cy="3316.41" r="103.63"/><path class="cls-47" d="M616.87,3275.72c3.1-4.13,6.32-8.37,10.77-11s10.48-3.27,14.61-.16c6,4.47,5.36,14.12,10.77,19.23,6.31,5.94,19.42,4.76,21.16,13.25,1.44,7-7.3,12-8.82,19-2.15,9.88,10.39,17.16,11.69,27.18,3.05,23.53-33.41,21.31-46.77,21.42-3.17,0-6.51,0-9.27-1.56-4.37-2.49-6-8.22-10.45-10.53-4-2.06-5.48-.61-9.33-1.29-9.43-1.66-15.82-4.73-19.2-14.69-1.76-5.18-3.65-12.69-1.06-17.68,1.35-2.6,2.44-5.09,4.51-7.16,1.37-1.37,2.69-2.79,4-4.21,3.2-3.46,6.32-7,9.42-10.54q8.16-9.34,16.07-18.91C615.62,3277.28,616.27,3276.52,616.87,3275.72Z"/><path class="cls-48" d="M629.72,3318a69.52,69.52,0,0,1,14.7,3.59c2.3.83,4.65,1.86,6.16,3.78,1.37,1.72,1.89,4,2.88,5.92,2.17,4.34,6.45,7.15,10.17,10.26s7.29,7.3,7,12.15c-.23,4.41-3.68,8.14-7.69,10s-8.53,2.19-12.93,2.51a96.75,96.75,0,0,1-20.28-.29,16.89,16.89,0,0,1-7.43-2.37c-6.27-4.28-1.1-15.52.18-21.54C623,3339.67,627.76,3317.71,629.72,3318Z"/><path class="cls-48" d="M646.5,3296.58c4.92.91,1.13-27.56-2.47-30.94-4.59-4.33-13.36-4.44-16.32,1.13C620.28,3280.8,634.6,3294.38,646.5,3296.58Z"/><path class="cls-48" d="M600.73,3294.88a18.9,18.9,0,0,1,4.44,3.81l5.62,9.93a13.62,13.62,0,0,1,2.11,5.47c.32,4.49-3.7,8-7.32,10.62-2.91,2.14-6.29,4.39-9.83,3.7-2.24-.43-4.07-2-6.16-2.89-5.53-2.42-11.79-1.49-7.81-9.54a29.75,29.75,0,0,1,4.25-5.93C588.29,3307.4,600.73,3294.88,600.73,3294.88Z"/><path class="cls-3" d="M679.48,3287.46c-4.54-4.54-7.42-26.95-8.79-31.94-1.38,5-4.25,27.4-8.8,31.94-3.58,3.59-4.83,5.63-23.27,7.42,15.63,0,19.69,3.83,23.27,7.41,4.55,4.54,7.42,23.38,8.8,28.38,1.37-5,4.25-23.84,8.79-28.38,3.58-3.58,7.65-7.41,23.28-7.41C684.31,3293.09,683.06,3291.05,679.48,3287.46Z"/><path class="cls-3" d="M613.05,3351.35c-2.13-2.14-3.48-12.66-4.13-15-.64,2.34-2,12.86-4.13,15-1.68,1.68-2.26,2.64-10.92,3.48,7.33,0,9.24,1.79,10.92,3.48,2.14,2.13,3.49,11,4.13,13.32.65-2.35,2-11.19,4.13-13.32,1.68-1.69,3.59-3.48,10.93-3.48C615.32,3354,614.73,3353,613.05,3351.35Z"/><path class="cls-3" d="M611.77,3283.18c-1.47-1.47-2.4-8.72-2.85-10.34-.44,1.62-1.37,8.87-2.85,10.34-1.16,1.16-1.56,1.83-7.53,2.4,5.06,0,6.37,1.25,7.53,2.41,1.48,1.47,2.41,7.57,2.85,9.19.45-1.62,1.38-7.72,2.85-9.19,1.16-1.16,2.48-2.41,7.54-2.41C613.34,3285,612.93,3284.34,611.77,3283.18Z"/><ellipse class="cls-15" cx="582.33" cy="1432.71" rx="48.34" ry="54.3"/><text class="cls-49" transform="translate(570.02 1454.98) scale(0.89 1)">$</text><text class="cls-50" transform="translate(664.71 1428.88) scale(0.89 1)">400tCO2 <tspan x="0" y="66">per hectare, </tspan><tspan x="0" y="132">at a price of </tspan><tspan x="0" y="198">US$10 per ton</tspan></text><circle class="cls-15" cx="1010.33" cy="1010.61" r="54.3"/><text class="cls-49" transform="translate(996.5 1032.61)">$</text><text class="cls-46" transform="translate(1102.87 1009.37)">Net present value <tspan x="0" y="67.2">of R$ 7000 per hectare </tspan><tspan x="0" y="134.4">of agroforestry and </tspan><tspan x="0" y="201.6">forest concession</tspan></text><circle class="cls-15" cx="2850.42" cy="1271.01" r="54.3"/><text class="cls-49" transform="translate(2836.59 1293.01)">$</text><text class="cls-46" transform="translate(2942.96 1269.77)">R$75 per <tspan x="0" y="67.2">hectare </tspan><tspan x="0" y="134.4">per year</tspan></text><ellipse class="cls-5" cx="2658.53" cy="4300.06" rx="203.07" ry="21.06"/><path class="cls-5" d="M2927.4,4393.43S2718,4384,2718,4372.37s92.63-21.05,204.78-21.05C2922.76,4351.32,2927.33,4381.5,2927.4,4393.43Z"/><ellipse class="cls-5" cx="2291.24" cy="4359.02" rx="203.07" ry="21.06"/><ellipse class="cls-5" cx="1553.05" cy="4597.27" rx="312.38" ry="32.39"/><ellipse class="cls-5" cx="2265.12" cy="4553.5" rx="228.83" ry="23.73"/><ellipse class="cls-5" cx="1553.05" cy="4341.14" rx="120.94" ry="12.54"/><ellipse class="cls-5" cx="1771.7" cy="4279.31" rx="80.49" ry="8.35"/><line class="cls-31" x1="1966.21" y1="882.3" x2="1966.21" y2="888.3"/><line class="cls-51" x1="1966.21" y1="900.36" x2="1966.21" y2="1569.3"/><line class="cls-31" x1="1966.21" y1="1575.32" x2="1966.21" y2="1581.32"/><line class="cls-31" x1="2428.27" y1="744.34" x2="2428.27" y2="750.34"/><line class="cls-52" x1="2428.27" y1="762.39" x2="2428.27" y2="1864.78"/><line class="cls-31" x1="2428.27" y1="1870.81" x2="2428.27" y2="1876.81"/><line class="cls-31" x1="621.5" y1="744.34" x2="621.5" y2="750.34"/><path class="cls-53" d="M621.5,762.35v173a75.3,75.3,0,0,0,75.31,75.3H788a79.74,79.74,0,0,1,79.74,79.75v35.25a67,67,0,0,0,67,67h22.58a64.77,64.77,0,0,1,64.77,64.77v75.76a64.46,64.46,0,0,0,64.45,64.45h148.13a84.93,84.93,0,0,1,84.94,84.93v348.89"/><line class="cls-31" x1="1319.62" y1="1837.38" x2="1319.62" y2="1843.38"/><path class="cls-54" d="M482.71,1201.59v784.86a107.55,107.55,0,0,0,107,107.54l178.63.85"/></svg>