<svg id="Camada_1" data-name="Camada 1" xmlns="http://www.w3.org/2000/svg" viewBox="0 0 1388.29 1388.29"><defs><style>.cls-1{fill:#bfddce;}.cls-2{fill:#db7200;}.cls-3{fill:#ff8c00;}.cls-4{fill:#356958;}.cls-5{fill:#e1eae6;}.cls-6{fill:#1a6099;}.cls-7{fill:#e27b0c;}.cls-8{fill:#2b75bf;}.cls-9{fill:#332727;}.cls-10{fill:#3b84db;}.cls-11{fill:none;stroke:#e1eae6;stroke-miterlimit:10;stroke-width:0.83px;}.cls-12{fill:#c66c12;}.cls-13{fill:#003d23;}.cls-14{fill:#feac02;}.cls-15{fill:#7d7875;}</style></defs><circle class="cls-1" cx="357.87" cy="341.94" r="179.15"/><polygon class="cls-1" points="340.86 481.28 354.43 615.6 380.38 462.62 340.86 481.28"/><g id="OW2u5a.tif"><path class="cls-2" d="M331.43,280.36c6.61.11,11.5.91,16.16,3a2.13,2.13,0,0,0,1.75-.1,30.24,30.24,0,0,1,17.49-4.63,34.83,34.83,0,0,1,15.64,4.07,31.55,31.55,0,0,1,8,6.31,3.39,3.39,0,0,0,2.22.69c1.72,0,3.44-.17,5.15-.15,4.55.06,8.54,1.76,12.37,4.08a30.11,30.11,0,0,1,8.71,8,31.56,31.56,0,0,1,3.46,6.09,27.78,27.78,0,0,1,2.13,6.95,24.82,24.82,0,0,1-.09,7.55c-.46,2.68-.49,2.94,1.81,4.33a23.87,23.87,0,0,1,8.07,7.49,30.11,30.11,0,0,1,4.37,22.45,31.31,31.31,0,0,1-1.9,7.49,21.05,21.05,0,0,1-6.9,9,3.79,3.79,0,0,0-1.7,3.19,31.64,31.64,0,0,1-3.87,12.46,28.55,28.55,0,0,1-9.53,10.4,46.62,46.62,0,0,1-7.55,3.76,34.12,34.12,0,0,1-11,2.48,34.77,34.77,0,0,1-13.8-1.68,30.42,30.42,0,0,1-13-7.87c-1-1.05-1.93-1.68-3.65-.88a34.59,34.59,0,0,1-8.44,2.91c-4.17.74-8.39,1.69-12.7.89-.77-.15-1.56-.2-2.33-.3a20.9,20.9,0,0,1-13.5-7.5c-4.18-4.91-5.32-10.76-5.5-16.95,0-.59.05-1.19,0-1.77-.15-1.24-.62-1.39-1.78-1a39.33,39.33,0,0,1-5.73,1.83c-6,1.21-11.87,2.13-18.06.6s-11.16-4.12-15.07-8.93a28,28,0,0,1-5.33-10.91c-1.57-6-.7-11.81.59-17.62a56.78,56.78,0,0,1,2.15-5.73,9.83,9.83,0,0,0,.51-3c0-2.4-.18-4.8-.12-7.2.13-4.42,1.86-8.3,4-12.09a27.83,27.83,0,0,1,10.7-10.4,23.62,23.62,0,0,1,7.57-2.56c2.67-.44,4.17-2,5.65-3.94a30.51,30.51,0,0,1,15.23-9.64A62,62,0,0,1,331.43,280.36Zm-3.83,95.29c-.49,2.29.57,5.11,1.68,7.81a16.68,16.68,0,0,0,3.45,5.39,18.77,18.77,0,0,0,9.36,5.15,23.38,23.38,0,0,0,11.06.11c2.65-.68,5.34-1.21,7.92-2.06a28.5,28.5,0,0,0,7.93-3.69q3.57-2.55,7.27-4.93,5.24-3.35,10.58-6.52c3-1.8,6-3.59,9.19-5.15a2.88,2.88,0,0,0,1.82-2.69c.05-.79,0-1.57,0-2.36a4.34,4.34,0,0,1,2-3.44,2.46,2.46,0,0,1,3.52.46c.61,1.11,1.11,2.28,1.79,3.34a12.42,12.42,0,0,0,8.16,5.76c3.66.71,7.5.83,10.84-1.33a33.4,33.4,0,0,0,6.59-5.05c2.63-2.85,3.84-6.62,4.44-10.39,1.11-7.05.11-13.8-4-19.82-2.15-3.16-4.77-5.85-8.49-7.16-1.56-.55-3.13-1.07-4.72-1.51-1.93-.54-3.14-2.41-2-3.37a4.46,4.46,0,0,1,2.42-.58c1.09-.1,2.19.06,2.42-1.49A23.27,23.27,0,0,0,416,304c-3-3.86-6.47-7.13-11.11-8.85a28.15,28.15,0,0,0-7.59-2.06,15,15,0,0,0-11.1,3.78,2.89,2.89,0,0,0-1.1,1.82c0,.43.92,1,1.52,1.24,2.6,1.16,5.15,2.33,7.09,4.55,3.35,3.82,4.65,8.37,5.1,13.29a4.93,4.93,0,0,0,.82,2.42c.95,1.29,2.22,2.33,3.18,3.61a17,17,0,0,1,3.09,13.33c-.2,1.26-.48,2.5-.74,3.74s.31,2,1.59,2.33c2.06.56,4.13,1.16,6.14,1.91a18.29,18.29,0,0,1,6.81,4.72,1.82,1.82,0,0,1-.21,2.83c-.88.77-2.07.61-3.41-.61a19.93,19.93,0,0,0-9.45-4.8A19,19,0,0,0,389.53,352a15.44,15.44,0,0,0-5.09,8.37c-.42,2-1.51,3.41-3.72,3.6-4,.35-7.93.41-11.72,1.84-3.19,1.19-6.61,1.92-9.58,3.49s-5.15,3.94-7.84,5.76a57.4,57.4,0,0,1-5.9,3.15c-.13.06-.37-.05-.54-.12-2.27-1-2.67-2.73-1.06-4.56.13-.15.28-.28.41-.43,3-3.48,7.28-5,11.19-7.08a27.8,27.8,0,0,1,3.74-1.66c2.12-.74,4.26-1.43,6.44-2,3.4-.87,6.84-1.58,10.24-2.42a5.13,5.13,0,0,0,2.62-1.11c1.95-2.37,3.52-5.06,5.54-7.37,3.67-4.2,7.92-7.55,13.81-8a2.43,2.43,0,0,0,2.51-2.39,6.92,6.92,0,0,1,.46-1.7A13.5,13.5,0,0,0,398,324.66c-2.27-2.18-3.76-4.25-3.58-7.64a13.34,13.34,0,0,0-3.32-9.06c-3.21-3.92-7.58-5.86-12.55-6.54a16,16,0,0,0-3.07-.3c-3.08.19-6.24.14-9.19.87a18.57,18.57,0,0,0-8.95,5.35c-3.2,3.35-5.7,7-5.13,11.94.08.63.14,1.27.18,1.9a8.76,8.76,0,0,0,2.59,5.26c.93,1,2.25,1.89,2.07,3.54a35.78,35.78,0,0,1-.79,5.38,9.93,9.93,0,0,0,.1,5.64c.33,1.06.83,1.52,2,1.33,4.73-.77,9.48-1.46,14.22-2.17a1.76,1.76,0,0,0,1.65-1.78c.12-2.69.26-5.38.23-8.07a15.37,15.37,0,0,0-2.46-8.18c-.85-1.35-.82-2.43.2-3.08a2.3,2.3,0,0,1,3.32.83,34.27,34.27,0,0,1,2.82,7,26.91,26.91,0,0,1,0,12.43c-1.08,4.19-1.2,4.33-5.18,4.71a100.24,100.24,0,0,0-11,1.76,75.24,75.24,0,0,0-8.44,2.43c-3.09,1-6.14,2.23-9.17,3.45a15.71,15.71,0,0,0-3.16,1.8c-1.59,1.13-3.08,2.4-4.64,3.58A21.63,21.63,0,0,0,327.6,375.65ZM282.47,337a17.73,17.73,0,0,0-1.33,4c-.42,4.41-.92,8.79.69,13.2a23.93,23.93,0,0,0,4.88,8.69,18.7,18.7,0,0,0,9.62,5.33c3.29.75,6.63,1.47,10,1,1.93-.28,3.84-.7,5.73-1.16a58.77,58.77,0,0,0,7.44-2c1-.37,1.66-1.64,2.37-2.58s1.25-2.21,2.09-3.1c1.6-1.69,3.37-3.21,5.07-4.8,1.37-1.28,1.21-1.88.06-3.42a13.41,13.41,0,0,1-2.75-5.14c-.4-2.16-.71-3.23-3.66-3.06-3.15.18-6.32.07-9.39,1.41a26.45,26.45,0,0,0-7.8,4.49c-1.76,1.64-3.57,2.71-5.85,1.18-2.56-1.72-4.23-2.7-.63-5.26a31,31,0,0,0,3-2c2.23-2,5.09-2.65,7.77-3.52a48.55,48.55,0,0,1,7.93-1.41c1.94-.28,3.91-.4,5.85-.64,1.34-.16,2.34-.54,2.49-2.27a51.24,51.24,0,0,1,1.18-5.38c.06-.32-.25-.77-.49-1.08-1.46-1.82-3.22-3.43-3.74-5.88-.27-1.28-1.26-1.35-2.32-1-1.57.55-3.12,1.13-4.68,1.69-4.3,1.55-8.46.68-12.48-.95a11,11,0,0,1-3.34-2.73,2.57,2.57,0,0,1,.14-3.39c.37-.49,1.82-.41,2.69-.21a16.08,16.08,0,0,1,2.92,1.37c4.11,2,10.91,1.42,14.79-2.12a2.18,2.18,0,0,0,.68-1.52,12.44,12.44,0,0,1,1.46-6.38,14,14,0,0,1,6.9-7.12c1.95-.88,3.59-.43,4.32,1s.07,2.45-2,3.69a9.8,9.8,0,0,0-3,2.35,11.55,11.55,0,0,0-2,10.1c.88,3.48,2.46,6.19,5.73,7.91a2.91,2.91,0,0,1,1.19,2.4,19.64,19.64,0,0,1-1.36,4.16,17.2,17.2,0,0,0-.33,9.43,12.62,12.62,0,0,0,3.27,6.48,2.88,2.88,0,0,0,3.6.62c2.33-1,4.68-2,7.06-2.87,2.65-1,3.1-1.58,3.19-4.34a39.41,39.41,0,0,1,.56-7.31c.39-1.73-.2-2.86-.87-4.24a20.21,20.21,0,0,1-2.25-6.07,23.24,23.24,0,0,1,3.32-14.91,24.85,24.85,0,0,1,9.71-9.51,23.69,23.69,0,0,1,12.34-3.25c2.07.08,4.13.14,6.19.05a4.6,4.6,0,0,0,2.25-.8c1.52-1,2.86-2.34,4.41-3.29,1.74-1.08,2-2.13.27-3.31a51.07,51.07,0,0,0-7.63-4.58,33.36,33.36,0,0,0-8-2.31,23.81,23.81,0,0,0-6.9-.05,32.87,32.87,0,0,0-7.79,1.91,16.72,16.72,0,0,0-7.79,6.26,2.31,2.31,0,0,1-3.28.42c-.94-.89-.42-1.78.17-2.62.95-1.32.58-2.41-1-2.84-1.14-.31-2.33-.41-3.46-.74a25.83,25.83,0,0,0-13.63-.11,27.22,27.22,0,0,0-10.56,4.83c-3.51,2.76-6.89,5.67-7.57,10.56a2.82,2.82,0,0,1-2.06,1.7,1.73,1.73,0,0,1-1.9-1.82c0-1.41-.89-1.69-2-1.27a29.33,29.33,0,0,0-8.71,4.75c-3.46,2.95-6.38,6.33-7.48,10.8a40.22,40.22,0,0,0-1.3,9.68,17.43,17.43,0,0,0,4,10.39,2.8,2.8,0,0,1,.47,2.2,2.17,2.17,0,0,1-2.55,1.55C285.23,337.9,284.05,337.45,282.47,337Zm110.9,64a32,32,0,0,0,17.18-4.32,16.86,16.86,0,0,0,7.61-9.47,4.48,4.48,0,0,0,.14-2.3c-.22-1.16-1-1.41-2.09-.95a4.2,4.2,0,0,1-2.08.52c-2.31-.35-4.59-.85-6.88-1.32a13.69,13.69,0,0,1-6.54-3.6,2.72,2.72,0,0,0-3.11-.44c-1,.38-2,.81-3.05,1.24-1.47.64-2.95,1.28-4.4,2s-2.82,1.43-4.25,2.12-2.86,1.25-4.2,2c-2.67,1.53-5.27,3.18-7.91,4.76-1,.58-1.26,1.6-.55,2.3a23.61,23.61,0,0,0,9.31,5.64C386.19,400.28,389.94,401.47,393.37,400.91Z"/><path class="cls-3" d="M327.6,375.65a21.63,21.63,0,0,1,9.13-18.6c1.56-1.18,3-2.45,4.64-3.58a15.71,15.71,0,0,1,3.16-1.8c3-1.22,6.08-2.4,9.17-3.45a75.24,75.24,0,0,1,8.44-2.43,100.24,100.24,0,0,1,11-1.76c4-.38,4.1-.52,5.18-4.71a26.91,26.91,0,0,0,0-12.43,34.27,34.27,0,0,0-2.82-7,2.3,2.3,0,0,0-3.32-.83c-1,.65-1.05,1.73-.2,3.08a15.37,15.37,0,0,1,2.46,8.18c0,2.69-.11,5.38-.23,8.07a1.76,1.76,0,0,1-1.65,1.78c-4.74.71-9.49,1.4-14.22,2.17-1.2.19-1.7-.27-2-1.33a9.93,9.93,0,0,1-.1-5.64A35.78,35.78,0,0,0,357,330c.18-1.65-1.14-2.51-2.07-3.54a8.76,8.76,0,0,1-2.59-5.26c0-.63-.1-1.27-.18-1.9-.57-5,1.93-8.59,5.13-11.94a18.57,18.57,0,0,1,8.95-5.35c2.95-.73,6.11-.68,9.19-.87a16,16,0,0,1,3.07.3c5,.68,9.34,2.62,12.55,6.54a13.34,13.34,0,0,1,3.32,9.06c-.18,3.39,1.31,5.46,3.58,7.64A13.5,13.5,0,0,1,401,339.3a6.92,6.92,0,0,0-.46,1.7,2.43,2.43,0,0,1-2.51,2.39c-5.89.49-10.14,3.84-13.81,8-2,2.31-3.59,5-5.54,7.37a5.13,5.13,0,0,1-2.62,1.11c-3.4.84-6.84,1.55-10.24,2.42-2.18.56-4.32,1.25-6.44,2a27.8,27.8,0,0,0-3.74,1.66c-3.91,2.08-8.17,3.6-11.19,7.08-.13.15-.28.28-.41.43-1.61,1.83-1.21,3.58,1.06,4.56.17.07.41.18.54.12a57.4,57.4,0,0,0,5.9-3.15c2.69-1.82,5-4.26,7.84-5.76s6.39-2.3,9.58-3.49c3.79-1.43,7.77-1.49,11.72-1.84,2.21-.19,3.3-1.64,3.72-3.6a15.44,15.44,0,0,1,5.09-8.37,19,19,0,0,1,17.05-4.75A19.93,19.93,0,0,1,416,352c1.34,1.22,2.53,1.38,3.41.61a1.82,1.82,0,0,0,.21-2.83,18.29,18.29,0,0,0-6.81-4.72c-2-.75-4.08-1.35-6.14-1.91-1.28-.35-1.87-1-1.59-2.33s.54-2.48.74-3.74a17,17,0,0,0-3.09-13.33c-1-1.28-2.23-2.32-3.18-3.61a4.93,4.93,0,0,1-.82-2.42c-.45-4.92-1.75-9.47-5.1-13.29-1.94-2.22-4.49-3.39-7.09-4.55-.6-.27-1.51-.81-1.52-1.24a2.89,2.89,0,0,1,1.1-1.82,15,15,0,0,1,11.1-3.78,28.15,28.15,0,0,1,7.59,2.06c4.64,1.72,8.15,5,11.11,8.85a23.27,23.27,0,0,1,4.89,18.17c-.23,1.55-1.33,1.39-2.42,1.49a4.46,4.46,0,0,0-2.42.58c-1.11,1,.1,2.83,2,3.37,1.59.44,3.16,1,4.72,1.51,3.72,1.31,6.34,4,8.49,7.16,4.1,6,5.1,12.77,4,19.82-.6,3.77-1.81,7.54-4.44,10.39a33.4,33.4,0,0,1-6.59,5.05c-3.34,2.16-7.18,2-10.84,1.33a12.42,12.42,0,0,1-8.16-5.76c-.68-1.06-1.18-2.23-1.79-3.34a2.46,2.46,0,0,0-3.52-.46,4.34,4.34,0,0,0-2,3.44c0,.79,0,1.57,0,2.36a2.88,2.88,0,0,1-1.82,2.69c-3.14,1.56-6.17,3.35-9.19,5.15q-5.34,3.18-10.58,6.52-3.7,2.37-7.27,4.93a28.5,28.5,0,0,1-7.93,3.69c-2.58.85-5.27,1.38-7.92,2.06a23.38,23.38,0,0,1-11.06-.11,18.77,18.77,0,0,1-9.36-5.15,16.68,16.68,0,0,1-3.45-5.39C328.17,380.76,327.11,377.94,327.6,375.65Z"/><path class="cls-3" d="M282.47,337c1.58.5,2.76.95,4,1.21a2.17,2.17,0,0,0,2.55-1.55,2.8,2.8,0,0,0-.47-2.2,17.43,17.43,0,0,1-4-10.39,40.22,40.22,0,0,1,1.3-9.68c1.1-4.47,4-7.85,7.48-10.8a29.33,29.33,0,0,1,8.71-4.75c1.11-.42,2-.14,2,1.27a1.73,1.73,0,0,0,1.9,1.82,2.82,2.82,0,0,0,2.06-1.7c.68-4.89,4.06-7.8,7.57-10.56a27.22,27.22,0,0,1,10.56-4.83,25.83,25.83,0,0,1,13.63.11c1.13.33,2.32.43,3.46.74,1.61.43,2,1.52,1,2.84-.59.84-1.11,1.73-.17,2.62a2.31,2.31,0,0,0,3.28-.42,16.72,16.72,0,0,1,7.79-6.26,32.87,32.87,0,0,1,7.79-1.91,23.81,23.81,0,0,1,6.9.05,33.36,33.36,0,0,1,8,2.31,51.07,51.07,0,0,1,7.63,4.58c1.73,1.18,1.47,2.23-.27,3.31-1.55.95-2.89,2.25-4.41,3.29a4.6,4.6,0,0,1-2.25.8c-2.06.09-4.12,0-6.19-.05A23.69,23.69,0,0,0,360,300.05a24.85,24.85,0,0,0-9.71,9.51A23.24,23.24,0,0,0,347,324.47a20.21,20.21,0,0,0,2.25,6.07c.67,1.38,1.26,2.51.87,4.24a39.41,39.41,0,0,0-.56,7.31c-.09,2.76-.54,3.37-3.19,4.34-2.38.87-4.73,1.87-7.06,2.87a2.88,2.88,0,0,1-3.6-.62,12.62,12.62,0,0,1-3.27-6.48,17.2,17.2,0,0,1,.33-9.43,19.64,19.64,0,0,0,1.36-4.16,2.91,2.91,0,0,0-1.19-2.4c-3.27-1.72-4.85-4.43-5.73-7.91a11.55,11.55,0,0,1,2-10.1,9.8,9.8,0,0,1,3-2.35c2-1.24,2.66-2.29,2-3.69s-2.37-1.91-4.32-1a14,14,0,0,0-6.9,7.12,12.44,12.44,0,0,0-1.46,6.38,2.18,2.18,0,0,1-.68,1.52c-3.88,3.54-10.68,4.08-14.79,2.12A16.08,16.08,0,0,0,303,316.9c-.87-.2-2.32-.28-2.69.21a2.57,2.57,0,0,0-.14,3.39,11,11,0,0,0,3.34,2.73c4,1.63,8.18,2.5,12.48.95,1.56-.56,3.11-1.14,4.68-1.69,1.06-.37,2.05-.3,2.32,1,.52,2.45,2.28,4.06,3.74,5.88.24.31.55.76.49,1.08a51.24,51.24,0,0,0-1.18,5.38c-.15,1.73-1.15,2.11-2.49,2.27-1.94.24-3.91.36-5.85.64a48.55,48.55,0,0,0-7.93,1.41c-2.68.87-5.54,1.52-7.77,3.52a31,31,0,0,1-3,2c-3.6,2.56-1.93,3.54.63,5.26,2.28,1.53,4.09.46,5.85-1.18a26.45,26.45,0,0,1,7.8-4.49c3.07-1.34,6.24-1.23,9.39-1.41,2.95-.17,3.26.9,3.66,3.06a13.41,13.41,0,0,0,2.75,5.14c1.15,1.54,1.31,2.14-.06,3.42-1.7,1.59-3.47,3.11-5.07,4.8-.84.89-1.33,2.11-2.09,3.1s-1.39,2.21-2.37,2.58a58.77,58.77,0,0,1-7.44,2c-1.89.46-3.8.88-5.73,1.16-3.41.51-6.75-.21-10-1a18.7,18.7,0,0,1-9.62-5.33,23.93,23.93,0,0,1-4.88-8.69c-1.61-4.41-1.11-8.79-.69-13.2A17.73,17.73,0,0,1,282.47,337Z"/><path class="cls-3" d="M393.37,400.91c-3.43.56-7.18-.63-10.82-1.83a23.61,23.61,0,0,1-9.31-5.64c-.71-.7-.43-1.72.55-2.3,2.64-1.58,5.24-3.23,7.91-4.76,1.34-.77,2.81-1.33,4.2-2s2.82-1.44,4.25-2.12,2.93-1.33,4.4-2c1-.43,2-.86,3.05-1.24a2.72,2.72,0,0,1,3.11.44,13.69,13.69,0,0,0,6.54,3.6c2.29.47,4.57,1,6.88,1.32a4.2,4.2,0,0,0,2.08-.52c1.07-.46,1.87-.21,2.09.95a4.48,4.48,0,0,1-.14,2.3,16.86,16.86,0,0,1-7.61,9.47A32,32,0,0,1,393.37,400.91Z"/></g><g id="ePFeev.tif"><path class="cls-4" d="M354.93,198c-5.55,0-10.83,0-16.12,0-3.19,0-3.71-.85-2.39-3.81q11-24.73,22.07-49.48c.73-1.63,1.59-2.41,3.5-2.39,8.72.1,17.44,0,26.16,0,3,0,3.6.94,2.3,3.71q-6.58,14-13.19,27.93c-.34.72-.65,1.45-1.1,2.46,5.93,0,11.5-.06,17.07.05a10.93,10.93,0,0,1,3.13,1.06,11,11,0,0,1-1.15,2.93Q372.92,209,350.55,237.41c-.19.23-.32.57-.56.69-.8.38-1.63.68-2.45,1-.32-.9-1-1.87-.88-2.67,1.08-5.57,2.35-11.1,3.55-16.65C351.76,212.66,353.31,205.51,354.93,198Z"/></g><g id="ePFeev.tif-2" data-name="ePFeev.tif"><path class="cls-4" d="M428.76,225c-5.36-1.44-10.47-2.8-15.57-4.18-3.08-.83-3.37-1.77-1.33-4.29q17.08-21,34.13-42.08c1.12-1.39,2.16-1.92,4-1.4,8.4,2.35,16.84,4.55,25.27,6.81,2.91.79,3.23,1.84,1.25,4.18l-20,23.57c-.51.6-1,1.22-1.7,2.08,5.72,1.54,11.12,2.92,16.47,4.47a10.85,10.85,0,0,1,2.75,1.84,10.92,10.92,0,0,1-1.87,2.53q-28.89,21.74-57.86,43.39c-.24.18-.46.47-.72.52-.87.16-1.75.24-2.63.35-.07-.94-.52-2.07-.16-2.8,2.49-5.1,5.14-10.12,7.74-15.16Z"/></g><g id="ePFeev.tif-3" data-name="ePFeev.tif"><path class="cls-4" d="M291.76,225c5.36-1.44,10.47-2.8,15.57-4.18,3.08-.83,3.37-1.77,1.33-4.29q-17.07-21-34.13-42.08c-1.12-1.39-2.16-1.92-4-1.4-8.4,2.35-16.84,4.55-25.26,6.81-2.92.79-3.23,1.84-1.26,4.18q10,11.79,20,23.57c.51.6,1,1.22,1.69,2.08-5.72,1.54-11.12,2.92-16.47,4.47a10.85,10.85,0,0,0-2.75,1.84,11.22,11.22,0,0,0,1.87,2.53q28.89,21.74,57.86,43.39c.24.18.46.47.72.52.87.16,1.76.24,2.63.35.08-.94.52-2.07.16-2.8-2.49-5.1-5.14-10.12-7.74-15.16Z"/></g><circle class="cls-5" cx="971.61" cy="354.23" r="160.12"/><polygon class="cls-5" points="956.41 478.77 968.54 598.83 991.73 462.1 956.41 478.77"/><g id="YQx6b5.tif"><path class="cls-6" d="M933.73,308a61.07,61.07,0,0,1-3.68,18.45,3.16,3.16,0,0,1-2,1.47c-1.34.38-2.83.27-4.15.68a2.69,2.69,0,0,1-3.31-1.19c-1.42-1.91-1.91-7.81-.36-9.54a11.64,11.64,0,0,1,4.38-2.47,24.68,24.68,0,0,1,3.79-.75,3.74,3.74,0,0,0,1.81-.74c.48-.51,1-1.46.84-2a2.54,2.54,0,0,0-1.87-1.08c-2.21-.25-4.05.75-5.77,2s-2.51,1.32-3.64-.63a9.69,9.69,0,0,1-1.3-4.33,22.15,22.15,0,0,1,.69-6.39,4.1,4.1,0,0,1,2.44-2.43,90.52,90.52,0,0,1,9.54-1.93c.33-.06,1.09.7,1.17,1.17C932.88,301.53,933.28,304.76,933.73,308Z"/><path class="cls-7" d="M961.74,322.08c-2.48-1.94-4.48-3.94-6.87-5.25a33.44,33.44,0,0,0-8.5-3.29c-3.17-.72-4.59-2.93-5.81-5.4-1.6-3.21-1.53-6.7-1-10.13a23.51,23.51,0,0,1,9.72-15.95c1-.71,1.88-1.54,2.79-2.3-1.77-1.84-3.56-3.44-5-5.3a31.94,31.94,0,0,1-4-6.14c-1.08-2.27.29-5.11,2.63-6.4a4.66,4.66,0,0,1,6.39,1.22c2.66,3.31,5.28,6.65,7.91,10,.36.45.74.88,1.11,1.33l.73-.2c-.3-3.26-.46-6.53-.94-9.76-.42-2.85-1.25-5.63-1.81-8.47a2.34,2.34,0,0,1,.32-1.82,8.6,8.6,0,0,1,6.32-2.56c2.39.13,3.15,1,3.58,3.37a67.62,67.62,0,0,0,2.18,9.1V253.32a31.43,31.43,0,0,1,5.66.54c2.39.68,3.26,2.89,3,6.06-.22,2.94-.34,5.89-.46,8.84a7.4,7.4,0,0,0,2.29,5.62,84.35,84.35,0,0,1,7.65,8.94c2.68,3.79,3.35,8.28,3,12.88a1.89,1.89,0,0,1-1.09,1.36c-4.64.93-9.29,1.82-14,2.52a4.6,4.6,0,0,1-2.84-1c-3.3-2.2-6.07-1.38-7.38,2.37a12.9,12.9,0,0,0-.68,3.42C966.28,310.94,963.31,316.22,961.74,322.08Z"/><path class="cls-3" d="M944.55,313.38l-12.9,6.9c0-2,.15-4.42,0-6.77a35.76,35.76,0,0,0-1.16-7.82c-1.3-4.18-1.22-8.49-1.8-12.74q-1.26-9.3-2.75-18.59a1.94,1.94,0,0,1,.76-2.18c6.06-4.95,13-4.55,18.27,1.17a3.45,3.45,0,0,1,.72,1.59c.17.78.15,1.59.27,2.38a20.07,20.07,0,0,1-1.83,12.42,24.44,24.44,0,0,0-2.12,17.4A48.44,48.44,0,0,0,944.55,313.38Z"/><path class="cls-8" d="M931.94,392.05a27.69,27.69,0,0,1-12.53-21,44.65,44.65,0,0,1-6.21-.77c-4-1.08-6-4.05-5-8.11a9.22,9.22,0,0,0-.92-7.55c-2.27-3.89-1.09-8,1.52-11.56a4.31,4.31,0,0,1,2.19-1.61c4.87-1.19,9.39-3.86,14.19-3.39,1.45-5.22,2.83-10.22,4.24-15.21a5,5,0,0,1,.9-2c4.69-5.17,10-9.19,17.29-10a17.11,17.11,0,0,1,13,4,33.4,33.4,0,0,1,4.64,4.72,3.32,3.32,0,0,1,.67,2.46,47.57,47.57,0,0,1-4.68,14.13c-2.81,5.09-6.72,8.7-12.54,10.05a34.48,34.48,0,0,0-12.3,5.31c-7.88,5.55-10.65,13.36-9.78,22.69A54.17,54.17,0,0,0,931.94,392.05Z"/><path class="cls-6" d="M929.6,385.18l27.26,19.28c-1.35,7.52-9.17,12.9-17,11.36A24.89,24.89,0,0,1,929.21,411a2.66,2.66,0,0,1-1-1.6,15.25,15.25,0,0,1,.07-2.94C928.76,399.25,929.19,392.08,929.6,385.18Z"/><path class="cls-8" d="M1021.83,348.47c-2-3.76-3.93-7.44-6.12-11.57,2.83-1.41,5.62-3,8.59-4.22a4.86,4.86,0,0,1,6.11,2.13,32.75,32.75,0,0,1,2.47,6.47c.13.4-.42,1.3-.88,1.57C1028.65,344.78,1025.25,346.6,1021.83,348.47Z"/><path class="cls-8" d="M1023,351.57c2.85-.79,5.4-1.7,8-2.18,3.3-.59,5.62,1.46,5.26,4.81a31.42,31.42,0,0,1-1.94,6.64c-.11.33-.7.6-1.12.7a18.53,18.53,0,0,1-2.37.34c-3.33.37-3.36.37-4.73-2.76C1025.07,356.76,1024.12,354.37,1023,351.57Z"/><path class="cls-3" d="M970.78,292c3.07-1.16,6.68-1.06,10-.75,8.59.81,16.6-1.6,25.22-1.68a2.81,2.81,0,0,1,.92,0c5.18,1.67,7.12,9,3.42,12.92a6.64,6.64,0,0,1-4.57,2.31c-4.72.37-7.91,3.81-8.3,8.65-.16,1.86.89,6.19-1.21,7.17a6.74,6.74,0,0,1-2.23.43,12.78,12.78,0,0,0-2.87.69c.94,2.12,2.62,2.26,4.56,2.82,2.3.66,4.56,1.61,6.81,2.44A15.69,15.69,0,0,1,1007,330c5.24,4.46,10.92,8.56,14.3,14.76,2,3.71,3.47,7.74,5.31,11.56,3.74,7.75,6.11,16,8.26,24.25,1.36,5.25,1.71,10.81,2.1,16.26a54.14,54.14,0,0,1-.29,11.94c-1.37,8.89-6.93,13.85-15.79,15.42-6.33,1.12-12.52.17-18.74-.53a124.49,124.49,0,0,1-24.38-4.87,157.89,157.89,0,0,1-37.43-18.13,26.23,26.23,0,0,1-9.22-10c-3.69-6.87-6.93-13.88-7.21-21.88-.32-9.59,4.48-16.77,13.5-20.05,3.23-1.17,6.63-1.95,9.77-3.31,6.41-2.77,10.07-8.23,12.54-14.39,3.66-9.15,3.41-16.81,3.74-26.35.15-4.13,1.31-8.53,4.54-11.1A10,10,0,0,1,970.78,292Z"/></g><path class="cls-7" d="M973.47,331.8a44,44,0,0,1,6.49-1.27c2-.15,3.06.49,4.84,1,2.4.63,5,.61,7.45,1.17,5.18,1.19,17.24,8.83,18.76,10a18.93,18.93,0,0,1,4.36,4.78,36.42,36.42,0,0,0,3.22,4.66,6.72,6.72,0,0,0,4.94,2.42.9.9,0,0,0,.6-.19.94.94,0,0,0,.19-.7,16.5,16.5,0,0,0-2.25-7.45,80.27,80.27,0,0,0-7.12-9.5,68.78,68.78,0,0,0-9.5-8.13,50.84,50.84,0,0,0-13.16-5.94c-2.28-.75-4.84-.57-7.26-.65a20.66,20.66,0,0,0-8.2.93,24.32,24.32,0,0,0-4.27,2.35l-6.43,4.13c-.73.47-1.56,1.18-1.34,2s1.06,1,1.8,1.11A19.27,19.27,0,0,0,973.47,331.8Z"/><path class="cls-9" d="M681.68,782.76c11.19,12,20.21,26.72,29.66,39.45,12.61,17,25.34,34.59,30.82,55,2.4,9,2.89,19.72-3.66,26.29a26.37,26.37,0,0,1-8.87,5.38A83.52,83.52,0,0,1,695,915.21c-3.16-.11-6.47-.45-9-2.27-2.4-1.7-3.81-4.43-5-7.1-6.34-13.88-9.35-28.69-13.28-43.25-3.4-12.61-.36-27.19-5.31-39.23-2.3-5.59-6.65-10.1-9.31-15.53-6.83-14-1.35-30.69-3.39-46.11C662.57,765.44,672.81,773.24,681.68,782.76Z"/><path class="cls-9" d="M598.75,942.8l2.79,38.54,2.56,35.47c.41,5.71,2,11.73.65,17.23s-1,9.88-.43,15.59c1.41,13.13,3.76,26.43,2.13,39.65-.84,6.72-3.45,13.07-5.19,19.61-5.81,21.78-.55,45.23,2.44,67.12,1.11,8.16,3.83,16.47,3.79,24.62,0,10.53,0,21,.44,31.58a60,60,0,0,0,30.35-3.27,1.15,1.15,0,0,0,.52-.31c.27-.33.12-.81,0-1.2-5.44-14.2-1.19-31.69.13-46.68l4.55-51.68,8.74-99.12,1.4-15.88c.69-8.33-.65-8.33,0,0l4.06,38.46c.8,7.63,1.5,15.27,2.41,22.88,1.46,12.21-3.19,21.81-6.11,33.6l-.21.87c-4.77,20.54,1,43.1,4.7,63.38l4.64,25.78c.67,3.69,1.91,7.62,2.29,11.3.66,6.56-.24,13.23.61,19.86a1.48,1.48,0,0,0,.26.78,1.44,1.44,0,0,0,.86.4,58.64,58.64,0,0,0,25.83-.31c.4-.1.86-.25,1-.63a1.43,1.43,0,0,0-.17-1c-3.78-8.55-1.18-16-.74-24.69l.81-15.73,2.24-43.64,5.53-107.74,4.16-81.19.55-10.66a6.79,6.79,0,0,0-6.57-7.14l-94-3A6.79,6.79,0,0,0,598.75,942.8Z"/><polygon class="cls-10" points="609.19 1222 603.45 1241.38 671.08 1243.87 635.21 1222.95 609.19 1222"/><polygon class="cls-10" points="666.25 1224.09 660.51 1243.48 727.86 1245.96 692 1225.04 666.25 1224.09"/><path class="cls-5" d="M634.35,748a10.09,10.09,0,0,0-5.64,2.69,66.92,66.92,0,0,1-6.63,5.73,106.51,106.51,0,0,0-11.92,10c-6.42,6.61-11.63,14.36-16.42,22.19-8,13-3.46,40-1.34,54.48,2.59,17.6,7.67,35.59,3.33,52.84-1.64,6.54-4.59,12.66-7.37,18.81a409.26,409.26,0,0,0-30.46,99.88c-.85,5-5.76,20.48-3.39,24.92s18.48,3.29,23.78,3.87c18.65,2.06,37.19,5.06,55.89,6.65,27,2.29,55,1.53,80.14-8.69,21.31-8.66,2.81-47.36-1-62.15S706.68,949.4,703,934.79c-3.88-15.42-11.94-30.8-17.72-45.62a31.07,31.07,0,0,1-2.47-8.75c-.58-7.43,4.07-14.09,7.92-20.47,5-8.23,8.86-17.69,9-27.42.2-10-4-18-10.51-25.37-2.21-2.52-4.64-4.84-6.9-7.33a103,103,0,0,1-13.59-19.75c-3.53-6.42-6.24-13.7-10.54-19.61a32,32,0,0,0-12.34-10.64A21.58,21.58,0,0,0,634.35,748Z"/><path class="cls-9" d="M701.27,727.64a22.27,22.27,0,0,0,3.73,3.43,3.11,3.11,0,0,1,1.29,1.45,2.63,2.63,0,0,1-.26,1.79,8.24,8.24,0,0,1-5.19,4.46,21.36,21.36,0,0,0-2.75.72,2.7,2.7,0,0,0-1.78,2,9.05,9.05,0,0,0,.12,1.37c.16,2.34-2.56,4.3-3.63,6.2-1.32,2.33-2.18,4.94-3.51,7.29-2.09,3.7-5.31,8.65-10.26,7.89-3.23-.5-6-2.54-8.56-4.56-1.13-.9-2.4-1.86-3.85-1.81-6.64.22-6.23,8.9-6.22,13.59q0,9.75.41,19.49c-8-6.45-16.12-13-21.88-21.55A28.79,28.79,0,0,1,634,756c-.76-5.9,1.94-9.65,5.14-14.41a13.82,13.82,0,0,0,2.45-5.8c.29-2.31-.85-3.12-1.54-5.09a15,15,0,0,1,1.66-12.48c1.38-2.2,2.92-4.15,5.67-4.1,2.34,0,5.08,1.88,4.75,4.48,1.53-11.9,21.68-30.21,34.49-27,8.25,2.07,9.12,9.75,9.4,17C696.33,716.2,696.83,722.44,701.27,727.64Z"/><path class="cls-3" d="M606,679.62a17.16,17.16,0,0,1-4.42-3.34c-1.84-1.94-3.27-4.53-2.92-7.18s3.06-5,5.62-4.26c-2.87-1.45-4.32-5-3.91-8.18a13,13,0,0,1,4.9-8.07,14.51,14.51,0,0,1,8.69-3.5,9.91,9.91,0,0,1,8.3,3.89,14.26,14.26,0,0,1,12.24-6.69,12.92,12.92,0,0,1,11.38,7.81c1.94,4.86-.82,12-2.64,16.43a3.35,3.35,0,0,0-.36,2.2c.39,1.3,5.33-1,6.12-2.06a8.55,8.55,0,0,1,4.26-3.4,4.28,4.28,0,0,1,4.88,1.61c2,3.36,1.21,2.56,5,2.46a19.77,19.77,0,0,1,6.46.49c4,1.21,7.54,5.09,7,9.25.76-5.56,12.26,1.66,13.49,3,2.82,3.13,9.22,8.36,6.87,13.2,3.33-1.7,8.06.92,8.22,4.66s-4.6,6.73-7.82,4.83c1.85,2.16.18,5.83-2.48,6.85s-5.65.12-8.21-1.09a34.2,34.2,0,0,1-6.8-4.26,18,18,0,0,1-18.68,5,7.39,7.39,0,0,1-4.61,8.89c2.53,1.5,2.67,5.69.35,7.5a5.26,5.26,0,0,1-7.54-1.79,5.8,5.8,0,0,1,2.48-7.47c-3.56-4.44-8.32,1.83-9.34,5.49a11.73,11.73,0,0,0,1.57,9.57,13.34,13.34,0,0,1,2.2,3.56,5.72,5.72,0,0,1-1,4.74,17,17,0,0,1-3.6,3.48c-1.89,1.49-4.29,3.07-6.53,2.17,1-5.34,1.74-7.81-2.2-12.44-2.56-3-5.78-5.44-8-8.7s-3.23-7.84-1-11.09c-3.63-.59-5.63-4.93-5-8.56.68-4.1,4.09-6.82,5.18-10.48,1.36-4.56.39-8.2,4.86-11.59-3.77,2.86-4.5,8.41-9.63,10.68-3.42,1.52-9.16,2.87-12.84,2.49s-7.18-2.89-7.76-6.46a10.19,10.19,0,0,1,2.78-7.9c.34-.34,5.29-4.51,4.78-.92a14.67,14.67,0,0,1,8.15-11c.3-.14,1.6-6.85,2-7.76a26,26,0,0,1,5.15-7.28c2.36-2.44,5.65-6.47,8.9-7.73,10-3.84,21.52,9.49,13.64,18"/><path class="cls-10" d="M759.16,875.88a139.78,139.78,0,0,0,20.75-32.44c7-15.28,11.94-35.07,6.92-51.75-3.09-10.24-11.28-19.37-21.79-21.33-14.18-2.64-39.55,7.53-49.95,16.89-15.39,15.39-30.47,30.57-43.48,48-5,6.72-10.08,13.55-13.2,21.34-3.6,9-4.44,18.79-5,28.45-.48,7.69-.75,15.81,2.75,22.68,8.31,16.34,33.38,13.67,47.1,8.28A142.43,142.43,0,0,0,759.16,875.88Z"/><path class="cls-9" d="M610.6,882c5.46-13.18,9-27.43,13.4-41,3.15-9.8,8.56-20.76,10-31a22.54,22.54,0,0,0,1.61-8.36,22.83,22.83,0,0,0-45.2-4.59L577.9,877.9c-1.4,9.09-3.29,17.54-1,26.76a4.28,4.28,0,0,0,.9,2,4.53,4.53,0,0,0,2.25,1c15.73,4,77.45,20.16,92.66,20.3a61.18,61.18,0,0,0,11.69-1.06,8.94,8.94,0,0,0,3-1c5.55-3.35,10.87-17,3.72-17.41a44.53,44.53,0,0,1-19-4.94c-6.66-3.53-13.29-7.24-20-10.58a106.13,106.13,0,0,0-41.61-10.83Z"/><path class="cls-9" d="M690.1,906a17,17,0,0,0,3.66-3.28c5.75-5.65,15-6.49,20.75-12.15,2.3,2.42.17,6.47-2.48,8.51s-6,3.79-6.8,7c5.14.67,9.8-2.9,13.55-6.46s7.73-7.59,12.88-8.17a75.79,75.79,0,0,1-9,11.74,14.51,14.51,0,0,1,6.86-3.81c.45.91-.2,2-.82,2.76l-8.78,11.45a54.93,54.93,0,0,1-6.44,7.42c-5.45,4.93-12.73,7.45-20,8.36s-14.67.33-22-.25c-1.23-.1-8.88-2.34-9.82-3.13a5.68,5.68,0,0,1-1.55-3.59c-.64-3.93,5.53-6,7.14-9.63C672.3,901.4,682.47,910,690.1,906Z"/><path class="cls-9" d="M757.28,812.7c8-3.81,14.24-10.82,15.61-20,.68-4.55.09-12.1-3.41-15.59-5.61-8.87-19.82-8.78-28.32-4.53-6.22,3.11-12.53,11.5-14.8,20-1.77,6.64-1.07,13.37,4,17.7,3.52,3,10.3,5.82,14.89,5.53a32.64,32.64,0,0,0,7.27-1.31"/><path class="cls-3" d="M768,805.25a24.08,24.08,0,0,0,3.32-28A15.26,15.26,0,0,0,765,771a19.4,19.4,0,0,0-5.92-1.51,35.12,35.12,0,0,0-13.67.51,18.28,18.28,0,0,0-11,7.77c.05-.1,6.63.33,7.32.27a32.93,32.93,0,0,0,7.82-1.82c5.69-2,5.81-1.2,6.37,4.48A38.77,38.77,0,0,0,768,805.25Z"/><path class="cls-11" d="M675.7,830c10.24-14.56,29.76-21.9,47-17.68,4.22,1,8.28,2.68,12.55,3.5,7.57,1.45,23.72,1.67,36.31-15.63"/><path class="cls-11" d="M729.6,814.28A30.47,30.47,0,0,1,727,790.45"/><circle class="cls-1" cx="760.75" cy="472.12" r="160.12"/><polygon class="cls-1" points="745.55 596.66 757.68 716.72 780.88 579.99 745.55 596.66"/><g id="OW2u5a.tif-2" data-name="OW2u5a.tif"><path class="cls-2" d="M737.13,417.08c5.9.09,10.27.8,14.44,2.64a2,2,0,0,0,1.57-.09,27,27,0,0,1,15.63-4.14,31.22,31.22,0,0,1,14,3.64,27.93,27.93,0,0,1,7.17,5.64,3,3,0,0,0,2,.62c1.53,0,3.07-.15,4.6-.13,4.06.05,7.64,1.57,11.06,3.64a26.86,26.86,0,0,1,7.78,7.15,27.48,27.48,0,0,1,3.09,5.43,24.59,24.59,0,0,1,1.91,6.22,22.46,22.46,0,0,1-.08,6.75c-.41,2.39-.44,2.62,1.62,3.86a21.47,21.47,0,0,1,7.21,6.7A27,27,0,0,1,833,485.08a28.32,28.32,0,0,1-1.7,6.69,18.86,18.86,0,0,1-6.17,8,3.38,3.38,0,0,0-1.52,2.85,28.2,28.2,0,0,1-3.46,11.14,25.61,25.61,0,0,1-8.51,9.29,42.51,42.51,0,0,1-6.75,3.37,33,33,0,0,1-22.14.71,27.14,27.14,0,0,1-11.64-7c-.9-.93-1.73-1.5-3.26-.78a31,31,0,0,1-7.55,2.6c-3.72.66-7.5,1.51-11.35.79-.69-.13-1.39-.17-2.09-.27a18.63,18.63,0,0,1-12.06-6.7c-3.74-4.39-4.76-9.62-4.92-15.15,0-.52,0-1.06,0-1.58-.14-1.11-.56-1.24-1.6-.86a34.65,34.65,0,0,1-5.12,1.64c-5.33,1.08-10.61,1.9-16.14.54s-10-3.69-13.47-8a25.22,25.22,0,0,1-4.77-9.76c-1.39-5.37-.62-10.55.54-15.75a52.84,52.84,0,0,1,1.91-5.12,8.71,8.71,0,0,0,.46-2.67c0-2.15-.16-4.29-.1-6.44.11-3.95,1.65-7.42,3.61-10.8a24.75,24.75,0,0,1,9.56-9.3,21.21,21.21,0,0,1,6.76-2.29c2.4-.4,3.73-1.78,5-3.52a27.31,27.31,0,0,1,13.62-8.61A52,52,0,0,1,737.13,417.08Zm-3.43,85.16c-.43,2.06.51,4.58,1.5,7a15,15,0,0,0,3.08,4.81,16.84,16.84,0,0,0,8.37,4.61,20.94,20.94,0,0,0,9.89.09c2.36-.6,4.77-1.08,7.08-1.84a25.49,25.49,0,0,0,7.08-3.29c2.13-1.52,4.29-3,6.5-4.41q4.68-3,9.46-5.83c2.7-1.6,5.4-3.21,8.21-4.6a2.58,2.58,0,0,0,1.63-2.41c0-.7,0-1.4,0-2.1a3.89,3.89,0,0,1,1.78-3.08,2.2,2.2,0,0,1,3.15.41c.55,1,1,2,1.6,3a11.1,11.1,0,0,0,7.29,5.14c3.28.64,6.7.75,9.7-1.18a30,30,0,0,0,5.88-4.51,17.45,17.45,0,0,0,4-9.3c1-6.29.1-12.32-3.57-17.71a15.6,15.6,0,0,0-7.59-6.4c-1.39-.49-2.79-1-4.21-1.35-1.72-.48-2.81-2.15-1.82-3a4.06,4.06,0,0,1,2.17-.52c1-.08,2,.05,2.16-1.33a20.79,20.79,0,0,0-4.37-16.24c-2.64-3.45-5.78-6.37-9.93-7.91a24.83,24.83,0,0,0-6.78-1.84,13.45,13.45,0,0,0-9.92,3.37,2.58,2.58,0,0,0-1,1.63c0,.39.82.87,1.36,1.12,2.33,1,4.6,2.07,6.34,4.06,3,3.41,4.15,7.48,4.55,11.88a4.54,4.54,0,0,0,.74,2.16c.85,1.15,2,2.08,2.84,3.23a15.16,15.16,0,0,1,2.76,11.91c-.18,1.12-.43,2.23-.66,3.35s.28,1.77,1.42,2.07c1.85.51,3.69,1,5.49,1.71a16.38,16.38,0,0,1,6.09,4.22,1.63,1.63,0,0,1-.19,2.53c-.79.69-1.85.54-3-.54a17.82,17.82,0,0,0-8.45-4.3,17,17,0,0,0-15.24,4.25,13.88,13.88,0,0,0-4.55,7.48,3.59,3.59,0,0,1-3.32,3.23c-3.53.3-7.09.36-10.48,1.63-2.85,1.07-5.9,1.72-8.56,3.13s-4.6,3.52-7,5.14a52.08,52.08,0,0,1-5.27,2.82c-.11.06-.33,0-.48-.11-2-.87-2.39-2.44-1-4.08.12-.13.25-.24.37-.38,2.7-3.1,6.5-4.47,10-6.32a23.77,23.77,0,0,1,3.34-1.49c1.9-.66,3.81-1.28,5.76-1.78,3-.78,6.11-1.41,9.15-2.17a4.5,4.5,0,0,0,2.34-1c1.74-2.12,3.15-4.53,5-6.59,3.28-3.76,7.08-6.75,12.35-7.18a2.18,2.18,0,0,0,2.24-2.14,6.22,6.22,0,0,1,.41-1.52,12.09,12.09,0,0,0-2.75-13.09c-2-1.94-3.36-3.8-3.2-6.83a11.93,11.93,0,0,0-3-8.1,16.79,16.79,0,0,0-11.22-5.84,13.47,13.47,0,0,0-2.74-.27,45.71,45.71,0,0,0-8.22.78,16.52,16.52,0,0,0-8,4.78c-2.86,3-5.1,6.24-4.59,10.67.07.57.13,1.13.17,1.7a7.8,7.8,0,0,0,2.31,4.7c.83.93,2,1.69,1.85,3.17a30.69,30.69,0,0,1-.71,4.8,8.91,8.91,0,0,0,.09,5c.29,1,.75,1.36,1.81,1.19,4.23-.68,8.48-1.3,12.72-1.93a1.59,1.59,0,0,0,1.47-1.6c.11-2.4.23-4.81.21-7.21a13.76,13.76,0,0,0-2.2-7.31c-.76-1.2-.74-2.17.18-2.76a2,2,0,0,1,3,.75,30,30,0,0,1,2.52,6.26,24.11,24.11,0,0,1,0,11.11c-1,3.75-1.07,3.87-4.63,4.22a87,87,0,0,0-9.87,1.57,68.9,68.9,0,0,0-7.54,2.17c-2.77.93-5.49,2-8.19,3.09a13.64,13.64,0,0,0-2.83,1.6c-1.43,1-2.76,2.15-4.15,3.21A19.29,19.29,0,0,0,733.7,502.24Zm-40.34-34.58a15.92,15.92,0,0,0-1.18,3.55c-.38,4-.83,7.86.61,11.8a21.61,21.61,0,0,0,4.36,7.77,16.73,16.73,0,0,0,8.6,4.76,24.05,24.05,0,0,0,9,.86c1.73-.25,3.43-.63,5.13-1a53.35,53.35,0,0,0,6.64-1.82c.88-.33,1.49-1.46,2.13-2.3a30,30,0,0,1,1.87-2.78c1.43-1.51,3-2.87,4.53-4.29,1.22-1.14,1.07-1.67.05-3.06a12,12,0,0,1-2.46-4.59c-.36-1.93-.63-2.89-3.27-2.74-2.82.17-5.65.07-8.4,1.26a23.66,23.66,0,0,0-7,4c-1.58,1.46-3.2,2.43-5.23,1.06-2.29-1.54-3.78-2.42-.57-4.71a26.35,26.35,0,0,0,2.67-1.78c2-1.78,4.55-2.36,6.95-3.14a43.82,43.82,0,0,1,7.09-1.26c1.73-.25,3.49-.36,5.23-.57,1.2-.15,2.09-.49,2.22-2a48.49,48.49,0,0,1,1-4.8c.06-.29-.22-.69-.43-1-1.31-1.64-2.88-3.07-3.34-5.26-.24-1.15-1.13-1.21-2.08-.87-1.4.49-2.79,1-4.18,1.5-3.84,1.39-7.56.61-11.15-.85a9.49,9.49,0,0,1-3-2.44,2.29,2.29,0,0,1,.12-3c.34-.44,1.63-.37,2.41-.19a14.3,14.3,0,0,1,2.61,1.22c3.68,1.75,9.75,1.27,13.21-1.89a1.94,1.94,0,0,0,.62-1.37,11,11,0,0,1,1.3-5.69,12.52,12.52,0,0,1,6.17-6.37c1.74-.79,3.21-.39,3.86.92s.06,2.19-1.75,3.3a8.86,8.86,0,0,0-2.65,2.1,10.32,10.32,0,0,0-1.8,9c.79,3.1,2.2,5.53,5.13,7.06a2.63,2.63,0,0,1,1.06,2.15,17.75,17.75,0,0,1-1.21,3.72,15.32,15.32,0,0,0-.3,8.43,11.35,11.35,0,0,0,2.92,5.79,2.58,2.58,0,0,0,3.22.55c2.09-.89,4.18-1.78,6.31-2.56,2.37-.87,2.77-1.41,2.85-3.88a35.56,35.56,0,0,1,.51-6.54,5.27,5.27,0,0,0-.79-3.79,18.44,18.44,0,0,1-2-5.42,20.77,20.77,0,0,1,3-13.32,22.24,22.24,0,0,1,8.68-8.51,21.22,21.22,0,0,1,11-2.9c1.85.07,3.69.12,5.53,0a4,4,0,0,0,2-.72c1.35-.92,2.55-2.08,3.94-2.94,1.55-1,1.78-1.9.23-2.95a43.83,43.83,0,0,0-6.82-4.09,29.32,29.32,0,0,0-7.13-2.07,21.26,21.26,0,0,0-6.17,0,28.39,28.39,0,0,0-6.95,1.71,14.93,14.93,0,0,0-7,5.59,2.06,2.06,0,0,1-2.93.37c-.84-.79-.38-1.59.15-2.33.85-1.19.52-2.17-.92-2.55-1-.27-2.08-.37-3.09-.66a23.19,23.19,0,0,0-12.18-.1,24.55,24.55,0,0,0-9.45,4.32c-3.13,2.47-6.16,5.07-6.76,9.44a2.53,2.53,0,0,1-1.85,1.52,1.55,1.55,0,0,1-1.69-1.62c0-1.26-.8-1.52-1.79-1.14a25.78,25.78,0,0,0-7.78,4.25c-3.1,2.63-5.71,5.65-6.69,9.64a36.32,36.32,0,0,0-1.16,8.66,15.59,15.59,0,0,0,3.54,9.28,2.53,2.53,0,0,1,.42,2,2,2,0,0,1-2.28,1.39C695.83,468.51,694.78,468.1,693.36,467.66Zm99.13,57.16A28.53,28.53,0,0,0,807.84,521a15.11,15.11,0,0,0,6.81-8.46,4.22,4.22,0,0,0,.12-2.06c-.19-1-.91-1.26-1.87-.84a3.84,3.84,0,0,1-1.85.46c-2.07-.31-4.11-.76-6.16-1.18a12.31,12.31,0,0,1-5.84-3.22,2.44,2.44,0,0,0-2.79-.39c-.92.33-1.82.72-2.72,1.11-1.31.57-2.63,1.14-3.93,1.76s-2.53,1.27-3.8,1.89-2.56,1.12-3.76,1.81c-2.38,1.36-4.71,2.84-7.06,4.25-.88.52-1.13,1.43-.5,2a21.12,21.12,0,0,0,8.32,5.05C786.07,524.26,789.42,525.33,792.49,524.82Z"/><path class="cls-3" d="M733.7,502.24a19.29,19.29,0,0,1,8.16-16.61c1.39-1.06,2.72-2.2,4.15-3.21a13.64,13.64,0,0,1,2.83-1.6c2.7-1.09,5.42-2.16,8.19-3.09a68.9,68.9,0,0,1,7.54-2.17,87,87,0,0,1,9.87-1.57c3.56-.35,3.67-.47,4.63-4.22a24.11,24.11,0,0,0,0-11.11,30,30,0,0,0-2.52-6.26,2,2,0,0,0-3-.75c-.92.59-.94,1.56-.18,2.76a13.76,13.76,0,0,1,2.2,7.31c0,2.4-.1,4.81-.21,7.21a1.59,1.59,0,0,1-1.47,1.6c-4.24.63-8.49,1.25-12.72,1.93-1.06.17-1.52-.23-1.81-1.19a8.91,8.91,0,0,1-.09-5,30.69,30.69,0,0,0,.71-4.8c.16-1.48-1-2.24-1.85-3.17a7.8,7.8,0,0,1-2.31-4.7c0-.57-.1-1.13-.17-1.7-.51-4.43,1.73-7.68,4.59-10.67a16.52,16.52,0,0,1,8-4.78,45.71,45.71,0,0,1,8.22-.78,13.47,13.47,0,0,1,2.74.27,16.79,16.79,0,0,1,11.22,5.84,11.93,11.93,0,0,1,3,8.1c-.16,3,1.17,4.89,3.2,6.83a12.09,12.09,0,0,1,2.75,13.09,6.22,6.22,0,0,0-.41,1.52,2.18,2.18,0,0,1-2.24,2.14c-5.27.43-9.07,3.42-12.35,7.18-1.8,2.06-3.21,4.47-5,6.59a4.5,4.5,0,0,1-2.34,1c-3,.76-6.12,1.39-9.15,2.17-1.95.5-3.86,1.12-5.76,1.78a23.77,23.77,0,0,0-3.34,1.49c-3.5,1.85-7.3,3.22-10,6.32-.12.14-.25.25-.37.38-1.44,1.64-1.08,3.21,1,4.08.15.07.37.17.48.11a52.08,52.08,0,0,0,5.27-2.82c2.41-1.62,4.48-3.8,7-5.14s5.71-2.06,8.56-3.13c3.39-1.27,6.95-1.33,10.48-1.63a3.59,3.59,0,0,0,3.32-3.23,13.88,13.88,0,0,1,4.55-7.48,17,17,0,0,1,15.24-4.25,17.82,17.82,0,0,1,8.45,4.3c1.2,1.08,2.26,1.23,3,.54a1.63,1.63,0,0,0,.19-2.53,16.38,16.38,0,0,0-6.09-4.22c-1.8-.67-3.64-1.2-5.49-1.71-1.14-.3-1.67-.88-1.42-2.07s.48-2.23.66-3.35a15.16,15.16,0,0,0-2.76-11.91c-.86-1.15-2-2.08-2.84-3.23a4.54,4.54,0,0,1-.74-2.16c-.4-4.4-1.56-8.47-4.55-11.88-1.74-2-4-3-6.34-4.06-.54-.25-1.35-.73-1.36-1.12a2.58,2.58,0,0,1,1-1.63,13.45,13.45,0,0,1,9.92-3.37,24.83,24.83,0,0,1,6.78,1.84c4.15,1.54,7.29,4.46,9.93,7.91A20.79,20.79,0,0,1,817,454.41c-.21,1.38-1.19,1.25-2.16,1.33a4.06,4.06,0,0,0-2.17.52c-1,.86.1,2.53,1.82,3,1.42.39,2.82.86,4.21,1.35a15.6,15.6,0,0,1,7.59,6.4c3.67,5.39,4.57,11.42,3.57,17.71a17.45,17.45,0,0,1-4,9.3,30,30,0,0,1-5.88,4.51c-3,1.93-6.42,1.82-9.7,1.18a11.1,11.1,0,0,1-7.29-5.14c-.61-.95-1-2-1.6-3a2.2,2.2,0,0,0-3.15-.41,3.89,3.89,0,0,0-1.78,3.08c0,.7,0,1.4,0,2.1a2.58,2.58,0,0,1-1.63,2.41c-2.81,1.39-5.51,3-8.21,4.6q-4.77,2.83-9.46,5.83c-2.21,1.41-4.37,2.89-6.5,4.41a25.49,25.49,0,0,1-7.08,3.29c-2.31.76-4.72,1.24-7.08,1.84a20.94,20.94,0,0,1-9.89-.09,16.84,16.84,0,0,1-8.37-4.61,15,15,0,0,1-3.08-4.81C734.21,506.82,733.27,504.3,733.7,502.24Z"/><path class="cls-3" d="M693.36,467.66c1.42.44,2.47.85,3.55,1.08a2,2,0,0,0,2.28-1.39,2.53,2.53,0,0,0-.42-2,15.59,15.59,0,0,1-3.54-9.28,36.32,36.32,0,0,1,1.16-8.66c1-4,3.59-7,6.69-9.64a25.78,25.78,0,0,1,7.78-4.25c1-.38,1.77-.12,1.79,1.14a1.55,1.55,0,0,0,1.69,1.62,2.53,2.53,0,0,0,1.85-1.52c.6-4.37,3.63-7,6.76-9.44A24.55,24.55,0,0,1,732.4,421a23.19,23.19,0,0,1,12.18.1c1,.29,2.07.39,3.09.66,1.44.38,1.77,1.36.92,2.55-.53.74-1,1.54-.15,2.33a2.06,2.06,0,0,0,2.93-.37,14.93,14.93,0,0,1,7-5.59,28.39,28.39,0,0,1,6.95-1.71,21.26,21.26,0,0,1,6.17,0,29.32,29.32,0,0,1,7.13,2.07,43.83,43.83,0,0,1,6.82,4.09c1.55,1.05,1.32,2-.23,2.95-1.39.86-2.59,2-3.94,2.94a4,4,0,0,1-2,.72c-1.84.08-3.68,0-5.53,0a21.22,21.22,0,0,0-11,2.9,22.24,22.24,0,0,0-8.68,8.51,20.77,20.77,0,0,0-3,13.32,18.44,18.44,0,0,0,2,5.42,5.27,5.27,0,0,1,.79,3.79,35.56,35.56,0,0,0-.51,6.54c-.08,2.47-.48,3-2.85,3.88-2.13.78-4.22,1.67-6.31,2.56a2.58,2.58,0,0,1-3.22-.55,11.35,11.35,0,0,1-2.92-5.79,15.32,15.32,0,0,1,.3-8.43,17.75,17.75,0,0,0,1.21-3.72,2.63,2.63,0,0,0-1.06-2.15c-2.93-1.53-4.34-4-5.13-7.06a10.32,10.32,0,0,1,1.8-9,8.86,8.86,0,0,1,2.65-2.1c1.81-1.11,2.37-2.05,1.75-3.3s-2.12-1.71-3.86-.92a12.52,12.52,0,0,0-6.17,6.37,11,11,0,0,0-1.3,5.69,1.94,1.94,0,0,1-.62,1.37c-3.46,3.16-9.53,3.64-13.21,1.89a14.3,14.3,0,0,0-2.61-1.22c-.78-.18-2.07-.25-2.41.19a2.29,2.29,0,0,0-.12,3,9.49,9.49,0,0,0,3,2.44c3.59,1.46,7.31,2.24,11.15.85,1.39-.5,2.78-1,4.18-1.5,1-.34,1.84-.28,2.08.87.46,2.19,2,3.62,3.34,5.26.21.27.49.67.43,1a48.49,48.49,0,0,0-1,4.8c-.13,1.55-1,1.89-2.22,2-1.74.21-3.5.32-5.23.57a43.82,43.82,0,0,0-7.09,1.26c-2.4.78-4.95,1.36-6.95,3.14a26.35,26.35,0,0,1-2.67,1.78c-3.21,2.29-1.72,3.17.57,4.71,2,1.37,3.65.4,5.23-1.06a23.66,23.66,0,0,1,7-4c2.75-1.19,5.58-1.09,8.4-1.26,2.64-.15,2.91.81,3.27,2.74a12,12,0,0,0,2.46,4.59c1,1.39,1.17,1.92-.05,3.06-1.52,1.42-3.1,2.78-4.53,4.29a30,30,0,0,0-1.87,2.78c-.64.84-1.25,2-2.13,2.3a53.35,53.35,0,0,1-6.64,1.82c-1.7.4-3.4.78-5.13,1a24.05,24.05,0,0,1-9-.86,16.73,16.73,0,0,1-8.6-4.76,21.61,21.61,0,0,1-4.36-7.77c-1.44-3.94-1-7.85-.61-11.8A15.92,15.92,0,0,1,693.36,467.66Z"/><path class="cls-3" d="M792.49,524.82c-3.07.51-6.42-.56-9.68-1.63a21.12,21.12,0,0,1-8.32-5.05c-.63-.62-.38-1.53.5-2,2.35-1.41,4.68-2.89,7.06-4.25,1.2-.69,2.51-1.2,3.76-1.81s2.52-1.29,3.8-1.89,2.62-1.19,3.93-1.76c.9-.39,1.8-.78,2.72-1.11a2.44,2.44,0,0,1,2.79.39,12.31,12.31,0,0,0,5.84,3.22c2.05.42,4.09.87,6.16,1.18a3.84,3.84,0,0,0,1.85-.46c1-.42,1.68-.2,1.87.84a4.22,4.22,0,0,1-.12,2.06,15.11,15.11,0,0,1-6.81,8.46A28.53,28.53,0,0,1,792.49,524.82Z"/></g><path class="cls-3" d="M250,767a3.13,3.13,0,0,1-.36-.19c-1.09-.7-1.27-2.2-1.33-3.5-.39-9.11,0-18.07-.36-27.09-.46-10.49,4.45-36.66,6.27-38.6,2.2-2.37,5.54-3.2,8.55-4.39,12.5-4.94,20.49-17,27.68-28.36A13.33,13.33,0,0,0,277.57,669a15,15,0,0,1-3.66-13.28,13.4,13.4,0,0,0,.66-4c-.12-1.36-1.09-2.79-2.46-2.83a4.1,4.1,0,0,0-2.41,1.09c-10,7.53-21,15.55-27.47,26.53-2.78,4.71-2.89,10-4.67,15.1-2.58,7.41-5.17,14.8-7.46,22.3-8.76,28.72-14.25,59-10.07,89,.58,4.17,1.52,8.64,4.65,11.46,8,7.21,22.88,0,30.52-4.2l26-14.38c4.69-2.6,9.51-5.3,12.81-9.52,6.15-7.87,5.27-23.38-4.38-28.29-6.4-3.26-14.29-.15-20.27,2.6C265.68,762.28,254.33,769,250,767Z"/><path class="cls-12" d="M256.41,671.56q-.44.87-1,1.71c-1,1.58-2.24,3.32-1.76,5.12.53,2,2.88,2.86,4.91,3.37s4.39,1.28,5,3.28,1.32,5.42,3.6,6.12a4.74,4.74,0,0,0,2.84-.3,57.23,57.23,0,0,0,6.56-2.64,6,6,0,0,0,2.78-2.15,5.81,5.81,0,0,0,.55-3,42.31,42.31,0,0,0-9.88-26.61,3.78,3.78,0,0,0-2.35-1.59,3.6,3.6,0,0,0-1.87.55c-3.88,2.07-5.08,4.21-6.39,8.26A53.32,53.32,0,0,1,256.41,671.56Z"/><polygon class="cls-9" points="421.54 1217.43 425.87 1235.08 365.05 1234.44 398.13 1217.18 421.54 1217.43"/><polygon class="cls-9" points="326.1 1217.43 330.43 1235.08 269.6 1234.44 302.69 1217.18 326.1 1217.43"/><path class="cls-3" d="M265.73,669.76a21.6,21.6,0,0,1-3.37,3.7,3.05,3.05,0,0,0-1.14,1.55,2.58,2.58,0,0,0,.42,1.73,8.07,8.07,0,0,0,5.49,3.93,21.51,21.51,0,0,1,2.78.47,2.63,2.63,0,0,1,1.92,1.86,8.68,8.68,0,0,1,0,1.35c.05,2.32,2.9,4,4.12,5.78,1.5,2.18,2.58,4.67,4.1,6.86,2.39,3.45,6,8,10.8,6.85,3.13-.78,5.66-3,8-5.25,1-1,2.2-2,3.63-2.12a5.7,5.7,0,0,1,2.68.73c6.08,2.91,9.15,4.79,3.3,10-1.82,1.62-3.66,3.74-3.35,6.16.27,2.12,2.09,3.64,3.78,4.94a22.29,22.29,0,0,0,5.43,3.4c2.11.81,4.81.77,6.76,1.92s2.43,2.67,4.09,3.85c3.71,2.63,9.61,2.63,13.82,1.57,12.82-3.24,22.66-16,25.47-28.6,1.18-5.31.15-11.45-4-15-3.41-3-8.2-3.61-12.7-3.88-6.93-.41-9.88-.65-15.95-3.87-1.83-1-6.71-3-7.31-5.17-.4-1.43,1.32-3.56,1.62-5a15.2,15.2,0,0,0-2.72-12.24c-1.56-2-3.24-3.82-5.94-3.53-2.3.25-4.83,2.3-4.27,4.83-2.57-11.57-24-27.8-36.33-23.5-7.93,2.77-8.11,10.4-7.73,17.58C269.57,658.07,269.63,664.26,265.73,669.76Z"/><path class="cls-9" d="M315.07,652.65c3.29-1.29,7.52.13,9,3.32,1.9,4-.71,8.65-1,13.11-.31,4.81,4.77,7.12,8.6,8.45-2.35-14,5.61-34.77-1.65-47-2.73-4.59-7.94-7-11.79-10.72-3.41-3.27-6.24-7.84-10.89-8.66-2.49-.44-5,.33-7.42,1.09l-16.19,5.13c-4.49,1.42-9.16,2.95-12.52,6.25-2.79,2.73-4.52,7.39-6.1,10.91-1.14,2.57-1.8,5.55-.79,8.17,4.87,12.61,27.36-14.82,37.26.82,1,1.63.14,3.09,1,4.67.45.83,1.35,1.29,2,1.93,2,1.82,2.1,4.78,2.64,7.39.6,2.84,2.21,5,5.09,5.69C312.79,660.38,311.47,654.07,315.07,652.65Z"/><path class="cls-13" d="M376.35,934.13c.73,6.06,1.55,12.11,2.37,18.15,5.79,42.79,11.74,82.93,12.78,126.12q1.71,70.78,0,141.6a124.42,124.42,0,0,0,26.24,2.71c3.4,0,7.1-.27,9.66-2.52,2.22-2,3.09-5,3.85-7.82q7.33-27.22,14.66-54.45c6.82-25.31,13.69-51.46,10.1-77.42-1.54-11.21-5-22.28-4.38-33.58.69-12,5.78-23.24,6.91-35.19,1-10.93-.31-22.23-.88-33.14-.9-17.53-.29-36.45-3.94-53.69-6.17-29.17-28.09-70.84-65.8-62.74-3.82.82-7.65,2.43-10.11,5.47-2.71,3.37-3.33,7.93-3.67,12.24C372.69,898,374.16,916.08,376.35,934.13Z"/><path class="cls-13" d="M334.3,920.05c-1.7,5.87-3.33,11.75-4.95,17.63-6,21.68-9.89,43.88-16.15,65.49-3,10.35-8,20-11.23,30.1-3.55,11.11-3,23.66-3.69,35.52l-8.41,154.67,34.67,5.17c1.59.24,3.3.45,4.72-.3,1.61-.85,2.38-2.69,3-4.38,17.27-45.19,34.83-92.26,30.95-140.48-.73-9.14-2.24-18.29-1.5-27.43,1.92-23.8,18.37-39.21,28.4-59.11a232.82,232.82,0,0,0,18.94-55c5.79-29.25,2-76.18-35.86-83.54-3.83-.75-8-.78-11.44,1.06-3.82,2-6.18,6-8.19,9.81C345.16,885.35,339.38,902.6,334.3,920.05Z"/><path class="cls-3" d="M367,719.46c2.67,14.9,11.89,28,21.63,39.79,5.52,6.65,11.87,13.43,20.3,15.29a108.75,108.75,0,0,0,1.27-36.61c-.53-3.86-1.26-7.76-.75-11.63,1.42-10.67,9.91-8,18.13-8.64,9.67-.72,19.34-1.54,29-2.37.36,25.59,1.54,51.14,3.33,76.66.35,5-2.42,18.92,1.91,21.6,3.37,2.08,16.19-2.17,20.36-2.79l3.55-44.89c1-12.15,2.66-24.48,2.9-36.66.11-5.55,2.24-31.7-2.52-34.41-20-11.41-51.4-10.31-73.93-13.09L389,678.84c-7.74-1-9.86-1.82-14.4,4.91a49,49,0,0,0-8.11,32.11Q366.72,717.68,367,719.46Z"/><path class="cls-1" d="M411.36,742.41s10.77,27.54,14.12,42c4.72,20.35,7.88,40,15.95,59.08,5.38,12.74,6.25,26.86,7.05,40.67q.93,16,1.85,32.05a66,66,0,0,0-40.88-15.32c-24.46-.45-50.21,12.77-73.53,11.12-1.86-7.57.76-15.42,1.94-23.07,1.72-11.2,3.42-22.84.09-33.67-2.16-7-6.31-13.27-10.41-19.38a233.91,233.91,0,0,1-26.76-52.45c-3.84-10.69-4.24-21.91-5.53-32.85-1-8.9-4.15-16.81-5.88-25.46a4.37,4.37,0,0,1-.12-1.48,4.54,4.54,0,0,1,1-2c1.48-2,3-4,4.53-6a92.88,92.88,0,0,1,15.14-15A22.26,22.26,0,0,0,319,711.78c4,2.49,8.18.38,11.78-1.87a34.22,34.22,0,0,0,12.87-13.81c.69-1.41,4.63-15.41,1.21-15.58,6.65.34,12.52-2.67,19-3.73,13.67-2.24,28-3.7,41.63-1.15l30.82,5.74c1.63.3,3.45.73,4.32,2.14a6,6,0,0,1,.45,3.78l-4,40.26a6.21,6.21,0,0,1-.9,3.15,6.14,6.14,0,0,1-2.89,1.8l-20.94,8.15c4.45,12.92,9.44,26.81,12,40.23"/><g id="z4Adj0"><path class="cls-10" d="M409.45,901.06q-3.22,9.32-6.46,18.63c-.54,1.55-.85,3.19-2.87,3.77-11.32,3.25-18,11.84-23.85,21.19A85,85,0,0,0,367,966.17c-1.65,5.71,0,8.81,5.56,10.61q18.17,5.87,36.36,11.68c5.92,1.88,9.36.13,11.33-5.7,4.16-12.33,6.37-24.89,4.33-37.93-.88-5.61-2.6-10.92-6.37-15.28-1.34-1.55-1.16-2.93-.63-4.6,2-6.4,4-12.82,6-19.23ZM395.57,969l-12-3.86c-8.11-2.6-8.27-2.68-4.57-10.5,4.17-8.81,9.41-16.91,17.87-22.29,7.44-4.73,14.58-2.55,18.41,5.39a26.94,26.94,0,0,1,2.16,6.78c1.84,9.55.59,18.93-1.43,28.29-.45,2.12-1.39,2.35-3.23,1.73C407.05,972.59,401.3,970.79,395.57,969Z"/><path class="cls-14" d="M409.45,901.06l14.15,4.66q10.32-33.08,20.63-66.14c5.75-18.44,34-98.91,39.75-117.34l-12.36-4C462.4,746,430.68,835.74,421.52,863.5,417.4,876,413.47,888.54,409.45,901.06Z"/><path class="cls-10" d="M495.29,649.59c-6.1,18.51-20,57.86-26.11,76.37l12.36,4c6.41-18.47,19.35-58.17,25.22-76.8"/></g><rect class="cls-15" x="485.31" y="625.03" width="39.83" height="26.07" rx="12.11" transform="translate(-268.06 891.83) rotate(-69.8)"/><path class="cls-15" d="M503,643.41c40.88,17.58,72.19,37.92,74.52,47.87a8.15,8.15,0,0,0,.6-1.13c5.72-13.3-25.94-39.69-70.71-58.95S421.67,607.1,416,620.4a8.37,8.37,0,0,0-.66,3.54C419.38,615.6,458.46,624.26,503,643.41Z"/><path class="cls-3" d="M445,813.2c-5.26,2.84-9.17,7.44-12.13,13-1.41,2.65-1.76,5.81-3.11,8.47-1.79,3.56-4.79,6.73-7,10.09-.51.77-1,1.83-.41,2.54a1.89,1.89,0,0,0,1.48.54c3.07.07,6.38-2.11,8.41-4.31.78-.86,6.57-8.61,6.41-9.2,1.09,3.92-.18,8.19-2.45,11.57-3.56,5.27-6.5,4.63-11.9,6.52-1.47.52-2.78,2.13-2.19,3.58s2.4,1.72,3.93,1.8l4.89.26a10.12,10.12,0,0,0,4.65-.47,9.92,9.92,0,0,0,2.62-1.9c2.53-2.28,5.35-6,8.63-7.15,2.05-.7,4.3-.51,6.41-1,3.85-1,6.69-4.1,9.29-7.1,7.31-8.44,17.27-18.72,19.7-29.63.25-1.1-2-.89-2.24-2a8.16,8.16,0,0,0-2.27-3.39c-6-6.25-13.71-16.56-18.61-4.72C455.86,808.5,451.69,809.58,445,813.2Z"/><path class="cls-1" d="M262.71,765.33l10.66,15.82c2.85,4.24,8.52,17.21,13.1,19.21,9.81,4.27,21.3-12.82,25.92-19,7.85-10.5,15.85-21.9,16.65-35A45.14,45.14,0,0,0,320,717.44c-8.72-11-14.59-9.29-25.22-.75C282.06,726.87,271,740.83,260.34,753a7.11,7.11,0,0,0-2.09,3.73c-.16,1.61.79,3.1,1.69,4.45Z"/><path class="cls-10" d="M267.44,617c4.39-8.28,14.63-12.23,23.93-14.76,7-1.89,14.37-3.53,21.35-1.67,6.8,1.81,12.44,6.85,16.1,12.86,2.19,3.59,8.58,15.68,6.38,19.93-5,9.74-30.74,6.5-39.07,10.57-3.19,1.55-5.95,3.83-8.88,5.82A56.22,56.22,0,0,1,240,656.83c.19-4.22,4.36-7.11,8.35-8.51s8.44-2.09,11.55-4.94c6.28-5.75,3.62-16.16,6.55-24.15A17,17,0,0,1,267.44,617Z"/><path class="cls-3" d="M908.33,765.88c-1.86,6.88-1.81,14.12-1.75,21.25.24,30.61-8.91,65.52-8.66,96.13,0,3.82.1,7.79,1.78,11.23s5.48,6.15,9.21,5.3c2.42-.56,4.29-2.44,5.87-4.36a58.85,58.85,0,0,0,10.13-18.84c4.55-13.56,14.44-32.41,14.89-46.71l1-32.71c.29-9.14.56-18.44-1.76-27.29C933.88,750,914.89,741.62,908.33,765.88Z"/><path class="cls-3" d="M961,1229c7.2.6,19.4-4.13,20.44-5.19,1.35-1.38,0,1.93,0,0,1.13-39.13,11.85-98.81-3.14-135.83-4.21-10.39-8-19.7-10.37-30.57-1.33-6.06,11.88-24.33,3.92-25.15-6.94-.72-41.5,4-45.22,10.45-8,13.9,3.26,47.23,6,57.22C943,1138.44,953.34,1189.8,961,1229Z"/><path class="cls-3" d="M1048.55,1229c7.21.6,19.4-4.13,20.45-5.19,1.35-1.38-.06,1.93,0,0,1.13-39.13,11.85-98.81-3.14-135.83-4.21-10.39-8-19.7-10.37-30.57-1.34-6.06,11.88-24.33,3.92-25.15-6.94-.72-41.5,4-45.22,10.45-8,13.9,3.25,47.23,6,57.22C1030.61,1138.44,1040.92,1189.8,1048.55,1229Z"/><path class="cls-13" d="M992.17,933.19c.74,6.17,1.58,12.34,2.41,18.49,4.48,33.12,14.49,70,12.84,103.36,22.2,4.32,49.22-1.42,70.62-9,0,0-4.18-108.77-7-122.26-6.28-29.72-28.62-72.18-67-63.92-3.9.83-7.8,2.47-10.3,5.57-2.77,3.43-3.39,8.08-3.74,12.47C988.44,896.33,989.93,914.8,992.17,933.19Z"/><path class="cls-13" d="M949.33,918.84c-1.74,6-3.4,12-5.05,18-8.89,32.21-14.19,70.1-28.8,100.09,18.72,12.7,45.82,18,68.48,19.47,0,0,38.88-101.66,41.56-115.2,5.9-29.8,2-77.61-36.54-85.12-3.91-.76-8.14-.79-11.66,1.08-3.89,2.07-6.29,6.1-8.34,10C960.39,883.49,954.5,901.06,949.33,918.84Z"/><polygon class="cls-9" points="982.98 1221.84 987.39 1239.82 925.42 1239.17 959.13 1221.59 982.98 1221.84"/><polygon class="cls-9" points="1068.93 1221.84 1073.34 1239.82 1011.37 1239.17 1045.08 1221.59 1068.93 1221.84"/><path class="cls-9" d="M912.21,751.91c-3-21.58,17.1-24.5,34-25.65,29-2,56.95-8.06,84.37,4.93-5.41,3.91-13.67-1.2-18.64,2.93-4,3.31-3.64,11.76-3.12,16.23a240.4,240.4,0,0,0,6.07,32.81c2.06,8,4.7,16.22,10.36,22.26s15.12,9.24,22.45,5.41c1.61-.84,3.22-2,5-1.84s3,1.46,4.1,2.72c13.16,15,15.41,36,17.62,55,2.61,22.5,5.42,45,5.44,67.72,0,1.66,0,3.45-1,4.81a8,8,0,0,1-4.11,2.55,213.57,213.57,0,0,1-93,11.54c-9.16-.89-36.55-1.49-41.82-10.16C935,935,944.05,911,945.65,902c1.27-7.07,2.54-14.22,2.17-21.4-.46-9.21-3.59-18.05-6.69-26.74C928.74,820.39,917.21,787.48,912.21,751.91Z"/><path class="cls-3" d="M888.11,713.15a27.38,27.38,0,0,1-3.85,5,3.86,3.86,0,0,0-1.27,2,3.27,3.27,0,0,0,.7,2.13,10.15,10.15,0,0,0,7.27,4.37,27.55,27.55,0,0,1,3.52.3,3.34,3.34,0,0,1,2.6,2.14,11.91,11.91,0,0,1,.14,1.69c.3,2.9,4,4.73,5.74,6.83,2.1,2.57,3.7,5.59,5.82,8.17,3.34,4.09,8.31,9.46,14.21,7.5,3.85-1.29,6.79-4.36,9.5-7.37,1.21-1.34,2.55-2.78,4.34-3a7,7,0,0,1,3.43.65,47.11,47.11,0,0,1,10.89,5.92c2.77,2,5.46,4.4,8.81,5.08,9.35,1.9,18.26-15.44,20.54-22.27.7-2.09,1.19-4.55-.06-6.36a7.84,7.84,0,0,0-2.68-2.12l-11.09-6.38c-2.47-1.42-5.27-3.43-5.1-6.27a9.89,9.89,0,0,1,1-3,18.61,18.61,0,0,0-3.58-19c-2.16-2.4-4.45-4.46-7.8-3.82-2.86.54-5.82,3.37-4.86,6.47-4.38-14.23-32.86-32.4-47.84-25.78-9.66,4.26-9.12,13.83-7.93,22.79C891.75,698.14,892.44,705.87,888.11,713.15Z"/><path class="cls-9" d="M947.54,697.67c3.87-.83,8.31,1.51,9.39,5.31,1.37,4.78-3.67,9.3-1.74,13.66,2.28,5.12,10.45,6.72,14.91,4.08-10.92-14.9,4.29-28.87-2-44.85-2.18-5.59-7.51-9.22-11.11-14-2.15-2.88-5-6.27-6.65-9.44-1.48-2.89-.81-5.91-4.6-7.37a6.78,6.78,0,0,0-7.36,1.85c-1,1.19-1.66,2.78-3,3.55-1.65.93-3.69.31-5.54-.11a12.68,12.68,0,0,0-8.08.41c-2.5,1.15-4.41,3.85-4,6.56-4.11.14-8.29.29-12.17,1.64s-7.48,4.14-8.79,8c-4.37-.52-9.15.12-12.44,3s-4.28,8.59-1.22,11.75a13.47,13.47,0,0,0,5.2,2.84,16.29,16.29,0,0,0,6.07,1.36,5.58,5.58,0,0,0,5.07-3.07c1.54,3.54,6.39,4.56,10,3.15s6.21-4.51,8.67-7.49a7.14,7.14,0,0,0,10.26-2.75,10.85,10.85,0,0,0,2.84,8.52c-.79-.84-1.7,4.95-1.49,5.64,1,3.35,3.83,2.93,5.92,4.86,4.21,3.9.45,11.37,6.94,14C943.61,705.81,943.29,698.58,947.54,697.67Z"/><path class="cls-3" d="M900.66,886.8c-.75,8.78,1.84,16.47,11.88,16.18a13.44,13.44,0,0,0,6.05-2.14,77.22,77.22,0,0,0,12.84-9.23c11.16-9.82,19.63-22.26,27.48-34.78,4-6.38,7.87-12.86,11.91-19.23,3.81-6,5.78-12.88,13-15.7a30,30,0,0,0,5.44-2.18c2-1.3,3.33-3.42,4.58-5.46l11.4-18.7a16.13,16.13,0,0,0,2.51-5.64,12.23,12.23,0,0,0-8.61,5.84,61.75,61.75,0,0,1,6.93-9.46c1.84-2.08,4.18-4.7,3.37-7.73a1.82,1.82,0,0,0-1.65-1.43,2.68,2.68,0,0,0-1.82,1.27l-9.42,11.85c-.34-1.49.56-3,1.4-4.22,2.13-3.24,4.2-6.55,6-10,1.11-2.08,1.87-6.6-1.78-4.28-1.26.81-11.11,15.31-11.29,15.1-2.15-2.52,6.36-10.1,7.39-12.63.27-.65.39-1.54-.19-1.93a1.42,1.42,0,0,0-.73-.19c-2.86-.18-5.27,2-7.26,4-2.67,2.74-5.26,5.58-7.74,8.49-.92,1.07-5.82,5.87-5.85,6.52.16-3.36.21-6.74.14-10.11,0-1.72-.59-4-2.3-4a2.52,2.52,0,0,0-2.27,1.9,14,14,0,0,0-.32,3.16c-.37,5.28-4.44,9.54-5.93,14.61s.83,9.5.53,14.48c-.23,3.81-4.77,7.33-7,10.12-2.73,3.32-5.57,6.55-8.48,9.72s-5.91,6.27-8.94,9.34q-2.26,2.29-4.55,4.58l0,0c-7.11,7.12-20.23,9.82-28.19,18.84C905.74,867.66,901.44,877.8,900.66,886.8Z"/><path class="cls-3" d="M1065,889.74c-.32,3.58-.75,7.25-2.43,10.42s-4.93,5.77-8.52,5.67a13.36,13.36,0,0,1-6-2.14,77.22,77.22,0,0,1-12.84-9.23c-11.17-9.82-19.63-22.26-27.48-34.78-4-6.38-7.87-12.86-11.91-19.23-3.81-6-5.79-12.88-13-15.7a30.19,30.19,0,0,1-5.43-2.18c-2-1.3-3.33-3.42-4.58-5.46l-11.4-18.71a16.2,16.2,0,0,1-2.52-5.63,12.19,12.19,0,0,1,8.61,5.84,62.26,62.26,0,0,0-6.92-9.47c-1.85-2.07-4.18-4.69-3.37-7.72A1.8,1.8,0,0,1,958.8,780a2.66,2.66,0,0,1,1.81,1.27L970,793.11c.35-1.49-.55-3-1.39-4.22-2.13-3.24-4.21-6.55-6-10-1.11-2.08-1.87-6.61,1.78-4.28,1.26.8,11.11,15.31,11.28,15.1,2.15-2.52-6.35-10.1-7.38-12.63-.27-.65-.39-1.54.19-1.93a1.42,1.42,0,0,1,.73-.19c2.85-.18,5.27,2,7.26,4q4,4.11,7.74,8.49c.91,1.07,5.81,5.87,5.84,6.52q-.24-5.06-.13-10.11c0-1.72.58-4,2.3-4a2.52,2.52,0,0,1,2.27,1.9,13.89,13.89,0,0,1,.32,3.16c.37,5.28,4.44,9.54,5.93,14.61s-.83,9.5-.53,14.48c.23,3.81,4.76,7.33,7,10.12,2.73,3.32,5.57,6.55,8.48,9.72s5.91,6.27,8.93,9.34l4.56,4.58c1.56,1.56,3.34,3.73,4.16,1.13.69-2.2-.69-6.71-.88-9.07-.69-8.34-2-16-2-24.41a125.26,125.26,0,0,0,29.63-4.43c3.19-.88,4.82,19.08,4.82,21.46C1064.94,838.52,1066.15,877,1065,889.74Z"/><path class="cls-3" d="M1055.39,755.25c3.19,9.26,3.26,19.26,3.3,29.06.08,21.32,6.67,73.07,6.75,94.39-11.58-.38-26.09-30.06-37.67-30.44,2.25-2.18-1.53-17.26-1.39-20.4,0,0-20.94-47.24-21.09-79.08C1005.1,709.69,1047.29,731.69,1055.39,755.25Z"/></svg>