<svg xmlns="http://www.w3.org/2000/svg" xmlns:xlink="http://www.w3.org/1999/xlink" viewBox="0 0 1388.29 1388.29"><defs><style>.cls-1{isolation:isolate;}.cls-2{fill:#7c400e;}.cls-3{fill:#c66c12;}.cls-4{fill:#afd1f2;}.cls-5{fill:#332727;}.cls-6{fill:#3b84db;}.cls-7{fill:#ff8c00;}.cls-8{fill:#bfddce;}.cls-10,.cls-9{opacity:0.66;}.cls-9{fill:url(#Gradiente_sem_nome_4);}.cls-10{fill:url(#Gradiente_sem_nome_4-2);}.cls-11{opacity:0.44;mix-blend-mode:multiply;fill:url(#Gradiente_sem_nome_4-3);}.cls-12{fill:#2d1404;}.cls-13{fill:#f4d0a8;}</style><linearGradient id="Gradiente_sem_nome_4" x1="343.59" y1="705.52" x2="495.37" y2="705.52" gradientUnits="userSpaceOnUse"><stop offset="0" stop-color="#ff8c00"/><stop offset="1" stop-color="#afd1f2"/></linearGradient><linearGradient id="Gradiente_sem_nome_4-2" x1="-2234.93" y1="705.52" x2="-2087.66" y2="705.52" gradientTransform="matrix(-1, 0, 0, 1, -1122.93, 0)" xlink:href="#Gradiente_sem_nome_4"/><linearGradient id="Gradiente_sem_nome_4-3" x1="343.59" y1="784.46" x2="1271.57" y2="784.46" xlink:href="#Gradiente_sem_nome_4"/></defs><g class="cls-1"><g id="Camada_1" data-name="Camada 1"><path class="cls-2" d="M95.13,691.36c39.57-5.78,83.61-11.47,120.81-27.33,21.72-9.26,42-21.75,64.3-29.64,61.48-21.78,129.52-6.18,194.3-13.77,59.19-6.93,107.81-35.76,162.51-54.49,56.77-19.44,120.1-29.47,178.73-12.26,31.77,9.32,60.87,26.1,92.88,34.71,29.11,7.84,63.39,9.85,93.53,10.21,18.76.22,37.75.47,55.9,5.24,20.91,5.5,45.66,13.7,65,23,22.5,10.81,39.49,28.85,64.76,34.56,26.89,6.07,57.3-1.56,81,12.6,4.35,2.6,8.5,6.17,10,11s-.87,11.07-5.79,12.34"/><path class="cls-3" d="M697.38,1005.55c220,0,412.19-64,516.29-156.29H176.32C282.33,941.53,477.44,1005.55,697.38,1005.55Z"/><path class="cls-3" d="M1296.16,693H92.14c0,.4,0,.79,0,1.19h1204C1296.15,693.75,1296.16,693.36,1296.16,693Z"/><path class="cls-4" d="M1296.14,694.15H92.15c.43,55.78,31.16,109,84.17,155.11H1213.67C1265.72,803.12,1295.72,749.93,1296.14,694.15Z"/><circle class="cls-5" cx="874.38" cy="782.78" r="11.08"/><circle class="cls-5" cx="918.08" cy="822.41" r="11.08"/><circle class="cls-5" cx="1195.64" cy="789.24" r="11.08"/><circle class="cls-5" cx="793.92" cy="783.88" r="7.84"/><circle class="cls-5" cx="805.66" cy="748.51" r="7.84"/><circle class="cls-5" cx="964.73" cy="818.49" r="7.84"/><circle class="cls-5" cx="925.33" cy="740.67" r="7.84"/><circle class="cls-5" cx="751.12" cy="778.29" r="7.84"/><circle class="cls-5" cx="640.7" cy="779.54" r="7.84"/><circle class="cls-5" cx="663.76" cy="776.04" r="7.84"/><circle class="cls-5" cx="1052.53" cy="778.29" r="7.84"/><circle class="cls-5" cx="972.57" cy="770.46" r="7.84"/><circle class="cls-5" cx="1071.98" cy="822.41" r="3.92"/><circle class="cls-5" cx="1184.56" cy="849.02" r="3.92"/><circle class="cls-5" cx="1018.27" cy="749.66" r="3.92"/><circle class="cls-5" cx="716.4" cy="753.58" r="3.92"/><circle class="cls-5" cx="621.18" cy="754.57" r="3.92"/><circle class="cls-5" cx="575.34" cy="806.74" r="3.92"/><circle class="cls-5" cx="1150.71" cy="776.04" r="3.92"/><circle class="cls-5" cx="1103.58" cy="779.96" r="3.92"/><circle class="cls-5" cx="1009.88" cy="818.49" r="3.92"/><circle class="cls-5" cx="1154.63" cy="740.67" r="3.92"/><path class="cls-3" d="M694.14,669.58c-332.48,0-602,11-602,24.57h1204C1296.14,680.58,1026.62,669.58,694.14,669.58Z"/><path class="cls-6" d="M694.14,718.72c332.48,0,602-11,602-24.57H92.14C92.14,707.72,361.66,718.72,694.14,718.72Z"/><ellipse class="cls-7" cx="720.32" cy="599.24" rx="92.28" ry="9.57"/><ellipse class="cls-7" cx="969.69" cy="616.11" rx="92.28" ry="9.57"/><g id="VA5I2r"><path class="cls-8" d="M763.42,928.24h6c-1.08-3.68-2.06-7.1-3.08-10.51-.17-.57-.63-1.07-.75-1.64a7.78,7.78,0,0,1,0-1.8c.57.22,1.33.3,1.69.71a22.94,22.94,0,0,1,4.94,11.51c.09.51.16,1,.25,1.67H778a31,31,0,0,0-4.36-14,6.59,6.59,0,0,1-.35-2.31,6.53,6.53,0,0,1,2,1c3.59,3.66,5.16,8.27,6,13.2.11.66.19,1.33.3,2.13h5.52A31.34,31.34,0,0,0,782,913a7.82,7.82,0,0,1-.62-2.34,6.81,6.81,0,0,1,2.31.91c4.12,3.86,5.83,8.89,6.72,14.29.1.6.16,1.2.26,1.8a3.22,3.22,0,0,0,.25.52h5.29a28.46,28.46,0,0,0-3.45-12.31c-.71-1.33-1.63-2.55-2.35-3.88-.2-.36,0-.92-.06-1.38.47,0,1.11-.2,1.39,0a18.85,18.85,0,0,1,3.08,3,25.67,25.67,0,0,1,4.69,12.14l.36,2.43h6c-1.18-3.87-2.25-7.44-3.35-11a15.31,15.31,0,0,1-.67-1.43,5.27,5.27,0,0,1,.09-1.47c.53.14,1.33.11,1.56.45a37.37,37.37,0,0,1,3.72,6.16,53.52,53.52,0,0,1,2,7.31h5.39c-.41-2.2-.83-4.24-1.14-6.29a6.48,6.48,0,0,1,.22-1.78c.57.33,1.45.53,1.68,1,1.07,2.23,2,4.55,3.14,7.37a9.88,9.88,0,0,0,2.61-1.48c3.79-4,7.44-8.18,11.2-12.23a6.75,6.75,0,0,1,2-1,7.21,7.21,0,0,1-.25,2.21,31.92,31.92,0,0,0,0,28.07,8.35,8.35,0,0,1,.33,2.27,7.47,7.47,0,0,1-2.19-1.15c-3.72-4-7.32-8.09-11.05-12.06a10.18,10.18,0,0,0-2.68-1.51c-1.17,2.81-2.06,5.13-3.13,7.36-.24.5-1.1.71-1.68,1.05a6.2,6.2,0,0,1-.24-1.78c.32-2,.75-4,1.18-6.21H809a22.37,22.37,0,0,1-1,4.69,92,92,0,0,1-4.29,8.39c-.25.44-1.21.49-1.84.72a7.59,7.59,0,0,1,.13-1.86c1.24-3.85,2.54-7.68,4-11.92h-5.89c-.84,3.17-1.3,6.46-2.61,9.37-1.25,2.75-3.33,5.13-5.18,7.58-.32.43-1.29.37-2,.54a5.31,5.31,0,0,1,.39-1.93,31.59,31.59,0,0,0,5.47-15.59h-5.44c-.28,1.52-.5,3.14-.88,4.73-1.08,4.56-2.82,8.8-6.45,12a6,6,0,0,1-2.11.77,6.33,6.33,0,0,1,.48-2.15,31.2,31.2,0,0,0,5.27-15.35h-5.37c-.44,2.05-.8,4.12-1.36,6.13a19.64,19.64,0,0,1-5.28,9.37,5.55,5.55,0,0,1-1.92.71,5.32,5.32,0,0,1,.27-2A31.48,31.48,0,0,0,778,932.06h-5.09c-1.12,3.32-2.13,6.46-3.27,9.55a8.19,8.19,0,0,1-1.66,2.68,13.52,13.52,0,0,1-2.35,1.72,17.27,17.27,0,0,1,.36-2.81c1.08-3.59,2.24-7.15,3.48-11.09h-5.91a15.44,15.44,0,0,1-.87,3.53c-1.51,3-3.12,6-4.9,8.84-1,1.56-2.68,1.71-4.23.79a58.54,58.54,0,0,1-15-13.1,3.08,3.08,0,0,1,.14-4.33,59.47,59.47,0,0,1,14.44-12.68c2.11-1.29,3.31-1,4.94.87A21.43,21.43,0,0,1,763.42,928.24Zm-8-3.26a2.93,2.93,0,1,0-5.86,0,2.8,2.8,0,0,0,2.93,2.85C754.24,927.84,755.22,926.74,755.42,925Z"/></g><g id="VA5I2r-2" data-name="VA5I2r"><path class="cls-8" d="M511.28,908.33h-4.06c.74-2.51,1.41-4.83,2.1-7.15.12-.39.43-.73.51-1.12a5.09,5.09,0,0,0,0-1.23c-.38.16-.9.2-1.14.49a15.61,15.61,0,0,0-3.37,7.84c-.06.34-.11.7-.17,1.14h-3.76a21.11,21.11,0,0,1,3-9.53,4.39,4.39,0,0,0,.24-1.57,4.36,4.36,0,0,0-1.39.66,16.07,16.07,0,0,0-4.08,9c-.08.45-.13.91-.21,1.45h-3.75a21.28,21.28,0,0,1,3.5-10.33,5.54,5.54,0,0,0,.42-1.59,4.75,4.75,0,0,0-1.58.62c-2.8,2.63-4,6.06-4.57,9.74-.07.4-.11.81-.18,1.22a2.56,2.56,0,0,1-.17.35H489a19.28,19.28,0,0,1,2.35-8.38c.48-.91,1.1-1.74,1.6-2.64.13-.25,0-.63,0-.95-.32,0-.76-.13-.95,0a13,13,0,0,0-2.1,2,17.44,17.44,0,0,0-3.19,8.27c-.09.55-.17,1.1-.25,1.65h-4.1c.8-2.63,1.53-5.06,2.28-7.49.11-.34.38-.63.46-1a4.24,4.24,0,0,0-.06-1c-.37.09-.91.07-1.07.3a25.05,25.05,0,0,0-2.53,4.2,36.59,36.59,0,0,0-1.35,5h-3.66c.27-1.5.56-2.89.77-4.29a4.31,4.31,0,0,0-.15-1.21c-.39.23-1,.36-1.15.7-.72,1.52-1.33,3.09-2.13,5a6.5,6.5,0,0,1-1.78-1c-2.58-2.74-5.07-5.56-7.63-8.32a4.45,4.45,0,0,0-1.38-.68,4.87,4.87,0,0,0,.17,1.5,21.76,21.76,0,0,1,0,19.12,5.58,5.58,0,0,0-.23,1.55,5.34,5.34,0,0,0,1.5-.79c2.53-2.71,5-5.51,7.52-8.21a7,7,0,0,1,1.82-1c.8,1.92,1.41,3.49,2.14,5,.16.35.75.49,1.14.72a4.36,4.36,0,0,0,.16-1.22c-.22-1.36-.51-2.72-.8-4.22h3.79a15.36,15.36,0,0,0,.67,3.19,61.45,61.45,0,0,0,2.93,5.71c.17.31.82.34,1.25.5a5.85,5.85,0,0,0-.09-1.27c-.85-2.62-1.74-5.23-2.7-8.12h4a42.21,42.21,0,0,0,1.78,6.38,29,29,0,0,0,3.53,5.17c.22.29.88.25,1.34.36a3.6,3.6,0,0,0-.27-1.31A21.57,21.57,0,0,1,488.93,911h3.71c.19,1,.34,2.14.59,3.22.74,3.11,1.92,6,4.39,8.16a4.53,4.53,0,0,0,1.45.52,4.52,4.52,0,0,0-.33-1.47,21.15,21.15,0,0,1-3.59-10.45h3.66c.3,1.39.54,2.8.92,4.18a13.48,13.48,0,0,0,3.6,6.38c.31.29.86.32,1.3.48a3.52,3.52,0,0,0-.18-1.33,21.56,21.56,0,0,1-3.11-9.7h3.47c.77,2.26,1.45,4.4,2.23,6.5a5.6,5.6,0,0,0,1.13,1.83,10,10,0,0,0,1.6,1.17,10.85,10.85,0,0,0-.25-1.91c-.73-2.45-1.52-4.88-2.36-7.56h4a10.93,10.93,0,0,0,.59,2.4c1,2,2.13,4.08,3.34,6a2,2,0,0,0,2.88.54,39.72,39.72,0,0,0,10.2-8.92,2.12,2.12,0,0,0-.1-3,40.8,40.8,0,0,0-9.84-8.64c-1.44-.87-2.26-.71-3.36.6A14.51,14.51,0,0,0,511.28,908.33Zm5.45-2.22a1.91,1.91,0,0,1,1.91-2,2,2,0,0,1,2.08,2,2,2,0,0,1-4,0Z"/></g><g id="VA5I2r-3" data-name="VA5I2r"><path class="cls-8" d="M1021.14,895.72h-5.95c1.08-3.68,2.06-7.1,3.08-10.5.17-.57.63-1.07.75-1.65a7.78,7.78,0,0,0,0-1.8c-.57.23-1.33.3-1.69.71a23,23,0,0,0-4.94,11.51c-.09.52-.15,1-.25,1.68h-5.52a31.09,31.09,0,0,1,4.36-14,6.55,6.55,0,0,0,.35-2.31,7,7,0,0,0-2,1c-3.59,3.67-5.16,8.27-6,13.2-.11.67-.19,1.33-.3,2.13h-5.52a31.41,31.41,0,0,1,5.14-15.16,7.55,7.55,0,0,0,.62-2.33,6.8,6.8,0,0,0-2.31.9c-4.12,3.86-5.83,8.9-6.72,14.3-.1.59-.16,1.2-.26,1.79a3.66,3.66,0,0,1-.25.53h-5.29a28.56,28.56,0,0,1,3.45-12.31c.71-1.34,1.63-2.56,2.35-3.88.2-.37.05-.92.06-1.39-.47,0-1.11-.2-1.39,0a18.45,18.45,0,0,0-3.08,3,25.64,25.64,0,0,0-4.69,12.13l-.36,2.43h-6c1.18-3.87,2.25-7.44,3.35-11a15.31,15.31,0,0,0,.67-1.43,5.2,5.2,0,0,0-.09-1.46c-.53.14-1.33.1-1.56.45a37.29,37.29,0,0,0-3.72,6.15,53.52,53.52,0,0,0-2,7.31H970c.41-2.2.83-4.23,1.14-6.29a6.57,6.57,0,0,0-.22-1.78c-.57.34-1.44.53-1.68,1-1.07,2.23-2,4.54-3.14,7.37a9.65,9.65,0,0,1-2.61-1.49c-3.79-4-7.44-8.18-11.2-12.22a6.31,6.31,0,0,0-2-1,7.21,7.21,0,0,0,.25,2.21,31.92,31.92,0,0,1,0,28.07,8.3,8.3,0,0,0-.33,2.27,7.93,7.93,0,0,0,2.2-1.16c3.71-4,7.31-8.08,11-12.05a9.65,9.65,0,0,1,2.68-1.51c1.17,2.81,2.06,5.12,3.13,7.35.24.51,1.1.71,1.68,1a6.15,6.15,0,0,0,.24-1.78c-.32-2-.75-4-1.18-6.2h5.57a22.5,22.5,0,0,0,1,4.69,89.45,89.45,0,0,0,4.3,8.38c.25.45,1.2.5,1.83.73a7.68,7.68,0,0,0-.13-1.87c-1.24-3.85-2.54-7.68-4-11.91h5.89c.84,3.16,1.3,6.45,2.62,9.36,1.24,2.75,3.32,5.14,5.17,7.59.32.43,1.29.37,2,.53a5.31,5.31,0,0,0-.39-1.93,31.55,31.55,0,0,1-5.47-15.58h5.44c.28,1.52.5,3.14.88,4.72,1.08,4.56,2.82,8.8,6.45,12a6.45,6.45,0,0,0,2.11.77,6.34,6.34,0,0,0-.48-2.16,31.16,31.16,0,0,1-5.27-15.34h5.37c.45,2,.8,4.11,1.36,6.13a19.65,19.65,0,0,0,5.28,9.36,5.36,5.36,0,0,0,1.92.71,5.24,5.24,0,0,0-.27-2,31.48,31.48,0,0,1-4.56-14.24h5.09c1.12,3.31,2.13,6.45,3.27,9.55a8.3,8.3,0,0,0,1.66,2.68,13.7,13.7,0,0,0,2.36,1.71,18.49,18.49,0,0,0-.37-2.8c-1.08-3.59-2.24-7.16-3.48-11.09H1021a15.49,15.49,0,0,0,.87,3.52c1.51,3,3.12,6,4.9,8.84,1,1.56,2.68,1.72,4.23.79a58.35,58.35,0,0,0,15-13.1,3.06,3.06,0,0,0-.14-4.32,59.51,59.51,0,0,0-14.44-12.69c-2.11-1.29-3.31-1-4.94.87A21.46,21.46,0,0,0,1021.14,895.72Zm8-3.26a2.84,2.84,0,0,1,2.82-3,2.87,2.87,0,0,1,3,3,2.8,2.8,0,0,1-2.93,2.85C1030.32,895.32,1029.34,894.23,1029.14,892.46Z"/></g><polygon class="cls-9" points="383.03 694.1 343.59 714.13 468.97 716.94 495.37 694.15 383.03 694.1"/><polygon class="cls-10" points="1077.07 694.1 1112 711.84 991.13 716.94 964.73 694.15 1077.07 694.1"/><path class="cls-11" d="M1214.94,780.2c-18.44-3.72-35.25-8-51.66-17.58-18.5-10.83-36.47-22-51.28-50.78l-121.06,5c.46,0,20.78,42,22.79,44.89,21.15,30.45,50.49,54.26,83.81,70.15-10.91-2.6-22-5-33.2-4.08-16,1.37-31.66,9.69-47.48,6.74-21-3.9-35.9-24.7-54-34.8-20.29-11.3-43.89-16-66.89-12.09a68.41,68.41,0,0,0-23.58,8.11c-4.08,2.42-7.82,5.38-11.81,8-11.51,7.41-30.38,14.65-44.26,10.63-10.8-3.14-21.66-13-31.77-18.26-18.3-9.5-39.92-10.08-60.45-8.19-31.75,2.92-62.91,11.22-94.76,12.75-34.52,1.66-76.53-3.63-106.92-21.43-13.1-7.68-27-17.45-37.4-28.72-1.88-2-20.18-33.63-16-33.54l-125.38-2.82s35.16,142.16,164.93,143c16.28.11,32.61-.6,48.89-.9,50.4-.92,101.89-5,152.13-.87,0,0,414,3.67,461-5.64,11.14.65,22.22.64,32.88.23,3.65-.14,8.16.34,11.25-1.79,4.15-2.87,7.91-7.12,11.56-10.6,17.49-16.72,40-37.4,45.38-62.13C1252.36,786.29,1235.66,784.38,1214.94,780.2Z"/><path class="cls-5" d="M212.39,790.42c18.79-11.32,43.24-14.71,61.53-2.49C290.54,799,300,821.2,318.38,828.37c36.86,14.36,65.67-40.12,104-48.82,47.49-10.77,89.37,51.57,137,41.54,13.69-2.89,25.62-11.55,38.42-17.5,61.76-28.66,137.8,9.57,196.09,45.67-7.19,0-28.12-.19-34,0q-14.77.62-29.53,1.13-29.91,1-59.83,1.8-60,1.53-120,2.23c-56.62.75-113.23,1.19-169.85,1.81q-41.75.45-83.49,1.1c-12.39.21-25.27-.7-37.53,0-14.24.83-28,5.41-42.44,5.46-12.37,0-24.87-2.43-35.77-8.94s-17.79-17.21-27.85-24.68C174.73,819.82,192.43,802.43,212.39,790.42Z"/><path class="cls-12" d="M883.71,617.84c10.91-4,46.56-7,88.86-7s77.95,3,88.85,7c2.23-.82,3.43-1.69,3.43-2.59,0-5.29-41.32-9.57-92.28-9.57s-92.29,4.28-92.29,9.57C880.28,616.15,881.48,617,883.71,617.84Z"/><path class="cls-12" d="M629.13,599.33c10.9-4,46.55-7,88.85-7s78,2.95,88.86,7c2.23-.82,3.43-1.69,3.43-2.59,0-5.29-41.32-9.57-92.29-9.57s-92.28,4.28-92.28,9.57C625.7,597.64,626.9,598.51,629.13,599.33Z"/><path class="cls-3" d="M423.42,610.83c37.52,6.87,73.38,22.95,111.35,26,88.84,7.23,172.79-57.16,261.46-48,75.63,7.83,141.58,68.33,217.54,65.49,53.87-2,103.62-36.13,157.5-34.84,48.29,1.15,84.18,45.21,124.2,73.39-52.92-1.18-1080.11,0-1080.11,0C256.53,632.11,357.7,598.8,423.42,610.83Z"/><ellipse class="cls-7" cx="468.97" cy="672.1" rx="92.28" ry="9.57"/><path class="cls-2" d="M380.12,674.17c10.9-4,46.55-7,88.85-7s77.95,2.95,88.85,7c2.23-.83,3.43-1.7,3.43-2.59,0-5.29-41.31-9.57-92.28-9.57s-92.28,4.28-92.28,9.57C376.69,672.47,377.88,673.34,380.12,674.17Z"/><ellipse class="cls-7" cx="985.84" cy="672.51" rx="92.28" ry="9.57"/><path class="cls-7" d="M1281.06,708.69c-51,0-94.18-4.28-94.18-9.57,0-4.82,20.31-6,23.08-6.33,8.72-1,17.49-1.66,26.26-2.14s21.1-3.6,27.82,3.12a101,101,0,0,0,12.5,10.57,48.94,48.94,0,0,1,4.52,4.35"/><path class="cls-7" d="M881.93,671.75c-1.72-1.27-3-4.2-4-6.09a43.17,43.17,0,0,1-4.21-14.6c-.15-1.16-.89-18.1-.59-18.9H841.54c.32.92-.31,17.78-.46,19a43,43,0,0,1-4.33,14.8c-1,1.85-2.5,4.7-4.35,5.84Z"/><ellipse class="cls-13" cx="857.33" cy="632.16" rx="15.79" ry="2.56"/><path class="cls-7" d="M881.93,671.75c0,.55-11.09,2-24.77,2s-24.76-1.42-24.76-2,11.09-1,24.76-1S881.93,671.21,881.93,671.75Z"/><path class="cls-7" d="M839.64,672.1c-1.42-1-2.47-3.45-3.29-5a35.44,35.44,0,0,1-3.46-12c-.13-1-.74-14.89-.49-15.55h-26c.27.77-.25,14.63-.37,15.59a35.17,35.17,0,0,1-3.57,12.17c-.82,1.52-2.05,3.87-3.57,4.8Z"/><ellipse class="cls-13" cx="819.41" cy="639.54" rx="12.99" ry="2.1"/><path class="cls-7" d="M839.64,672.1c0,.45-9.12,1.62-20.37,1.62s-20.36-1.17-20.36-1.62,9.12-.81,20.36-.81S839.64,671.66,839.64,672.1Z"/><path class="cls-7" d="M664.17,671.75c-1.72-1.27-3-4.2-4-6.09a42.94,42.94,0,0,1-4.21-14.6c-.16-1.16-.9-18.1-.6-18.9H623.78c.33.92-.31,17.78-.46,19a42.75,42.75,0,0,1-4.33,14.8c-1,1.85-2.5,4.7-4.35,5.84Z"/><ellipse class="cls-13" cx="639.58" cy="632.16" rx="15.79" ry="2.56"/><path class="cls-7" d="M664.17,671.75c0,.55-11.08,2-24.76,2s-24.77-1.42-24.77-2,11.09-1,24.77-1S664.17,671.21,664.17,671.75Z"/><path class="cls-7" d="M621.88,672.1c-1.42-1-2.47-3.45-3.29-5a35.67,35.67,0,0,1-3.46-12c-.12-1-.73-14.89-.49-15.55h-26c.26.77-.26,14.63-.38,15.59a35.37,35.37,0,0,1-3.56,12.17c-.82,1.52-2.06,3.87-3.58,4.8Z"/><ellipse class="cls-13" cx="601.66" cy="639.54" rx="12.99" ry="2.1"/><path class="cls-7" d="M621.88,672.1c0,.45-9.12,1.62-20.36,1.62s-20.37-1.17-20.37-1.62,9.12-.81,20.37-.81S621.88,671.66,621.88,672.1Z"/><path class="cls-7" d="M756.07,672.1c-1.42-1-2.47-3.45-3.29-5a35.44,35.44,0,0,1-3.46-12c-.12-1-.74-14.89-.49-15.55h-26c.26.77-.26,14.63-.38,15.59a35.17,35.17,0,0,1-3.57,12.17c-.82,1.52-2,3.87-3.57,4.8Z"/><ellipse class="cls-13" cx="735.84" cy="639.54" rx="12.99" ry="2.1"/><path class="cls-7" d="M756.07,672.1c0,.45-9.12,1.62-20.37,1.62s-20.36-1.17-20.36-1.62,9.12-.81,20.36-.81S756.07,671.66,756.07,672.1Z"/><path class="cls-7" d="M1137.23,672.1c-1.42-1-2.47-3.45-3.29-5a35.67,35.67,0,0,1-3.46-12c-.12-1-.74-14.89-.49-15.55h-26c.26.77-.26,14.63-.38,15.59a35.37,35.37,0,0,1-3.56,12.17c-.83,1.52-2.06,3.87-3.58,4.8Z"/><ellipse class="cls-13" cx="1117" cy="639.54" rx="12.99" ry="2.1"/><path class="cls-7" d="M1137.23,672.1c0,.45-9.12,1.62-20.37,1.62s-20.36-1.17-20.36-1.62,9.12-.81,20.36-.81S1137.23,671.66,1137.23,672.1Z"/><path class="cls-7" d="M350.83,672.1c-1.42-1-2.47-3.45-3.29-5a35.44,35.44,0,0,1-3.46-12c-.13-1-.74-14.89-.49-15.55h-26c.26.77-.26,14.63-.38,15.59a35.17,35.17,0,0,1-3.57,12.17c-.82,1.52-2.05,3.87-3.57,4.8Z"/><ellipse class="cls-13" cx="330.6" cy="639.54" rx="12.99" ry="2.1"/><path class="cls-7" d="M350.83,672.1c0,.45-9.12,1.62-20.37,1.62s-20.36-1.17-20.36-1.62,9.12-.81,20.36-.81S350.83,671.66,350.83,672.1Z"/><path class="cls-7" d="M382.73,694.37c1.92-3.35,6.44-4,10.3-3.92s8.19.27,11.06-2.31c1-.93,1.77-2.15,2.78-3.1,1.81-1.72,4.32-2.46,6.72-3.13A87.77,87.77,0,0,1,426.36,679a88.83,88.83,0,0,1,10.19-.53l40.9-.56,32-.43,8-.11c2.27,0,4.89-.57,3,2.25a12.16,12.16,0,0,1-9.68,5.43,27.08,27.08,0,0,0-3.49.06c-3.45.54-2.11,2.7-3.09,5-.72,1.7-2.15,2.15-4,2.23s-4.8,1.81-4.8,1.81"/><path class="cls-7" d="M1075.13,694.37c-1.92-3.35-6.44-4-10.3-3.92s-8.19.27-11.06-2.31c-1-.93-1.77-2.15-2.78-3.1-1.81-1.72-4.32-2.46-6.72-3.13A87.77,87.77,0,0,0,1031.5,679a88.83,88.83,0,0,0-10.19-.53l-40.91-.56-31.95-.43-8-.11c-2.27,0-4.89-.57-3,2.25a12.16,12.16,0,0,0,9.67,5.43,27.2,27.2,0,0,1,3.5.06c3.45.54,2.11,2.7,3.09,5,.72,1.7,2.15,2.15,4,2.23s4.8,1.81,4.8,1.81"/><path class="cls-2" d="M897,674.17c10.9-4,46.55-7,88.85-7s78,2.95,88.86,7c2.23-.83,3.43-1.7,3.43-2.59,0-5.29-41.32-9.57-92.29-9.57s-92.28,4.28-92.28,9.57C893.56,672.47,894.76,673.34,897,674.17Z"/><path class="cls-2" d="M1257,688.85c-41.19,1-72,4.78-72,9.34,0,.9,1.2,1.77,3.43,2.59,9.75-3.6,39.27-6.34,75.63-6.88"/></g></g></svg>