<svg width="200" height="141" viewBox="0 0 200 141" fill="none" xmlns="http://www.w3.org/2000/svg">
<path d="M104.214 78.8694H90.4006V79.3163H92.5549V83.5612H93.0006V79.3163H101.391V83.5612H101.837V79.3163H104.214V78.8694Z" fill="#3F3D56"/>
<path d="M109.339 67.9218H105.774V71.4964H107.426V83.5415H107.872V71.4964H109.339V67.9218Z" fill="#3F3D56"/>
<path d="M104.241 77.5324H90.4278V77.9793H104.241V77.5324Z" fill="#3F3D56"/>
<path d="M104.241 76.4153H90.4278V76.8622H104.241V76.4153Z" fill="#3F3D56"/>
<path d="M104.241 75.2982H90.4278V75.7451H104.241V75.2982Z" fill="#3F3D56"/>
<path d="M139.64 84.849H139.194C139.194 63.6595 122.003 46.4207 100.872 46.4207C79.7416 46.4207 62.5506 63.6595 62.5506 84.849H62.105C62.105 63.4132 79.4959 45.9738 100.872 45.9738C122.249 45.9738 139.64 63.4132 139.64 84.849Z" fill="#3F3D56"/>
<path d="M36.4279 73.0586C56.5464 73.0586 72.8557 56.7039 72.8557 36.5293C72.8557 16.3547 56.5464 0 36.4279 0C16.3093 0 0 16.3547 0 36.5293C0 56.7039 16.3093 73.0586 36.4279 73.0586Z" fill="#417505"/>
<path opacity="0.2" d="M63.5251 12.1306C66.923 20.101 67.384 29.0233 64.8256 37.3032C62.2672 45.5831 56.8563 52.6809 49.5596 57.3284C42.2629 61.9759 33.5559 63.8702 24.9947 62.6728C16.4334 61.4754 8.57564 57.2644 2.82555 50.7921C4.90125 55.6617 8.00789 60.0206 11.9303 63.5667C15.8526 67.1127 20.4969 69.7613 25.5414 71.3288C30.5858 72.8963 35.9098 73.3453 41.1445 72.6446C46.3792 71.944 51.3994 70.1105 55.8573 67.2711C60.3151 64.4317 64.1041 60.6544 66.9617 56.2008C69.8193 51.7473 71.6771 46.724 72.4065 41.4789C73.1359 36.2339 72.7194 30.8925 71.1858 25.8249C69.6523 20.7573 67.0383 16.0846 63.5251 12.1306Z" fill="black"/>
<path d="M36.5279 36.5293H36.6279L38.4293 140.096H34.6265L36.5279 36.5293Z" fill="#3F3D56"/>
<path d="M43.1608 92.9414L42.3216 91.343L36.3 94.5221L37.1392 96.1205L43.1608 92.9414Z" fill="#3F3D56"/>
<path d="M170.516 81.5928C186.8 81.5928 200 68.3558 200 52.0271C200 35.6984 186.8 22.4613 170.516 22.4613C154.233 22.4613 141.033 35.6984 141.033 52.0271C141.033 68.3558 154.233 81.5928 170.516 81.5928Z" fill="#417505"/>
<path opacity="0.2" d="M192.448 32.2795C195.198 38.7305 195.571 45.952 193.501 52.6535C191.43 59.355 187.051 65.0998 181.145 68.8613C175.239 72.6229 168.192 74.1561 161.263 73.1869C154.333 72.2178 147.974 68.8095 143.32 63.571C145 67.5123 147.514 71.0403 150.689 73.9104C153.863 76.7805 157.622 78.9241 161.705 80.1928C165.788 81.4615 170.097 81.8249 174.334 81.2578C178.571 80.6908 182.634 79.2068 186.242 76.9086C189.85 74.6105 192.917 71.5533 195.23 67.9487C197.542 64.3441 199.046 60.2784 199.636 56.0332C200.227 51.788 199.89 47.4648 198.648 43.3633C197.407 39.2617 195.292 35.4798 192.448 32.2795Z" fill="black"/>
<path d="M170.597 52.027H170.678L172.136 135.851H169.058L170.597 52.027Z" fill="#3F3D56"/>
<path d="M175.966 97.6854L175.287 96.3917L170.413 98.9648L171.092 100.258L175.966 97.6854Z" fill="#3F3D56"/>
<path d="M83.5127 77.4865C86.0761 77.4865 88.1541 75.4027 88.1541 72.8322C88.1541 70.2617 86.0761 68.1779 83.5127 68.1779C80.9493 68.1779 78.8713 70.2617 78.8713 72.8322C78.8713 75.4027 80.9493 77.4865 83.5127 77.4865Z" fill="#417505"/>
<path opacity="0.2" d="M86.9654 69.7235C87.3983 70.739 87.457 71.8758 87.1311 72.9308C86.8051 73.9858 86.1156 74.8901 85.1859 75.4823C84.2562 76.0744 83.1469 76.3158 82.056 76.1632C80.9652 76.0107 79.964 75.4741 79.2314 74.6495C79.4958 75.2699 79.8917 75.8253 80.3914 76.2771C80.8912 76.7289 81.4829 77.0664 82.1257 77.2661C82.7684 77.4658 83.4468 77.5231 84.1138 77.4338C84.7807 77.3445 85.4204 77.1109 85.9884 76.7491C86.5564 76.3873 87.0391 75.9061 87.4032 75.3386C87.7673 74.7712 88.004 74.1311 88.097 73.4628C88.1899 72.7946 88.1368 72.114 87.9414 71.4683C87.746 70.8226 87.413 70.2273 86.9654 69.7235Z" fill="black"/>
<path d="M83.5255 72.8323H83.5382L83.7678 86.028H83.2833L83.5255 72.8323Z" fill="#3F3D56"/>
<path d="M84.3707 80.0199L84.2638 79.8162L83.4965 80.2213L83.6034 80.425L84.3707 80.0199Z" fill="#3F3D56"/>
<path d="M126.402 69.7466C132.964 69.7466 138.284 64.4119 138.284 57.8311C138.284 51.2504 132.964 45.9156 126.402 45.9156C119.839 45.9156 114.519 51.2504 114.519 57.8311C114.519 64.4119 119.839 69.7466 126.402 69.7466Z" fill="#417505"/>
<path opacity="0.2" d="M134.8 66C135.908 68.5999 136.058 71.5103 135.224 74.2111C134.389 76.9119 132.624 79.2272 130.244 80.7431C127.864 82.2591 125.024 82.877 122.231 82.4864C119.439 82.0958 116.876 80.7222 115 78.611C115.677 80.1995 116.69 81.6213 117.97 82.778C119.249 83.9347 120.764 84.7986 122.41 85.3099C124.055 85.8213 125.792 85.9677 127.499 85.7392C129.207 85.5106 130.844 84.9125 132.298 83.9864C133.753 83.0602 134.989 81.8281 135.921 80.3753C136.853 78.9226 137.459 77.2841 137.697 75.5732C137.935 73.8623 137.799 72.12 137.299 70.467C136.798 68.8139 135.946 67.2898 134.8 66Z" fill="black"/>
<path d="M126.435 57.8311H126.467L127.055 91.6136H125.814L126.435 57.8311Z" fill="#3F3D56"/>
<path d="M128.598 76.2322L128.324 75.7108L126.36 76.7478L126.634 77.2692L128.598 76.2322Z" fill="#3F3D56"/>
<path d="M44.5942 134.94C44.5942 134.94 44.748 131.707 47.9021 132.083L44.5942 134.94Z" fill="#3F3D56"/>
<path d="M43.7029 131.864C44.5748 131.864 45.2815 131.155 45.2815 130.281C45.2815 129.406 44.5748 128.698 43.7029 128.698C42.8311 128.698 42.1243 129.406 42.1243 130.281C42.1243 131.155 42.8311 131.864 43.7029 131.864Z" fill="#417505"/>
<path d="M43.8917 132.946H43.4461V136.074H43.8917V132.946Z" fill="#3F3D56"/>
<path d="M55.7341 127.567C55.7341 127.567 55.888 124.334 59.0421 124.71L55.7341 127.567Z" fill="#3F3D56"/>
<path d="M54.8429 124.491C55.7148 124.491 56.4215 123.782 56.4215 122.908C56.4215 122.034 55.7148 121.325 54.8429 121.325C53.9711 121.325 53.2643 122.034 53.2643 122.908C53.2643 123.782 53.9711 124.491 54.8429 124.491Z" fill="#417505"/>
<path d="M55.0317 125.573H54.5861V128.701H55.0317V125.573Z" fill="#3F3D56"/>
<path d="M89.3144 102.554C89.3144 102.554 89.4366 99.9864 91.9418 100.285L89.3144 102.554Z" fill="#3F3D56"/>
<path d="M88.6066 100.111C89.2991 100.111 89.8604 99.5477 89.8604 98.8533C89.8604 98.159 89.2991 97.5961 88.6066 97.5961C87.9142 97.5961 87.3528 98.159 87.3528 98.8533C87.3528 99.5477 87.9142 100.111 88.6066 100.111Z" fill="#417505"/>
<path d="M88.7565 100.971H88.4026V103.455H88.7565V100.971Z" fill="#3F3D56"/>
<path d="M138.331 94.511C138.331 94.511 138.453 91.9433 140.958 92.2417L138.331 94.511Z" fill="#3F3D56"/>
<path d="M137.623 92.0675C138.315 92.0675 138.876 91.5046 138.876 90.8102C138.876 90.1158 138.315 89.5529 137.623 89.5529C136.93 89.5529 136.369 90.1158 136.369 90.8102C136.369 91.5046 136.93 92.0675 137.623 92.0675Z" fill="#417505"/>
<path d="M137.773 92.9274H137.419V95.4117H137.773V92.9274Z" fill="#3F3D56"/>
<path d="M91.5425 109.257C91.5425 109.257 91.6647 106.689 94.1698 106.987L91.5425 109.257Z" fill="#3F3D56"/>
<path d="M90.8346 106.813C91.5271 106.813 92.0884 106.25 92.0884 105.556C92.0884 104.862 91.5271 104.299 90.8346 104.299C90.1422 104.299 89.5808 104.862 89.5808 105.556C89.5808 106.25 90.1422 106.813 90.8346 106.813Z" fill="#417505"/>
<path d="M90.9845 107.673H90.6306V110.157H90.9845V107.673Z" fill="#3F3D56"/>
<path d="M86.1953 114.172C86.1953 114.172 86.3175 111.604 88.8226 111.903L86.1953 114.172Z" fill="#3F3D56"/>
<path d="M85.4874 111.728C86.1799 111.728 86.7412 111.166 86.7412 110.471C86.7412 109.777 86.1799 109.214 85.4874 109.214C84.795 109.214 84.2336 109.777 84.2336 110.471C84.2336 111.166 84.795 111.728 85.4874 111.728Z" fill="#417505"/>
<path d="M85.6373 112.588H85.2834V115.073H85.6373V112.588Z" fill="#3F3D56"/>
<path d="M145.906 98.7559C145.906 98.7559 146.028 96.1883 148.533 96.4867L145.906 98.7559Z" fill="#3F3D56"/>
<path d="M145.198 96.3125C145.89 96.3125 146.452 95.7496 146.452 95.0552C146.452 94.3608 145.89 93.7979 145.198 93.7979C144.505 93.7979 143.944 94.3608 143.944 95.0552C143.944 95.7496 144.505 96.3125 145.198 96.3125Z" fill="#417505"/>
<path d="M145.348 97.1724H144.994V99.6567H145.348V97.1724Z" fill="#3F3D56"/>
<path d="M73.7184 104.341C73.7184 104.341 73.8406 101.774 76.3458 102.072L73.7184 104.341Z" fill="#3F3D56"/>
<path d="M73.0106 101.898C73.703 101.898 74.2644 101.335 74.2644 100.641C74.2644 99.9463 73.703 99.3834 73.0106 99.3834C72.3181 99.3834 71.7568 99.9463 71.7568 100.641C71.7568 101.335 72.3181 101.898 73.0106 101.898Z" fill="#417505"/>
<path d="M73.1605 102.758H72.8066V105.242H73.1605V102.758Z" fill="#3F3D56"/>
<path d="M131.647 91.6065C131.647 91.6065 131.769 89.0388 134.274 89.3373L131.647 91.6065Z" fill="#3F3D56"/>
<path d="M130.939 89.163C131.631 89.163 132.192 88.6001 132.192 87.9057C132.192 87.2113 131.631 86.6484 130.939 86.6484C130.246 86.6484 129.685 87.2113 129.685 87.9057C129.685 88.6001 130.246 89.163 130.939 89.163Z" fill="#417505"/>
<path d="M131.089 90.0229H130.735V92.5072H131.089V90.0229Z" fill="#3F3D56"/>
<path d="M25.2105 135.61C25.2105 135.61 25.3644 132.378 28.5184 132.753L25.2105 135.61Z" fill="#3F3D56"/>
<path d="M24.3193 132.534C25.1911 132.534 25.8979 131.825 25.8979 130.951C25.8979 130.077 25.1911 129.368 24.3193 129.368C23.4475 129.368 22.7407 130.077 22.7407 130.951C22.7407 131.825 23.4475 132.534 24.3193 132.534Z" fill="#417505"/>
<path d="M24.508 133.617H24.0624V136.745H24.508V133.617Z" fill="#3F3D56"/>
<path d="M178.72 134.717C178.72 134.717 178.874 131.484 182.028 131.86L178.72 134.717Z" fill="#3F3D56"/>
<path d="M177.829 131.64C178.701 131.64 179.407 130.932 179.407 130.057C179.407 129.183 178.701 128.474 177.829 128.474C176.957 128.474 176.25 129.183 176.25 130.057C176.25 130.932 176.957 131.64 177.829 131.64Z" fill="#417505"/>
<path d="M178.018 132.723H177.572V135.851H178.018V132.723Z" fill="#3F3D56"/>
<path d="M165.798 127.12C165.798 127.12 165.951 123.888 169.105 124.263L165.798 127.12Z" fill="#3F3D56"/>
<path d="M164.906 124.044C165.778 124.044 166.485 123.335 166.485 122.461C166.485 121.587 165.778 120.878 164.906 120.878C164.034 120.878 163.328 121.587 163.328 122.461C163.328 123.335 164.034 124.044 164.906 124.044Z" fill="#417505"/>
<path d="M165.095 125.127H164.65V128.255H165.095V125.127Z" fill="#3F3D56"/>
<path d="M164.015 138.515C164.015 138.515 164.169 135.282 167.323 135.658L164.015 138.515Z" fill="#3F3D56"/>
<path d="M163.124 135.438C163.996 135.438 164.703 134.73 164.703 133.855C164.703 132.981 163.996 132.272 163.124 132.272C162.252 132.272 161.545 132.981 161.545 133.855C161.545 134.73 162.252 135.438 163.124 135.438Z" fill="#417505"/>
<path d="M163.313 136.521H162.867V139.649H163.313V136.521Z" fill="#3F3D56"/>
<path d="M27.7753 140.928C27.7753 140.928 97.9574 122.384 97.289 103.393C96.0636 98.1426 87.5972 96.8021 87.5972 96.8021C87.5972 96.8021 67.5452 94.121 78.4624 87.6418C89.3796 81.1626 119.235 82.7266 119.235 82.7266C119.235 82.7266 88.4884 87.6418 102.079 90.3229C112.996 90.9931 127.033 93.8976 127.033 93.8976C127.033 93.8976 155.551 99.93 159.562 114.676C163.572 129.421 160.23 140.816 160.23 140.816L27.7753 140.928Z" fill="#E6E6E6"/>
<path d="M104.216 141L103.953 140.632C104.324 140.365 104.69 140.101 105.05 139.837L105.316 140.204C104.954 140.467 104.588 140.733 104.216 141Z" fill="white"/>
<path d="M107.492 138.583L107.219 138.223C107.949 137.669 108.667 137.111 109.355 136.566L109.635 136.921C108.945 137.468 108.224 138.028 107.492 138.583ZM111.741 135.21L111.453 134.862C112.159 134.274 112.85 133.682 113.505 133.105L113.803 133.445C113.145 134.025 112.451 134.619 111.741 135.21ZM115.812 131.618L115.503 131.287C116.177 130.653 116.827 130.019 117.435 129.401L117.756 129.719C117.144 130.341 116.49 130.98 115.812 131.618ZM119.618 127.737L119.282 127.435C119.901 126.743 120.487 126.05 121.023 125.376L121.376 125.658C120.835 126.339 120.243 127.039 119.618 127.737ZM122.994 123.466L122.621 123.21C123.146 122.439 123.62 121.669 124.029 120.922L124.425 121.14C124.009 121.9 123.527 122.682 122.994 123.466ZM125.591 118.663L125.17 118.498C125.498 117.669 125.754 116.814 125.937 115.942L126.379 116.033C126.191 116.93 125.928 117.81 125.591 118.663V118.663ZM126.193 113.298C126.18 112.418 126.058 111.543 125.83 110.693L126.266 110.575C126.504 111.461 126.631 112.373 126.645 113.291L126.193 113.298ZM124.843 108.249C124.414 107.472 123.91 106.74 123.34 106.061L123.686 105.771C124.276 106.472 124.796 107.229 125.238 108.031L124.843 108.249ZM121.474 104.15C120.803 103.558 120.1 103.002 119.369 102.487L119.629 102.117C120.374 102.642 121.09 103.208 121.773 103.811L121.474 104.15ZM117.106 101.03C116.367 100.594 115.57 100.16 114.738 99.7383L114.941 99.3342C115.783 99.7598 116.588 100.199 117.335 100.639L117.106 101.03ZM112.298 98.5812C111.512 98.231 110.675 97.8785 109.809 97.5334L109.977 97.1129C110.847 97.46 111.69 97.8149 112.481 98.1673L112.298 98.5812ZM107.278 96.571C106.473 96.2785 105.613 95.9782 104.722 95.6787L104.865 95.2493C105.76 95.5502 106.624 95.8516 107.432 96.1452L107.278 96.571ZM102.146 94.8399C101.359 94.5909 100.512 94.3289 99.5559 94.0386L99.6868 93.6053C100.644 93.896 101.493 94.1587 102.281 94.4079L102.146 94.8399ZM96.9578 93.2566C96.0444 92.9827 95.1735 92.7209 94.3582 92.4691L94.4911 92.0362C95.3053 92.288 96.1749 92.5494 97.0872 92.8229L96.9578 93.2566ZM91.7688 91.6294C90.9001 91.3419 90.0507 90.9991 89.2257 90.6029L89.4288 90.1983C90.2358 90.5856 91.0667 90.9207 91.9165 91.2014L91.7688 91.6294ZM88.359 88.6613L88.0371 88.3438C88.4488 87.9244 89.263 87.5141 90.5263 87.0891L90.6698 87.5185C89.492 87.9145 88.7145 88.2992 88.359 88.6613L88.359 88.6613ZM93.2529 86.7809L93.1438 86.3414C93.9247 86.1464 94.8143 85.9423 95.7879 85.735L95.8816 86.178C94.9132 86.3841 94.0288 86.5871 93.2529 86.7809V86.7809ZM98.529 85.6448L98.4443 85.1999C99.2763 85.0405 100.172 84.8754 101.108 84.7091L101.187 85.1548C100.253 85.3209 99.3591 85.4856 98.529 85.6448V85.6448ZM103.85 84.695L103.776 84.2484C104.626 84.1053 105.517 83.959 106.447 83.8095L106.518 84.2566C105.589 84.406 104.7 84.5521 103.85 84.695Z" fill="white"/>
<path d="M109.241 83.8268L109.172 83.3793C109.611 83.3112 110.057 83.2424 110.512 83.173L110.58 83.6205C110.125 83.6899 109.679 83.7587 109.241 83.8268Z" fill="white"/>
<path d="M119.234 37.8349L121.285 36.1899C119.692 36.0136 119.037 36.885 118.769 37.5747C117.524 37.0564 116.169 37.7357 116.169 37.7357L120.273 39.2297C120.066 38.6752 119.705 38.1913 119.234 37.8349Z" fill="#3F3D56"/>
<path d="M81.1351 50.5699L83.1861 48.9249C81.5928 48.7486 80.9381 49.62 80.6701 50.3097C79.4253 49.7914 78.0702 50.4707 78.0702 50.4707L82.174 51.9647C81.967 51.4102 81.6066 50.9263 81.1351 50.5699Z" fill="#3F3D56"/>
<path d="M91.1611 24.2063L93.2122 22.5613C91.6188 22.385 90.9641 23.2564 90.6962 23.9461C89.4514 23.4278 88.0963 24.1071 88.0963 24.1071L92.2 25.601C91.993 25.0465 91.6326 24.5627 91.1611 24.2063Z" fill="#3F3D56"/>
<path d="M113.458 97.45C113.458 97.45 111.681 97.45 111.484 98.5387C111.286 99.6273 110.99 111.504 111.188 112.988C111.385 114.473 111.385 114.176 111.385 114.176C111.385 114.176 110.992 116.997 111.879 117.12C112.767 117.244 112.767 113.879 112.767 113.879L113.458 101.805V97.45Z" fill="#9E616A"/>
<path d="M121.156 97.45C121.156 97.45 122.932 97.45 123.13 98.5387C123.327 99.6273 123.623 111.504 123.426 112.988C123.229 114.473 123.229 114.176 123.229 114.176C123.229 114.176 123.622 116.997 122.734 117.12C121.847 117.244 121.847 113.879 121.847 113.879L121.156 101.805V97.45Z" fill="#9E616A"/>
<path d="M113.162 138.819H112.372C112.139 138.819 111.908 138.865 111.692 138.955C111.477 139.044 111.281 139.176 111.116 139.341C110.951 139.506 110.82 139.703 110.731 139.919C110.642 140.135 110.596 140.367 110.596 140.601V140.601H115.432V138.324H113.162V138.819Z" fill="#2F2E41"/>
<path d="M120.761 138.819H121.551C122.022 138.819 122.474 139.007 122.807 139.341C123.14 139.675 123.327 140.128 123.327 140.601V140.601H118.491V138.324H120.761V138.819Z" fill="#2F2E41"/>
<path d="M116.517 95.1738C117.934 95.1738 119.083 94.0217 119.083 92.6006C119.083 91.1794 117.934 90.0273 116.517 90.0273C115.1 90.0273 113.951 91.1794 113.951 92.6006C113.951 94.0217 115.1 95.1738 116.517 95.1738Z" fill="#9E616A"/>
<path d="M115.925 93.9861C115.925 93.9861 115.629 97.2521 115.234 97.549C114.839 97.8459 119.379 97.351 119.379 97.351C119.379 97.351 117.8 94.9758 118.096 94.184C118.392 93.3922 115.925 93.9861 115.925 93.9861Z" fill="#9E616A"/>
<path d="M121.748 97.45C121.748 97.45 116.32 95.1737 112.767 97.45C112.767 97.45 111.879 99.7263 112.569 101.013C113.26 102.3 114.346 105.368 113.26 107.446C112.175 109.524 113.359 108.634 113.359 108.634C113.359 108.634 111.977 114.176 111.78 118.53C111.583 122.885 112.372 138.522 112.964 138.621C113.556 138.72 115.432 138.918 115.629 138.621C115.826 138.324 117.208 117.64 117.208 117.64C117.208 117.64 117.8 138.819 118.392 138.819C118.985 138.819 120.564 138.819 120.86 138.324C121.156 137.83 123.623 118.728 122.735 114.77C121.847 110.811 121.255 108.831 121.255 108.831C121.255 108.831 122.34 108.139 122.044 107.743C121.748 107.347 120.268 103.091 120.959 102.398C121.649 101.706 121.748 97.45 121.748 97.45Z" fill="#2F2E41"/>
<path d="M118.146 95.2064C120.435 95.2064 122.291 93.3453 122.291 91.0496C122.291 88.754 120.435 86.8929 118.146 86.8929C115.856 86.8929 114.001 88.754 114.001 91.0496C114.001 93.3453 115.856 95.2064 118.146 95.2064Z" fill="#2F2E41"/>
<path d="M120.734 88.9688C120.036 88.8042 119.427 88.3762 119.035 87.7737C118.643 87.1712 118.497 86.4404 118.627 85.7329C118.615 85.7755 118.604 85.8184 118.594 85.8619C118.425 86.5847 118.549 87.3452 118.939 87.9761C119.329 88.6071 119.953 89.0569 120.674 89.2267C121.394 89.3965 122.153 89.2724 122.782 88.8816C123.412 88.4909 123.861 87.8655 124.03 87.143C124.041 87.0994 124.049 87.0559 124.058 87.0124C123.86 87.7042 123.405 88.2934 122.786 88.6576C122.168 89.0219 121.433 89.1333 120.734 88.9688Z" fill="#2F2E41"/>
<path d="M120.903 89.5104C122.023 89.5104 122.931 88.5996 122.931 87.4762C122.931 86.3528 122.023 85.4421 120.903 85.4421C119.783 85.4421 118.874 86.3528 118.874 87.4762C118.874 88.5996 119.783 89.5104 120.903 89.5104Z" fill="#2F2E41"/>
</svg>
