<svg width="198" height="160" viewBox="0 0 198 160" fill="none" xmlns="http://www.w3.org/2000/svg">
<g clip-path="url(#clip0)">
<path opacity="0.1" d="M101.852 160.002C151.27 160.002 191.331 124.184 191.331 80.001C191.331 35.8177 151.27 0 101.852 0C52.435 0 12.3742 35.8177 12.3742 80.001C12.3742 124.184 52.435 160.002 101.852 160.002Z" fill="#417505"/>
<path opacity="0.1" d="M32.9923 126.047C51.2135 126.047 65.9847 123.753 65.9847 120.924C65.9847 118.094 51.2135 115.801 32.9923 115.801C14.7712 115.801 0 118.094 0 120.924C0 123.753 14.7712 126.047 32.9923 126.047Z" fill="#417505"/>
<path opacity="0.1" d="M48.8497 150.453C55.9369 150.453 61.6822 149.264 61.6822 147.798C61.6822 146.331 55.9369 145.142 48.8497 145.142C41.7625 145.142 36.0172 146.331 36.0172 147.798C36.0172 149.264 41.7625 150.453 48.8497 150.453Z" fill="#417505"/>
<path opacity="0.1" d="M136.535 140.236C143.622 140.236 149.367 139.047 149.367 137.58C149.367 136.114 143.622 134.925 136.535 134.925C129.447 134.925 123.702 136.114 123.702 137.58C123.702 139.047 129.447 140.236 136.535 140.236Z" fill="#417505"/>
<path opacity="0.1" d="M92.9903 138.007C104.515 138.007 113.858 136.421 113.858 134.465C113.858 132.509 104.515 130.924 92.9903 130.924C81.4655 130.924 72.1227 132.509 72.1227 134.465C72.1227 136.421 81.4655 138.007 92.9903 138.007Z" fill="#417505"/>
<path opacity="0.1" d="M154.477 123.764C178.515 123.764 198.002 120.706 198.002 116.934C198.002 113.163 178.515 110.105 154.477 110.105C130.439 110.105 110.952 113.163 110.952 116.934C110.952 120.706 130.439 123.764 154.477 123.764Z" fill="#417505"/>
<path d="M9.02103 105.015C8.04334 106.92 7.5867 109.051 7.69754 111.191C7.80839 113.33 8.48276 115.402 9.65211 117.196C10.0357 117.772 10.3887 118.188 10.6706 118.297C12.0229 118.829 14.7314 120.138 14.7314 120.138L21.2531 117.571C21.2531 117.571 22.312 111.96 23.3132 107.142C23.9961 103.856 24.6559 100.941 24.9264 100.43C25.6016 99.1712 24.9264 85.4681 24.9264 85.4681C24.9264 85.4681 18.4047 85.03 16.6112 90.0666L15.8267 91.6039L9.02103 105.015Z" fill="#A8A8A8"/>
<path opacity="0.1" d="M17.6797 106.529C21.6446 111.081 23.3172 107.144 23.3172 107.144C24.0001 103.858 24.6599 100.943 24.9304 100.432C25.6056 99.1732 24.9304 85.4701 24.9304 85.4701C24.9304 85.4701 18.4086 85.0319 16.6152 90.0685L15.8306 91.6058C15.3281 95.6355 14.8313 103.253 17.6797 106.529Z" fill="white"/>
<path d="M18.5504 119.218L41.5684 116.554L45.6751 89.4823L42.5696 82.4511C41.2576 79.4567 39.4408 76.711 37.1988 74.3342C35.6355 72.6835 33.7461 71.0963 31.7589 70.2988C31.4873 70.1891 31.2101 70.0942 30.9283 70.0144C30.6044 69.9158 30.2619 69.8953 29.9286 69.9544C29.5953 70.0135 29.2806 70.1506 29.0102 70.3545C26.1713 72.3703 25.1566 80.9407 24.8286 85.0664C24.6936 86.7618 24.465 88.4484 24.1438 90.1184L18.5504 119.218Z" fill="#A8A8A8"/>
<path opacity="0.1" d="M33.8748 89.1902L29.0794 101.008C31.5921 99.1673 35.3153 89.1422 35.3153 89.1422L38.651 100.572L35.9924 88.5253C36.3816 85.9093 36.4948 83.2595 36.33 80.6198C36.119 77.5952 33.2859 72.7411 31.7475 70.2968C31.476 70.1872 31.1987 70.0922 30.917 70.0124C30.5931 69.9139 30.2505 69.8933 29.9172 69.9524C29.5839 70.0115 29.2692 70.1486 28.9988 70.3526C30.2072 72.7834 33.2283 78.8615 34.1491 80.6678C35.3172 82.943 33.8748 89.1902 33.8748 89.1902Z" fill="white"/>
<path d="M37.7897 120.138H50.2788C50.7925 120.138 51.3009 120.033 51.7731 119.83C52.2452 119.628 52.6712 119.331 53.0252 118.958C53.3792 118.585 53.6538 118.144 53.8323 117.661C54.0107 117.178 54.0893 116.664 54.0633 116.15C53.7871 110.785 53.087 101.219 51.422 95.1471C50.5224 91.8707 49.477 90.1508 48.5179 89.3034C48.0682 88.8686 47.4875 88.595 46.8664 88.5251C46.3952 88.4844 45.9237 88.5991 45.5237 88.8518C43.2046 91.079 40.4962 102.799 40.4962 102.799L37.7897 120.138Z" fill="#A8A8A8"/>
<path opacity="0.1" d="M49.3196 109.744C49.8336 111.171 50.037 112.818 49.3196 114.423L46.5363 115.801C46.5363 115.801 39.0555 112.624 39.9647 106.114C39.9647 106.114 40.2102 104.769 42.7863 104.872C44.2351 104.943 45.6302 105.443 46.7938 106.311C47.9573 107.178 48.8366 108.374 49.3196 109.744Z" fill="white"/>
<path opacity="0.1" d="M46.3465 92.63C46.2602 90.3471 47.4974 89.5554 48.5197 89.3037C48.07 88.8688 47.4893 88.5952 46.8682 88.5254C46.1566 89.122 45.6522 89.9294 45.4277 90.8313L42.819 103.57C42.819 103.57 46.4922 96.4559 46.3465 92.63Z" fill="white"/>
<path d="M34.5038 102.703L40.688 111.177L41.7602 118.172L37.7858 120.138L32.0563 121.406C31.5045 121.529 30.9371 121.566 30.374 121.516L14.7391 120.138L16.8664 115.197L24.2129 104.865L34.5038 102.703Z" fill="#A8A8A8"/>
<path opacity="0.1" d="M32.1099 99.7939C32.1099 99.7939 36.3299 100.084 34.7455 107.348C33.1611 114.612 16.8587 115.194 16.8587 115.194C16.8587 115.194 20.3229 109.045 25.6515 104.638C26.25 104.144 26.8273 103.629 27.3779 103.08C28.6036 101.852 30.9475 99.694 32.1099 99.7939Z" fill="white"/>
<path opacity="0.1" d="M35.906 105.27C35.906 105.27 41.6241 110.483 41.0851 118.506L35.906 105.27Z" fill="black"/>
<path opacity="0.1" d="M45.5256 88.8521C45.5256 88.8521 39.5256 96.846 38.8523 109.146L45.5256 88.8521Z" fill="black"/>
<path opacity="0.1" d="M24.9323 85.4639C24.9323 85.4639 27.8364 98.675 20.5858 108.633L24.9323 85.4639Z" fill="black"/>
<path d="M77.8254 134.392H109.118C109.421 134.391 109.718 134.311 109.98 134.16C110.243 134.009 110.462 133.793 110.616 133.533C110.771 133.272 110.855 132.976 110.862 132.673C110.868 132.37 110.796 132.071 110.653 131.804L95.014 102.695C94.8641 102.416 94.6416 102.183 94.37 102.02C94.0985 101.858 93.7881 101.772 93.4718 101.772C93.1555 101.772 92.8451 101.858 92.5735 102.02C92.302 102.183 92.0795 102.416 91.9296 102.695L76.2832 131.804C76.1396 132.071 76.0676 132.371 76.0744 132.675C76.0811 132.979 76.1664 133.275 76.3217 133.536C76.4771 133.797 76.6973 134.013 76.9608 134.163C77.2244 134.313 77.5222 134.392 77.8254 134.392ZM95.4628 129.073H91.4807V125.086H95.4628V129.073ZM95.4628 122.426H91.4807V114.45H95.4628V122.426Z" fill="#464353"/>
<path opacity="0.1" d="M77.8254 134.392H109.118C109.421 134.391 109.718 134.311 109.98 134.16C110.243 134.009 110.462 133.793 110.616 133.533C110.771 133.272 110.855 132.976 110.862 132.673C110.868 132.37 110.796 132.071 110.653 131.804L95.014 102.695C94.8641 102.416 94.6416 102.183 94.37 102.02C94.0985 101.858 93.7881 101.772 93.4718 101.772C93.1555 101.772 92.8451 101.858 92.5735 102.02C92.302 102.183 92.0795 102.416 91.9296 102.695L76.2832 131.804C76.1396 132.071 76.0676 132.371 76.0744 132.675C76.0811 132.979 76.1664 133.275 76.3217 133.536C76.4771 133.797 76.6973 134.013 76.9608 134.163C77.2244 134.313 77.5222 134.392 77.8254 134.392ZM95.4628 129.073H91.4807V125.086H95.4628V129.073ZM95.4628 122.426H91.4807V114.45H95.4628V122.426Z" fill="black"/>
<path d="M77.8254 135.353H109.118C109.421 135.352 109.718 135.272 109.98 135.121C110.243 134.97 110.462 134.754 110.616 134.494C110.771 134.233 110.855 133.937 110.862 133.634C110.868 133.331 110.796 133.032 110.653 132.765L95.014 103.656C94.8641 103.377 94.6416 103.144 94.37 102.981C94.0985 102.819 93.7881 102.733 93.4718 102.733C93.1555 102.733 92.8451 102.819 92.5735 102.981C92.302 103.144 92.0795 103.377 91.9296 103.656L76.2832 132.765C76.1396 133.032 76.0676 133.332 76.0744 133.636C76.0811 133.94 76.1664 134.236 76.3217 134.497C76.4771 134.758 76.6973 134.974 76.9608 135.124C77.2244 135.274 77.5222 135.353 77.8254 135.353ZM95.4628 130.034H91.4807V126.047H95.4628V130.034ZM95.4628 123.387H91.4807V115.411H95.4628V123.387Z" fill="#464353"/>
<path d="M44.8484 45.4886C44.8273 45.8902 45.0268 46.2572 45.1438 46.6415C45.3374 47.3838 45.3181 48.1657 45.0882 48.8975C44.8734 49.6662 44.5127 50.479 44.787 51.2304C44.8503 51.4072 44.9463 51.5686 45.0038 51.7454C45.2417 52.4756 44.8005 53.2442 44.3171 53.8419L46.2142 55.1735C46.4911 55.4035 46.8206 55.5613 47.1732 55.6328C47.5281 55.6751 47.9405 55.4848 48.0134 55.1351C48.0383 55.016 48.0134 54.8911 48.0364 54.77C48.0597 54.6134 48.1202 54.4648 48.2126 54.3364C48.305 54.208 48.4268 54.1037 48.5677 54.0321C48.8527 53.8921 49.1704 53.833 49.4865 53.8611C50.6509 53.9245 51.6406 54.6912 52.6995 55.1831C53.3975 55.486 54.1209 55.7265 54.8612 55.9018C55.2813 56.0114 55.7474 56.1113 56.1272 55.9018C56.507 55.6924 56.6816 55.2062 56.6528 54.7662C56.5938 54.3285 56.4574 53.9049 56.25 53.5152C56.0406 53.1259 55.9145 52.6973 55.8798 52.2565C55.8798 51.6108 56.2327 51.0228 56.3516 50.3887C56.5185 49.4875 56.179 48.5708 55.7647 47.7522C55.3504 46.9336 54.8478 46.1458 54.6464 45.2541C54.6064 44.9839 54.5363 44.7189 54.4373 44.4643C54.3413 44.271 54.2114 44.0965 54.0537 43.9493C53.342 43.2441 52.3273 42.9097 51.3337 42.8367C50.3401 42.7637 49.3369 42.927 48.351 43.0981C47.9748 43.1519 47.6044 43.24 47.2442 43.3613C46.7296 43.5662 46.2409 43.8313 45.7883 44.1511C45.3395 44.4624 44.8772 44.9178 44.8484 45.4886Z" fill="#464353"/>
<g opacity="0.1">
<path opacity="0.1" d="M55.8741 51.8629C55.8741 51.9206 55.8741 51.9782 55.8856 52.0339C55.9451 51.4709 56.2405 50.9424 56.3459 50.3794C56.3867 50.1538 56.3989 49.924 56.3824 49.6953C56.3824 49.7952 56.3632 49.8875 56.3459 49.9951C56.2251 50.6292 55.8664 51.2172 55.8741 51.8629Z" fill="black"/>
<path opacity="0.1" d="M45.2724 47.4103C45.295 47.0214 45.2515 46.6316 45.1439 46.2573C45.0303 45.9657 44.9374 45.6665 44.8657 45.3618C44.8657 45.4022 44.8504 45.4406 44.8485 45.481C44.8274 45.8826 45.0269 46.2496 45.1439 46.6339C45.218 46.8865 45.2611 47.1472 45.2724 47.4103Z" fill="black"/>
<path opacity="0.1" d="M56.6355 54.6606C56.6221 54.8323 56.5686 54.9985 56.4793 55.1457C56.39 55.2929 56.2674 55.417 56.1215 55.508C55.7378 55.7175 55.2756 55.6175 54.8555 55.508C54.1149 55.3329 53.3914 55.0917 52.6937 54.7874C51.6349 54.2974 50.6451 53.5307 49.4808 53.4673C49.1647 53.4392 48.8469 53.4983 48.562 53.6383C48.4211 53.7099 48.2993 53.8142 48.2069 53.9426C48.1144 54.071 48.054 54.2196 48.0307 54.3762C48.0172 54.4972 48.0307 54.6221 48.0077 54.7413C47.9328 55.091 47.5224 55.2813 47.1675 55.239C46.8149 55.1675 46.4854 55.0097 46.2084 54.7797L44.5032 53.5806C44.4399 53.6671 44.3766 53.7517 44.3114 53.8304L46.2084 55.164C46.4854 55.394 46.8149 55.5518 47.1675 55.6233C47.5224 55.6656 47.9348 55.4753 48.0077 55.1256C48.0326 55.0065 48.0077 54.8816 48.0307 54.7605C48.054 54.604 48.1144 54.4553 48.2069 54.3269C48.2993 54.1985 48.4211 54.0942 48.562 54.0226C48.8469 53.8826 49.1647 53.8235 49.4808 53.8516C50.6451 53.915 51.6349 54.6817 52.6937 55.1717C53.3914 55.476 54.1149 55.7172 54.8555 55.8923C55.2756 56.0019 55.7417 56.1018 56.1215 55.8923C56.5013 55.6829 56.6758 55.1967 56.647 54.7567C56.6451 54.724 56.6394 54.6933 56.6355 54.6606Z" fill="black"/>
<path opacity="0.1" d="M45.0038 51.7361C45.0275 51.8133 45.0448 51.8923 45.0556 51.9724C45.0853 51.7643 45.0676 51.5521 45.0038 51.3517C44.9463 51.1749 44.8504 51.0135 44.7871 50.8367C44.7409 50.7084 44.7113 50.5748 44.6989 50.439C44.6705 50.703 44.7006 50.97 44.7871 51.2211C44.8504 51.3978 44.9463 51.5612 45.0038 51.7361Z" fill="black"/>
</g>
<path d="M47.2558 124.652C47.2426 124.706 47.2116 124.755 47.1676 124.79C47.1209 124.814 47.0686 124.826 47.016 124.823C46.3332 124.838 45.6503 124.823 44.9694 124.871C44.3249 124.927 43.6784 125.063 43.0359 124.99C42.8303 124.997 42.6275 124.94 42.4557 124.827C42.2839 124.714 42.1514 124.55 42.0768 124.358C42.0362 124.274 42.0004 124.188 41.9694 124.1C41.7923 123.647 41.7031 123.165 41.7066 122.678C41.7066 122.55 41.7066 122.425 41.7066 122.294C41.6982 122.153 41.6796 122.013 41.6509 121.875C41.5928 121.717 41.5997 121.542 41.6701 121.389C41.9425 120.891 42.6004 120.791 43.1068 120.753C44.28 120.664 45.4598 120.751 46.6075 121.01C46.6976 121.452 46.7993 121.89 46.9067 122.329C46.986 122.65 47.0704 122.97 47.1599 123.289C47.22 123.487 47.2686 123.688 47.3057 123.891C47.3531 124.145 47.336 124.406 47.2558 124.652Z" fill="#464353"/>
<path opacity="0.06" d="M47.2558 124.652C47.2426 124.706 47.2116 124.755 47.1675 124.79C47.1209 124.814 47.0685 124.826 47.016 124.823C46.3331 124.838 45.6503 124.823 44.9693 124.871C44.3248 124.926 43.6784 125.063 43.0358 124.99C42.8303 124.997 42.6275 124.94 42.4557 124.827C42.2838 124.714 42.1514 124.55 42.0768 124.358C42.0362 124.274 42.0004 124.188 41.9693 124.1H42.2149C43.0224 124.1 43.8319 124.071 44.6394 124.071C44.883 124.071 45.1285 124.06 45.3702 124.031C45.6119 124.002 45.8095 123.962 46.0301 123.935C46.3603 123.903 46.692 123.89 47.0237 123.895H47.2961C47.3459 124.146 47.3321 124.407 47.2558 124.652Z" fill="black"/>
<path d="M61.3829 121.083C61.1691 121.333 60.896 121.525 60.5887 121.642C59.223 122.219 57.6444 121.959 56.2345 121.491C55.9191 121.373 55.5953 121.28 55.2658 121.212C54.9653 121.17 54.6621 121.148 54.3586 121.148C54.1418 121.148 53.9251 121.131 53.7083 121.118C53.1597 121.083 52.613 121.029 52.0683 120.976C51.6885 120.948 51.3114 120.89 50.9404 120.805C50.8349 120.777 50.7336 120.736 50.6393 120.682C50.5588 120.646 50.49 120.588 50.4411 120.515C50.3922 120.442 50.3651 120.356 50.363 120.268C50.3784 120.024 50.6316 119.884 50.8541 119.778C52.8279 118.923 54.9724 118.552 57.1015 118.255C57.3181 118.218 57.529 118.154 57.7288 118.062C57.9685 117.966 57.9935 118.124 58.1124 118.301C58.1686 118.382 58.2328 118.458 58.3042 118.527C58.5355 118.737 58.807 118.896 59.1022 118.996C59.6201 119.188 60.1744 119.24 60.6923 119.423C60.849 119.477 60.9989 119.55 61.1392 119.638C61.2631 119.706 61.3699 119.801 61.4514 119.916C61.533 120.031 61.5871 120.164 61.6097 120.303C61.6323 120.443 61.6227 120.585 61.5817 120.721C61.5407 120.856 61.4694 120.98 61.3733 121.083H61.3829Z" fill="#464353"/>
<path opacity="0.06" d="M61.383 121.083C61.1692 121.333 60.8961 121.526 60.5888 121.642C59.2231 122.219 57.6445 121.96 56.2346 121.491C55.9193 121.373 55.5954 121.28 55.266 121.212C54.9654 121.17 54.6622 121.149 54.3587 121.149C54.1419 121.149 53.9252 121.131 53.7084 121.118C53.8849 120.951 54.0652 120.787 54.2493 120.63C54.3828 120.505 54.5365 120.403 54.7039 120.33C54.9124 120.261 55.1346 120.246 55.3504 120.286C56.4475 120.438 57.4335 121.208 58.5402 121.141C59.0559 121.081 59.5547 120.92 60.0076 120.666C60.376 120.516 60.7044 120.282 60.9667 119.982C61.0459 119.879 61.1063 119.762 61.1451 119.638C61.269 119.706 61.3757 119.801 61.4573 119.916C61.5388 120.031 61.5929 120.164 61.6155 120.303C61.6381 120.443 61.6286 120.586 61.5876 120.721C61.5466 120.856 61.4753 120.98 61.3791 121.083H61.383Z" fill="black"/>
<path d="M60.9974 87.6874C60.8056 88.0717 60.56 88.4887 60.1457 88.6079C59.5434 88.7808 58.9641 88.2389 58.7014 87.6701C58.3432 86.8352 58.2756 85.904 58.5095 85.026C58.6189 84.5821 58.7858 84.1555 58.8797 83.7097C58.9476 83.3345 58.9886 82.955 59.0025 82.574C59.0592 82.0057 59.0457 81.4326 58.9622 80.8676C58.6534 79.2169 57.2359 77.9852 56.764 76.3633C56.5262 75.5543 56.5377 74.6934 56.5511 73.8498C56.5466 73.6366 56.5685 73.4236 56.6163 73.2157C56.6306 73.159 56.6498 73.1037 56.6739 73.0504C56.9904 72.3471 57.9283 72.251 58.5805 71.8417C58.9411 71.6169 59.7602 70.8925 60.0632 71.5535C60.1287 71.7007 60.1776 71.8547 60.209 72.0128C60.3337 72.6008 60.2838 73.2906 60.3145 73.846C60.4315 75.9444 60.9533 78.039 60.7116 80.1258C60.6539 80.4816 60.6257 80.8415 60.6272 81.2019C60.679 82.1051 61.2429 82.8872 61.5019 83.7519C61.9008 85.0529 61.5805 86.4691 60.9974 87.6874Z" fill="#FBBEBE"/>
<path opacity="0.1" d="M60.2187 72.0165C60.0762 71.9647 59.92 71.9647 59.7775 72.0165L58.4789 72.4009C58.0239 72.5224 57.5803 72.6838 57.1535 72.8832C56.9671 72.9748 56.7904 73.0849 56.626 73.2118C56.6402 73.1551 56.6595 73.0998 56.6835 73.0465C57 72.3432 57.938 72.2471 58.5902 71.8378C58.9508 71.613 59.7698 70.8885 60.0729 71.5496C60.1389 71.6992 60.1878 71.8559 60.2187 72.0165Z" fill="black"/>
<path d="M60.303 71.8704C60.2248 71.8228 60.1365 71.7942 60.0453 71.7868C59.954 71.7795 59.8623 71.7937 59.7775 71.8282L58.4789 72.2125C58.0238 72.3341 57.5803 72.4955 57.1534 72.6948C56.9269 72.8052 56.7149 72.9433 56.5223 73.106C55.9162 72.0511 55.7551 70.8001 55.6438 69.5895C55.5824 68.8842 55.5364 68.1771 55.5095 67.4757C55.4795 66.9709 55.4897 66.4646 55.5402 65.9614C55.6131 65.385 55.78 64.8219 55.8836 64.2493C55.9453 63.914 55.985 63.5751 56.0025 63.2347C56.0523 62.4908 56.0182 61.7437 55.9009 61.0075C55.7893 60.225 55.6109 59.4535 55.3676 58.7016C55.2448 58.3576 55.0972 58.0251 54.9629 57.6869L54.9168 57.5678C54.6743 56.9479 54.4763 56.3116 54.3241 55.6635C54.2627 55.3983 54.2589 55.1197 54.0556 54.939C54.2465 54.916 54.4389 54.9083 54.631 54.916C54.6694 54.916 54.7078 54.916 54.7461 54.916C55.5341 54.9656 56.2933 55.2315 56.9405 55.6846C57.774 56.2871 58.4076 57.1266 58.7589 58.0943C59.1636 59.1762 59.2308 60.3522 59.2826 61.5071C59.3862 63.7772 59.4501 66.0486 59.4744 68.3212C59.4744 68.7574 59.4936 69.2224 59.7429 69.5818C59.8129 69.6703 59.877 69.7634 59.9347 69.8604C60.0249 70.0526 60.0115 70.2659 60.0844 70.46C60.1379 70.5764 60.1988 70.6894 60.2666 70.7982C60.3525 70.9627 60.4003 71.1445 60.4066 71.3301C60.4129 71.5157 60.3775 71.7004 60.303 71.8704Z" fill="#464353"/>
<path d="M47.5358 49.3147C47.344 49.2513 47.1522 49.184 46.9604 49.1226L47.3594 49.1533C47.4259 49.198 47.4853 49.2524 47.5358 49.3147Z" fill="#FBBEBE"/>
<path d="M55.3907 56.2497C55.3523 56.3803 55.3139 56.511 55.2717 56.634C55.1744 56.9497 55.0558 57.2585 54.9169 57.5583C54.6995 58.0507 54.3917 58.4979 54.0096 58.8765C53.8834 59.0096 53.7286 59.1122 53.5569 59.1763C53.4117 59.2135 53.2615 59.2278 53.1119 59.2186C52.6004 59.2186 52.0889 59.2109 51.5774 59.1955C51.1791 59.1999 50.7816 59.1606 50.392 59.0783C49.963 58.9611 49.5552 58.7769 49.1835 58.5325C47.7507 57.6448 46.5729 56.2919 46.0684 54.6893C46.0051 54.4856 45.961 54.2416 46.101 54.0821C46.2388 53.9694 46.4124 53.9101 46.5902 53.9149H46.6132C47.0256 53.8611 47.4229 53.7245 47.7813 53.5133C48.0135 53.3942 48.2007 53.2026 48.3146 52.9675C48.3923 52.6889 48.3863 52.3934 48.2973 52.1182L47.8715 50.1812C47.8271 49.871 47.7109 49.5754 47.532 49.3184C47.6567 49.3626 47.7813 49.4029 47.9156 49.4375C49.101 49.7584 50.3977 49.5643 51.5601 49.9852C52.0051 50.1485 52.4501 50.4425 52.5844 50.8999C52.8088 51.6685 52.0588 52.466 52.2737 53.2346C52.4175 53.7573 52.9489 54.059 53.4246 54.303L53.7449 54.4664L54.633 54.918L54.7558 54.9795L54.7749 54.9891C55.055 55.1313 55.3504 55.3081 55.4482 55.6098C55.4899 55.8242 55.47 56.0461 55.3907 56.2497Z" fill="#FBBEBE"/>
<path opacity="0.1" d="M57.7308 60.7616C57.6983 61.2529 57.5788 61.7344 57.3779 62.1836C56.9928 62.9607 56.7863 63.8143 56.7737 64.6817C56.626 67.2759 55.642 70.364 57.0518 72.5431C57.0863 72.5969 57.1209 72.6507 57.1535 72.7064C56.9269 72.8168 56.715 72.955 56.5224 73.1177C55.9162 72.0627 55.7551 70.8117 55.6439 69.6011C55.5825 68.8959 55.5365 68.1887 55.5096 67.4873C55.4795 66.9825 55.4898 66.4762 55.5403 65.9731C55.6132 65.3966 55.7801 64.8335 55.8836 64.2609C55.9453 63.9257 55.9851 63.5867 56.0026 63.2463C56.0523 62.5024 56.0182 61.7553 55.9009 61.0191C55.7894 60.2366 55.611 59.4651 55.3677 58.7132C55.2449 58.3692 55.0972 58.0368 54.9629 57.6986L54.9169 57.5794C54.6995 58.0719 54.3917 58.519 54.0096 58.8977C53.8834 59.0308 53.7286 59.1333 53.5569 59.1974C53.4117 59.2347 53.2615 59.2489 53.1119 59.2397C52.6004 59.2397 52.0889 59.232 51.5774 59.2166C51.1791 59.2211 50.7816 59.1818 50.392 59.0994C49.963 58.9822 49.5552 58.798 49.1835 58.5537C47.7507 57.6659 46.5729 56.3131 46.0684 54.7104C46.0051 54.5068 45.961 54.2627 46.101 54.1032C46.2388 53.9906 46.4124 53.9313 46.5902 53.936H46.6132L48.3395 56.0748C48.5375 56.3012 48.7052 56.5525 48.8382 56.8223C48.864 56.9129 48.9177 56.9929 48.9917 57.051C49.0517 57.0785 49.1177 57.0903 49.1835 57.0856C50.8044 57.0856 52.9642 57.0856 54.585 57.0856C54.5904 56.7979 54.5073 56.5155 54.3472 56.2766C54.2973 56.2881 54.2302 56.2919 54.3338 56.2612C54.24 55.6374 54.0388 55.0346 53.7391 54.4799C53.7212 54.4417 53.7014 54.4045 53.6797 54.3684C53.5509 54.1783 53.4549 53.9678 53.3958 53.7458C53.6004 53.6804 53.8203 53.6804 54.0249 53.7458C54.2609 53.8476 54.3836 54.1032 54.4872 54.3396C54.5755 54.5317 54.6637 54.7373 54.7423 54.9391C54.7423 54.9603 54.7615 54.9833 54.7692 55.0045C54.9365 55.402 55.0438 55.8224 55.0876 56.2516C55.0991 56.4092 55.1375 56.609 55.2679 56.6609C55.2884 56.6703 55.3106 56.6755 55.3331 56.6763C55.4682 56.6267 55.6149 56.6186 55.7546 56.6528C55.8943 56.687 56.0207 56.7621 56.1177 56.8684C56.3063 57.0849 56.4382 57.3452 56.5013 57.6255C56.5636 57.9059 56.6549 58.1789 56.7737 58.4403C57.0211 58.913 56.6432 59.1244 57.0902 59.4146C57.2992 59.5297 57.479 59.6915 57.6157 59.8873C57.7422 60.1602 57.7823 60.4652 57.7308 60.7616Z" fill="black"/>
<path opacity="0.1" d="M46.5902 121.018C46.6803 121.46 46.782 121.898 46.8894 122.336L46.8779 122.363C46.0013 121.979 45.1036 121.577 44.1464 121.493C43.2583 121.416 42.2935 121.656 41.6893 122.302C41.6809 122.161 41.6623 122.021 41.6337 121.883C41.5755 121.725 41.5824 121.55 41.6528 121.397C41.9252 120.899 42.5831 120.799 43.0895 120.761C44.2627 120.672 45.4425 120.759 46.5902 121.018Z" fill="black"/>
<path opacity="0.1" d="M54.1458 56.6284C54.2361 56.6284 54.2034 56.6284 54.1592 56.6438C54.115 56.6592 54.042 56.6592 54.1458 56.6284Z" fill="black"/>
<path opacity="0.1" d="M58.3138 118.527C57.4584 119.074 56.6545 119.697 55.9123 120.389C55.6967 120.621 55.4397 120.809 55.1546 120.945C54.8602 121.04 54.5491 121.072 54.2416 121.039C53.0349 120.99 51.8321 120.871 50.6393 120.682C50.5588 120.646 50.49 120.588 50.4411 120.515C50.3922 120.442 50.3651 120.356 50.363 120.268C50.3784 120.024 50.6316 119.884 50.8541 119.778C52.8279 118.923 54.9724 118.552 57.1015 118.255C57.3181 118.218 57.529 118.154 57.7288 118.062C57.9685 117.966 57.9935 118.124 58.1124 118.301C58.1716 118.383 58.2391 118.459 58.3138 118.527Z" fill="black"/>
<path d="M44.2404 54.3993C44.5224 54.6511 44.8447 54.8548 45.1305 55.0988C45.8977 55.7503 46.3811 56.6611 46.8568 57.5489C46.5747 57.651 46.2696 57.6717 45.9764 57.6085C45.8255 58.461 45.851 59.3354 46.0512 60.1777C45.6674 60.4415 45.3692 60.8123 45.1938 61.2442C45.0574 61.6825 44.9636 62.1329 44.9137 62.5893C44.6375 64.5891 44.36 66.5888 44.0812 68.5886C44.0756 68.7843 44.0085 68.9733 43.8894 69.1286C43.8362 69.1717 43.7873 69.2199 43.7436 69.2727C43.6849 69.402 43.6618 69.5446 43.6765 69.6859C43.665 69.8261 43.5729 69.9933 43.4329 69.9741C43.3649 69.9578 43.3045 69.9184 43.2622 69.8626C43.1221 69.714 42.9938 69.5547 42.8785 69.3861C41.7468 71.5614 41.2021 73.9057 40.6036 76.2847C40.1759 77.9796 39.7481 79.6937 39.727 81.4423C39.7328 82.2696 39.7847 83.0959 39.8824 83.9174L40.0512 85.6046C40.1874 86.9612 40.3236 88.3198 40.4713 89.6765C40.5672 90.5374 40.6631 91.4059 40.9719 92.2169C41.4323 93.4486 40.922 94.838 41.1177 96.1408C41.2711 97.1612 41.5761 98.2162 41.2692 99.2C41.1465 99.594 40.9316 99.9533 40.7705 100.334C40.3753 101.279 40.3351 102.33 40.3005 103.355C40.2384 104.252 40.2719 105.154 40.4003 106.045C40.5652 106.965 40.9355 107.867 40.8626 108.797C40.7609 110.121 39.7865 111.252 39.6675 112.575C39.5736 113.629 40.0358 114.648 40.5326 115.584C40.899 116.274 40.3888 117.165 40.195 117.924C39.8114 119.412 40.4502 120.968 41.2328 122.288C41.2527 122.334 41.2881 122.37 41.3325 122.392C41.4227 122.425 41.5032 122.336 41.5627 122.261C42.1516 121.504 43.195 121.218 44.1522 121.301C45.1094 121.383 46.0051 121.779 46.8837 122.171L48.1285 119.394C48.3395 118.924 48.5544 118.414 48.4489 117.909C48.3741 117.548 48.142 117.242 47.977 116.912C47.5934 116.131 47.5742 115.223 47.5704 114.348L47.5473 109.41C48.5179 108.187 49.1106 106.735 49.4847 105.217C50.0585 107.352 50.098 109.596 49.5998 111.75C49.5076 112.076 49.4434 112.409 49.408 112.746C49.3331 114.116 50.4054 115.274 50.6912 116.616C50.7189 116.718 50.7267 116.825 50.7142 116.931C50.6821 117.061 50.6282 117.184 50.555 117.296C50.0409 118.23 50.0966 119.362 50.1714 120.426C51.5165 120.661 52.8756 120.807 54.2398 120.862C54.5474 120.893 54.858 120.861 55.1528 120.768C55.438 120.632 55.6951 120.443 55.9105 120.211C56.7814 119.39 57.7377 118.666 58.7628 118.049C58.1903 117.098 57.3891 116.305 56.4322 115.743C56.7411 115.288 57.445 115.324 57.8555 114.959C58.0616 114.755 58.1962 114.489 58.2392 114.202C58.3926 113.449 58.2027 112.665 58.0128 111.925C57.6445 110.468 57.2743 109.006 56.6701 107.63C56.3968 107.065 56.156 106.484 55.9489 105.891C55.4463 104.235 55.7973 102.432 55.4175 100.739C55.2948 100.197 55.0972 99.6382 55.2353 99.0982C55.4463 98.2661 56.3862 97.7723 56.5934 96.9383C57.3357 93.9694 57.4681 90.8929 57.89 87.8625C57.9844 87.2836 58.0351 86.6984 58.0416 86.1119C58.0416 85.4989 57.9322 84.8916 57.8881 84.2806C57.7155 81.8343 58.4962 79.3939 58.2967 76.9496C58.169 75.4433 57.6736 73.9915 56.8542 72.722C55.4444 70.541 56.4284 67.4548 56.5761 64.8607C56.5872 63.9932 56.7931 63.1394 57.1784 62.3625C57.381 61.9138 57.5012 61.4321 57.5333 60.9405C57.5924 60.6375 57.5548 60.3236 57.4259 60.0432C57.2909 59.8465 57.1115 59.6845 56.9022 59.5704C56.4553 59.2783 56.8331 59.067 56.5857 58.5943C56.4667 58.333 56.3754 58.0599 56.3133 57.7795C56.2505 57.4996 56.1186 57.2399 55.9297 57.0243C55.8327 56.9179 55.7063 56.8429 55.5666 56.8086C55.4269 56.7744 55.2802 56.7826 55.1452 56.8321C54.9629 56.8321 54.9131 56.59 54.8977 56.4074C54.8459 55.7387 54.5697 55.1103 54.2993 54.4954C54.1957 54.2591 54.0729 54.0035 53.837 53.9016C53.6315 53.8373 53.4114 53.8373 53.2059 53.9016C53.2653 54.1245 53.3619 54.3357 53.4917 54.5262C53.8242 55.1105 54.0453 55.7517 54.1439 56.4171C53.9521 56.4747 54.3357 56.4171 54.1439 56.4171C54.3156 56.6568 54.4039 56.9465 54.3952 57.2414C52.7762 57.2414 50.6164 57.2414 48.9955 57.2414C48.9297 57.2466 48.8636 57.2347 48.8037 57.2068C48.7298 57.1483 48.6756 57.0685 48.6484 56.9782C48.5165 56.7082 48.3487 56.4574 48.1496 56.2326L46.2507 53.8863C46.2085 53.825 46.1527 53.7743 46.0876 53.7383C46.0092 53.7161 45.9262 53.7161 45.8479 53.7383C45.2321 53.8286 44.7775 54.0861 44.2404 54.3993Z" fill="#417505"/>
<path opacity="0.1" d="M51.0556 86.1906C51.383 86.1861 51.7056 86.2697 51.9898 86.4327C52.1308 86.5159 52.2478 86.6344 52.3292 86.7766C52.4106 86.9187 52.4536 87.0797 52.454 87.2437C52.4329 87.6068 52.1548 87.8951 51.9533 88.2045C51.8287 88.393 51.7294 88.5972 51.6579 88.8117C51.6359 88.8605 51.6305 88.9152 51.6426 88.9673C51.6656 89.0404 51.7443 89.0769 51.8114 89.1095C52.0554 89.2201 52.2639 89.3966 52.4133 89.6193C52.5627 89.842 52.6472 90.102 52.6573 90.3701C52.64 91.1196 51.9092 91.7268 51.9495 92.4839C51.9678 92.6416 51.9947 92.7981 52.0301 92.9528C52.1178 93.5981 52.0283 94.2551 51.7711 94.8533C51.539 95.4567 51.2225 96.0235 50.9732 96.6212C50.2999 98.2449 50.1541 100.044 50.2059 101.81C50.2462 103.009 49.8223 104.15 49.4386 105.292C49.6554 102.992 49.7131 100.681 49.6113 98.3737C49.5844 97.7472 49.5058 97.1554 49.5345 96.527C49.5806 95.5297 50.1368 94.6227 50.2788 93.6446C50.3593 93.0854 50.3056 92.5166 50.3191 91.9516C50.3459 90.7987 50.6586 89.6611 50.6797 88.5042C50.7065 87.6875 50.6317 86.8459 51.0556 86.1906Z" fill="black"/>
<path d="M43.0512 54.8105C42.6698 55.0009 42.313 55.2371 41.9885 55.5138C41.6494 55.8513 41.3659 56.2404 41.1483 56.6668C40.8834 57.1501 40.6459 57.6479 40.4367 58.1579C40.1662 58.819 39.9418 59.5511 40.1279 60.241C40.2967 60.8655 40.7743 61.3517 41.1042 61.907C41.4341 62.4624 41.6279 63.1138 41.8811 63.723C42.2187 64.5358 42.6809 65.2929 43.0147 66.1077C43.3485 66.9225 43.5499 67.8372 43.3389 68.6846C43.2775 68.9344 42.8728 69.1285 42.8728 69.3841C42.8728 69.8068 43.4827 70.2661 43.8875 70.3891C44.3536 70.5332 44.8619 70.318 45.2436 70.0047C45.9437 69.4494 46.3696 68.6173 46.6841 67.7795C47.1905 66.4344 47.461 65.0066 47.7046 63.5884C47.8811 62.5469 48.046 61.5035 48.14 60.4543C48.2263 59.5088 48.2532 58.5327 48.0038 57.6257C47.7712 56.7932 47.3185 56.039 46.6937 55.4427C46.195 54.9623 45.3779 54.3166 44.6528 54.2993C44.0793 54.2974 43.5422 54.5395 43.0512 54.8105Z" fill="#464353"/>
<path d="M48.5044 77.9756C48.4836 78.1069 48.4345 78.2322 48.3607 78.3427C48.2868 78.4531 48.1899 78.5462 48.0766 78.6155C47.8503 78.7533 47.6036 78.8545 47.3458 78.9153C46.8317 79.0652 46.287 79.2035 45.7672 79.071C45.3586 78.9377 44.9814 78.7226 44.6585 78.4387L38.8503 73.9844C38.3837 73.6531 37.9547 73.2716 37.5709 72.8468C37.3505 72.5726 37.1481 72.2844 36.9647 71.984C36.722 71.6402 36.5319 71.2619 36.4008 70.8618C36.354 70.6857 36.3307 70.5041 36.3317 70.3218C36.3302 70.1494 36.3724 69.9795 36.4545 69.828C36.5945 69.5935 36.8938 69.5455 37.1393 69.4801C37.9633 69.2667 38.8187 69.2016 39.6655 69.288C39.7399 69.2844 39.8134 69.3051 39.875 69.3471C39.9366 69.389 39.9829 69.4499 40.0069 69.5205C40.1354 69.7569 40.2467 70.0028 40.3618 70.2488C40.5384 70.6682 40.7686 71.0628 41.0466 71.4229C41.3144 71.7145 41.5994 71.9898 41.9002 72.2473C42.514 72.8238 43.0165 73.5155 43.6706 74.0459C44.4283 74.6589 45.349 75.0259 46.2122 75.4775C47.0753 75.9291 47.927 76.5152 48.3605 77.3895C48.4611 77.568 48.5108 77.7708 48.5044 77.9756Z" fill="#FBBEBE"/>
<path opacity="0.1" d="M55.2276 46.8992C55.2278 48.1124 54.7654 49.2799 53.9349 50.1629C53.1044 51.0459 51.9686 51.5777 50.7597 51.6496C49.5508 51.7215 48.3601 51.3281 47.4312 50.5497C46.5022 49.7713 45.9052 48.6668 45.7621 47.4621C45.6191 46.2574 45.9408 45.0434 46.6615 44.0684C47.3823 43.0935 48.4475 42.4311 49.6395 42.2169C50.8315 42.0026 52.0602 42.2527 53.0743 42.9158C54.0884 43.579 54.8113 44.6052 55.0952 45.7846C55.1833 46.1496 55.2277 46.5237 55.2276 46.8992Z" fill="black"/>
<path d="M55.2276 46.7068C55.2278 47.92 54.7654 49.0875 53.9349 49.9705C53.1044 50.8535 51.9686 51.3853 50.7597 51.4572C49.5508 51.5291 48.3601 51.1357 47.4312 50.3573C46.5022 49.5789 45.9052 48.4744 45.7621 47.2697C45.6191 46.065 45.9408 44.851 46.6615 43.876C47.3823 42.9011 48.4475 42.2387 49.6395 42.0245C50.8315 41.8103 52.0602 42.0603 53.0743 42.7234C54.0884 43.3866 54.8113 44.4128 55.0952 45.5922C55.1833 45.9572 55.2277 46.3313 55.2276 46.7068Z" fill="#FBBEBE"/>
<path opacity="0.1" d="M40.3618 70.2411C40.1431 70.3814 39.8189 70.3353 39.5485 70.2738C38.482 70.0355 37.3042 69.8645 36.3317 70.3218C36.3302 70.1494 36.3724 69.9795 36.4545 69.8279C36.5945 69.5935 36.8938 69.5455 37.1393 69.4801C37.9633 69.2667 38.8187 69.2016 39.6655 69.288C39.7399 69.2844 39.8134 69.3051 39.875 69.3471C39.9366 69.389 39.9829 69.4499 40.0069 69.5205C40.1354 69.7492 40.2467 69.9951 40.3618 70.2411Z" fill="black"/>
<path d="M38.3573 63.7709C38.1214 64.5396 37.9276 65.3294 37.4653 65.9808C37.3125 66.1521 37.1975 66.3538 37.1278 66.5727C37.1225 66.7343 37.0961 66.8945 37.0491 67.0492C36.9839 67.1799 36.8458 67.2664 36.7902 67.4009C36.7077 67.5931 36.8151 67.8409 36.7058 68.0216C36.6546 68.0941 36.5932 68.1588 36.5235 68.2137C36.2627 68.4559 36.1974 68.8421 36.1917 69.1995C36.1859 69.557 36.2205 69.9221 36.1035 70.2583C37.1162 69.653 38.4052 69.8337 39.5561 70.0912C39.8765 70.1623 40.2735 70.2161 40.4807 69.9586C40.6879 69.7011 40.5689 69.3629 40.5977 69.0535C40.6361 68.6499 40.9123 68.3156 41.083 67.9486C41.2748 67.5354 41.34 67.0742 41.4877 66.6438C41.7927 65.7387 42.4468 65.0008 42.8669 64.1457C43.0224 63.8516 43.1151 63.5283 43.1393 63.1964C43.1248 62.7662 43.0126 62.3449 42.8113 61.9646C42.4121 61.0791 41.9371 60.2297 41.3918 59.4262C41.1482 59.0668 40.7281 58.4019 40.3503 58.9765C40.0433 59.4396 39.8515 60.0295 39.6252 60.5369C39.1374 61.5881 38.714 62.6681 38.3573 63.7709Z" fill="#464353"/>
<path d="M55.665 56.3111C55.0891 56.3508 54.5116 56.2612 53.9746 56.0488C53.4377 55.8364 52.9549 55.5064 52.5615 55.0832C52.4952 55.0228 52.4473 54.9448 52.4233 54.8584C52.4124 54.7459 52.4439 54.6335 52.5116 54.5432C52.7418 54.1877 53.1388 53.9533 53.323 53.5709C53.5071 53.1885 53.4438 52.7484 53.4611 52.3295C53.4918 51.5781 53.7872 50.8345 53.8121 50.0946C53.821 49.9053 53.8068 49.7156 53.7699 49.5297C53.6816 49.2536 53.6275 48.9677 53.6088 48.6784C53.6337 48.1154 54.1401 47.6772 54.2245 47.1219C54.3338 46.4147 53.7488 45.7998 53.1599 45.3924C52.7109 45.0805 52.2235 44.8279 51.7098 44.6411C51.3943 44.5279 51.0676 44.4486 50.7354 44.4047C50.1159 44.3209 49.4854 44.3915 48.8997 44.6103C48.6573 44.702 48.4277 44.8247 48.2168 44.9754C48.0912 45.055 47.9866 45.1638 47.9118 45.2925C47.8504 45.4374 47.8228 45.5945 47.8313 45.7518C47.8198 46.5377 47.908 47.3736 47.534 48.0577C47.3421 48.4248 47.0161 48.7226 46.8569 49.1108C46.7917 49.2723 46.751 49.4426 46.736 49.6162C46.7168 49.7962 46.7072 49.977 46.7072 50.1581C46.6957 51.1708 46.7072 52.2392 47.2213 53.1174C47.4027 53.3829 47.5673 53.6595 47.7143 53.9456C47.7855 54.0903 47.8185 54.2509 47.8101 54.4121C47.8017 54.5732 47.7522 54.7295 47.6663 54.866C47.5625 54.9906 47.4311 55.0893 47.2827 55.1543C46.9018 55.3374 46.4874 55.4397 46.0652 55.4549C45.6431 55.4701 45.2223 55.3979 44.8294 55.2427C45.2889 54.8064 45.6046 54.24 45.7342 53.6191C45.8637 52.9983 45.801 52.3526 45.5544 51.7684C45.4159 51.5324 45.3258 51.2711 45.2897 50.9997C45.309 50.7553 45.374 50.5167 45.4815 50.2964C45.7445 49.5743 45.7852 48.7898 45.5985 48.0443C45.4815 47.5869 45.2782 47.145 45.2418 46.6742C45.2113 46.3188 45.2268 45.961 45.2878 45.6096C45.3929 44.9809 45.6694 44.3935 46.0868 43.9123C46.5042 43.4311 47.0461 43.0748 47.6529 42.8828C47.7507 42.8501 47.8447 42.8194 47.9521 42.7925C48.4175 42.689 48.893 42.6381 49.3696 42.6407C50.4342 42.6061 51.5141 42.5753 52.5404 42.854C53.1429 43.012 53.7034 43.3006 54.1823 43.6995C54.5223 43.9858 54.7937 44.345 54.9764 44.7506C55.0763 44.9843 55.1515 45.2277 55.2008 45.477C55.245 45.6826 55.2776 45.8901 55.3102 46.0977C55.5423 47.5754 55.7744 49.082 55.5269 50.5578C55.4291 51.1342 55.2584 51.7107 55.1817 52.2987C54.9956 53.6535 55.3313 55.0006 55.665 56.3111Z" fill="#464353"/>
<path d="M48.8497 58.21C49.0468 58.21 49.2065 58.0499 49.2065 57.8525C49.2065 57.6551 49.0468 57.4951 48.8497 57.4951C48.6527 57.4951 48.493 57.6551 48.493 57.8525C48.493 58.0499 48.6527 58.21 48.8497 58.21Z" fill="white"/>
<path d="M54.8709 58.0405C55.0679 58.0405 55.2277 57.8805 55.2277 57.6831C55.2277 57.4857 55.0679 57.3257 54.8709 57.3257C54.6739 57.3257 54.5141 57.4857 54.5141 57.6831C54.5141 57.8805 54.6739 58.0405 54.8709 58.0405Z" fill="white"/>
<path opacity="0.1" d="M48.8498 39.7892L48.0825 38.3384C48.1312 38.2804 48.1844 38.2264 48.2417 38.177C48.3525 38.1086 48.4823 38.0776 48.6119 38.0886L48.8498 39.7892Z" fill="black"/>
<path opacity="0.1" d="M50.9654 38.0211L50.0965 39.3086L49.6016 37.8962C49.8128 37.8053 50.0413 37.762 50.2711 37.7694C50.5149 37.8139 50.7496 37.899 50.9654 38.0211Z" fill="black"/>
<g opacity="0.1">
<path opacity="0.1" d="M47.6663 54.4856C47.5625 54.6102 47.4311 54.7089 47.2827 54.7739C46.6025 55.0999 45.8265 55.1649 45.1017 54.9564C45.0175 55.0591 44.9265 55.156 44.8294 55.2466C45.2223 55.4018 45.6431 55.4741 46.0652 55.4588C46.4874 55.4436 46.9018 55.3413 47.2827 55.1582C47.4311 55.0932 47.5625 54.9945 47.6663 54.87C47.7323 54.774 47.7774 54.6652 47.7985 54.5506C47.8197 54.4361 47.8165 54.3183 47.7891 54.2051C47.7699 54.3067 47.7279 54.4026 47.6663 54.4856Z" fill="black"/>
<path opacity="0.1" d="M45.5852 48.0503C45.6478 48.3021 45.6845 48.5597 45.6945 48.819C45.7166 48.4313 45.6797 48.0425 45.5852 47.666C45.4682 47.2086 45.2648 46.7667 45.2284 46.2959C45.2284 46.2363 45.2284 46.1767 45.2188 46.1152C45.2096 46.3036 45.2128 46.4923 45.2284 46.6802C45.2648 47.151 45.4682 47.593 45.5852 48.0503Z" fill="black"/>
<path opacity="0.1" d="M55.5134 50.5637C55.5948 50.0555 55.6295 49.5409 55.6169 49.0264C55.6102 49.4127 55.5756 49.798 55.5134 50.1793C55.4155 50.7558 55.2448 51.3323 55.1681 51.9203C55.1285 52.2357 55.1138 52.5538 55.124 52.8715C55.1292 52.6819 55.1439 52.4927 55.1681 52.3046C55.2448 51.7166 55.4155 51.1459 55.5134 50.5637Z" fill="black"/>
<path opacity="0.1" d="M45.5468 51.3882C45.4463 51.199 45.3653 51.0001 45.3051 50.7944C45.2888 50.8637 45.2811 50.9347 45.2821 51.0058C45.3182 51.2772 45.4082 51.5385 45.5468 51.7745C45.6876 52.0966 45.7688 52.4417 45.7865 52.7929C45.8212 52.3121 45.739 51.8301 45.5468 51.3882Z" fill="black"/>
<path opacity="0.1" d="M53.7698 49.5224C53.7867 49.61 53.7988 49.6985 53.8063 49.7875C53.8063 49.7587 53.8063 49.7318 53.8063 49.703C53.8151 49.5136 53.801 49.3239 53.7641 49.138C53.7219 48.9363 53.6528 48.7364 53.6202 48.5327C53.6107 48.5783 53.6049 48.6246 53.6029 48.6711C53.6235 48.9606 53.6796 49.2465 53.7698 49.5224Z" fill="black"/>
<path opacity="0.1" d="M52.5614 54.6913C52.5318 54.6604 52.5043 54.6276 52.4789 54.5933C52.4317 54.6703 52.4121 54.7611 52.4233 54.8508C52.4472 54.9372 52.4951 55.0152 52.5614 55.0756C52.9548 55.4989 53.4376 55.8288 53.9745 56.0412C54.5115 56.2536 55.089 56.3433 55.6649 56.3035C55.6323 56.1767 55.5997 56.0518 55.569 55.9192C55.0088 55.945 54.4497 55.8485 53.9304 55.6365C53.4111 55.4245 52.944 55.102 52.5614 54.6913Z" fill="black"/>
<path opacity="0.1" d="M54.2207 46.7569C54.2198 46.7499 54.2198 46.7428 54.2207 46.7358C54.3301 46.0287 53.745 45.4137 53.1562 45.0063C52.7071 44.6944 52.2197 44.4418 51.706 44.255C51.3905 44.1418 51.0639 44.0625 50.7316 44.0186C50.1121 43.9348 49.4816 44.0054 48.8959 44.2242C48.6535 44.3159 48.424 44.4386 48.2131 44.5894C48.0874 44.6689 47.9828 44.7777 47.9081 44.9064C47.8466 45.0513 47.819 45.2084 47.8275 45.3657C47.8275 45.4983 47.8275 45.6309 47.8275 45.7654V45.75C47.819 45.5928 47.8466 45.4357 47.9081 45.2907C47.9828 45.162 48.0874 45.0533 48.2131 44.9737C48.424 44.8229 48.6535 44.7002 48.8959 44.6086C49.4816 44.3897 50.1121 44.3191 50.7316 44.403C51.0639 44.4469 51.3905 44.5261 51.706 44.6393C52.2197 44.8261 52.7071 45.0787 53.1562 45.3907C53.6453 45.7212 54.1267 46.1978 54.2207 46.7569Z" fill="black"/>
<path opacity="0.1" d="M47.5341 47.6773C47.3423 48.0444 47.0162 48.3422 46.857 48.7304C46.7918 48.8919 46.7511 49.0622 46.7361 49.2358C46.7169 49.4157 46.7073 49.5966 46.7074 49.7777C46.7074 49.941 46.7074 50.1063 46.7074 50.2715C46.7074 50.235 46.7074 50.1985 46.7074 50.162C46.7073 49.981 46.7169 49.8001 46.7361 49.6201C46.7511 49.4465 46.7918 49.2762 46.857 49.1147C47.0162 48.7304 47.3346 48.4287 47.5341 48.0616C47.8429 47.4852 47.8372 46.8222 47.8314 46.1631C47.8569 46.6846 47.7548 47.2044 47.5341 47.6773Z" fill="black"/>
</g>
<path opacity="0.1" d="M55.1874 45.4905C55.161 45.5281 55.1301 45.5623 55.0954 45.5924C55.0277 45.6482 54.952 45.6935 54.8709 45.7269C54.3128 45.969 54.3358 45.1792 54.0442 44.9083C53.8572 44.7701 53.6278 44.7021 53.3959 44.7161C52.8345 44.6879 52.2725 44.6629 51.7098 44.6412C50.7718 44.6066 49.8358 44.5893 48.8997 44.6104C48.4509 44.6181 48.0033 44.6367 47.557 44.6661C47.0391 44.7007 46.4828 44.768 46.0417 45.014C45.8906 45.0972 45.754 45.2043 45.6369 45.331C45.5314 45.4463 45.4202 45.5924 45.2744 45.6193C45.3795 44.9906 45.656 44.4032 46.0734 43.922C46.4908 43.4408 47.0327 43.0845 47.6395 42.8925C48.6218 42.1595 49.8489 41.8352 51.0642 41.9874C52.2796 42.1396 53.3893 42.7565 54.1612 43.7092C54.5012 43.9955 54.7726 44.3547 54.9553 44.7603C55.0581 44.9949 55.1359 45.2396 55.1874 45.4905Z" fill="black"/>
<path d="M54.8708 45.3424C54.3126 45.5845 54.3356 44.7947 54.0441 44.5238C53.8571 44.3856 53.6276 44.3176 53.3957 44.3316C51.452 44.2035 49.5025 44.1869 47.5569 44.2817C46.8644 44.3278 46.1048 44.4315 45.6387 44.9465C45.5198 45.0772 45.3951 45.2463 45.2167 45.2405C45.1572 44.8562 45.115 44.4565 45.0863 44.0626C45.0689 43.915 45.0767 43.7656 45.1093 43.6206C45.1572 43.4554 45.2666 43.3151 45.3222 43.1537C45.377 42.9484 45.3964 42.7352 45.3797 42.5234C45.3882 41.7394 45.5985 40.9709 45.9903 40.2922C46.3821 39.6135 46.9422 39.0476 47.6163 38.6494C47.7855 38.5665 47.9424 38.4604 48.0824 38.3342C48.1311 38.2762 48.1843 38.2222 48.2416 38.1728C48.3524 38.1044 48.4822 38.0735 48.6118 38.0844C48.7039 38.0844 48.8037 38.0844 48.8842 38.0844C49.1323 38.0571 49.3748 37.9923 49.6035 37.8923C49.8147 37.8014 50.0432 37.7581 50.273 37.7655C50.5168 37.81 50.7515 37.8951 50.9673 38.0172C51.0711 38.0673 51.1797 38.1065 51.2915 38.1344C51.4661 38.1748 51.6464 38.1728 51.8209 38.2074C52.1037 38.2795 52.3722 38.3991 52.615 38.561C52.9049 38.7176 53.1731 38.9114 53.413 39.1375C53.6738 39.4361 53.8826 39.7764 54.0306 40.1444C54.2847 40.6528 54.4778 41.1894 54.6061 41.7432C54.7615 42.5388 54.6847 43.3996 55.053 44.1222C55.2774 44.5757 55.4827 45.0791 54.8708 45.3424Z" fill="#FED253"/>
<path opacity="0.1" d="M45.1478 44.7392C45.1478 44.7392 49.1241 41.1151 55.0455 44.1205C55.0455 44.1205 48.3607 42.5966 45.1478 44.7392Z" fill="black"/>
<path d="M1.82029 63.2577C1.27937 62.3699 0.46607 61.557 0.592669 60.5501C2.08116 60.7211 3.49292 60.3579 4.85673 59.7257C6.22055 59.0935 7.48653 58.273 8.76402 57.4678C9.26658 57.1507 9.76722 56.8394 10.2659 56.5512C11.0562 56.0977 11.8408 55.5904 12.6445 55.1465C13.7954 54.5124 14.9693 53.9935 16.2621 53.8936C16.4963 53.8753 16.7313 53.8695 16.9661 53.8763C18.5581 53.907 20.2078 54.3356 21.608 53.6207L21.6943 53.5746C22.4884 53.1384 23.0658 52.3967 23.7468 51.7952C24.2363 51.371 24.7693 51 25.3369 50.6883C26.3708 50.1118 27.491 49.6507 28.5479 49.1068C28.8184 48.9672 29.0753 48.8025 29.3152 48.6149L29.4955 48.4708L29.5358 48.4362C29.5799 48.3997 29.624 48.3632 29.6662 48.3247L29.7487 48.2517L29.8331 48.1749L29.8983 48.1134L30.0038 48.0134L30.0153 48L30.1822 47.8347L30.2493 47.7675L30.3663 47.6464L30.4354 47.5772C30.5524 47.4562 30.6694 47.3332 30.7883 47.214C30.9072 47.0949 31.0684 46.9335 31.2122 46.8009L31.3503 46.6779L31.3906 46.6433L31.5019 46.5511L31.5537 46.5069L31.663 46.4223L31.7167 46.3801C31.7704 46.3397 31.826 46.3013 31.8817 46.2628C31.9329 46.2273 31.9867 46.1958 32.0428 46.1687L31.6841 45.2982L32.7161 44.8716L46.9488 79.4704L45.9149 79.897L37.7743 60.1043L37.7167 60.1619C35.8309 62.0262 33.521 63.4032 30.9859 64.1743H30.9705C29.553 64.6028 27.9667 64.9064 26.7736 65.702C26.3506 65.9774 25.9829 66.3301 25.6899 66.7416C25.4098 67.1413 25.2142 67.5967 24.9226 67.981C24.867 68.0521 24.8056 68.1213 24.7442 68.1866C24.3954 68.533 24.0094 68.8398 23.5933 69.1013L23.4111 69.2262C22.1752 70.0973 20.8877 70.8924 19.5556 71.6071C18.7869 72.008 17.9854 72.3423 17.1598 72.6064C16.5594 72.7985 15.9399 72.9388 15.3395 73.129C14.9356 73.2515 14.5434 73.4097 14.1675 73.6018C13.1509 74.134 12.3702 74.968 11.6317 75.8577C10.9853 76.6379 10.3714 77.4642 9.66172 78.1752C9.21671 78.6172 8.5396 79.0361 8.00251 78.7767L7.89318 78.7133C7.91044 78.6844 7.92387 78.6556 7.93921 78.6249C8.36313 77.7352 7.84139 76.636 7.13934 75.9231C7.06645 75.8481 6.99165 75.7751 6.91492 75.7059C6.83819 75.6368 6.70009 75.5138 6.59075 75.4177C5.99037 74.9008 5.35162 74.4204 4.93538 73.7536C4.61768 73.1934 4.40204 72.5811 4.29855 71.9453C4.10674 71.0402 3.97822 70.1082 3.48717 69.3377C3.16492 68.8284 2.68538 68.3942 2.33627 67.9061C2.1156 67.6172 1.97053 67.2777 1.91428 66.9184C1.83564 66.2938 2.12528 65.6827 2.23461 65.0601C2.26714 64.8905 2.28065 64.7178 2.27489 64.5452C2.23482 64.0843 2.07838 63.6412 1.82029 63.2577Z" fill="url(#paint0_linear)"/>
<path d="M45.5532 79.6003L46.5694 79.1807L32.5738 45.1636L31.5577 45.5832L45.5532 79.6003Z" fill="#D6D8E1"/>
<path d="M3.83054 69.2167C4.31199 69.9758 4.44051 70.8904 4.62657 71.7802C4.72977 72.4056 4.94209 73.0079 5.25381 73.5596C5.6643 74.2149 6.29153 74.6876 6.88041 75.1949C6.98783 75.289 7.09524 75.387 7.19882 75.4793C7.27363 75.5465 7.34844 75.6196 7.41941 75.6907C8.10995 76.3921 8.6221 77.4739 8.20586 78.3483C8.19308 78.378 8.17834 78.4069 8.16174 78.4347C8.19544 78.4577 8.23069 78.4782 8.26724 78.4962C8.79665 78.7537 9.46225 78.3425 9.89959 77.9063C10.5978 77.2068 11.202 76.3959 11.8369 75.6292C12.562 74.7529 13.3312 73.9324 14.3305 73.4097C14.6995 73.2204 15.0846 73.0648 15.4814 72.9447C16.0703 72.7525 16.6803 72.6161 17.2711 72.4316C18.0825 72.1716 18.8705 71.8431 19.6266 71.4496C20.9385 70.7462 22.2068 69.9639 23.4245 69.1072L23.6048 68.9842C24.0137 68.7275 24.3933 68.4266 24.7365 68.0868C24.7979 68.0215 24.8574 67.9542 24.913 67.8831C25.2084 67.4988 25.4021 67.0587 25.6803 66.6648C25.9687 66.2601 26.3305 65.9133 26.7468 65.6425C27.9207 64.8604 29.4782 64.5606 30.8727 64.1398H30.8881C33.38 63.3804 35.6508 62.0266 37.5057 60.1947C37.6595 60.066 37.7744 59.897 37.8376 59.7066C37.897 59.4357 37.7513 59.1666 37.6112 58.9284C37.4482 58.6478 37.289 58.3672 37.1317 58.0828C36.4243 56.7931 35.7928 55.4629 35.2404 54.0993C35.1195 53.7995 35.0025 53.5017 34.8894 53.2C34.5991 52.4313 34.3344 51.6518 34.0952 50.8614C34.0166 50.6 33.9399 50.3368 33.867 50.0735C33.8536 50.0236 33.8382 49.9698 33.8248 49.9121C33.5064 48.6304 33.0805 45.6307 31.7685 46.5281C31.3783 46.8076 31.0154 47.1235 30.6848 47.4716C30.4296 47.7311 30.1803 47.9982 29.9175 48.2557C29.7035 48.4665 29.4774 48.6648 29.2404 48.8494C28.9999 49.0339 28.7431 49.196 28.4731 49.3337C27.4316 49.8679 26.3305 50.3156 25.3158 50.8883C24.7571 51.1942 24.2324 51.5588 23.7506 51.9759C23.0812 52.5678 22.5134 53.298 21.7327 53.7265L21.6483 53.7726C20.2711 54.474 18.6502 54.0532 17.0831 54.0225C16.8528 54.0166 16.6223 54.0224 16.3926 54.0397C15.1208 54.1358 13.9584 54.647 12.8344 55.2715C12.0441 55.7096 11.273 56.2054 10.4961 56.6532C10.0051 56.9356 9.51404 57.2412 9.01915 57.5544C7.76468 58.3461 6.49294 59.1762 5.18284 59.7758C3.84013 60.3869 2.4533 60.752 0.989744 60.5848C0.865064 61.5744 1.66302 62.3738 2.19627 63.2462C2.45238 63.6212 2.60764 64.0561 2.64703 64.5087C2.65408 64.678 2.64185 64.8476 2.61059 65.0141C2.50317 65.6271 2.22696 66.2267 2.29601 66.8435C2.35044 67.1952 2.49225 67.5276 2.70841 67.8101C3.04217 68.2886 3.51212 68.7171 3.83054 69.2167Z" fill="#F86D70"/>
<path d="M42.8286 73.2197C42.8286 73.2197 44.5089 74.6878 46.2123 75.4699C47.9156 76.252 46.7877 79.0576 46.7877 79.0576C46.7877 79.0576 44.9827 79.4727 43.7187 77.7125C42.4546 75.9523 42.8286 73.2197 42.8286 73.2197Z" fill="#FBBEBE"/>
<path d="M133.373 98.2102C133.373 98.2102 128.923 104.077 125.231 104.125C121.538 104.173 119.371 106.596 121.124 108.11C122.877 109.625 141.982 107.246 141.982 107.246C141.982 107.246 142.162 100.036 140.507 98.9827C138.852 97.9296 133.373 98.2102 133.373 98.2102Z" fill="#444176"/>
<path d="M181.222 105.253C181.222 105.253 181.903 109.9 179.799 113.068C177.694 116.237 183.6 117.459 183.6 117.459C183.6 117.459 187.891 118.656 188.204 114.41C188.517 110.163 188.415 106.915 188.012 106.569C187.609 106.224 187.274 103.835 187.274 103.835L181.222 105.253Z" fill="#444176"/>
<path d="M113.856 114.029C113.856 114.029 113.701 98.9999 128.545 92.8911L131.992 86.321L133.646 82.2856C134.245 80.824 135.186 79.5288 136.392 78.5098C137.597 77.4908 139.03 76.7781 140.568 76.4324L143.242 75.8309L144.069 72.3412C144.51 70.4759 145.486 68.7806 146.877 67.4645C148.268 66.1485 150.013 65.2692 151.897 64.9353C153.523 64.6329 155.173 64.4786 156.827 64.4741C157.558 64.4852 158.275 64.6856 158.906 65.056C159.538 65.4264 160.063 65.9541 160.431 66.5879C160.431 66.5879 174.495 66.4323 175.118 74.1034C175.118 74.1034 176.526 81.1461 178.558 82.399C178.558 82.399 181.995 81.6169 185.432 86.6266L189.182 99.463C189.182 99.463 199.026 108.698 196.057 117.142C196.057 117.142 191.994 122.934 171.368 119.019C171.368 119.019 149.336 125.745 137.609 116.521C137.607 116.533 118.076 120.29 113.856 114.029Z" fill="#A8A8A8"/>
<path opacity="0.1" d="M123.7 111.681C123.7 111.681 126.827 107.298 126.669 104.165C126.512 101.033 127.406 93.4043 127.406 93.4043" stroke="black" stroke-miterlimit="10"/>
<path opacity="0.1" d="M135.107 99.9395C135.107 99.9395 138.232 94.1477 137.919 91.0174C137.919 91.0174 141.201 85.0603 143.701 85.5369" stroke="black" stroke-miterlimit="10"/>
<path opacity="0.1" d="M152.296 83.5024C152.296 83.5024 160.889 80.372 161.359 77.8682" stroke="black" stroke-miterlimit="10"/>
<path opacity="0.1" d="M155.421 90.7044C155.421 90.7044 164.484 86.6344 164.484 85.5371H169.013C169.013 85.5371 175.577 94.1479 174.796 97.9047" stroke="black" stroke-miterlimit="10"/>
<path opacity="0.1" d="M166.047 96.9651C166.047 96.9651 157.297 96.3387 154.17 98.8445C151.044 101.35 145.42 102.601 145.42 102.601C145.42 102.601 142.138 109.646 140.887 110.897C139.636 112.148 137.605 116.533 137.605 116.533" stroke="black" stroke-miterlimit="10"/>
<path opacity="0.1" d="M166.047 105.263C166.047 105.263 166.983 108.549 168.234 110.428C169.484 112.307 171.359 119.037 171.359 119.037" stroke="black" stroke-miterlimit="10"/>
<path opacity="0.1" d="M180.735 114.811C180.735 114.811 182.718 120.34 184.462 120.393" stroke="black" stroke-miterlimit="10"/>
<path opacity="0.1" d="M167.743 91.0811C167.743 91.0811 172.895 92.4762 175.049 95.8563C177.203 99.2364 183.783 102.301 183.783 102.301" stroke="black" stroke-miterlimit="10"/>
<path opacity="0.1" d="M169.953 74.4282C169.953 74.4282 169.953 81.6285 171.984 81.6285C174.015 81.6285 178.548 82.4107 178.548 82.4107" stroke="black" stroke-miterlimit="10"/>
<path opacity="0.1" d="M159.997 65.877C159.997 65.877 159.478 78.3156 156.821 81.5363" stroke="black" stroke-miterlimit="10"/>
<g opacity="0.05">
<path opacity="0.05" d="M188.86 99.3131L185.11 86.4767C181.673 81.467 178.235 82.2491 178.235 82.2491C176.204 80.9962 174.798 73.9515 174.798 73.9515C174.173 66.2804 160.109 66.438 160.109 66.438C159.74 65.8031 159.214 65.2747 158.581 64.9042C157.948 64.5338 157.23 64.3339 156.497 64.3242C155.833 64.3242 155.154 64.3454 154.475 64.4011C154.859 64.4395 155.226 64.494 155.578 64.5644L156.671 66.4438C156.671 66.4438 170.733 66.2862 171.359 73.9573C171.359 73.9573 172.767 81.002 174.798 82.2549C174.798 82.2549 178.235 81.4708 181.673 86.4824L185.423 99.3189C185.423 99.3189 195.267 108.554 192.297 116.998C192.297 116.998 190.293 119.855 181.955 120.201C193.197 120.614 195.735 116.998 195.735 116.998C198.704 108.548 188.86 99.3131 188.86 99.3131Z" fill="black"/>
<path opacity="0.05" d="M133.857 116.375C130.549 116.971 127.204 117.338 123.846 117.472C127.761 117.622 131.833 117.197 134.457 116.836C134.254 116.681 134.054 116.531 133.857 116.375Z" fill="black"/>
<path opacity="0.05" d="M167.609 118.881C162.798 120.232 157.847 121.017 152.854 121.218C160.057 121.479 166.88 119.974 169.692 119.252C169.013 119.138 168.324 119.01 167.609 118.881Z" fill="black"/>
</g>
<path d="M42.7461 143.297C42.7461 143.297 47.0447 143.165 48.3395 142.24C49.6342 141.316 54.9494 140.213 55.2717 141.695C55.5939 143.176 61.7301 149.064 56.8772 149.104C52.0242 149.145 45.6042 148.347 44.3113 147.557C43.0185 146.768 42.7461 143.297 42.7461 143.297Z" fill="#A8A8A8"/>
<path opacity="0.2" d="M56.9654 148.588C52.1125 148.628 45.6905 147.83 44.3977 147.05C43.4136 146.449 43.0204 144.293 42.89 143.299H42.7461C42.7461 143.299 43.0185 146.772 44.3113 147.56C45.6042 148.347 52.0262 149.145 56.8772 149.106C58.2794 149.095 58.7628 148.595 58.7359 147.855C58.5422 148.301 58.007 148.58 56.9654 148.588Z" fill="black"/>
<path d="M147.543 132.498C147.543 132.498 142.481 131.483 141.132 130.13C139.784 128.777 133.709 126.414 133.034 128.103C132.359 129.792 123.925 135.539 129.66 136.558C135.395 137.576 143.156 137.903 144.844 137.234C146.532 136.566 147.543 132.498 147.543 132.498Z" fill="#A8A8A8"/>
<path opacity="0.2" d="M129.66 135.92C135.397 136.933 143.156 137.265 144.844 136.595C146.127 136.08 147.021 133.607 147.374 132.456L147.543 132.492C147.543 132.492 146.53 136.547 144.844 137.223C143.158 137.9 135.397 137.561 129.66 136.547C128.005 136.255 127.531 135.567 127.709 134.698C127.851 135.271 128.429 135.707 129.66 135.92Z" fill="black"/>
<path opacity="0.1" d="M99.0729 22.0699H97.8683C98.0922 22.0699 98.3068 21.9809 98.4651 21.8223C98.6234 21.6637 98.7123 21.4487 98.7123 21.2244C98.7123 21.0002 98.6234 20.7851 98.4651 20.6266C98.3068 20.468 98.0922 20.3789 97.8683 20.3789H88.1087C87.8849 20.3789 87.6702 20.468 87.5119 20.6266C87.3537 20.7851 87.2647 21.0002 87.2647 21.2244C87.2647 21.4487 87.3537 21.6637 87.5119 21.8223C87.6702 21.9809 87.8849 22.0699 88.1087 22.0699H89.3133C89.0967 22.0803 88.8924 22.1738 88.7427 22.331C88.5931 22.4883 88.5096 22.6972 88.5096 22.9145C88.5096 23.1318 88.5931 23.3407 88.7427 23.4979C88.8924 23.6552 89.0967 23.7487 89.3133 23.759H87.6273C87.4034 23.759 87.1888 23.8481 87.0305 24.0067C86.8722 24.1652 86.7833 24.3803 86.7833 24.6046C86.7833 24.8288 86.8722 25.0439 87.0305 25.2024C87.1888 25.361 87.4034 25.4501 87.6273 25.4501H97.3869C97.6107 25.4501 97.8254 25.361 97.9837 25.2024C98.1419 25.0439 98.2308 24.8288 98.2308 24.6046C98.2308 24.3803 98.1419 24.1652 97.9837 24.0067C97.8254 23.8481 97.6107 23.759 97.3869 23.759H99.0729C99.187 23.7645 99.301 23.7467 99.408 23.7067C99.5151 23.6667 99.6129 23.6054 99.6955 23.5264C99.7782 23.4475 99.844 23.3525 99.889 23.2473C99.9339 23.1421 99.9571 23.0289 99.9571 22.9145C99.9571 22.8001 99.9339 22.6868 99.889 22.5816C99.844 22.4764 99.7782 22.3815 99.6955 22.3025C99.6129 22.2236 99.5151 22.1622 99.408 22.1223C99.301 22.0823 99.187 22.0645 99.0729 22.0699Z" fill="#417505"/>
<path opacity="0.1" d="M136.98 51.8185H135.775C135.992 51.8081 136.196 51.7146 136.346 51.5574C136.495 51.4001 136.579 51.1912 136.579 50.9739C136.579 50.7567 136.495 50.5477 136.346 50.3905C136.196 50.2332 135.992 50.1397 135.775 50.1294H126.006C125.892 50.1239 125.778 50.1417 125.671 50.1817C125.564 50.2217 125.466 50.283 125.383 50.362C125.301 50.4409 125.235 50.5359 125.19 50.6411C125.145 50.7463 125.122 50.8595 125.122 50.9739C125.122 51.0884 125.145 51.2016 125.19 51.3068C125.235 51.412 125.301 51.5069 125.383 51.5859C125.466 51.6648 125.564 51.7262 125.671 51.7662C125.778 51.8061 125.892 51.8239 126.006 51.8185H127.21C126.994 51.8288 126.789 51.9223 126.64 52.0796C126.49 52.2368 126.407 52.4458 126.407 52.663C126.407 52.8803 126.49 53.0892 126.64 53.2465C126.789 53.4037 126.994 53.4972 127.21 53.5076H125.524C125.301 53.5076 125.086 53.5967 124.928 53.7552C124.769 53.9138 124.68 54.1289 124.68 54.3531C124.68 54.5774 124.769 54.7924 124.928 54.951C125.086 55.1095 125.301 55.1986 125.524 55.1986H135.282C135.506 55.1986 135.721 55.1095 135.879 54.951C136.037 54.7924 136.126 54.5774 136.126 54.3531C136.126 54.1289 136.037 53.9138 135.879 53.7552C135.721 53.5967 135.506 53.5076 135.282 53.5076H136.98C137.094 53.513 137.208 53.4952 137.315 53.4553C137.422 53.4153 137.52 53.354 137.602 53.275C137.685 53.196 137.751 53.1011 137.796 52.9959C137.841 52.8907 137.864 52.7775 137.864 52.663C137.864 52.5486 137.841 52.4354 137.796 52.3302C137.751 52.225 137.685 52.1301 137.602 52.0511C137.52 51.9721 137.422 51.9108 137.315 51.8708C137.208 51.8308 137.094 51.813 136.98 51.8185Z" fill="#417505"/>
<path opacity="0.1" d="M80.81 46.3151H79.6054C79.7195 46.3205 79.8335 46.3027 79.9405 46.2627C80.0476 46.2228 80.1454 46.1614 80.228 46.0825C80.3107 46.0035 80.3765 45.9086 80.4215 45.8034C80.4664 45.6982 80.4896 45.5849 80.4896 45.4705C80.4896 45.3561 80.4664 45.2428 80.4215 45.1377C80.3765 45.0325 80.3107 44.9375 80.228 44.8586C80.1454 44.7796 80.0476 44.7183 79.9405 44.6783C79.8335 44.6383 79.7195 44.6205 79.6054 44.626H69.8439C69.7298 44.6205 69.6158 44.6383 69.5088 44.6783C69.4018 44.7183 69.3039 44.7796 69.2213 44.8586C69.1386 44.9375 69.0728 45.0325 69.0278 45.1377C68.9829 45.2428 68.9597 45.3561 68.9597 45.4705C68.9597 45.5849 68.9829 45.6982 69.0278 45.8034C69.0728 45.9086 69.1386 46.0035 69.2213 46.0825C69.3039 46.1614 69.4018 46.2228 69.5088 46.2627C69.6158 46.3027 69.7298 46.3205 69.8439 46.3151H71.0485C70.9344 46.3096 70.8204 46.3274 70.7134 46.3674C70.6064 46.4074 70.5086 46.4687 70.4259 46.5477C70.3432 46.6266 70.2774 46.7216 70.2324 46.8268C70.1875 46.932 70.1643 47.0452 70.1643 47.1596C70.1643 47.274 70.1875 47.3873 70.2324 47.4925C70.2774 47.5977 70.3432 47.6926 70.4259 47.7716C70.5086 47.8505 70.6064 47.9119 70.7134 47.9518C70.8204 47.9918 70.9344 48.0096 71.0485 48.0042H69.3605C69.1367 48.0042 68.922 48.0932 68.7637 48.2518C68.6055 48.4104 68.5165 48.6254 68.5165 48.8497C68.5165 49.0739 68.6055 49.289 68.7637 49.4475C68.922 49.6061 69.1367 49.6952 69.3605 49.6952H79.1201C79.344 49.6952 79.5586 49.6061 79.7169 49.4475C79.8752 49.289 79.9641 49.0739 79.9641 48.8497C79.9641 48.6254 79.8752 48.4104 79.7169 48.2518C79.5586 48.0932 79.344 48.0042 79.1201 48.0042H80.8062C80.9203 48.0096 81.0343 47.9918 81.1413 47.9518C81.2483 47.9119 81.3461 47.8505 81.4288 47.7716C81.5115 47.6926 81.5773 47.5977 81.6222 47.4925C81.6672 47.3873 81.6904 47.274 81.6904 47.1596C81.6904 47.0452 81.6672 46.932 81.6222 46.8268C81.5773 46.7216 81.5115 46.6266 81.4288 46.5477C81.3461 46.4687 81.2483 46.4074 81.1413 46.3674C81.0343 46.3274 80.9203 46.3096 80.8062 46.3151H80.81Z" fill="#417505"/>
</g>
<defs>
<linearGradient id="paint0_linear" x1="-139116" y1="12593.8" x2="-150328" y2="12593.8" gradientUnits="userSpaceOnUse">
<stop stop-color="#808080" stop-opacity="0.25"/>
<stop offset="0.54" stop-color="#808080" stop-opacity="0.12"/>
<stop offset="1" stop-color="#808080" stop-opacity="0.1"/>
</linearGradient>
<clipPath id="clip0">
<rect width="198" height="160" fill="white"/>
</clipPath>
</defs>
</svg>
