<svg width="28" height="28" viewBox="0 0 28 28" fill="none" xmlns="http://www.w3.org/2000/svg">
<path d="M15.4164 14L22.5941 5.44414C22.7144 5.30195 22.6133 5.08594 22.4273 5.08594H20.2453C20.1168 5.08594 19.9937 5.14336 19.909 5.2418L13.989 12.2992L8.06912 5.2418C7.98708 5.14336 7.86404 5.08594 7.73279 5.08594H5.55076C5.36482 5.08594 5.26365 5.30195 5.38396 5.44414L12.5617 14L5.38396 22.5559C5.35701 22.5876 5.33972 22.6263 5.33414 22.6675C5.32856 22.7088 5.33493 22.7507 5.3525 22.7884C5.37006 22.8262 5.39807 22.858 5.43322 22.8803C5.46836 22.9026 5.50915 22.9143 5.55076 22.9141H7.73279C7.8613 22.9141 7.98435 22.8566 8.06912 22.7582L13.989 15.7008L19.909 22.7582C19.991 22.8566 20.114 22.9141 20.2453 22.9141H22.4273C22.6133 22.9141 22.7144 22.698 22.5941 22.5559L15.4164 14Z" fill="#444444"/>
</svg>
