<svg width="16" height="15" viewBox="0 0 16 15" fill="none" xmlns="http://www.w3.org/2000/svg">
<path d="M3.33337 1.66752C3.33315 2.10955 3.15734 2.53339 2.84462 2.8458C2.5319 3.15821 2.10788 3.33359 1.66585 3.33337C1.22382 3.33315 0.799979 3.15734 0.487572 2.84462C0.175164 2.5319 -0.000220808 2.10788 2.08637e-07 1.66585C0.000221225 1.22382 0.17603 0.799979 0.48875 0.487572C0.801471 0.175164 1.22549 -0.000220808 1.66752 2.08637e-07C2.10955 0.000221225 2.53339 0.17603 2.8458 0.48875C3.15821 0.801471 3.33359 1.22549 3.33337 1.66752ZM3.38337 4.56755H0.0500007V15.001H3.38337V4.56755ZM8.6501 4.56755H5.33339V15.001H8.61676V9.52594C8.61676 6.47591 12.5918 6.19257 12.5918 9.52594V15.001H15.8835V8.39259C15.8835 3.25087 10.0001 3.44254 8.61676 5.96757L8.6501 4.56755Z" fill="#444444"/>
</svg>
