<svg width="26" height="26" viewBox="0 0 26 26" fill="none" xmlns="http://www.w3.org/2000/svg">
<g clip-path="url(#clip0)">
<path d="M25.6363 19.2273C25.6363 19.9827 25.3362 20.7072 24.802 21.2414C24.2678 21.7756 23.5433 22.0757 22.7878 22.0757H2.84848C2.09302 22.0757 1.36849 21.7756 0.834301 21.2414C0.300107 20.7072 0 19.9827 0 19.2273V6.40909C0 5.65362 0.300107 4.9291 0.834301 4.39491C1.36849 3.86071 2.09302 3.56061 2.84848 3.56061H22.7878C23.5433 3.56061 24.2678 3.86071 24.802 4.39491C25.3362 4.9291 25.6363 5.65362 25.6363 6.40909V19.2273Z" fill="#009B3A"/>
<path d="M23.3063 12.8182L12.8182 20.7398L2.33008 12.8182L12.8182 4.89581L23.3063 12.8182Z" fill="#FEDF01"/>
<path d="M12.8011 17.3629C15.341 17.3629 17.4 15.3039 17.4 12.764C17.4 10.2241 15.341 8.16516 12.8011 8.16516C10.2613 8.16516 8.20227 10.2241 8.20227 12.764C8.20227 15.3039 10.2613 17.3629 12.8011 17.3629Z" fill="#002776"/>
<path d="M8.74271 10.6013C8.50385 11.0514 8.3421 11.5384 8.26416 12.042C11.1091 11.8354 14.9702 13.3886 16.6273 15.3141C16.9136 14.884 17.1258 14.4026 17.2561 13.8871C15.2109 11.8874 11.6182 10.5899 8.74271 10.6013Z" fill="#CBE9D4"/>
<path d="M8.54553 12.9841H9.25765V13.6962H8.54553V12.9841ZM9.25765 14.4083H9.96977V15.1204H9.25765V14.4083Z" fill="#88C9F9"/>
<path d="M10.6818 12.9841H11.3939V13.6962H10.6818V12.9841ZM12.106 13.6962H12.8181V14.4083H12.106V13.6962ZM14.9545 15.1204H15.6666V15.8325H14.9545V15.1204ZM12.8181 15.8325H13.5302V16.5447H12.8181V15.8325ZM14.9545 11.5598H15.6666V12.2719H14.9545V11.5598Z" fill="#55ACEE"/>
<path d="M13.5303 14.4083H14.2424V15.1204H13.5303V14.4083Z" fill="#3B88C3"/>
</g>
<defs>
<clipPath id="clip0">
<rect width="25.6363" height="25.6363" fill="white"/>
</clipPath>
</defs>
</svg>
