<svg width="16" height="16" viewBox="0 0 16 16" fill="none" xmlns="http://www.w3.org/2000/svg">
<g id="Group">
<path id="Vector" d="M8 13C9.32608 13 10.5979 12.4732 11.5355 11.5355C12.4732 10.5979 13 9.32608 13 8C13 6.67392 12.4732 5.40215 11.5355 4.46447C10.5979 3.52678 9.32608 3 8 3C6.67392 3 5.40215 3.52678 4.46447 4.46447C3.52678 5.40215 3 6.67392 3 8C3 9.32608 3.52678 10.5979 4.46447 11.5355C5.40215 12.4732 6.67392 13 8 13Z" fill="#417505"/>
<path id="Vector_2" d="M8 0C5.87827 0 3.84344 0.842855 2.34315 2.34315C0.842855 3.84344 0 5.87827 0 8C0 10.1217 0.842855 12.1566 2.34315 13.6569C3.84344 15.1571 5.87827 16 8 16C10.1217 16 12.1566 15.1571 13.6569 13.6569C15.1571 12.1566 16 10.1217 16 8C16 5.87827 15.1571 3.84344 13.6569 2.34315C12.1566 0.842855 10.1217 0 8 0ZM1 8C1 7.08075 1.18106 6.1705 1.53284 5.32122C1.88463 4.47194 2.40024 3.70026 3.05025 3.05025C3.70026 2.40024 4.47194 1.88463 5.32122 1.53284C6.1705 1.18106 7.08075 1 8 1C8.91925 1 9.8295 1.18106 10.6788 1.53284C11.5281 1.88463 12.2997 2.40024 12.9497 3.05025C13.5998 3.70026 14.1154 4.47194 14.4672 5.32122C14.8189 6.1705 15 7.08075 15 8C15 9.85652 14.2625 11.637 12.9497 12.9497C11.637 14.2625 9.85652 15 8 15C6.14348 15 4.36301 14.2625 3.05025 12.9497C1.7375 11.637 1 9.85652 1 8Z" fill="#417505"/>
</g>
</svg>
