<svg width="16" height="15" viewBox="0 0 16 15" fill="none" xmlns="http://www.w3.org/2000/svg">
<path d="M15.8422 13.3541C13.4952 9.06664 11.1472 4.77914 8.79971 0.491645C8.72142 0.343264 8.60413 0.219061 8.46047 0.132424C8.3168 0.0457862 8.15222 0 7.98446 0C7.81669 0 7.65211 0.0457862 7.50844 0.132424C7.36478 0.219061 7.24749 0.343264 7.16921 0.491645C4.82196 4.77914 2.47271 9.06664 0.126706 13.3541C-0.236544 14.0164 0.226456 14.8749 0.941206 14.8749H15.0287C15.4247 14.8749 15.6907 14.6616 15.8295 14.3724C16.004 14.0969 16.0507 13.7311 15.8432 13.3536" fill="#FFDD15"/>
<path d="M7.22894 8.5934L7.00669 5.2779C6.96519 4.63215 6.94519 4.16815 6.94519 3.88665C6.94519 3.50315 7.04519 3.2049 7.24569 2.98965C7.44694 2.77565 7.71144 2.66815 8.03944 2.66815C8.43519 2.66815 8.70094 2.8059 8.83394 3.07965C8.96819 3.35515 9.03619 3.75065 9.03619 4.2674C9.03619 4.57115 9.01969 4.88065 8.98669 5.1944L8.68919 8.60665C8.65694 9.01315 8.58819 9.32465 8.48244 9.5414C8.37594 9.75915 8.20044 9.86665 7.95519 9.86665C7.70719 9.86665 7.53269 9.7619 7.43719 9.5524C7.33894 9.34215 7.27019 9.0224 7.22894 8.5934ZM7.99694 13.1477C7.71569 13.1477 7.47044 13.0572 7.26019 12.8744C7.04994 12.6924 6.94519 12.4374 6.94519 12.1099C6.94519 11.8242 7.04519 11.5799 7.24569 11.3797C7.44694 11.1782 7.69219 11.0782 7.98344 11.0782C8.27469 11.0782 8.52169 11.1782 8.72769 11.3797C8.93144 11.5799 9.03619 11.8242 9.03619 12.1099C9.03619 12.4324 8.93144 12.6869 8.72469 12.8709C8.52593 13.052 8.26583 13.1509 7.99694 13.1477Z" fill="#1F2E35"/>
</svg>
