<svg width="21" height="15" viewBox="0 0 21 15" fill="none" xmlns="http://www.w3.org/2000/svg">
<path d="M21 7.43536C21 7.38458 21 7.32687 20.9977 7.25993C20.9953 7.07295 20.9906 6.86288 20.9859 6.63897C20.9672 5.99492 20.9344 5.35318 20.8828 4.74838C20.8125 3.91505 20.7094 3.22022 20.5687 2.69852C20.4204 2.15408 20.1295 1.65755 19.7252 1.25853C19.3209 0.859521 18.8173 0.572013 18.2648 0.424746C17.6016 0.249307 16.3031 0.140812 14.475 0.0738688C13.6055 0.0415512 12.675 0.0207755 11.7445 0.00923347C11.4187 0.00461666 11.1164 0.0023084 10.8445 0H10.1555C9.88359 0.0023084 9.58125 0.00461666 9.25547 0.00923347C8.325 0.0207755 7.39453 0.0415512 6.525 0.0738688C4.69687 0.143121 3.39609 0.251616 2.73516 0.424746C2.1825 0.571651 1.67876 0.859038 1.2744 1.25811C0.870044 1.65717 0.579282 2.15391 0.43125 2.69852C0.288281 3.22022 0.1875 3.91505 0.117188 4.74838C0.065625 5.35318 0.0328125 5.99492 0.0140625 6.63897C0.00703121 6.86288 0.00468746 7.07295 0.00234371 7.25993C0.00234371 7.32687 0 7.38458 0 7.43536V7.56463C0 7.61542 -3.57977e-08 7.67313 0.00234371 7.74007C0.00468746 7.92705 0.00937496 8.13712 0.0140625 8.36103C0.0328125 9.00508 0.065625 9.64681 0.117188 10.2516C0.1875 11.0849 0.290625 11.7798 0.43125 12.3015C0.73125 13.4072 1.6125 14.2798 2.73516 14.5753C3.39609 14.7507 4.69687 14.8592 6.525 14.9261C7.39453 14.9584 8.325 14.9792 9.25547 14.9908C9.58125 14.9954 9.88359 14.9977 10.1555 15H10.8445C11.1164 14.9977 11.4187 14.9954 11.7445 14.9908C12.675 14.9792 13.6055 14.9584 14.475 14.9261C16.3031 14.8569 17.6039 14.7484 18.2648 14.5753C19.3875 14.2798 20.2687 13.4095 20.5687 12.3015C20.7117 11.7798 20.8125 11.0849 20.8828 10.2516C20.9344 9.64681 20.9672 9.00508 20.9859 8.36103C20.993 8.13712 20.9953 7.92705 20.9977 7.74007C20.9977 7.67313 21 7.61542 21 7.56463V7.43536ZM19.3125 7.5554C19.3125 7.60388 19.3125 7.65697 19.3102 7.7193C19.3078 7.89935 19.3031 8.09788 19.2984 8.31256C19.282 8.92659 19.2492 9.54063 19.2 10.1108C19.1367 10.8541 19.0477 11.4635 18.9375 11.8721C18.7922 12.4054 18.3656 12.8278 17.8266 12.9686C17.3344 13.0979 16.0945 13.2018 14.4094 13.2641C13.5562 13.2964 12.6375 13.3172 11.7211 13.3287C11.4 13.3333 11.1023 13.3356 10.8352 13.3356H10.1648L9.27891 13.3287C8.3625 13.3172 7.44609 13.2964 6.59063 13.2641C4.90547 13.1994 3.66328 13.0979 3.17344 12.9686C2.63437 12.8255 2.20781 12.4054 2.0625 11.8721C1.95234 11.4635 1.86328 10.8541 1.8 10.1108C1.75078 9.54063 1.72031 8.92659 1.70156 8.31256C1.69453 8.09788 1.69219 7.89704 1.68984 7.7193C1.68984 7.65697 1.6875 7.60157 1.6875 7.5554V7.4446C1.6875 7.39612 1.6875 7.34303 1.68984 7.2807C1.69219 7.10065 1.69688 6.90212 1.70156 6.68744C1.71797 6.07341 1.75078 5.45937 1.8 4.8892C1.86328 4.14589 1.95234 3.53647 2.0625 3.12789C2.20781 2.59464 2.63437 2.17221 3.17344 2.03139C3.66562 1.90212 4.90547 1.79825 6.59063 1.73592C7.44375 1.7036 8.3625 1.68283 9.27891 1.67128C9.6 1.66667 9.89766 1.66436 10.1648 1.66436H10.8352L11.7211 1.67128C12.6375 1.68283 13.5539 1.7036 14.4094 1.73592C16.0945 1.80055 17.3367 1.90212 17.8266 2.03139C18.3656 2.17452 18.7922 2.59464 18.9375 3.12789C19.0477 3.53647 19.1367 4.14589 19.2 4.8892C19.2492 5.45937 19.2797 6.07341 19.2984 6.68744C19.3055 6.90212 19.3078 7.10295 19.3102 7.2807C19.3102 7.34303 19.3125 7.39843 19.3125 7.4446V7.5554ZM8.41406 10.5933L13.8516 7.47692L8.41406 4.40674V10.5933Z" fill="#444444"/>
</svg>
