<svg id="Camada_1" data-name="Camada 1" xmlns="http://www.w3.org/2000/svg" viewBox="0 0 1388.29 1388.29"><defs><style>.cls-1{fill:#ff8c00;}.cls-2{fill:#f4d0a8;}.cls-3{fill:#2b75bf;}.cls-4{fill:#3b84db;}.cls-5{fill:#332727;}.cls-6{fill:#073c29;}.cls-7{fill:#e1eae6;}</style></defs><path class="cls-1" d="M527.44,1043.59c-4.43-3.28-7.72-10.81-10.28-15.67-6.11-11.59-9.16-24.66-10.84-37.57-.39-3-2.3-46.6-1.53-48.65H423.51c.83,2.38-.79,45.76-1.18,48.77-1.71,13.1-4.85,26.38-11.15,38.08-2.57,4.77-6.42,12.1-11.19,15Z"/><ellipse class="cls-2" cx="464.15" cy="941.7" rx="40.64" ry="6.58"/><path class="cls-1" d="M527.44,1043.59c0,1.4-28.53,5.07-63.72,5.07S400,1045,400,1043.59s28.53-2.54,63.73-2.54S527.44,1042.19,527.44,1043.59Z"/><path class="cls-1" d="M1019.78,1043.59c-4.43-3.28-7.72-10.81-10.28-15.67-6.11-11.59-9.16-24.66-10.84-37.57-.39-3-2.3-46.6-1.53-48.65H915.85c.83,2.38-.79,45.76-1.18,48.77-1.71,13.1-4.85,26.38-11.15,38.08-2.57,4.77-6.42,12.1-11.19,15Z"/><ellipse class="cls-2" cx="956.49" cy="941.7" rx="40.64" ry="6.58"/><path class="cls-1" d="M1019.78,1043.59c0,1.4-28.53,5.07-63.72,5.07s-63.73-3.67-63.73-5.07,28.53-2.54,63.73-2.54S1019.78,1042.19,1019.78,1043.59Z"/><path class="cls-1" d="M678.89,1044.49c-3.64-2.7-6.35-8.89-8.46-12.88-5-9.53-7.53-20.28-8.9-30.9-.32-2.46-1.9-38.31-1.26-40H593.43c.68,2-.65,37.63-1,40.1-1.41,10.77-4,21.69-9.17,31.31-2.12,3.92-5.28,10-9.2,12.37Z"/><ellipse class="cls-2" cx="626.85" cy="960.71" rx="33.42" ry="5.41"/><path class="cls-1" d="M678.89,1044.49c0,1.15-23.46,4.17-52.4,4.17s-52.4-3-52.4-4.17,23.46-2.09,52.4-2.09S678.89,1043.34,678.89,1044.49Z"/><path class="cls-1" d="M1254.17,1044.49c-3.64-2.7-6.35-8.89-8.46-12.88-5-9.53-7.53-20.28-8.9-30.9-.32-2.46-1.9-38.31-1.26-40h-66.84c.69,2-.65,37.63-1,40.1-1.41,10.77-4,21.69-9.17,31.31-2.11,3.92-5.28,10-9.2,12.37Z"/><ellipse class="cls-2" cx="1202.13" cy="960.71" rx="33.42" ry="5.41"/><path class="cls-1" d="M1254.17,1044.49c0,1.15-23.46,4.17-52.4,4.17s-52.4-3-52.4-4.17,23.46-2.09,52.4-2.09S1254.17,1043.34,1254.17,1044.49Z"/><path class="cls-1" d="M911,1044.49c-3.65-2.7-6.36-8.89-8.46-12.88-5-9.53-7.53-20.28-8.91-30.9-.32-2.46-1.89-38.31-1.26-40H825.49c.69,2-.65,37.63-1,40.1-1.4,10.77-4,21.69-9.17,31.31-2.11,3.92-5.28,10-9.2,12.37Z"/><ellipse class="cls-2" cx="858.91" cy="960.71" rx="33.42" ry="5.41"/><path class="cls-1" d="M911,1044.49c0,1.15-23.47,4.17-52.41,4.17s-52.4-3-52.4-4.17,23.46-2.09,52.4-2.09S911,1043.34,911,1044.49Z"/><path class="cls-1" d="M378.82,1044.49c-3.64-2.7-6.35-8.89-8.45-12.88-5-9.53-7.54-20.28-8.91-30.9-.32-2.46-1.89-38.31-1.26-40H293.36c.69,2-.65,37.63-1,40.1-1.41,10.77-4,21.69-9.17,31.31-2.11,3.92-5.28,10-9.2,12.37Z"/><ellipse class="cls-2" cx="326.78" cy="960.71" rx="33.42" ry="5.41"/><path class="cls-1" d="M378.82,1044.49c0,1.15-23.46,4.17-52.4,4.17s-52.4-3-52.4-4.17,23.46-2.09,52.4-2.09S378.82,1043.34,378.82,1044.49Z"/><path class="cls-1" d="M228.54,1044.49c-3.65-2.7-6.36-8.89-8.46-12.88-5-9.53-7.53-20.28-8.91-30.9-.32-2.46-1.89-38.31-1.26-40H143.08c.68,2-.66,37.63-1,40.1-1.4,10.77-4,21.69-9.17,31.31-2.11,3.92-5.28,10-9.19,12.37Z"/><ellipse class="cls-2" cx="176.49" cy="960.71" rx="33.42" ry="5.41"/><path class="cls-1" d="M228.54,1044.49c0,1.15-23.46,4.17-52.4,4.17s-52.4-3-52.4-4.17,23.46-2.09,52.4-2.09S228.54,1043.34,228.54,1044.49Z"/><path class="cls-1" d="M1120.12,1044.49c-3.65-2.7-6.36-8.89-8.46-12.88-5-9.53-7.53-20.28-8.91-30.9-.32-2.46-1.89-38.31-1.26-40h-66.84c.69,2-.65,37.63-1,40.1-1.4,10.77-4,21.69-9.17,31.31-2.11,3.92-5.28,10-9.2,12.37Z"/><ellipse class="cls-2" cx="1068.07" cy="960.71" rx="33.42" ry="5.41"/><path class="cls-1" d="M1120.12,1044.49c0,1.15-23.47,4.17-52.41,4.17s-52.4-3-52.4-4.17,23.46-2.09,52.4-2.09S1120.12,1043.34,1120.12,1044.49Z"/><path class="cls-1" d="M1286.09,1044.49c-3.64-2.7-6.35-8.89-8.46-12.88-5-9.53-7.53-20.28-8.9-30.9-.32-2.46-1.9-38.31-1.26-40h-66.84c.69,2-.65,37.63-1,40.1-1.41,10.77-4,21.69-9.17,31.31-2.11,3.92-5.28,10-9.2,12.37Z"/><ellipse class="cls-2" cx="1234.05" cy="960.71" rx="33.42" ry="5.41"/><path class="cls-1" d="M1286.09,1044.49c0,1.15-23.46,4.17-52.4,4.17s-52.4-3-52.4-4.17,23.46-2.09,52.4-2.09S1286.09,1043.34,1286.09,1044.49Z"/><polygon class="cls-3" points="944.75 594.96 794.25 632.77 796.87 641.75 943.34 604.88 944.75 594.96"/><path class="cls-4" d="M896.56,1017.85H623.48s-48.72.75-55.52-55.15S617.37,761,617.37,761s9.51-22.5,39-7.2c23,11.92,202.83,97.44,202.83,97.44s29.46,9.46,41.92,94.25S896.56,1017.85,896.56,1017.85Z"/><polygon class="cls-5" points="574.76 748.51 557.01 729.18 507.15 729.18 478.35 760.43 571.36 858.84 592.53 764.41 574.76 748.51"/><polygon class="cls-5" points="369.95 775.3 339.07 664.7 322.83 664.7 346.39 744.01 322.83 775.3 369.95 775.3"/><polygon class="cls-4" points="612.45 774.25 592.53 774.25 585.71 782.54 557.76 872.43 489.9 872.43 399.13 810.49 283.55 812.76 279.78 970.89 623.48 970.89 612.45 774.25"/><circle class="cls-5" cx="339.08" cy="960.06" r="124.64"/><circle class="cls-1" cx="339.08" cy="960.06" r="75.92"/><circle class="cls-4" cx="339.08" cy="962.7" r="21.53"/><path class="cls-3" d="M493.18,922.67h92.91s18.7-2.84,12.47,22.86c-6.12,25.23-14.73,62-14.73,62s-1.1,9.3-16.41,10.92-57.25,0-57.25,0-10.19,3.72-17-10.92-14.73-66.39-14.73-66.39S476.18,922.67,493.18,922.67Z"/><path class="cls-3" d="M1011,623.53,720.93,696.05s-18.13,2.26-38.53,23.79-26.06,34-26.06,34L701.67,776l32.39-34.51A15,15,0,0,1,739.8,738L1011,649.59Z"/><path class="cls-3" d="M567.42,569.14S564.56,551,545.3,551H317.55s-14.73,1.13-17,18.13Z"/><path class="cls-4" d="M1156,758.37l-83.85-249.28s-17-10.2-23.79,21.52c-5.19,24.2-37.4,92.92-37.4,92.92s-30.59,58.92,35.13,90.65S1156,758.37,1156,758.37Z"/><path class="cls-3" d="M1072.19,509.09,1096,517l77,236.82,27.19,15.86s1.13,5.71-11.33,4.55S1156,758.37,1156,758.37Z"/><path class="cls-6" d="M938.13,641.75l6-42.58s-.57-9.07,11.33-9.07H1026L1019.93,604l-53.68-.25s-10.49-1.7-11.62,8.07l-4.15,26.89Z"/><circle class="cls-6" cx="693.74" cy="664.7" r="9.82"/><polygon class="cls-6" points="703.56 664.7 720.93 696.05 682.4 719.84 683.92 664.7 703.56 664.7"/><polygon class="cls-6" points="701.67 667.98 805.26 640.6 801.91 629.74 689.69 656.93 701.67 667.98"/><path class="cls-6" d="M599.83,875.08l87.11-63.46L697.89,826l-87.63,61.56S599.83,897,594,890.81C588.66,883.46,599.83,875.08,599.83,875.08Z"/><polygon class="cls-5" points="859.84 698.89 694.83 821.96 689.69 815.23 836.81 706.4 859.84 698.89"/><path class="cls-4" d="M592.89,735.71,545.3,569.14H322.08S268.82,752.7,268.82,774.25,279,799.16,279,799.16l60.06,6.8,60.05,4.53,90.77,78.73,55.4-.55c23.79.55,27.08-16.72,27.08-16.72s13.71-50.13,20.51-80.72S592.89,735.71,592.89,735.71Zm-237.95,38.7c-14.73,2.09-64.59-.16-64.59-.16s-7.93-3.42-5.66-15.88,44.19-167.7,44.19-167.7,1.86-11.33,11.69-11.33h49.5s8.74-.82,6.79,11.33L370,758.37S369.67,772.31,354.94,774.41ZM554,852.26c1.51,10.8-10.58,12.62-10.58,12.62h-61c-39.84-65.72-83.28-72.52-92.34-79.32s0-18.13,0-18.13H574.76ZM390.07,748.51l27.16-168h88.39c22.66,0,23.79,9.06,23.79,9.06l45.35,159Z"/><path class="cls-7" d="M884.71,883.5H859.84s17.46,45.59,16.7,100.73h29.12"/><path class="cls-3" d="M739.82,904.9S738.3,866.33,727.73,849h-54V978.29"/><path class="cls-3" d="M486.38,883.9s-53.26-71.14-94.05-84.74H279L250.69,815s-5.09,17.57,12.47,13l20.39-15.29L385,814.46s25.49,9.06,84.41,76.48c0,0,7.37,11.33,17,6.8C494.31,889.24,486.38,883.9,486.38,883.9Z"/><circle class="cls-5" cx="761.73" cy="992.93" r="88.03"/><circle class="cls-1" cx="761.73" cy="992.93" r="47.4"/><circle class="cls-4" cx="761.73" cy="992.93" r="14.64"/></svg>