<svg width="64" height="60" viewBox="0 0 64 60" fill="none" xmlns="http://www.w3.org/2000/svg">
<g id="logo">
<path id="logo_2" fill-rule="evenodd" clip-rule="evenodd" d="M39.4063 27.9216C39.2484 28.4079 39.0905 28.8943 38.8223 29.2704C38.5813 28.9648 38.4311 28.574 38.2906 28.2086C38.2737 28.1645 38.2569 28.1208 38.2401 28.0776C38.1767 27.9108 38.1179 27.7427 38.0591 27.5749L38.0591 27.5748L38.0591 27.5747L38.059 27.5746C38.0055 27.4216 37.952 27.2689 37.8954 27.1179L37.8734 27.0586C37.5043 26.0644 36.1843 22.5084 34.7725 24.1875C34.3064 24.7412 33.9305 25.3626 33.5553 25.9827L33.5546 25.9839C33.5119 26.0545 33.4692 26.1251 33.4264 26.1956C33.4042 26.2327 33.3675 26.2887 33.3223 26.3575L33.322 26.358L33.3218 26.3582C33.0917 26.7086 32.6426 27.3926 32.7672 27.6398C32.171 26.4523 31.3598 25.3495 30.5403 24.2353C28.8278 21.907 27.0787 19.5291 27.178 16.2253C27.244 16.3587 27.2929 16.5092 27.3416 16.659L27.3416 16.659C27.3753 16.7629 27.409 16.8664 27.4481 16.9636C27.5899 17.3154 27.7112 17.6742 27.816 18.0398C27.8266 18.0763 27.8366 18.1192 27.8474 18.1653C27.896 18.3728 27.9601 18.6467 28.1583 18.7038C28.4727 18.7923 28.9145 18.368 29.2295 18.0654L29.2295 18.0654L29.2295 18.0654C29.3206 17.9779 29.4011 17.9006 29.4648 17.8488C29.5857 17.7507 29.7055 17.6498 29.8256 17.5486C30.33 17.1236 30.8395 16.6943 31.4584 16.4533C31.845 16.3045 32.2595 16.2391 32.6716 16.2834C32.7626 16.2928 33.5288 16.4955 33.8177 16.612C33.8272 16.6157 33.8384 16.6216 33.8506 16.628C33.8919 16.6496 33.9442 16.677 33.9782 16.6446C34.0048 16.6221 33.9972 16.5723 33.9919 16.5368L33.9899 16.5234C33.9643 16.3394 33.8779 16.1716 33.708 16.0901C33.5614 16.0206 33.3881 16.0043 33.2188 15.9884C33.1327 15.9803 33.0476 15.9723 32.9676 15.9574C32.8605 15.9386 32.744 15.9037 32.6599 15.8315C32.6203 15.7966 32.588 15.7523 32.5669 15.7033C32.5367 15.6335 32.525 15.5869 32.5646 15.5194C32.5948 15.468 32.637 15.4169 32.681 15.375C32.744 15.3119 32.8254 15.2749 32.9069 15.2421C33.2935 15.086 33.671 14.9859 34.0853 14.9393C34.4766 14.8952 34.8934 14.8835 35.2732 15.007C35.3173 15.0161 35.5874 15.1373 35.7203 15.2142C35.7995 15.2608 36.0975 15.4122 36.0952 15.3541C36.0696 14.9718 35.6643 14.7949 35.3545 14.6831C35.1474 14.6079 34.931 14.5965 34.7166 14.5852C34.4995 14.5737 34.2845 14.5624 34.0829 14.4851C34.0604 14.4765 34.036 14.468 34.0108 14.4592C33.9188 14.427 33.8153 14.3908 33.7476 14.336L33.7342 14.3253C33.6912 14.2917 33.6152 14.2322 33.6567 14.1822C33.6822 14.152 33.8083 14.0983 33.8456 14.0866C33.9673 14.052 34.0875 14.0121 34.2077 13.9723L34.2077 13.9722C34.3865 13.9129 34.5653 13.8536 34.7491 13.8117C34.9452 13.7667 35.1401 13.764 35.3362 13.7612H35.3363C35.4244 13.7599 35.5127 13.7587 35.6015 13.7536C35.6911 13.7479 35.7784 13.758 35.8652 13.7681C35.9543 13.7784 36.0428 13.7887 36.1324 13.7817L36.1439 13.7811C36.1858 13.7791 36.2321 13.7769 36.228 13.7257C36.2257 13.6861 36.1814 13.6418 36.1512 13.6209C35.7676 13.3172 35.2335 13.3767 34.7615 13.4292C34.6831 13.4379 34.6064 13.4465 34.5323 13.4531C34.5187 13.4542 34.4884 13.4577 34.4468 13.4627L34.4466 13.4627L34.4465 13.4627C34.2114 13.4906 33.6162 13.561 33.6241 13.4601C33.6358 13.3296 33.757 13.2644 33.8641 13.2178C33.8851 13.2081 33.9065 13.1992 33.9277 13.1904L33.9277 13.1904C33.9675 13.1739 34.0069 13.1575 34.0433 13.1362C34.0876 13.1107 34.097 13.064 34.0829 13.0153C34.0698 12.9717 34.0443 12.9742 34.0053 12.9779C33.9962 12.9788 33.9864 12.9797 33.9758 12.9801C33.899 12.9801 33.8221 13.0083 33.7453 13.0385C33.539 13.1139 33.3455 13.2164 33.1517 13.319L33.07 13.3622C32.5253 13.6473 32.0246 14.0054 31.5256 14.3623C31.3761 14.4692 31.2268 14.576 31.0764 14.6808C30.9274 14.7855 29.0714 15.8826 29.041 15.7594C28.4845 13.5112 28.3563 11.5917 30.2055 10.8672C30.5963 10.7142 31.1528 10.7707 31.7442 10.8308C32.2417 10.8813 32.7639 10.9343 33.2331 10.8672C35.5385 10.5412 40.089 8.8338 40.6854 8.07185C42.8956 5.24857 34.1483 2.46724 32.0685 2.48107C30.8761 2.4881 30.0075 2.78857 29.3111 3.23365C28.5541 3.72054 28.0022 4.38206 27.4598 5.03218C26.7307 5.90613 26.0188 6.75946 24.8489 7.14021C24.8401 7.10441 24.8377 7.06489 24.8354 7.02579C24.8341 7.0037 24.8328 6.98174 24.8304 6.96068C24.7837 6.49497 24.7465 6.01732 24.8444 5.55607C24.9304 5.1438 25.1355 4.77818 25.4265 4.47747C25.7341 4.16294 26.1114 3.91849 26.5024 3.72044C26.9242 3.50857 27.3689 3.34755 27.8251 3.22662C28.0604 3.16357 28.3005 3.11247 28.5402 3.06818C28.6614 3.04474 28.7823 3.02388 28.906 3.00302C28.9478 2.99628 28.9884 2.9835 29.0287 2.97083L29.0287 2.97083C29.0445 2.96587 29.0602 2.96093 29.0759 2.95638C29.0866 2.95322 29.1039 2.95159 29.1234 2.94976C29.1762 2.94479 29.2454 2.93829 29.2437 2.89568C29.2437 2.86779 29.1809 2.82115 29.1574 2.80732C29.111 2.77685 29.0548 2.75599 29.0014 2.74685C28.8238 2.71252 28.6421 2.72191 28.461 2.73126C28.3714 2.73589 28.2819 2.74052 28.1932 2.73982L28.1785 2.73928C28.1133 2.73691 28.0463 2.73447 27.9812 2.72576C27.8556 2.70724 27.7042 2.6606 27.6646 2.52537C27.6331 2.41326 27.6915 2.31756 27.7483 2.22454C27.7587 2.20748 27.769 2.19052 27.7787 2.17357C27.8392 2.06646 27.9186 1.96872 28.0208 1.89654C28.2096 1.76833 28.4425 1.71466 28.6637 1.67271C28.9177 1.6263 29.1762 1.60052 29.4323 1.57966C29.4915 1.57548 29.5508 1.57176 29.6099 1.56805C29.816 1.55512 30.0214 1.54223 30.224 1.50982C30.3452 1.49107 30.464 1.46552 30.5804 1.4306C30.5904 1.42734 30.6049 1.42341 30.6221 1.41875L30.6221 1.41874C30.7285 1.3899 30.9378 1.33316 30.8297 1.2349C30.7901 1.20232 30.7388 1.16974 30.6922 1.15099C30.6013 1.11138 30.5035 1.09052 30.4082 1.07646C30.0243 1.02109 29.6208 1.06712 29.2355 1.11109L29.1295 1.1231C29.0902 1.12721 29.0508 1.1318 29.0113 1.13639C28.8729 1.15248 28.7338 1.16865 28.596 1.16482C28.4796 1.16271 28.2727 1.13482 28.3936 0.990209C28.4634 0.906303 28.5473 0.82474 28.6429 0.768959C28.8568 0.639286 29.1092 0.573141 29.3513 0.509685C29.3831 0.501344 29.4147 0.493049 29.4461 0.484662L29.5111 0.46675C29.6309 0.433898 29.7486 0.401611 29.8632 0.35435C29.9034 0.338134 29.9426 0.317544 29.9814 0.297157C29.9987 0.288077 30.0159 0.279038 30.0331 0.270444L30.0519 0.261262C30.1273 0.224961 30.2711 0.155658 30.1495 0.0979435C30.0887 0.0686316 30.0192 0.0522421 29.9512 0.0362217C29.9334 0.0320027 29.9156 0.0278093 29.8981 0.0234123C29.7884 -0.00213461 29.672 -0.00682211 29.5581 0.00958414C29.3158 0.0421623 29.0806 0.121381 28.8523 0.205287C28.7591 0.239697 28.6822 0.292107 28.6056 0.34434C28.5215 0.401687 28.4377 0.458822 28.3329 0.491694C28.3196 0.495924 28.2764 0.526072 28.2216 0.564325C28.0942 0.653232 27.904 0.785919 27.8814 0.738725C27.8648 0.702117 28.0765 0.456001 28.1796 0.33606L28.1797 0.336029L28.1797 0.335983C28.2079 0.303152 28.228 0.27979 28.2331 0.272787L28.2418 0.260245C28.2776 0.209127 28.369 0.0788737 28.3097 0.0491935C28.2701 0.0304435 28.1677 0.0723967 28.1328 0.0909123C28.0489 0.137553 27.9791 0.212319 27.921 0.289194C27.8875 0.332243 27.8577 0.377669 27.8278 0.423069L27.8278 0.423083L27.8278 0.423093C27.7788 0.497809 27.7298 0.572451 27.6646 0.636303C27.3163 0.975088 26.953 1.29751 26.5892 1.62038L26.5892 1.62044L26.5888 1.62078L26.5884 1.62112C26.5 1.69961 26.4115 1.77814 26.3232 1.85693C25.8785 2.25747 25.4335 2.66294 25.0328 3.11013C24.7252 3.45058 24.2778 3.80181 23.8196 4.1615L23.8196 4.16152C23.3277 4.54767 22.8234 4.94356 22.4664 5.3463C22.32 5.51211 22.301 5.70754 22.2811 5.91208C22.2767 5.95764 22.2722 6.00366 22.2663 6.0499C22.1196 7.19833 21.8263 8.2863 21.449 9.37638C21.0833 10.4365 20.6943 11.4846 20.2775 12.5236C19.863 13.5602 19.4555 14.6015 19.1038 15.6616C18.7474 16.7353 18.4538 17.8301 18.2654 18.9483C18.0698 20.1225 18.0114 21.3267 18.0953 22.515C18.4918 28.172 21.9225 31.0901 25.4462 34.0873L25.4464 34.0874C26.1043 34.6471 26.7656 35.2095 27.4109 35.793C27.3335 36.0281 27.2152 36.2224 27.097 36.4166C26.8627 36.8016 26.6284 37.1866 26.7119 37.8895C27.1251 38.7139 27.8413 39.4772 28.5384 40.2202C29.4171 41.1568 30.2655 42.061 30.4384 43.0146C30.1498 43.0245 29.8461 43.0192 29.5423 43.0139C28.4241 42.9945 27.3058 42.9751 26.945 43.7133C27.2203 43.8576 27.4528 43.7092 27.6421 43.5883C27.85 43.4557 28.0059 43.3561 28.1093 43.7133C28.0955 43.6669 26.2044 44.6871 26.0369 44.8083C25.7224 45.0365 25.4173 45.2906 25.161 45.5838C25.0377 45.7261 24.481 46.4133 24.8908 46.3924C25.0397 46.3856 25.2317 46.2374 25.3916 46.114C25.4518 46.0675 25.5075 46.0246 25.5546 45.994C25.7319 45.8794 25.9052 45.7602 26.0784 45.641L26.0785 45.641L26.0787 45.6408C26.2261 45.5394 26.3736 45.4379 26.5235 45.3394L26.5683 45.3099C27.078 44.974 27.7111 44.5568 28.3423 44.6451C28.1908 44.6241 27.7768 44.9492 27.5014 45.1655L27.5013 45.1655C27.4082 45.2387 27.3309 45.2994 27.285 45.33C26.1346 46.0917 24.6837 47.2915 24.4414 48.7497C24.6464 48.8079 24.9468 48.7333 25.1052 48.5843C25.355 48.3483 25.6059 48.0766 25.8679 47.7929C26.881 46.6957 28.0593 45.4198 29.9724 45.344C29.875 45.3479 29.6423 45.7932 29.5262 46.0154C29.5009 46.0637 29.4812 46.1015 29.4695 46.1219C29.3346 46.3619 28.9805 47.1679 29.5581 46.7067C29.6994 46.5952 29.7898 46.4388 29.8801 46.2828C29.9594 46.1457 30.0385 46.0088 30.1518 45.903C30.5221 45.5583 30.9089 45.2252 31.356 44.9899C31.7306 44.7921 32.1688 44.6801 32.5786 44.587C32.6424 44.5719 32.7135 44.5588 32.7881 44.5451C33.0591 44.4951 33.3752 44.4368 33.5452 44.2467C33.8509 43.9047 33.5214 43.3341 33.3109 42.9694L33.3107 42.9691L33.31 42.9679C33.29 42.9333 33.2711 42.9005 33.2539 42.87C32.9025 42.2463 32.4491 41.7066 31.9936 41.1645C31.7788 40.9088 31.5635 40.6526 31.3583 40.3868C31.0577 40.0001 30.7829 39.5831 30.6106 39.1219C30.5244 38.8936 30.4616 38.6583 30.4335 38.4159C30.429 38.3801 30.4342 38.2584 30.4401 38.1226C30.4491 37.9146 30.4595 37.6734 30.4384 37.6565C30.7018 37.8618 30.9719 38.0693 31.2463 38.28L31.2463 38.2801C34.6423 40.8882 38.6687 43.9804 38.1236 49.3043C37.7044 53.3948 33.9571 57.1312 29.5068 57.2245C24.7374 57.3246 22.0008 54.4732 20.657 51.4008C20.5957 51.26 20.5364 51.0127 20.467 50.7233C20.2229 49.7051 19.854 48.166 18.8313 48.915C18.2605 49.3322 18.4611 51.0162 18.5749 51.6267C18.8334 52.987 19.5811 54.2798 20.4241 55.3587C22.7251 58.3099 27.3804 60.4601 31.3698 59.7869C40.6247 58.2262 44.0529 47.5851 39.0553 39.5201C38.6242 38.8246 38.0947 38.1307 37.5609 37.4313C35.5275 34.7669 33.4331 32.0226 36.4935 28.8047C36.8312 29.7152 37.1969 30.6309 37.8092 31.3947C38.0955 31.7489 39.4929 33.149 39.7399 32.0193C39.9077 31.248 40.5176 30.7029 41.1465 30.2861C41.4618 30.0785 41.7905 29.8942 42.1189 29.7102L42.2178 29.6547C42.263 29.6292 42.3107 29.6031 42.3599 29.5762C42.6197 29.4341 42.9185 29.2708 43.0887 29.0512C42.8922 28.7951 42.3292 29.0505 41.9956 29.2018L41.9955 29.2018C41.9259 29.2334 41.8662 29.2605 41.822 29.2774L41.8087 29.2824C41.7119 29.3189 41.3091 29.4709 41.3841 29.2704C41.419 29.1726 41.4609 29.0796 41.5052 28.9861C41.6704 28.6368 41.8895 28.3176 42.1526 28.0336C43.0121 27.1064 44.3835 26.3027 45.5363 25.8042C45.6176 25.7694 45.7073 25.7377 45.7995 25.7052C46.1147 25.5939 46.4579 25.4728 46.5821 25.1843C46.1969 24.9993 45.6447 25.208 45.2414 25.3604C45.2082 25.3729 45.176 25.3851 45.145 25.3966C44.6094 25.5968 44.1042 25.86 43.6175 26.156C42.7487 26.6847 41.8567 27.2484 41.0209 27.8261C41.1771 27.7181 41.3691 27.4487 41.5416 27.2065C41.6442 27.0625 41.7399 26.9282 41.8171 26.8432C42.0547 26.5844 42.2993 26.3329 42.5578 26.0953C42.8139 25.8576 43.0936 25.6432 43.3753 25.4362C43.441 25.3879 43.5196 25.3376 43.6019 25.2851C43.8051 25.1552 44.03 25.0115 44.1344 24.8491C43.5386 24.4491 42.7471 25.0927 42.2385 25.5064C42.1785 25.5552 42.1224 25.6008 42.0711 25.6411C41.9538 25.7336 41.8095 25.877 41.6498 26.0357L41.6497 26.0359L41.6496 26.0359C41.2386 26.4445 40.7256 26.9544 40.3081 26.9597C40.3123 26.8265 40.4238 26.6585 40.5246 26.5065C40.5931 26.4034 40.6566 26.3076 40.6783 26.2352C40.6971 26.1745 40.7018 26.1021 40.6854 26.009C40.6017 26.044 40.5223 26.0836 40.4478 26.1304C39.8692 26.4959 39.6378 27.2087 39.4063 27.9216ZM49.1524 9.70535H52.9808H63.7044V13.2928H63.0565V13.4485H52.9808V27.463H60.4124V31.0505H59.6285V31.092H52.9808V42.3859H52.481V42.7676H48.464V31.1761L46.0953 31.1806L46.1 27.6816L47.3424 27.6805V27.463H48.4126L48.4057 9.7259L49.1524 9.73018V9.70535ZM16.7887 39.9186V43.562C7.42677 43.0424 0 35.5204 0 26.3143C0 17.1104 7.42677 9.5884 16.7887 9.06903V12.7961C9.41093 13.686 3.71666 19.4167 3.71666 26.3586C3.71666 33.298 9.41093 39.0287 16.7887 39.9186Z" fill="#3692C1"/>
</g>
</svg>
