<svg width="26" height="26" viewBox="0 0 26 26" fill="none" xmlns="http://www.w3.org/2000/svg">
<g clip-path="url(#clip0)">
<path d="M25.6363 19.2273C25.6363 19.9827 25.3362 20.7072 24.802 21.2414C24.2678 21.7756 23.5433 22.0757 22.7878 22.0757H2.84848C2.09302 22.0757 1.36849 21.7756 0.834301 21.2414C0.300107 20.7072 0 19.9827 0 19.2273V6.40909C0 5.65362 0.300107 4.9291 0.834301 4.39491C1.36849 3.86071 2.09302 3.56061 2.84848 3.56061H22.7878C23.5433 3.56061 24.2678 3.86071 24.802 4.39491C25.3362 4.9291 25.6363 5.65362 25.6363 6.40909V19.2273Z" fill="#C60A1D"/>
<path d="M0 8.54547H25.6363V17.0909H0V8.54547Z" fill="#FFC400"/>
<path d="M6.40906 12.106V14.2424C6.40906 14.809 6.63414 15.3524 7.03478 15.753C7.43543 16.1537 7.97882 16.3787 8.54542 16.3787C9.11202 16.3787 9.65541 16.1537 10.0561 15.753C10.4567 15.3524 10.6818 14.809 10.6818 14.2424V12.106H6.40906Z" fill="#EA596E"/>
<path d="M8.54553 11.3939H10.6819V13.5303H8.54553V11.3939Z" fill="#F4A2B2"/>
<path d="M6.40906 11.3939H8.54542V13.5303H6.40906V11.3939Z" fill="#DD2E44"/>
<path d="M8.54542 11.3939C9.7253 11.3939 10.6818 10.9157 10.6818 10.3257C10.6818 9.73581 9.7253 9.25757 8.54542 9.25757C7.36554 9.25757 6.40906 9.73581 6.40906 10.3257C6.40906 10.9157 7.36554 11.3939 8.54542 11.3939Z" fill="#EA596E"/>
<path d="M8.54542 10.3257C9.7253 10.3257 10.6818 10.0866 10.6818 9.79166C10.6818 9.49669 9.7253 9.25757 8.54542 9.25757C7.36554 9.25757 6.40906 9.49669 6.40906 9.79166C6.40906 10.0866 7.36554 10.3257 8.54542 10.3257Z" fill="#FFAC33"/>
<path d="M4.98486 11.3939H5.69698V16.3788H4.98486V11.3939ZM11.3939 11.3939H12.1061V16.3788H11.3939V11.3939Z" fill="#99AAB5"/>
<path d="M4.27271 15.6667H6.40907V16.3788H4.27271V15.6667ZM10.6818 15.6667H12.8181V16.3788H10.6818V15.6667ZM4.98483 10.6818H5.69695V11.3939H4.98483V10.6818ZM11.3939 10.6818H12.106V11.3939H11.3939V10.6818Z" fill="#66757F"/>
</g>
<defs>
<clipPath id="clip0">
<rect width="25.6363" height="25.6363" fill="white"/>
</clipPath>
</defs>
</svg>
