<svg width="26" height="26" viewBox="0 0 26 26" fill="none" xmlns="http://www.w3.org/2000/svg">
<g clip-path="url(#clip0)">
<path d="M25.2411 4.98485C24.7476 4.13671 23.8396 3.56061 22.7878 3.56061H12.8182V4.98485H25.2411ZM0 17.803H25.6363V19.2273H0V17.803ZM12.8182 12.1061H25.6363V13.5303H12.8182V12.1061ZM12.8182 9.25757H25.6363V10.6818H12.8182V9.25757ZM0 14.9545H25.6363V16.3788H0V14.9545ZM2.84848 22.0757H22.7878C23.8396 22.0757 24.7476 21.4996 25.2411 20.6515H0.395227C0.888726 21.4996 1.79668 22.0757 2.84848 22.0757ZM12.8182 6.40909H25.6363V7.83333H12.8182V6.40909Z" fill="#B22334"/>
<path d="M0.0484242 19.7108C0.0605302 19.777 0.0740605 19.8432 0.0904393 19.908C0.108954 19.9799 0.131742 20.049 0.155954 20.1188C0.219333 20.3033 0.296242 20.4813 0.39309 20.6479L0.395227 20.6515H25.2411L25.2425 20.6486C25.3381 20.4807 25.4173 20.304 25.4789 20.1209C25.5259 19.9873 25.562 19.8501 25.5872 19.7108C25.6164 19.5541 25.6363 19.3932 25.6363 19.2272H0C0 19.3932 0.0199394 19.5534 0.0484242 19.7108ZM0 16.3788H25.6363V17.803H0V16.3788ZM0 13.5303V14.9545H25.6363V13.5303H12.8182H0ZM12.8182 10.6818H25.6363V12.106H12.8182V10.6818ZM12.8182 7.83331H25.6363V9.25755H12.8182V7.83331ZM0.395227 4.98483L0.39309 4.98839L0.395227 4.98483ZM0.0911514 5.72829C0.108954 5.65565 0.133879 5.58657 0.156666 5.51679C0.131937 5.58636 0.11008 5.65692 0.0911514 5.72829ZM12.8182 6.40907H25.6363C25.6363 6.24315 25.6164 6.08221 25.5872 5.92483C25.5623 5.78533 25.5258 5.64814 25.4782 5.51465C25.4165 5.33079 25.3371 5.15335 25.2411 4.98483H12.8182V6.40907Z" fill="#EEEEEE"/>
<path d="M12.8182 3.56061H2.84848C2.09302 3.56061 1.36849 3.86071 0.834301 4.39491C0.300107 4.9291 0 5.65362 0 6.40909L0 13.5303H12.8182V3.56061Z" fill="#3C3B6E"/>
<path d="M1.42493 5.50183L1.86502 5.82157L1.69696 6.33786L2.13633 6.01883L2.57643 6.33786L2.40836 5.82157L2.84846 5.50183H2.3044L2.13633 4.98483L1.96899 5.50183H1.42493ZM2.84917 6.92607L3.28926 7.24581L3.1212 7.7621L3.56058 7.44307L4.00067 7.7621L3.83261 7.24581L4.2727 6.92607H3.72864L3.56058 6.40907L3.39323 6.92607H2.84917ZM5.69765 6.92607L6.13774 7.24581L5.96968 7.7621L6.40906 7.44307L6.84915 7.7621L6.68109 7.24581L7.12118 6.92607H6.57712L6.40906 6.40907L6.24171 6.92607H5.69765ZM8.54613 6.92607L8.98622 7.24581L8.81816 7.7621L9.25754 7.44307L9.69763 7.7621L9.52957 7.24581L9.96966 6.92607H9.4256L9.25754 6.40907L9.09019 6.92607H8.54613ZM2.84917 9.77455L3.28926 10.0943L3.1212 10.6106L3.56058 10.2916L4.00067 10.6106L3.83261 10.0943L4.2727 9.77455H3.72864L3.56058 9.25755L3.39323 9.77455H2.84917ZM5.69765 9.77455L6.13774 10.0943L5.96968 10.6106L6.40906 10.2916L6.84915 10.6106L6.68109 10.0943L7.12118 9.77455H6.57712L6.40906 9.25755L6.24171 9.77455H5.69765ZM8.54613 9.77455L8.98622 10.0943L8.81816 10.6106L9.25754 10.2916L9.69763 10.6106L9.52957 10.0943L9.96966 9.77455H9.4256L9.25754 9.25755L9.09019 9.77455H8.54613ZM4.27341 5.50183L4.7135 5.82157L4.54544 6.33786L4.98482 6.01883L5.42491 6.33786L5.25685 5.82157L5.69694 5.50183H5.15288L4.98482 4.98483L4.81747 5.50183H4.27341ZM7.12189 5.50183L7.56198 5.82157L7.39392 6.33786L7.8333 6.01883L8.27339 6.33786L8.10533 5.82157L8.54542 5.50183H8.00136L7.8333 4.98483L7.66595 5.50183H7.12189ZM9.97037 5.50183L10.4105 5.82157L10.2424 6.33786L10.6818 6.01883L11.1219 6.33786L10.9538 5.82157L11.3939 5.50183H10.8498L10.6818 4.98483L10.5144 5.50183H9.97037ZM1.42493 8.35031L1.86502 8.67005L1.69696 9.18634L2.13633 8.86731L2.57643 9.18634L2.40836 8.67005L2.84846 8.35031H2.3044L2.13633 7.83331L1.96899 8.35031H1.42493ZM4.54544 9.18634L4.98482 8.86731L5.42491 9.18634L5.25685 8.67005L5.69694 8.35031H5.15288L4.98482 7.83331L4.81747 8.35031H4.27341L4.7135 8.67005L4.54544 9.18634ZM7.12189 8.35031L7.56198 8.67005L7.39392 9.18634L7.8333 8.86731L8.27339 9.18634L8.10533 8.67005L8.54542 8.35031H8.00136L7.8333 7.83331L7.66595 8.35031H7.12189ZM9.97037 8.35031L10.4105 8.67005L10.2424 9.18634L10.6818 8.86731L11.1219 9.18634L10.9538 8.67005L11.3939 8.35031H10.8498L10.6818 7.83331L10.5144 8.35031H9.97037ZM1.42493 11.1988L1.86502 11.5185L1.69696 12.0348L2.13633 11.7158L2.57643 12.0348L2.40836 11.5185L2.84846 11.1988H2.3044L2.13633 10.6818L1.96899 11.1988H1.42493ZM4.54544 12.0348L4.98482 11.7158L5.42491 12.0348L5.25685 11.5185L5.69694 11.1988H5.15288L4.98482 10.6818L4.81747 11.1988H4.27341L4.7135 11.5185L4.54544 12.0348ZM7.12189 11.1988L7.56198 11.5185L7.39392 12.0348L7.8333 11.7158L8.27339 12.0348L8.10533 11.5185L8.54542 11.1988H8.00136L7.8333 10.6818L7.66595 11.1988H7.12189ZM9.97037 11.1988L10.4105 11.5185L10.2424 12.0348L10.6818 11.7158L11.1219 12.0348L10.9538 11.5185L11.3939 11.1988H10.8498L10.6818 10.6818L10.5144 11.1988H9.97037Z" fill="white"/>
</g>
<defs>
<clipPath id="clip0">
<rect width="25.6363" height="25.6363" fill="white"/>
</clipPath>
</defs>
</svg>
